<svg xmlns="http://www.w3.org/2000/svg" xmlns:xlink="http://www.w3.org/1999/xlink" width="400" height="277" viewBox="0 0 400 277">
  <defs>
    <clipPath id="clip-path">
      <rect id="Rectángulo_417828" data-name="Rectángulo 417828" width="400" height="277" transform="translate(1019.542 2503)" fill="#fff" stroke="#707070" stroke-width="1"/>
    </clipPath>
    <clipPath id="clip-path-2">
      <path id="Trazado_1050222" data-name="Trazado 1050222" d="M366.41,392.989H50.316a18.2,18.2,0,0,1-18.2-18.2c0-2.807.753-5.568.591-8.384a6.071,6.071,0,0,0-1.115-3.848c-1.3-1.422-3.373-2.286-5.1-3.068-.129-.058-.365-.109-.337-.249a10.722,10.722,0,0,1,.44-1.935,2.17,2.17,0,0,1,1.39-1.256,6.9,6.9,0,0,1,2.523-.238c3.884.156,7.742.774,11.616.774H373.6c2.641,0,6.754-.809,9.247.067,2.57.9.874,2.581.458,4.832-.787,4.245,1.221,8.241,1.308,12.478C384.819,384.188,376.817,392.989,366.41,392.989Z" transform="translate(-26.152 -355.796)"/>
    </clipPath>
    <clipPath id="clip-path-3">
      <circle id="Elipse_11584" data-name="Elipse 11584" cx="9.779" cy="9.779" r="9.779" transform="matrix(0.16, -0.987, 0.987, 0.16, 0, 19.308)"/>
    </clipPath>
    <clipPath id="clip-path-4">
      <path id="Trazado_1050223" data-name="Trazado 1050223" d="M236.472,238.347s-53.55-10.662-94.232-1.481c-18.93,4.272-63.407,26.407-82.576,36.211a18.167,18.167,0,0,0-9.842,14.756l-4,32.57a5.226,5.226,0,0,0,5.173,5.863l195.05.5,6.744-12.874c5.277-10.073,6.031-24.579,2.744-35.465l-5.03-15.878C244.237,244.306,239.417,238.731,236.472,238.347Z" transform="translate(-45.777 -233.137)"/>
    </clipPath>
    <clipPath id="clip-path-12">
      <path id="Trazado_1050231" data-name="Trazado 1050231" d="M291.216,343.527a2.132,2.132,0,0,0,2.119-2.415,31.7,31.7,0,0,0-62.967,2.415Z" transform="translate(-230.369 -314.091)"/>
    </clipPath>
    <clipPath id="clip-path-13">
      <path id="Trazado_1050232" data-name="Trazado 1050232" d="M111.6,343.527a31.7,31.7,0,0,0-63-2.211,1.957,1.957,0,0,0,1.941,2.211Z" transform="translate(-48.59 -314.091)"/>
    </clipPath>
    <clipPath id="clip-path-14">
      <path id="Trazado_1050233" data-name="Trazado 1050233" d="M118.248,281.376l101.5-5.772-1.1-24.11a8.575,8.575,0,0,0-8.382-8.1,221.254,221.254,0,0,0-44.045,2.939C148.9,249.422,127,261.481,114.344,270.927a2.042,2.042,0,0,0-.712,2.287c.7,2.089,1.783,4.8,2.583,6.858A2.052,2.052,0,0,0,118.248,281.376Z" transform="translate(-113.526 -243.286)"/>
    </clipPath>
  </defs>
  <g id="Enmascarar_grupo_1098881" data-name="Enmascarar grupo 1098881" transform="translate(-1019.542 -2503)" clip-path="url(#clip-path)">
    <g id="Grupo_1208196" data-name="Grupo 1208196" transform="translate(6)">
      <circle id="Elipse_11585" data-name="Elipse 11585" cx="173" cy="173" r="173" transform="translate(1039.542 2573)" fill="#fffcf9"/>
      <g id="OBJECTS" transform="translate(1006.796 2449.727)">
        <g id="XMLID_64_" transform="translate(41.478 64.486)">
          <path id="XMLID_83_" d="M399.14,137.155l-.062.059c-1.215,1.161-1.165,2.2-1.86,3.544-1.493,2.889-5.635,2.232-8.282,2.624a4.669,4.669,0,0,0-4.219,4.218c-.087,2.392,2.789,3.824,4.758,4.29a32.6,32.6,0,0,0,8.445.559,3.393,3.393,0,0,1,1.54.193,4.035,4.035,0,0,1,1.376,1.437c2.275,3.116,7.193,4.553,10.08,1.994a36.073,36.073,0,0,0,2.727-3.465c2.484-2.818,15.065-.566,14.912-5.6-.121-3.993-5.726-1.876-7.746-3.343-1.155-.839-1.238-2.527-2.041-3.707a3.508,3.508,0,0,0-3.245-1.479c-1.3.154-2.61,1.035-3.81.517-.818-.354-1.242-1.234-1.785-1.941a6.714,6.714,0,0,0-6.968-2.1A9.054,9.054,0,0,0,399.14,137.155Z" transform="translate(-111.071 -77.642)" fill="#94e2ff"/>
          <path id="XMLID_79_" d="M162.13,103.059c.39.062.783.106,1.169.147l6.24.666a11.227,11.227,0,0,1,4.2,1.01,3.826,3.826,0,0,1,2.178,3.484c-.176,1.929-2.2,3.1-4.035,3.7-6.337,2.085-13.2,1.387-19.861,1.664-1.386.058-3.23.172-4.349,1.108-.87.727-.853,1.774-1.387,2.7-1.16,2.02-3.753,3.512-5.79,4.479-4.429,2.1-10.436,2.754-13.882-1.451a9.93,9.93,0,0,0-1.669-1.9,4.814,4.814,0,0,0-3.351-.808c-1.865.23-3.724,1.145-5.685.7a5.2,5.2,0,0,1-3.677-3.792c-.269-.97-.4-2.07-1.394-2.712-1.993-1.288-5.7-.937-8.049-1.913s-4.984-3.835-1.937-6.023a7.709,7.709,0,0,1,4.031-1.048l5.709-.406a4.521,4.521,0,0,0,3.05-1,12.428,12.428,0,0,0,1.113-1.846,5.816,5.816,0,0,1,3.492-2.1c3.848-1.014,7.429.05,11.277-.122a6.124,6.124,0,0,0,4.434-1.863c.43-.5.739-1.1,1.152-1.618a7.766,7.766,0,0,1,4.38-2.41,17.519,17.519,0,0,1,11.935,1.535,15.061,15.061,0,0,1,4.731,3.71c1.229,1.469,1.615,3.6,3.025,4.9A5.5,5.5,0,0,0,162.13,103.059Z" transform="translate(-57.64 -69.503)" fill="#94e2ff"/>
          <path id="XMLID_80_" d="M346.142,97.031q.165-.216.334-.426c4.647-5.762,14.445-3.213,20.905-4.292a10.128,10.128,0,0,0,5.048-2.06c3.975-3.447,1.823-7.645-1.988-9.874-4.827-2.823-10.518-3-15.957-2.995-3.452,0-7.59-.29-9.943-3.208-2.629-3.261-4.841-6.522-8.853-8.423a14.313,14.313,0,0,0-16.136,3.079c-1.237,1.324-2.278,2.939-3.921,3.7-1.835.852-3.97.441-5.978.193-2.957-.365-6.089-.3-8.738,1.057-3.369,1.733-4.106,4.865-4.858,8.258a3.341,3.341,0,0,1-1.074,2.138,3.305,3.305,0,0,1-1.382.444l-3.473.569a14.375,14.375,0,0,0-3.638.929,4.832,4.832,0,0,0-2.619,2.567c-1.045,2.8.8,4.468,3.243,5.256a41.521,41.521,0,0,0,14.379,1.672c2.083-.082,4.544-.1,5.778,1.578a11.014,11.014,0,0,1,1.128,3.026,8.016,8.016,0,0,0,7.376,5.081c4.3-.021,6.666-3.631,10.579-4.288,1.947-.327,3.881.468,5.761,1.072,3.286,1.056,7.128,1.484,9.985-.454C343.8,100.482,344.888,98.667,346.142,97.031Z" transform="translate(-92.125 -64.486)" fill="#94e2ff"/>
          <path id="XMLID_81_" d="M56.384,204.966l-3.984-.981c-4.653-1.146-6.184-6.135-1.816-8.838a9.392,9.392,0,0,1,4.575-.959,15.793,15.793,0,0,0,6.158-1.081c4.775-2.269,6.1-10.011,13.025-8.263a8.932,8.932,0,0,1,5.03,3.8c1.029,1.42,1.966,4.265,4.34,4.038a7.159,7.159,0,0,0,2.661-1.293c3.063-1.71,7.722.02,8.575,3.184.28,1.041.213,2.18.79,3.116.989,1.6,3.332,1.906,5.33,2.224s4.349,1.228,4.515,3.057c.177,1.942-2.243,3.178-4.334,3.644a27.427,27.427,0,0,1-9.176.46c-2.587-.308-5.286-.975-7.737-.167-3.008.991-4.69,3.884-7.355,5.487-3.423,2.059-7.766,1.266-11.113-.52-3.139-1.675-3.33-5.4-7.055-6.313Q57.6,205.266,56.384,204.966Z" transform="translate(-47.995 -86.984)" fill="#94e2ff"/>
          <path id="XMLID_82_" d="M208.8,159.763c2.831.057,5.666.177,7.831-1.362,1.438-1.022,1.956-2.653,2.83-4.051a11.893,11.893,0,0,1,8.144-5.068,9.178,9.178,0,0,1,3.724.081c4.4,1.135,4.422,7.286,9.442,6.742.936-.1,1.829-.456,2.76-.6a6.33,6.33,0,0,1,6.1,2.7c.845,1.278,1.225,2.879,2.335,3.935,1.823,1.734,4.707,1.3,7.223,1.318,3.978.033,5.75,4.02,2.076,6.111-3.5,1.989-8.453,1.77-12.209.76-1.485-.4-3.515-1-4.53.375-.682.921-.475,2.319-1.191,3.348A9.448,9.448,0,0,1,235,177.7c-4.337-.342-5.215-2.926-7.885-5.5a3.187,3.187,0,0,0-2.861-.951,7.532,7.532,0,0,0-2.327,1.461,6.553,6.553,0,0,1-8.834-1.63c-.462-.683-.79-1.455-1.313-2.09-2.156-2.618-6.353-1.833-9.446-3.223A3.3,3.3,0,0,1,200.7,164.4c-.714-1.349.259-3.095,1.633-3.761C204.248,159.713,206.52,159.718,208.8,159.763Z" transform="translate(-76.555 -80.342)" fill="#94e2ff"/>
        </g>
        <g id="XMLID_93_" transform="translate(83.931 117.225)">
          <g id="XMLID_70_" transform="translate(152.978 22.405)">
            <g id="XMLID_54_" transform="translate(0)">
              <path id="XMLID_96_" d="M290.564,237.254a29.54,29.54,0,0,1,1.516-2.809c2.193-3.6,5.636-6.746,6.332-11.079.845-5.267-2.8-10.107-4.085-15.284a18.022,18.022,0,0,1,4.558-16.673c1.755-1.783,3.917-3.227,5.2-5.374,2.188-3.655,1.295-8.273.662-12.486a23.215,23.215,0,0,1,.056-9.347c.8-3.034,2.87-5.89,5.846-6.885,4.031-1.347,8.607,1.182,10.7,4.882s2.159,8.218,1.516,12.419c-.31,2.024-.744,4.223.246,6.015.75,1.356,2.164,2.178,3.4,3.108a18.274,18.274,0,0,1,5.087,22.307c-1.059,2.037-2.51,3.861-3.457,5.953-1.967,4.344.376,9.739,2.991,13.392,1.886,2.636,4.223,4.958,5.813,7.783,4.3,7.642,3.285,22.6-1.838,29.662-3.865,5.33-10.939,7.646-17.27,7.563-12.313-.162-27.067-8.81-29.157-21.811A19.268,19.268,0,0,1,290.564,237.254Z" transform="translate(-288.472 -156.951)" fill="#54a860"/>
            </g>
            <g id="XMLID_58_" transform="translate(24.196 40.104)">
              <path id="XMLID_101_" d="M319.989,306.515h-1.743V207.17a.871.871,0,0,1,.871-.871h0a.871.871,0,0,1,.871.871v99.345Z" transform="translate(-318.246 -206.299)" fill="#2b615b"/>
            </g>
            <g id="XMLID_57_" transform="translate(16.565 45.398)">
              <path id="XMLID_100_" d="M316.479,223.468l-7.43-9.237a.871.871,0,0,1,.132-1.225h0a.871.871,0,0,1,1.225.132l6.045,7.514a.871.871,0,0,0,1.369-.014l5.1-6.6a.871.871,0,0,1,1.222-.157h0a.871.871,0,0,1,.157,1.221l-6.447,8.347A.87.87,0,0,1,316.479,223.468Z" transform="translate(-308.856 -212.813)" fill="#2b615b"/>
            </g>
            <g id="XMLID_60_" transform="translate(16.466 65.616)">
              <path id="XMLID_98_" d="M317.031,252.7l-8.174-13.691a.871.871,0,0,1,.3-1.195h0a.87.87,0,0,1,1.195.3l6.886,11.532,7.339-9.191a.872.872,0,0,1,1.225-.137h0a.872.872,0,0,1,.137,1.225Z" transform="translate(-308.734 -237.691)" fill="#2b615b"/>
            </g>
          </g>
          <g id="XMLID_68_" transform="translate(55.765)">
            <g id="XMLID_53_">
              <path id="XMLID_7_" d="M224.55,204.717c6.976,10.928,11.98,28.34,4.968,40.388-7.159,12.3-28.022,17.976-40.913,13.283-11.565-4.21-20.079-16.072-19.744-28.375.171-6.3,2.91-12.1,6.6-17.113,3.411-4.636,8.381-7.454,7.686-14.217-.4-3.913-3.208-7.1-4.755-10.718a17.732,17.732,0,0,1,3.443-18.806c2.141-2.223,4.943-3.969,6.2-6.787,1.527-3.423.342-7.359-.215-11.065a22.82,22.82,0,0,1,1.811-13.712c2.8-5.5,10.753-11.108,16.632-6.523a13.093,13.093,0,0,1,3.668,5.234c3.646,8.336,3.567,17.8,2.789,26.861a5.316,5.316,0,0,0,.293,2.921c.67,1.29,2.228,1.77,3.573,2.321,8.1,3.321,12.141,14.082,8.223,21.914-1.176,2.35-2.973,4.54-3.11,7.165S223.132,202.494,224.55,204.717Z" transform="translate(-168.852 -129.381)" fill="#54a860"/>
            </g>
            <g id="XMLID_63_" transform="translate(30.211 61.637)">
              <path id="XMLID_95_" d="M206.9,281.913h0a.871.871,0,0,1-.872-.871V206.1a.871.871,0,0,1,.871-.871h0a.871.871,0,0,1,.871.871v74.945A.871.871,0,0,1,206.9,281.913Z" transform="translate(-206.027 -205.226)" fill="#2b615b"/>
            </g>
            <g id="XMLID_62_" transform="translate(23.419 62.766)">
              <path id="XMLID_73_" d="M204.35,215.915l-6.482-7.874a.871.871,0,0,1,.119-1.226h0a.871.871,0,0,1,1.226.119l5.136,6.24a.871.871,0,0,0,1.345,0l5.136-6.24a.871.871,0,0,1,1.226-.119h0a.871.871,0,0,1,.119,1.226l-6.482,7.874A.871.871,0,0,1,204.35,215.915Z" transform="translate(-197.67 -206.615)" fill="#2b615b"/>
            </g>
            <g id="XMLID_61_" transform="translate(23.42 81.341)">
              <path id="XMLID_8_" d="M205.023,239.587l-7.154-8.691a.871.871,0,0,1,.119-1.226h0a.872.872,0,0,1,1.227.119l5.809,7.056,5.809-7.056a.872.872,0,0,1,1.227-.119h0a.871.871,0,0,1,.119,1.226Z" transform="translate(-197.671 -229.471)" fill="#2b615b"/>
            </g>
          </g>
          <g id="XMLID_59_" transform="translate(0 27.47)">
            <g id="XMLID_56_">
              <path id="XMLID_4_" d="M111.558,259.927a8.257,8.257,0,0,1-.991-.6c-4.821-3.384-8.036-9.514-9.5-15.082a25.115,25.115,0,0,1,4.014-21.3c1.661-2.245,3.787-4.465,3.894-7.255.1-2.566-1.554-4.813-2.686-7.119-1.526-3.108-2.151-6.826-.892-10.05,1.43-3.663,4.835-5.933,7.213-8.915,3.14-3.938,1.182-7.594.977-12.255a16.41,16.41,0,0,1,1.266-7.056,12.175,12.175,0,0,1,5.086-6.015,8.076,8.076,0,0,1,7.681-.233,9.92,9.92,0,0,1,3.991,4.813c1.543,3.473,1.414,6.391.857,10-.575,3.728-2.824,8.31-.983,11.969.842,1.674,2.431,2.82,3.694,4.2a13.266,13.266,0,0,1,2.3,13.917c-1.037,2.375-2.826,4.607-2.687,7.2.119,2.224,1.642,4.08,2.941,5.889,3.164,4.407,6.459,10.919,5.585,16.5-.887,5.658-4.251,11.55-8.084,15.711a20.373,20.373,0,0,1-5.594,4.445C125.066,261.033,116.548,262.482,111.558,259.927Z" transform="translate(-100.233 -163.184)" fill="#54a860"/>
            </g>
            <g id="XMLID_67_" transform="translate(19.746 50.724)">
              <path id="XMLID_5_" d="M125.4,311.873h0a.871.871,0,0,1-.872-.871V226.471a.871.871,0,0,1,.871-.871h0a.871.871,0,0,1,.871.871V311A.871.871,0,0,1,125.4,311.873Z" transform="translate(-124.531 -225.6)" fill="#2b615b"/>
            </g>
            <g id="XMLID_66_" transform="translate(12.132 52.468)">
              <path id="XMLID_9_" d="M122.685,238.068l-7.325-8.9a.871.871,0,0,1,.119-1.226h0a.872.872,0,0,1,1.227.119l5.979,7.264a.872.872,0,0,0,1.346,0l5.979-7.264a.872.872,0,0,1,1.227-.119h0a.871.871,0,0,1,.119,1.226l-7.325,8.9A.872.872,0,0,1,122.685,238.068Z" transform="translate(-115.162 -227.745)" fill="#2b615b"/>
            </g>
            <g id="XMLID_65_" transform="translate(12.132 73.266)">
              <path id="XMLID_10_" d="M122.686,263.662l-7.325-8.9a.872.872,0,0,1,.119-1.226h0a.871.871,0,0,1,1.226.119l5.98,7.265a.871.871,0,0,0,1.345,0l5.979-7.265a.871.871,0,0,1,1.226-.119h0a.871.871,0,0,1,.119,1.226l-7.325,8.9A.87.87,0,0,1,122.686,263.662Z" transform="translate(-115.162 -253.338)" fill="#2b615b"/>
            </g>
          </g>
        </g>
        <g id="XMLID_91_" transform="translate(13.204 272.347)">
          <path id="XMLID_39_" d="M366.253,385.326c-4.871.434-9.808.567-14.534.694-8.9.238-17.832,0-26.731,0H50.3a28,28,0,0,1-16.378-6.348,4.816,4.816,0,0,1-1.729-3.806c.137-1.658,1.408-3.056,1.563-4.712.163-1.746-.957-3.365-2.263-4.536a42.918,42.918,0,0,1-4-3.4c-1.153-1.321-1.855-3.27-1.076-4.841,1.039-2.1,3.888-2.323,6.227-2.262,13.029.344,26,.531,39.043.531H375a46.557,46.557,0,0,1,5.43,0c6.431.774,1.938,5.638.525,9.636a4.577,4.577,0,0,0-.378,2.037,5.668,5.668,0,0,0,1.614,2.7c1.582,1.916,2.661,4.469,2.064,6.881-.924,3.728-5.2,5.433-8.968,6.18A85.779,85.779,0,0,1,366.253,385.326Z" transform="translate(-15.617 -326.974)" fill="#b4b8c2"/>
          <g id="XMLID_52_" transform="translate(10.523 28.879)">
            <g id="Grupo_1208183" data-name="Grupo 1208183" clip-path="url(#clip-path-2)">
              <path id="XMLID_50_" d="M383.8,354l-356.4-.379c-8.627.228-14.162-5.341-14.162-13.438h0a14.76,14.76,0,0,1,14.857-14.661H383.8a14.76,14.76,0,0,1,14.857,14.661h0A13.582,13.582,0,0,1,383.8,354Z" transform="translate(-23.732 -350.124)" fill="#9595a3"/>
            </g>
          </g>
          <path id="XMLID_32_" d="M382.186,349.929a28.582,28.582,0,0,1-3.868,0c-7.019.133-14.054,0-21.074,0H70.355c-15.078,0-29.812-.01-44.868,0a20.308,20.308,0,0,1-6.2-1.022,10.017,10.017,0,0,1-5.614-5.083c-1.125-2.248-.1-5.064,1.605-6.729a13.111,13.111,0,0,1,6.667-3.057,73.025,73.025,0,0,0,7.291-1.443,5.2,5.2,0,0,0,2.873-1.72,16.091,16.091,0,0,0,1.314-3.382c1.311-3.258,4.821-5.1,8.247-5.867,10.152-2.277,21.135-1.018,31.5-1.018H344.714c2.21,0,9.823-.347,12.325,2.535a23.185,23.185,0,0,0,2.094,2.2c2.059,1.823,5.061,1.962,7.81,2.033q13.36.345,26.683,1.513a8.18,8.18,0,0,1,2.942.634,2.812,2.812,0,0,1,1.679,2.335c.016,1.471-1.469,2.495-2.866,2.955-2,.659-3.8.336-5.8.415-1.237.05-3.106.517-3.3,1.981-.243,1.837,2.273,2.6,3.471,4.014,1.414,1.67.753,4.4-.869,5.87C386.831,348.95,384.774,349.442,382.186,349.929Z" transform="translate(-13.204 -320.26)" fill="#6db046"/>
          <path id="XMLID_55_" d="M422.773,361.257H388.1c-1.547,0-1.633-2.018-1.633-3.51,0,0,1.752-5.488,5.355-5.488h27.23c3.6,0,5.829,5.8,5.829,5.8C424.881,359.555,424.321,361.257,422.773,361.257Z" transform="translate(-83.125 -326.254)" fill="#9595a3"/>
        </g>
        <path id="XMLID_49_" d="M248.115,381.716H59.939a1.416,1.416,0,0,1-1.416-1.416v-.2a1.416,1.416,0,0,1,1.416-1.416H248.115a1.416,1.416,0,0,1,1.416,1.416v.2A1.415,1.415,0,0,1,248.115,381.716Z" transform="translate(-8.489 -58.856)" fill="#9595a3"/>
        <g id="XMLID_94_" transform="translate(39.675 178.011)">
          <g id="XMLID_69_" transform="translate(205.11)">
            <path id="XMLID_38_" d="M424.091,328.184H387.507V207.633a3.454,3.454,0,0,1,3.454-3.454h29.676a3.454,3.454,0,0,1,3.454,3.454Z" transform="translate(-314.901 -204.179)" fill="#1d55ab"/>
            <path id="XMLID_43_" d="M419.345,240.311h-24.2a1.411,1.411,0,0,1-1.411-1.411V221.97a12.6,12.6,0,0,1,12.6-12.6h1.822a12.6,12.6,0,0,1,12.6,12.6V238.9A1.411,1.411,0,0,1,419.345,240.311Z" transform="translate(-316.068 -205.152)" fill="#2b76cc" stroke="#b8ddf4" stroke-miterlimit="10" stroke-width="2"/>
            <path id="XMLID_44_" d="M414.411,234.253a5.488,5.488,0,1,1-5.488-5.488A5.487,5.487,0,0,1,414.411,234.253Z" transform="translate(-317.885 -208.785)" fill="#040e10"/>
            <circle id="XMLID_48_" cx="9.779" cy="9.779" r="9.779" transform="matrix(0.16, -0.987, 0.987, 0.16, 81.24, 68.667)" fill="#3a7bc7"/>
            <path id="XMLID_46_" d="M298.165,314.665h68.384c6.3,0,11.4-4.643,11.4-10.371V244.375c0-5.728,5.1-10.371,11.4-10.371h0" transform="translate(-298.165 -209.766)" fill="none" stroke="#040e10" stroke-miterlimit="10" stroke-width="2"/>
            <path id="XMLID_45_" d="M414,220.261H403.37a1.968,1.968,0,0,1-1.968-1.968v-.284a1.968,1.968,0,0,1,1.968-1.968H414a1.968,1.968,0,0,1,1.968,1.968v.284A1.969,1.969,0,0,1,414,220.261Z" transform="translate(-317.504 -206.401)" fill="#d6a345"/>
            <g id="XMLID_78_" transform="translate(87.828 55.017)">
              <path id="XMLID_47_" d="M415.314,278.864h-9.076v-2.77a4.216,4.216,0,0,1,4.216-4.216h.644a4.216,4.216,0,0,1,4.216,4.216v2.77Z" transform="translate(-406.238 -271.878)" fill="#d6a345"/>
              <path id="XMLID_77_" d="M409.226,284.4h-.106a.738.738,0,0,1-.738-.738v-4.487a.738.738,0,0,1,.738-.738h.106a.738.738,0,0,1,.738.738v4.487A.738.738,0,0,1,409.226,284.4Z" transform="translate(-406.64 -273.107)" fill="#d6a345"/>
              <path id="XMLID_84_" d="M414.16,284.4h-.106a.738.738,0,0,1-.738-.738v-4.487a.738.738,0,0,1,.738-.738h.106a.738.738,0,0,1,.738.738v4.487A.738.738,0,0,1,414.16,284.4Z" transform="translate(-407.564 -273.107)" fill="#d6a345"/>
            </g>
            <g id="XMLID_89_" transform="translate(81.24 49.359)">
              <g id="XMLID_86_" clip-path="url(#clip-path-3)">
                <rect id="XMLID_87_" width="1" height="6" transform="translate(11.221 0.903)" fill="#d6a345"/>
              </g>
            </g>
          </g>
          <g id="XMLID_2_" transform="translate(0 23.534)">
            <path id="XMLID_3_" d="M236.472,238.347s-53.55-10.662-94.232-1.481c-18.93,4.272-63.407,26.407-82.576,36.211a18.167,18.167,0,0,0-9.842,14.756l-4,32.57a5.226,5.226,0,0,0,5.173,5.863l195.05.5,9.277-8.749c4.543-8.674,4.083-25.98,1.252-35.352C256.57,282.667,245.608,239.625,236.472,238.347Z" transform="translate(-45.777 -233.137)" fill="#1f72d1"/>
            <g id="XMLID_14_" transform="translate(58.457 40.57)">
              <path id="XMLID_34_" d="M135.008,337.284c-7.47,0-15.018-10.931-15.632-18.672l-1.668-28.995,105.181-6.558s-4.694,18.29-6.018,24.155-3.429,19.752-5.91,24.8c-2.352,4.788-2.744,3.588-4.644,4.106l-5.185.294-66.044.869Zm-16.391-46.875,1.8,28.2c.589,7.431,7.554,17.828,14.591,17.828h.074l66.173-1.469c1.5-.677,7.051.4,9.173-3.922,2.455-4.995,4.076-18.857,5.415-24.657l5.547-22.183Z" transform="translate(-117.708 -283.059)" fill="#5199e0"/>
            </g>
            <path id="XMLID_26_" d="M289.275,343.527a3.774,3.774,0,0,0,3.679-4.571,31.707,31.707,0,0,0-62.585,4.571Z" transform="translate(-80.355 -248.302)" fill="#0b448f"/>
            <path id="XMLID_11_" d="M211.943,353.075l-89.793.274c-2.406,0-2.388-2.569-2.388-6.753v-1.478H215.4l-.812,4.362C214.066,352.277,213.634,353.075,211.943,353.075Z" transform="translate(-59.636 -254.114)" fill="#0b448f"/>
            <rect id="XMLID_12_" width="90.476" height="4.221" transform="translate(62.499 91.003)" fill="#5199e0"/>
            <path id="XMLID_13_" d="M218.186,251.629l1.011,22.656c.09,2.019-.72,3.427-3.033,3.64L102.07,283.2c-5.16.384-5.126-4.931-3.578-6.219,11-9.153,41.218-28.447,63.671-32.539a231.009,231.009,0,0,1,47.008-3.207C214.007,241.393,217.9,245.245,218.186,251.629Z" transform="translate(-55.481 -234.633)" fill="#141014"/>
            <path id="XMLID_23_" d="M118.248,281.377l100.408-5.711a1.1,1.1,0,0,0,1.039-1.152l-1.05-23.02a8.575,8.575,0,0,0-8.382-8.1,221.253,221.253,0,0,0-44.045,2.939C148.9,249.424,127,261.483,114.344,270.928a2.041,2.041,0,0,0-.711,2.285c.7,2.089,1.783,4.8,2.583,6.86A2.053,2.053,0,0,0,118.248,281.377Z" transform="translate(-58.468 -235.039)" fill="#52b4ff"/>
            <path id="XMLID_15_" d="M234.145,297.587c0,2.324-2.394,4.209-5.347,4.209s-5.347-1.885-5.347-4.209,2.394-4.209,5.347-4.209S234.145,295.263,234.145,297.587Z" transform="translate(-79.06 -244.422)" fill="#141014"/>
            <path id="XMLID_16_" d="M233.982,299.575H223.225a.813.813,0,0,1-.813-.813v-.749a.813.813,0,0,1,.813-.813h10.757a.813.813,0,0,1,.813.813v.749A.812.812,0,0,1,233.982,299.575Z" transform="translate(-78.865 -245.138)" fill="#5199e0"/>
            <g id="XMLID_17_">
              <g id="Grupo_1208184" data-name="Grupo 1208184" clip-path="url(#clip-path-4)">
                <path id="XMLID_18_" d="M132.008,238.115l9.229,1.842a1.913,1.913,0,0,1,.548,3.564c-11.887,5.71-35.633,16.867-47.255,23.4-7.88,4.432-22.042-2.216-22.042-2.216Z" transform="translate(-50.781 -234.07)" fill="#52b4ff" stroke="#b8ddf4" stroke-miterlimit="10" stroke-width="2"/>
              </g>
              <g id="Grupo_1208185" data-name="Grupo 1208185" clip-path="url(#clip-path-4)">
                <path id="XMLID_30_" d="M288.608,244.9c-1.877-1.429-7.088-2.026-11.193-2.275-2.54-.154-3.649,1.216-2.674,3.414a125.623,125.623,0,0,1,9.8,35.515,3.4,3.4,0,0,0,4.4,2.692l10.892-3.091a3.183,3.183,0,0,0,2.348-3.774C300.331,269.8,294.938,249.722,288.608,244.9Z" transform="translate(-88.602 -234.913)" fill="#141014"/>
              </g>
              <g id="Grupo_1208186" data-name="Grupo 1208186" clip-path="url(#clip-path-4)">
                <path id="XMLID_19_" d="M290.692,248.234c-1.718-1.4-7.156-1.8-10.271-1.922a1.431,1.431,0,0,0-1.364,2c4.471,10.486,7.474,20.333,8.584,29.356a2.572,2.572,0,0,0,3.3,2.162l8.173-2.482a2.57,2.57,0,0,0,1.762-3.03C299.487,268.228,295.441,252.1,290.692,248.234Z" transform="translate(-89.454 -235.605)" fill="#52b4ff"/>
              </g>
              <g id="Grupo_1208187" data-name="Grupo 1208187" clip-path="url(#clip-path-4)">
                <path id="XMLID_102_" d="M292.307,271.822a1.358,1.358,0,0,0,.468,1.169c.554.36,1.256-.081,1.824-.42s1.5-.466,1.72.155a1.272,1.272,0,0,1-.319,1.08,11.726,11.726,0,0,0-2.4,5.525.927.927,0,0,0,.241.83.865.865,0,0,0,.481.134c1.9.1,3.582-1.307,4.618-2.908s1.638-3.451,2.679-5.048c1.4-2.157,3.175-3.985,2.478-6.8-.066-.264-.2-.566-.475-.6a.747.747,0,0,0-.463.157l-1.742,1.074a1.194,1.194,0,0,1-.323-1.194,4.412,4.412,0,0,1,.555-1.174,4.012,4.012,0,0,0,.666-2.266,1.787,1.787,0,0,0-1.436-1.68,2.416,2.416,0,0,0-1.838.913c-1.538,1.564-2.488,3.564-3.7,5.364C294.08,268,292.294,269.359,292.307,271.822Z" transform="translate(-91.958 -238.142)" fill="#3f9fe8"/>
              </g>
              <g id="Grupo_1208188" data-name="Grupo 1208188" clip-path="url(#clip-path-4)">
                <path id="XMLID_111_" d="M285.928,255.143c.18-.243.371-.477.557-.715l1.468-2.2Z" transform="translate(-90.763 -236.713)" fill="#3f9fe8"/>
              </g>
              <g id="Grupo_1208189" data-name="Grupo 1208189" clip-path="url(#clip-path-4)">
                <path id="XMLID_109_" d="M292.375,249.484a1.7,1.7,0,0,0-1.295-.537,2.132,2.132,0,0,0-1.1.631,32.753,32.753,0,0,0-3.968,4.253l-2.512,3.764c-.037.056-.074.116-.112.173.611,1.642,1.014,2.938,1.434,4.24.629-.757,1.125-1.506,1.712-2.3.486-.655,1.091-1.39,1.906-1.373-.44.551.294,1.4,1,1.328a2.663,2.663,0,0,0,1.65-1.227,12.1,12.1,0,0,0,2.393-4.332A4.779,4.779,0,0,0,292.375,249.484Z" transform="translate(-90.287 -236.097)" fill="#3f9fe8"/>
              </g>
              <g id="Grupo_1208190" data-name="Grupo 1208190" clip-path="url(#clip-path-4)">
                <path id="XMLID_20_" d="M54.363,296.295H50.142a7.106,7.106,0,0,1-7.106-7.106V287.85a7.106,7.106,0,0,1,7.106-7.106h4.221a7.106,7.106,0,0,1,7.106,7.106v1.339A7.106,7.106,0,0,1,54.363,296.295Z" transform="translate(-45.264 -242.055)" fill="#d6a345" stroke="#b8ddf4" stroke-miterlimit="10" stroke-width="2"/>
              </g>
              <g id="Grupo_1208191" data-name="Grupo 1208191" clip-path="url(#clip-path-4)">
                <path id="XMLID_99_" d="M132.008,238.115l9.229,1.842a1.913,1.913,0,0,1,.548,3.564c-11.887,5.71-35.633,16.867-47.255,23.4-7.88,4.432-22.042-2.216-22.042-2.216Z" transform="translate(-50.781 -234.07)" fill="#fff" opacity="0.25"/>
              </g>
            </g>
            <g id="XMLID_22_" transform="translate(150.014 65.789)">
              <g id="Grupo_1208192" data-name="Grupo 1208192" clip-path="url(#clip-path-12)">
                <path id="XMLID_24_" d="M289.774,345.839c-.98-13.815-12.532-26.726-26.649-26.726s-25.669,12.911-26.649,26.726Z" transform="translate(-231.513 -315.032)" fill="#141014"/>
              </g>
            </g>
            <circle id="XMLID_28_" cx="23.176" cy="23.176" r="23.176" transform="translate(148.846 97.095) rotate(-45)" fill="#3f3240"/>
            <circle id="XMLID_31_" cx="13.749" cy="13.749" r="13.749" transform="translate(167.684 83.346)" fill="#52b4ff"/>
            <circle id="XMLID_29_" cx="9.544" cy="9.544" r="9.544" transform="translate(171.888 87.551)" fill="#0b448f"/>
            <path id="XMLID_51_" d="M111.74,343.527a31.714,31.714,0,0,0-62.264-5.933,4.735,4.735,0,0,0,4.57,5.933H111.74Z" transform="translate(-46.441 -248.302)" fill="#0b448f"/>
            <g id="XMLID_40_" transform="translate(2.286 65.789)">
              <g id="Grupo_1208193" data-name="Grupo 1208193" clip-path="url(#clip-path-13)">
                <path id="XMLID_42_" d="M107.737,345.839c-.98-13.815-12.532-26.726-26.648-26.726s-25.67,12.911-26.65,26.726Z" transform="translate(-49.685 -315.032)" fill="#141014"/>
              </g>
            </g>
            <circle id="XMLID_36_" cx="23.176" cy="23.176" r="23.176" transform="translate(0.91 97.094) rotate(-45)" fill="#3f3240"/>
            <circle id="XMLID_33_" cx="13.749" cy="13.749" r="13.749" transform="translate(19.939 83.346)" fill="#52b4ff"/>
            <circle id="XMLID_71_" cx="9.544" cy="9.544" r="9.544" transform="translate(24.144 87.551)" fill="#0b448f"/>
            <g id="XMLID_85_" transform="translate(55.058 8.248)">
              <g id="Grupo_1208194" data-name="Grupo 1208194" clip-path="url(#clip-path-14)">
                <path id="XMLID_74_" d="M172.577,254.641a1.19,1.19,0,0,1-.277-.119c-1.564-.919.464-3.871-.925-5.039a1.886,1.886,0,0,0-1.139-.371c-2.756-.129-4.766,2.466-6.265,4.783l-6.027,9.314c-1.131,1.749-2.306,3.642-2.245,5.724a4.1,4.1,0,0,0,2.383,3.564c1.627.705,2.681-1.076,3.942-.52.74.327.662,1.445.2,2.113s-1.168,1.186-1.409,1.958c-.418,1.335.873,2.711,2.255,2.929,4.555.718,8.358-4.675,10.89-7.679,3.1-3.672,5.842-7.622,8.578-11.565q4.162-6,8.314-12c1.222-1.768,7.129-8.128,5.742-10.519a2.281,2.281,0,0,0-.838-.76c-2.854-1.722-6.657-1.212-9.486.551a20,20,0,0,0-6.464,7.49c-1.629,2.909-2.964,5.991-4.858,8.735C174.393,254.032,173.447,254.888,172.577,254.641Z" transform="translate(-121.426 -241.807)" fill="#fff" opacity="0.25"/>
              </g>
              <g id="Grupo_1208195" data-name="Grupo 1208195" clip-path="url(#clip-path-14)">
                <path id="XMLID_75_" d="M123.986,291.062a4.6,4.6,0,0,1-1.618-2.658c-.757-4.041,3.446-9.467,5.948-12.36a2.924,2.924,0,0,1,1.589-1.122c.653-.112,1.434.4,1.336,1.054-.076.506-.62.873-.617,1.386a.946.946,0,0,0,1.132.78,2.528,2.528,0,0,0,1.295-.826c1.847-1.858,3.06-4.225,4.881-6.08,1.325-1.349,3.735-1.979,5.039-.61a3.287,3.287,0,0,1,.613,3.069,9.525,9.525,0,0,1-1.505,2.883c-1.787,2.627-3.611,5.233-5.571,7.734-2.484,3.169-5.84,9.032-10.679,7.713A4.953,4.953,0,0,1,123.986,291.062Z" transform="translate(-115.165 -248.264)" fill="#fff" opacity="0.25"/>
              </g>
            </g>
            <path id="XMLID_90_" d="M201.36,292.68l-75.813,3.591a.776.776,0,0,0-.738.811l.006.112a.776.776,0,0,0,.811.738l75.813-3.591a.776.776,0,0,0,.738-.811l-.006-.112A.776.776,0,0,0,201.36,292.68Z" transform="translate(-60.581 -244.291)" fill="#1156a6"/>
          </g>
        </g>
        <g id="XMLID_1_" transform="translate(261.517 310.17)">
          <path id="XMLID_72_" d="M326.264,396.2c-2.5-.566-5.722-1.581-7.079-3.972a2.067,2.067,0,0,1-.361-1.664c.488-1.328,2.358-.929,2.609-2.712a4.917,4.917,0,0,0-.762-2.953,12.612,12.612,0,0,1-1.339-2.79,4.537,4.537,0,0,1,1.376-4.452,4.4,4.4,0,0,1,4.592-.688c1.405.635,2.389,1.993,3.81,2.592,5.815,2.451,6.6-5.263,8.228-8.567a7.662,7.662,0,0,1,8.364-4.014,7.188,7.188,0,0,1,5.351,7.451c-.129,1.211-.583,2.364-.791,3.564a4.162,4.162,0,0,0,.683,3.464c2.635,2.992,7.544.424,10.833.518,7.057.2,3.454,8.541-.338,10.948-2.957,1.876-6.624,2.269-10.123,2.1-2.216-.106-4.822-.518-6.961.253-2.527.911-4.34,2.147-7.17,2.282a37.044,37.044,0,0,1-8.2-.833C328.082,396.571,327.167,396.407,326.264,396.2Z" transform="translate(-318.754 -366.801)" fill="#3b8f47"/>
          <path id="XMLID_92_" d="M381.619,383.95a1.812,1.812,0,0,1,1.124-1.043c1.806-.527,3.553,1.827,5.343,1.251,1.667-.536,1.614-2.843,1.738-4.589a9.043,9.043,0,0,1,2.084-5.142,4.914,4.914,0,0,1,2.905-1.842c1.983-.294,3.859,1.312,4.531,3.2a11.717,11.717,0,0,1,.069,5.943,7.907,7.907,0,0,0-.159,3.057,2.511,2.511,0,0,0,2.012,2.062,4.9,4.9,0,0,0,2.19-.628,4.614,4.614,0,0,1,4,.064c4.887,2.861-3.4,7.364-5.784,8-6.883,1.829-13.286.54-19.763-1.946-.961-.369-2.1-1.29-1.592-2.187.55-.977,2.328-.4,2.964-1.327a1.641,1.641,0,0,0-.384-1.9,6.3,6.3,0,0,1-1.32-1.609A1.771,1.771,0,0,1,381.619,383.95Z" transform="translate(-330.263 -367.878)" fill="#6db046"/>
        </g>
      </g>
    </g>
  </g>
</svg>
