<svg xmlns="http://www.w3.org/2000/svg" xmlns:xlink="http://www.w3.org/1999/xlink" width="295" height="481.341" viewBox="0 0 295 481.341">
  <defs>
    <clipPath id="clip-path">
      <rect id="Rect치ngulo_417829" data-name="Rect치ngulo 417829" width="295" height="460" transform="translate(180 4598)" fill="#fff" stroke="#707070" stroke-width="1"/>
    </clipPath>
  </defs>
  <g id="Grupo_1208232" data-name="Grupo 1208232" transform="translate(-180 -4598)">
    <g id="Grupo_1208230" data-name="Grupo 1208230" transform="translate(-3.489 1834.333)">
      <rect id="Rect치ngulo_416878" data-name="Rect치ngulo 416878" width="247.978" height="423.289" rx="65" transform="translate(207 2800)" fill="#86b60c"/>
    </g>
    <g id="Enmascarar_grupo_1098882" data-name="Enmascarar grupo 1098882" clip-path="url(#clip-path)">
      <g id="Grupo_1208229" data-name="Grupo 1208229" transform="translate(-361.356 4387.302)">
        <path id="Trazado_1050257" data-name="Trazado 1050257" d="M894.571,242.062a1.546,1.546,0,0,0-1.138-.469,1.7,1.7,0,0,0-1.292-.848c-4.326-.531-9.4.382-11.994,4.31a8.652,8.652,0,0,0-.908,7.985c-5.284.937-10.526,3.8-11.072,9.821-.644,7.095,6.984,11.62,13.12,11.537a1.52,1.52,0,0,0,1.428-.921,8.928,8.928,0,0,0,7.234-3.528,59.262,59.262,0,0,0,5.935-10.5C898.541,253.821,899.409,246.769,894.571,242.062Z" transform="translate(-228.421 -20.724)" fill="#693c24"/>
        <path id="Trazado_1050258" data-name="Trazado 1050258" d="M1339.453,1552.178c5.082-19.022,5.02-46.22-6.778-63.211q-.488-7.285-1.688-14.521a2.105,2.105,0,0,0-1.853-1.83,2.848,2.848,0,0,0-1.488-1.1,58.7,58.7,0,0,0-17.839-3.191c-4.5-.091-11.16-.294-14.585,2.831a2.182,2.182,0,0,0-1.883,2.4q.728,8.423.968,16.867a2.373,2.373,0,0,0,.475,1.383c-1.362,10.407-2.384,20.906-.9,31.344.636,4.468,1.154,11.359,4.9,14.728,3.617,3.258,7.092,2.664,5.656,5.862-1.6,3.56-2.087,7.781.7,10.986a7.909,7.909,0,0,0,3.64,2.353,6.062,6.062,0,0,0,3.506,2.6,5.383,5.383,0,0,1,5.532,6.721c3.755,2.761,8-.1,11.287-3.622,1.2-1.288,5.075-1.29,6.781-2.994,1.922-1.921,2.776-4.663,3.472-7.222C1339.387,1552.427,1339.42,1552.3,1339.453,1552.178Z" transform="translate(-525.938 -880.099)" fill="#ffa58c"/>
        <path id="Trazado_1050259" data-name="Trazado 1050259" d="M1295.87,1461.181c-.467-1.614-2.255-2.143-3.99-1.92a4.8,4.8,0,0,0-1.392-.435c-9.042-1.446-18.1-.385-27.208.476-7.29.689-14.717,1.136-21.355,3.519-2.425-.645-5.649.261-5.36,2.644.36,2.969,1.087,10.6,1.837,13.565a1.813,1.813,0,0,0,2,1.057c7.214-.638,38.78-3.349,53.495-3.274a4.682,4.682,0,0,0,2.329-.527,2.532,2.532,0,0,0,1.862-2.484A57.863,57.863,0,0,0,1295.87,1461.181Z" transform="translate(-486.315 -872.982)" fill="#ffe5d4"/>
        <path id="Trazado_1050260" data-name="Trazado 1050260" d="M1160.323,764.382c.424,15.677.236,31.385,2.327,46.978.011.085.041.158.059.239a343.872,343.872,0,0,0,2.285,42.047c1.381,11.8,2.969,23.822,7.048,35.129a.817.817,0,0,0,.961.476c10.575-2.472,21.48-3.979,32.206-5.514a166.1,166.1,0,0,1,31.87-1.544c1.293.065,2.6.1,3.908.136a3.25,3.25,0,0,0,3.484-3.687q-.058-.3-.121-.593a2.59,2.59,0,0,0-.2-.59c-4.159-31.155-14.805-61.152-22.828-91.607a333.422,333.422,0,0,1-9.487-52.471c-1.681-17.081-2.716-34.246-5.881-51.173-3.346-17.892-5.97-43.877-29.872-55.731-11.787-2.878-13.971,12.035-17.785,20.655-4.9,11.071-5.461,23.81-5.319,35.594C1153.3,710.073,1159.582,737.031,1160.323,764.382Z" transform="translate(-427.802 -290.581)" fill="#b34530"/>
        <path id="Trazado_1050261" data-name="Trazado 1050261" d="M892.088,1118.935c2.568,5.233,7.529,8.217,12.167,11.126a77.793,77.793,0,0,1,16.19,13.5,1.573,1.573,0,0,0,2.578-.322c.292,35.366,2.078,89.409,5.105,126.338a1.753,1.753,0,0,0,1.294,1.576c6.99,1.771,14.164,2.264,21.349,2.843,21.681,1.748,45.542,2.252,64.659-2.974a1.617,1.617,0,0,0,1.3-1.659c-3.787-47.266-12.492-97.405-14.456-108.134-2.4-13.1-5.419-28.809-9.742-41.345-4.3-12.464-8.489-26.059-14.55-37.693.044-3.878-2.7-2.408-2.661-6.287.921-1.812.278-2.846-.637-3.135a1.728,1.728,0,0,0-2.109-1.864,207.565,207.565,0,0,1-79.688,5.587v-.172a1.7,1.7,0,1,0-3.4,0q.086,11.747.171,23.493C889.7,1106.141,889.237,1113.124,892.088,1118.935Z" transform="translate(-243.365 -601.886)" fill="#a0a5b9"/>
        <path id="Trazado_1050262" data-name="Trazado 1050262" d="M777.126,1252.35c3.234-28.923,4.635-58.541,7.125-86.924a55.847,55.847,0,0,0,5.306-6.018c5.635-7.488,10.517-15.676,15.668-23.535a1.546,1.546,0,0,0,.127-1.623,1.614,1.614,0,0,0,.313-1.134,361.2,361.2,0,0,0-4.731-40.961c-2.217-12.079-6.8-22.807-15.652-31.083-7.714-7.212-18.225-13.687-28.674-14.67-11.4-1.073-20.077,6.877-27.654,14.757-.657,0-5.369-11.031-5.535-10.134-1.25,6.773.909,16.483-.341,23.257a253.664,253.664,0,0,0-27.677,75.965c-5.772,29.347-6.332,60.22-9.114,90.013q-.585,6.261-1.126,12.527a1.042,1.042,0,0,0,.747,1.108l8.575,2.271a229.181,229.181,0,0,0,73.872-.179l7.392-1.981A1.916,1.916,0,0,0,777.126,1252.35Z" transform="translate(-100.34 -584.714)" fill="#a0a5b9"/>
        <g id="Grupo_1208200" data-name="Grupo 1208200" transform="translate(715.977 502.958)">
          <path id="Trazado_1050263" data-name="Trazado 1050263" d="M1122.385,1185.32c1.4,6.472,2.671,12.988,4.24,19.422,1.182,4.848,2.744,9.809,5.86,13.791,6.295,8.043,17.815,7.585,27,6.545,1.131-.128,1.144-1.918,0-1.789-8.961,1.015-20.4,1.637-26.2-6.664-2.822-4.043-4.154-8.936-5.248-13.682-1.386-6.014-2.623-12.066-3.927-18.1-.244-1.126-1.969-.649-1.726.476Z" transform="translate(-1122.362 -1184.201)" fill="#24191c"/>
        </g>
        <g id="Grupo_1208201" data-name="Grupo 1208201" transform="translate(602.116 505.577)">
          <path id="Trazado_1050264" data-name="Trazado 1050264" d="M783.409,1193.778c-.836,6.281-1.516,12.652-2.843,18.852-1.135,5.3-3.046,10.657-7.237,14.321-4.1,3.583-9.406,4.9-14.7,5.378a71.584,71.584,0,0,1-14.953-.007c-1.14-.139-1.13,1.651,0,1.789a71.327,71.327,0,0,0,16.421-.139c5.28-.594,10.434-2.193,14.5-5.755,4.255-3.73,6.364-9.157,7.575-14.551,1.465-6.526,2.149-13.265,3.029-19.888.152-1.137-1.639-1.128-1.788,0Z" transform="translate(-742.823 -1192.928)" fill="#24191c"/>
        </g>
        <g id="Grupo_1208202" data-name="Grupo 1208202" transform="translate(682.007 564.688)">
          <path id="Trazado_1050265" data-name="Trazado 1050265" d="M1028.875,1390.179c-3.778,3.006-7.573,5.993-11.334,9.02-3,2.413-5.531,5.034-6.3,8.934-.846,4.315-.8,8.9-1.1,13.28l-1.015,14.7c-.079,1.149,1.71,1.144,1.789,0l.918-13.3c.307-4.447.349-9.011,1-13.421.644-4.343,3.408-6.892,6.682-9.5q5.306-4.226,10.616-8.448c.9-.716-.371-1.976-1.265-1.265Z" transform="translate(-1009.128 -1389.968)" fill="#24191c"/>
        </g>
        <g id="Grupo_1208203" data-name="Grupo 1208203" transform="translate(594.167 505.749)">
          <path id="Trazado_1050266" data-name="Trazado 1050266" d="M732.02,1194.128c-12.275,40.442-15.858,82.947-15.69,125.045.049,12.169.408,24.335.941,36.492.05,1.147,1.84,1.153,1.789,0-1.858-42.421-1.541-85.257,6.385-127.111a325.311,325.311,0,0,1,8.3-33.95.9.9,0,0,0-1.725-.476Z" transform="translate(-716.324 -1193.501)" fill="#24191c"/>
        </g>
        <path id="Trazado_1050267" data-name="Trazado 1050267" d="M969.676,447.493c.052-1.511-2.243-.606-3.461-.509a2.3,2.3,0,0,0-1.843-.358q-11.056,2.265-22.228,3.905c-1.309-1.426-4.964-2.606-4.683-.313,1.359,11.073-.255,20.964-.447,32.112-.017.975,3.388,4.42,4.093,4.726a2.425,2.425,0,0,0,.205.252c3.4,3.429,8.243,3.463,12.8,2.7,4.19-.7,10.456-1.543,13.1-5.236.974-.158,2.831-2.456,2.766-3.694Q969.1,464.293,969.676,447.493Z" transform="translate(-276.64 -164.899)" fill="#cc694e"/>
        <path id="Trazado_1050268" data-name="Trazado 1050268" d="M937.164,536.7c-.078-.363-4.979.005-5.451.074-1.426.208-2.8.731-3.27,2.221-.49,1.57.256,3.055,1.023,4.393a2.81,2.81,0,0,0,1.558-1.07c.517-1.362,4.3.3,5.008-.974C936.25,540.945,942.576,534.885,937.164,536.7Z" transform="translate(-270.531 -227.753)" fill="#b34530"/>
        <path id="Trazado_1050269" data-name="Trazado 1050269" d="M951.8,279.193c-5.08-8.6-16.592-11.764-26.282-8.439-10.946,3.756-18.181,14.341-17.241,25.122a141.1,141.1,0,0,0,3.072,18.266c.726,3.264,1.668,6.424,2.593,9.631,1.649,5.72,3.036,9.108,8.966,11.624,6.438,2.731,14.934,2.7,20.957-.557,11.025-5.956,10.6-17.892,11.494-29C956.076,296.963,956.569,287.254,951.8,279.193Z" transform="translate(-256.471 -40.921)" fill="#ffa58c"/>
        <path id="Trazado_1050270" data-name="Trazado 1050270" d="M967.053,534.893c-1.362-1.487-1.275-2.072-1.382-3.907-.061-1.047-.113-2.1-.167-3.143-6.623,2.134-13.644,2.7-20.583,2.855a34.514,34.514,0,0,1-10.843-1.246c.049,1.111.093,2.222.122,3.334.072,2.753.833,5.878-1.534,7.774a22.083,22.083,0,0,1-1.984,1.389,31.792,31.792,0,0,0,2.738,1.639c.559.295,1.127.569,1.7.835.173.065.472.18.9.347,5.217,1.713,9.468,1.842,15.7,1.5a77.133,77.133,0,0,0,15.823-2.329,31.352,31.352,0,0,0,3.867-1.188c-.44.135,2.107-1.12,2.391-1.292.495-.3.975-.622,1.449-.954l.466-.39c.066-.062.129-.125.2-.188C971.49,537.7,968.007,535.933,967.053,534.893Z" transform="translate(-272.208 -221.791)" fill="#ffe5d4"/>
        <path id="Trazado_1050271" data-name="Trazado 1050271" d="M904.222,273.119a1.316,1.316,0,0,0-1.91-.2c-5.271,3.948-8.879,8.155-9.5,15a35.614,35.614,0,0,0,.951,10.478c.737,3.515,1.459,7.121,3.231,10.27.893,1.587,2.891.683,3.086-.847.4-3.143-.406-6.142-.691-9.262a46.974,46.974,0,0,1,.079-9.139.869.869,0,0,1,.471-.677,11.967,11.967,0,0,0,5.8-6.8C906.678,279.265,907.722,274.258,904.222,273.119Z" transform="translate(-245.634 -43.118)" fill="#693c24"/>
        <path id="Trazado_1050272" data-name="Trazado 1050272" d="M1064.526,330.639c-.408-1.891-4.3-.163-4.512,1.485a1.727,1.727,0,0,0-1.49,2.521c1.932,3.621,1.186,8.31,1.086,12.27a1.661,1.661,0,0,0,3.253.446C1064.244,342.223,1065.648,335.839,1064.526,330.639Z" transform="translate(-361.548 -83.17)" fill="#693c24"/>
        <path id="Trazado_1050273" data-name="Trazado 1050273" d="M1059.189,369.783c-2.31.123-3.856,3.2-4.346,5.122a1.776,1.776,0,0,0-.051.5,25.35,25.35,0,0,0-.9,4.182c-.249,1.828-.678,4.9,1.378,5.9,4.31,2.107,6.637-8.906,6.716-11.373C1062.042,372.4,1061.346,369.668,1059.189,369.783Z" transform="translate(-358.305 -111.146)" fill="#ffa58c"/>
        <path id="Trazado_1050274" data-name="Trazado 1050274" d="M896.866,377.447c2.383-.111,4.288,2.8,4.99,4.657a1.725,1.725,0,0,1,.1.493,24.752,24.752,0,0,1,1.355,4.07c.444,1.793,1.2,4.8-.8,6.011-4.205,2.532-7.732-8.191-8.069-10.637C894.208,380.339,894.642,377.55,896.866,377.447Z" transform="translate(-246.801 -116.511)" fill="#ffa58c"/>
        <path id="Trazado_1050275" data-name="Trazado 1050275" d="M1156.926,1143.139c-1.255-4.942-3.993-5.557-8.367-3.455-6.4,3.077-12.783,6.209-19.174,9.313a1.6,1.6,0,0,0-.766.723,1.5,1.5,0,0,0-1.3,1.686c.853,11.043,1.636,22.61,4.147,33.428.978,4.214,3.441,6.187,7.481,7.312,5.265,1.467,25.8,2.19,26.8.462C1167.888,1188.877,1159.836,1154.6,1156.926,1143.139Z" transform="translate(-409.852 -649.283)" fill="#ffe5d4"/>
        <path id="Trazado_1050276" data-name="Trazado 1050276" d="M1018.043,369.947c-3.716-.8-4.45,5.755-2.045,7.25,2.078,1.292,3.7-.861,4.024-2.532C1020.326,373.107,1020.11,370.394,1018.043,369.947Z" transform="translate(-330.956 -111.216)" fill="#240704"/>
        <path id="Trazado_1050277" data-name="Trazado 1050277" d="M943.231,377.712c.4,1.656,2.113,3.739,4.132,2.361,2.337-1.6,1.313-8.113-2.365-7.158C942.953,373.448,942.857,376.168,943.231,377.712Z" transform="translate(-280.873 -113.274)" fill="#240704"/>
        <path id="Trazado_1050278" data-name="Trazado 1050278" d="M983.443,426.008a2.232,2.232,0,0,0-.638.006,88.923,88.923,0,0,1-10.9.634c-.843,0-.868.173-.6.642.858,1.8,3.712,2.215,5.96,2.183a9.4,9.4,0,0,0,4.43-1.1C982.363,427.992,984.589,426.216,983.443,426.008Z" transform="translate(-300.535 -150.492)" fill="#fff"/>
        <g id="Grupo_1208204" data-name="Grupo 1208204" transform="translate(667.942 254.182)">
          <path id="Trazado_1050279" data-name="Trazado 1050279" d="M962.882,356.7c3.774.892,3,6,3.077,8.909a25.5,25.5,0,0,0,.218,3.787c.287,1.6,1.219,2.384,2.411,3.383.877.735,2.149-.524,1.265-1.265-.842-.706-1.646-1.2-1.906-2.338a8.665,8.665,0,0,1-.13-1.493c-.091-1.8-.092-3.6-.164-5.4-.125-3.135-.7-6.461-4.3-7.311-1.12-.265-1.6,1.46-.476,1.725Z" transform="translate(-962.242 -354.942)" fill="#cc694e"/>
        </g>
        <g id="Grupo_1208205" data-name="Grupo 1208205" transform="translate(676.801 268.885)">
          <path id="Trazado_1050280" data-name="Trazado 1050280" d="M993.112,406.024a2.114,2.114,0,0,1,1.469-.259.918.918,0,0,0,1.1-.625.9.9,0,0,0-.625-1.1,4.049,4.049,0,0,0-2.848.44.9.9,0,0,0,.9,1.545Z" transform="translate(-991.774 -403.953)" fill="#cc694e"/>
        </g>
        <path id="Trazado_1050281" data-name="Trazado 1050281" d="M1007.205,344.119c-1.631.516-3.026,1.409-3.01,2.943a2.2,2.2,0,0,0,2.011,2.128,12.021,12.021,0,0,0,3.749-.5,8.3,8.3,0,0,1,3.925.2,5.413,5.413,0,0,0,2,.266,1.761,1.761,0,0,0,1.623-1.813,4.342,4.342,0,0,0-3.2-3.579A12.85,12.85,0,0,0,1007.205,344.119Z" transform="translate(-323.667 -92.688)" fill="#693c24"/>
        <g id="Grupo_1208206" data-name="Grupo 1208206" transform="translate(677.688 504.037)">
          <path id="Trazado_1050282" data-name="Trazado 1050282" d="M1010.756,1188.661q0,11.227-1.015,22.42c-.31,3.353-.324,7.186-1.3,10.427-.811,2.695-4.055,3.307-6.5,3.8-1.216.245-3.208.909-4.336.214-1.608-.99-.912-3.748-.835-5.3.168-3.365.362-6.728.519-10.094a164.664,164.664,0,0,0-.088-21.377c-.1-1.139-1.885-1.149-1.789,0a154.835,154.835,0,0,1,.178,19.345c-.141,3.375-.33,6.748-.507,10.122-.122,2.341-.97,5.7.479,7.767,1.219,1.734,3.045,1.66,4.929,1.381a22.5,22.5,0,0,0,6.493-1.755,5.61,5.61,0,0,0,3.315-4.192,80.388,80.388,0,0,0,1.161-9.639q1.1-11.526,1.08-23.118a.9.9,0,0,0-1.789,0Z" transform="translate(-994.73 -1187.796)" fill="#24191c"/>
        </g>
        <path id="Trazado_1050283" data-name="Trazado 1050283" d="M841.477,1157.847a1.634,1.634,0,0,0-2.175-1.633c-19.311,6.57-39.649,8.136-59.849,9.7-9.628.747-19.258,1.529-28.826,2.866-6.761.945-15.706,1.535-19.448,8.189a1.387,1.387,0,0,0-.938,1.213q-1.5,10.536-3.009,21.073c-.578,4.046-1.233,9.634,4.281,9.979a1.683,1.683,0,0,0,.839-.152c10.842,3.684,69.975,3.888,89.134-3.477,4.346-1.671,9.209-3.414,11.7-7.616,3.065-5.169,4.33-12.117,5.8-17.881,1.688-6.62,3.012-13.321,4.035-20.076A1.949,1.949,0,0,0,841.477,1157.847Z" transform="translate(-129.533 -661.579)" fill="#ffe5d4"/>
        <g id="Grupo_1208207" data-name="Grupo 1208207" transform="translate(626.185 484.635)">
          <path id="Trazado_1050284" data-name="Trazado 1050284" d="M823.519,1128.266a14.89,14.89,0,0,0,4.068.92c2.5.346,5.009.561,7.521.745,7.485.547,14.995.78,22.5.9,17.114.279,34.437.181,51.452-1.868a91.514,91.514,0,0,0,10.286-1.715,20.641,20.641,0,0,0,6.55-2.434c.959-.628.064-2.178-.9-1.545-3.933,2.575-9.563,3.062-14.089,3.671-7.823,1.052-15.73,1.507-23.613,1.811-16.364.632-32.823.585-49.172-.41-3.045-.185-6.093-.4-9.123-.764a20.673,20.673,0,0,1-4.572-.857c-1.042-.468-1.952,1.074-.9,1.545Z" transform="translate(-823.053 -1123.122)" fill="#24191c"/>
        </g>
        <path id="Trazado_1050285" data-name="Trazado 1050285" d="M936.618,347.095c1.673.368,3.147,1.133,3.277,2.662a2.181,2.181,0,0,1-1.8,2.3,12.038,12.038,0,0,1-3.78-.158,8.29,8.29,0,0,0-3.89.547,5.4,5.4,0,0,1-1.968.445,1.773,1.773,0,0,1-1.788-1.66,4.312,4.312,0,0,1,2.852-3.85A12.849,12.849,0,0,1,936.618,347.095Z" transform="translate(-269.398 -95.014)" fill="#693c24"/>
        <path id="Trazado_1050286" data-name="Trazado 1050286" d="M836.331,612.373c-.129-8.023,5.356-9.8,2.264-17.315-3.076-7.483-9.969-19.664-19.131-25.514-16.071-10.263-27.447-13.747-46.4-21.195-3.311-1.3-9.593,7.659-9.857,7.778-.291-.509-38.957-6.761-39.628-6.467-13.5,5.928-43.413,13.794-52.9,18.765-13.718,7.19-26.769,19.6-30.664,42.815-.409,2.439,6.706-13.033,7.662-10.752,2.187,5.219-7.6,34.64-3.767,41.008,1.231,2.045,14.438,110.144,24.9,113.384,28.886,8.945,148.589-5.62,148.589-17.217,0-3.034-2.556-52.192.386-63.89,1.563-6.218,2.913-12.493,3.915-18.827.661-4.175-.37-15.91,1.877-19.058,5.578-7.814,10.407-12.869,13.036-22.239A1.288,1.288,0,0,0,836.331,612.373Z" transform="translate(-68.728 -236.054)" fill="#b34530"/>
        <path id="Trazado_1050287" data-name="Trazado 1050287" d="M892.914,554.941c-19.117-11.232-34.831-18.949-35.7-18.606-23.968,9.508-37.379,1.626-37.379,1.626-1.713.626-31.42,10.817-46.161,17.983-7.5,3.646,18.819.1,18.779.262-.3.121,10.3-5.432,10.436-5.033,2.647,7.9,13.2,11.7,20.481,13.8a58.855,58.855,0,0,0,29.725.382c8.342-1.918,18.411-4.749,22.219-13.341C876.618,549.071,895.569,556.5,892.914,554.941Z" transform="translate(-161.365 -227.728)" fill="#b34530"/>
        <g id="Grupo_1208208" data-name="Grupo 1208208" transform="translate(658.526 311.438)">
          <path id="Trazado_1050288" data-name="Trazado 1050288" d="M969.09,546.26c-.781,1.753-2.569,2.894-4.2,3.774a29.349,29.349,0,0,1-8.771,2.894,50.08,50.08,0,0,1-11.474.443c-4.363-.218-8.524-.716-12.441-2.781-1.018-.537-1.923,1.007-.9,1.545a29.362,29.362,0,0,0,12.375,2.975,54.688,54.688,0,0,0,12.919-.457,30.525,30.525,0,0,0,9.373-3.171c1.808-1,3.792-2.366,4.663-4.319.462-1.043-1.077-1.954-1.545-.9Z" transform="translate(-930.858 -545.794)" fill="#24191c"/>
        </g>
        <path id="Trazado_1050289" data-name="Trazado 1050289" d="M1003.042,947.739a1.081,1.081,0,0,0-1.305-.406,1.022,1.022,0,0,0-1.49.646,29.792,29.792,0,0,1-.9,2.879,1.083,1.083,0,0,0,.75,1.32,1.028,1.028,0,0,0,.475.018.953.953,0,0,0,1.426.4A3.527,3.527,0,0,0,1003.042,947.739Z" transform="translate(-320.236 -515.353)" fill="#ffe5d4"/>
        <path id="Trazado_1050290" data-name="Trazado 1050290" d="M933.185,810.124c-1.061-.744-2.534-.411-3.74-.332a4.943,4.943,0,0,0-3.2.983.936.936,0,0,0,.029,1.48,2.117,2.117,0,0,0-.254.545.967.967,0,0,0,.085.8,1.135,1.135,0,0,0,.4,1.439,1.1,1.1,0,0,0,1.847.868,19.139,19.139,0,0,1,4.543-3.622,1.034,1.034,0,0,0,.4-.393A1.146,1.146,0,0,0,933.185,810.124Z" transform="translate(-268.859 -419.056)" fill="#ffe5d4"/>
        <g id="Grupo_1208209" data-name="Grupo 1208209" transform="translate(747.776 382.647)">
          <path id="Trazado_1050291" data-name="Trazado 1050291" d="M1239.589,784.018c-1.807,19.283-5,38.41-7.465,57.614-1.261,9.831-2.379,19.687-3.06,29.577a37.181,37.181,0,0,0-.285,5.737c.017.194.1.538.088.414a23.965,23.965,0,0,1,.091,2.82c0,7.313-.352,14.634-.6,21.941-.039,1.152,1.75,1.15,1.789,0,.233-6.945.521-13.894.591-20.843.024-2.364-.221-4.678-.083-7.022,1.181-19.966,4.194-39.776,6.947-59.569,1.419-10.2,2.812-20.412,3.773-30.669.107-1.146-1.683-1.139-1.789,0Z" transform="translate(-1228.36 -783.162)" fill="#24191c"/>
        </g>
        <g id="Grupo_1208210" data-name="Grupo 1208210" transform="translate(755.38 379.717)">
          <path id="Trazado_1050292" data-name="Trazado 1050292" d="M1272.389,774.035c-2.676,12.558-9.874,24.639-18.445,34.078-.772.851.489,2.12,1.265,1.265,8.774-9.664,16.164-22,18.9-34.867.237-1.123-1.485-1.6-1.725-.476Z" transform="translate(-1253.704 -773.392)" fill="#24191c"/>
        </g>
        <g id="Grupo_1208211" data-name="Grupo 1208211" transform="translate(780.368 628.599)">
          <path id="Trazado_1050293" data-name="Trazado 1050293" d="M1362.9,1654.036c-2.572,1.123-5-1.045-5.881-3.306a15.8,15.8,0,0,1-.813-5.627,79.31,79.31,0,0,1,.524-8.556c.634-6.337,1.573-12.682,1.6-19.062.019-4.116-.092-9.823-3.593-12.692-3.86-3.163-12.011-2.021-14.315,2.575a14.421,14.421,0,0,0-1.122,6.477c0,2.708.093,5.417.142,8.124.089,4.87.981,10.986-2.237,15.1-.7.9.556,2.171,1.265,1.265,2.39-3.056,2.843-6.785,2.854-10.559.014-4.747-.262-9.494-.234-14.241.013-2.128.114-4.711,1.628-6.38a7.664,7.664,0,0,1,4.518-2.115c2.538-.4,5.669-.123,7.281,2.119,2.889,4.018,2.144,10.576,1.832,15.19-.424,6.256-1.388,12.463-1.8,18.72-.217,3.317-.433,6.973.74,10.14,1.288,3.477,4.848,5.974,8.509,4.375,1.053-.463.144-2-.9-1.546Z" transform="translate(-1336.998 -1603.005)" fill="#cc694e"/>
        </g>
        <g id="Grupo_1208212" data-name="Grupo 1208212" transform="translate(788.575 636.47)">
          <path id="Trazado_1050294" data-name="Trazado 1050294" d="M1368.394,1630.337c2.271,6.8,3.307,14.188,1.636,21.25-.81,3.424-2.434,6.5-3.745,9.735a26.543,26.543,0,0,0-1.931,10.069.9.9,0,0,0,1.789,0,26.98,26.98,0,0,1,2.559-11.2,36.438,36.438,0,0,0,1.417-30.327c-.363-1.088-2.091-.623-1.725.475Z" transform="translate(-1364.355 -1629.243)" fill="#cc694e"/>
        </g>
        <g id="Grupo_1208213" data-name="Grupo 1208213" transform="translate(783.315 639.127)">
          <path id="Trazado_1050295" data-name="Trazado 1050295" d="M1350.041,1639.206a43.929,43.929,0,0,1,.914,19.1c-1.022,5.765-4.372,11.292-4.119,17.225.049,1.147,1.839,1.153,1.789,0-.144-3.376,1.067-6.449,2.152-9.581a46.73,46.73,0,0,0,2.174-8.887,45.988,45.988,0,0,0-1.185-18.331.9.9,0,0,0-1.725.476Z" transform="translate(-1346.823 -1638.098)" fill="#cc694e"/>
        </g>
        <path id="Trazado_1050296" data-name="Trazado 1050296" d="M1039.49,697.424c-9.381.748-18.753,1.736-28.121,2.744a13.709,13.709,0,0,0,1.534-1.978c1.752-2.763,2.828-6.977.944-9.973-1.955-3.107-5.512-1.689-8.229-.636-5.253,2.036-10.544,3.958-15.91,5.678-10.648,3.411-42.38,10.051-58.582,24.635-6.586,4.819-11.112,9.72-16.48,15.734-.091.1,3.175-2.026,3.13-1.916A.952.952,0,0,0,917,732.95a223.881,223.881,0,0,0,15.144,37.736.945.945,0,0,0,.385.41.962.962,0,0,0,1.141.489,8.2,8.2,0,0,0,.891-.4.837.837,0,0,0,.991-.041q6.094-4.278,11.931-8.894c.466-.039.93-.088,1.4-.124.143.311,28.725-1.421,42.462-3.868,4.712-.839,11.079-1.15,14.355-5.182,2.593-3.191,2.5-7.539,2.033-11.475,3.942-2.947,6.056-8.356,3.064-12.268a.294.294,0,0,1,.075-.431,6.911,6.911,0,0,0,2.608-2.84c1.424-2.948.876-6.991.009-10.408q11.148-2.06,22.108-5.031c4.194-1.144,10.339-2.436,10.956-7.7C1047.08,698.383,1043.249,697.125,1039.49,697.424Z" transform="translate(-260.982 -332.729)" fill="#ffa58c"/>
        <g id="Grupo_1208214" data-name="Grupo 1208214" transform="translate(782.603 467.795)">
          <path id="Trazado_1050297" data-name="Trazado 1050297" d="M1344.465,1068.111q2.795,16.252,4.239,32.689c.1,1.138,1.89,1.148,1.789,0q-1.465-16.665-4.3-33.165c-.2-1.132-1.917-.652-1.725.476Z" transform="translate(-1344.45 -1066.989)" fill="#24191c"/>
        </g>
        <path id="Trazado_1050298" data-name="Trazado 1050298" d="M901.172,813.006a.77.77,0,0,0-1.276-.563c-2.543,2.215-8.2,7.193-10.654,9.749a1.146,1.146,0,0,0-1.166,1.024,53.593,53.593,0,0,0,5,28.827c3.253,6.771,9.9,18.142,18.492,18.48a.952.952,0,0,0,1.507.056l11.347-12.848a1.584,1.584,0,0,0-.152-2.251C906.42,840.18,901.438,829.141,901.172,813.006Z" transform="translate(-242.178 -420.878)" fill="#ffe5d4"/>
        <path id="Trazado_1050299" data-name="Trazado 1050299" d="M622.828,705.385a183.407,183.407,0,0,0-6.777-29.009c-5.12-15.04-18.012-26.12-16.376-42.358a2.5,2.5,0,0,0-.345-1.642c-.481-1.618-1.857-4.95-3.736-3.832-10.734,6.383-16.412,15.012-20.977,26.193-5.93,14.523-20.416,80.779-24.725,96.1-4.183,14.867-9.647,31.442-7.654,47.054,1.587,12.432,8.811,23.26,21.09,27.085,11.116,3.463,26.962,4.117,35.991-4.474,4.557-4.337,6.531-10.516,8.181-16.408q3.358-11.992,6.085-24.153,5.278-23.324,8.359-47.073C623.126,723.755,623.955,714.547,622.828,705.385Z" transform="translate(0 -292.124)" fill="#b34530"/>
        <g id="Grupo_1208215" data-name="Grupo 1208215" transform="translate(569.19 376.075)">
          <path id="Trazado_1050300" data-name="Trazado 1050300" d="M634.694,764.344c1.648-3.8,5.8.942,7.108,2.564a50.416,50.416,0,0,1,4.772,7.263c2.656,4.815,4.6,9.952,6.969,14.905,4.806,10.065,10.626,19.605,15.752,29.5a123.957,123.957,0,0,1,7.439,16.788c.37,1.083,2.1.618,1.725-.476-3.97-11.609-10.3-22.275-16.188-32.98-2.941-5.348-5.857-10.723-8.367-16.29-2.593-5.75-4.955-11.577-8.509-16.829-1.648-2.436-3.612-5.48-6.254-6.924-2.064-1.128-4.979-.767-5.993,1.57-.453,1.046,1.087,1.958,1.545.9Z" transform="translate(-633.067 -761.254)" fill="#24191c"/>
        </g>
        <path id="Trazado_1050301" data-name="Trazado 1050301" d="M717.713,880.629a2.635,2.635,0,0,0-.983-3.752c-18.5-9.7-36.944-33.084-31.375-53.843.791-.878-.215-2.483-1.253-1.7l-.146.112a.937.937,0,0,0-.407.311A632.6,632.6,0,0,0,605,892.451a1.053,1.053,0,0,0-.283.56,1.14,1.14,0,0,0-.267.4c-7.288,18.2-27.667,72.108,8.569,68.928,14.787-1.3,32.545-10.289,44.369-18.609a239.128,239.128,0,0,0,33.615-28.184,172.54,172.54,0,0,0,15.811-18.592C710.119,892.449,715.169,884.619,717.713,880.629Z" transform="translate(-35.225 -427.09)" fill="#b34530"/>
        <g id="Grupo_1208216" data-name="Grupo 1208216" transform="translate(707.569 367.275)">
          <path id="Trazado_1050302" data-name="Trazado 1050302" d="M1135.445,731.926c-13.5,1.435-27.089,2.427-40.464,4.836-1.131.2-.652,1.928.475,1.725,13.217-2.38,26.647-3.354,39.989-4.772,1.134-.12,1.146-1.911,0-1.789Z" transform="translate(-1094.335 -731.92)" fill="#cc694e"/>
        </g>
        <g id="Grupo_1208217" data-name="Grupo 1208217" transform="translate(721.265 382.606)">
          <path id="Trazado_1050303" data-name="Trazado 1050303" d="M1170.348,783.028a206.464,206.464,0,0,0-29.72,4.184c-1.122.258-.647,1.983.475,1.725a203.071,203.071,0,0,1,29.244-4.12c1.14-.092,1.152-1.882,0-1.789Z" transform="translate(-1139.987 -783.024)" fill="#cc694e"/>
        </g>
        <g id="Grupo_1208218" data-name="Grupo 1208218" transform="translate(723.583 395.511)">
          <path id="Trazado_1050304" data-name="Trazado 1050304" d="M1172.565,826.05q-12.151,1.773-24.206,4.122c-1.129.22-.651,1.945.476,1.725q12.053-2.349,24.206-4.122c1.136-.166.653-1.89-.475-1.725Z" transform="translate(-1147.715 -826.039)" fill="#cc694e"/>
        </g>
        <g id="Grupo_1208219" data-name="Grupo 1208219" transform="translate(729.259 407.542)">
          <path id="Trazado_1050305" data-name="Trazado 1050305" d="M1183.07,866.152q-7.916.932-15.788,2.191c-1.134.182-.652,1.906.475,1.725q7.634-1.222,15.313-2.127c1.128-.133,1.14-1.923,0-1.789Z" transform="translate(-1166.634 -866.145)" fill="#cc694e"/>
        </g>
        <g id="Grupo_1208220" data-name="Grupo 1208220" transform="translate(571.137 393.955)">
          <path id="Trazado_1050306" data-name="Trazado 1050306" d="M720.651,820.9c-3.105-.358-5.431,1.56-7.861,3.207q-4.517,3.062-8.93,6.271-8.649,6.307-16.874,13.168a388.606,388.606,0,0,0-31.64,29.612c-5.485,5.714-11.385,11.448-15.647,18.168-.619.975.929,1.874,1.545.9,3.732-5.886,8.816-10.912,13.593-15.947s9.7-9.987,14.736-14.792A352.112,352.112,0,0,1,701.409,834.4q4.622-3.465,9.37-6.757c1.539-1.067,3.09-2.114,4.636-3.171,1.642-1.123,3.174-2.024,5.236-1.786,1.142.131,1.132-1.659,0-1.789Z" transform="translate(-639.556 -820.854)" fill="#24191c"/>
        </g>
        <g id="Grupo_1208221" data-name="Grupo 1208221" transform="translate(616.857 441.652)">
          <path id="Trazado_1050307" data-name="Trazado 1050307" d="M853.862,981.178a17.739,17.739,0,0,1,2.621,5.932c.406,2.441-.7,4.41-2.006,6.364-1.05,1.566-2.169,3.086-3.309,4.587-3.342,4.4-6.9,8.643-10.519,12.816a380.613,380.613,0,0,1-29.83,30.824,213.544,213.544,0,0,1-18.473,15.354c-.921.672-.029,2.225.9,1.545,12.255-8.945,23.358-19.464,33.892-30.352a326.234,326.234,0,0,0,25.572-29.283,49.815,49.815,0,0,0,4.534-6.555c2.255-4.26.428-8.314-1.841-12.134a.9.9,0,0,0-1.544.9Z" transform="translate(-791.958 -979.846)" fill="#24191c"/>
        </g>
        <g id="Grupo_1208222" data-name="Grupo 1208222" transform="translate(566.082 433.13)">
          <path id="Trazado_1050308" data-name="Trazado 1050308" d="M652.521,951.463c-10.833,2.375-20.245,8.414-29.4,14.4-.96.628-.065,2.177.9,1.545,9.034-5.905,18.29-11.878,28.977-14.22,1.124-.247.649-1.972-.476-1.725Z" transform="translate(-622.706 -951.439)" fill="#24191c"/>
        </g>
        <path id="Trazado_1050309" data-name="Trazado 1050309" d="M961.078,520.283c-.131-3.841-4.27-11.6-6.371-14.487a.4.4,0,0,0-.477-.132c-.147-.029-.367-.018-.423.146-.971,2.874-5.474,4.176-8.235,4.867a29.632,29.632,0,0,1-13.237.119c-3.014-.61-9.091-1.856-10.184-5-.057-.165-.284-.176-.437-.147a.427.427,0,0,0-.493.132c-2.173,2.888-6.475,11.534-6.632,12.852-.145,1.215.645,2.309,1.23,3.354a29.5,29.5,0,0,0,5.248,6.931c2.429,2.332,5.33,3.814,8.359,5.468,1.735.948,6-8.517,6.611-9.956a48.94,48.94,0,0,0,2.662-8.17,50.19,50.19,0,0,0,2.574,8.17c.593,1.439,4.715,10.9,6.393,9.956,2.93-1.654,5.735-3.136,8.084-5.468C957.823,526.863,961.12,521.505,961.078,520.283Z" transform="translate(-260.932 -206.236)" fill="#ffe5d4"/>
        <g id="Grupo_1208223" data-name="Grupo 1208223" transform="translate(676.503 307.274)">
          <path id="Trazado_1050310" data-name="Trazado 1050310" d="M990.784,532.809a35.251,35.251,0,0,0,.652,3.634c.266,1.12,1.991.646,1.725-.475a30.717,30.717,0,0,1-.589-3.159.925.925,0,0,0-.895-.895.9.9,0,0,0-.894.895Z" transform="translate(-990.779 -531.915)" fill="#24191c"/>
        </g>
        <path id="Trazado_1050311" data-name="Trazado 1050311" d="M973.117,233.37c2.251-3.794,3.148-8.13-.206-11.87-4.118-4.593-10.675-4.5-16.246-2.847-3.447-5.274-9.819-9.027-16.464-7.172-5.407,1.509-8.455,6.9-6.547,11.565-3.7,3.463-6.356,8.191-3.892,13.149,2.434,4.9,8.452,5.715,13.489,4.3a8.409,8.409,0,0,0,3.467,7.259c3.687,2.8,9,3.528,13.9,3.485a1.593,1.593,0,0,0,.694,1.039c6.659,4.58,16.048,4.7,20.509-3.164C986.134,241.508,980.755,234.437,973.117,233.37Z" transform="translate(-270.895 0)" fill="#693c24"/>
        <g id="Grupo_1208224" data-name="Grupo 1208224" transform="translate(651.545 231.695)">
          <path id="Trazado_1050312" data-name="Trazado 1050312" d="M907.658,281.052a6.126,6.126,0,0,0,8.745,3.235c1.016-.542.113-2.087-.9-1.545a4.294,4.294,0,0,1-6.117-2.166c-.43-1.051-2.161-.591-1.725.476Z" transform="translate(-907.588 -279.982)" fill="#24191c"/>
        </g>
        <g id="Grupo_1208225" data-name="Grupo 1208225" transform="translate(649.489 247.31)">
          <path id="Trazado_1050313" data-name="Trazado 1050313" d="M901.794,333.154a2.469,2.469,0,0,1-.785,2.261c-.84.79.427,2.054,1.265,1.265a4.313,4.313,0,0,0,1.245-4c-.211-1.13-1.936-.652-1.725.475Z" transform="translate(-900.732 -332.033)" fill="#24191c"/>
        </g>
        <g id="Grupo_1208226" data-name="Grupo 1208226" transform="translate(678.465 221.751)">
          <path id="Trazado_1050314" data-name="Trazado 1050314" d="M998.391,249.127a5.819,5.819,0,0,1,8.187,5.159c.021,1.194-.921,2.871-.106,3.957s2.75.765,3.9.82c3.732.178,8.433.957,9.6,5.158,1.125,4.04-1.607,7.634-4.925,9.574a.9.9,0,0,0,.9,1.545c3.481-2.035,6.277-5.525,6.039-9.748-.236-4.183-3.38-6.938-7.3-7.822a22.18,22.18,0,0,0-3.368-.444c-.633-.043-1.266-.065-1.9-.091-.819-.034-1.286.241-1.342-.7-.053-.887.341-1.818.26-2.758a7.907,7.907,0,0,0-.608-2.424,7.551,7.551,0,0,0-9.813-3.952c-1.054.426-.593,2.157.476,1.725Z" transform="translate(-997.32 -246.837)" fill="#24191c"/>
        </g>
        <g id="Grupo_1208227" data-name="Grupo 1208227" transform="translate(697.392 261.516)">
          <path id="Trazado_1050315" data-name="Trazado 1050315" d="M1062.382,380.031a61.584,61.584,0,0,1-1.917,6.79c-.376,1.09,1.351,1.559,1.725.476a61.72,61.72,0,0,0,1.917-6.79c.249-1.122-1.476-1.6-1.725-.475Z" transform="translate(-1060.411 -379.389)" fill="#cc694e"/>
        </g>
        <g id="Grupo_1208228" data-name="Grupo 1208228" transform="translate(650.049 262.977)">
          <path id="Trazado_1050316" data-name="Trazado 1050316" d="M902.629,385.37a28.083,28.083,0,0,0,3.318,7.912c.6.98,2.149.082,1.545-.9a26.418,26.418,0,0,1-3.138-7.485.9.9,0,0,0-1.725.476Z" transform="translate(-902.599 -384.257)" fill="#cc694e"/>
        </g>
      </g>
    </g>
    <path id="Trazado_1050317" data-name="Trazado 1050317" d="M29.058,0H227.992" transform="translate(192.974 5057.621)" fill="none" stroke="#817489" stroke-linecap="round" stroke-width="8"/>
    <g id="Grupo_1208231" data-name="Grupo 1208231" transform="translate(400.091 -42.359)">
      <path id="Trazado_1050258-2" data-name="Trazado 1050258" d="M1339.453,1552.178c5.082-19.022,5.02-46.22-6.778-63.211q-.488-7.285-1.688-14.521a2.105,2.105,0,0,0-1.853-1.83,2.848,2.848,0,0,0-1.488-1.1,58.7,58.7,0,0,0-17.839-3.191c-4.5-.091-11.16-.294-14.585,2.831a2.182,2.182,0,0,0-1.883,2.4q.728,8.423.968,16.867a2.373,2.373,0,0,0,.475,1.383c-1.362,10.407-2.384,20.906-.9,31.344.636,4.468,1.154,11.359,4.9,14.728,3.617,3.258,7.092,2.664,5.656,5.862-1.6,3.56-2.087,7.781.7,10.986a7.909,7.909,0,0,0,3.64,2.353,6.062,6.062,0,0,0,3.506,2.6,5.383,5.383,0,0,1,5.532,6.721c3.755,2.761,8-.1,11.287-3.622,1.2-1.288,5.075-1.29,6.781-2.994,1.922-1.921,2.776-4.663,3.472-7.222C1339.387,1552.427,1339.42,1552.3,1339.453,1552.178Z" transform="translate(-1285.752 3554.203)" fill="#ffa58c"/>
      <g id="Grupo_1208211-2" data-name="Grupo 1208211" transform="translate(20.554 5062.901)">
        <path id="Trazado_1050293-2" data-name="Trazado 1050293" d="M1362.9,1654.036c-2.572,1.123-5-1.045-5.881-3.306a15.8,15.8,0,0,1-.813-5.627,79.31,79.31,0,0,1,.524-8.556c.634-6.337,1.573-12.682,1.6-19.062.019-4.116-.092-9.823-3.593-12.692-3.86-3.163-12.011-2.021-14.315,2.575a14.421,14.421,0,0,0-1.122,6.477c0,2.708.093,5.417.142,8.124.089,4.87.981,10.986-2.237,15.1-.7.9.556,2.171,1.265,1.265,2.39-3.056,2.843-6.785,2.854-10.559.014-4.747-.262-9.494-.234-14.241.013-2.128.114-4.711,1.628-6.38a7.664,7.664,0,0,1,4.518-2.115c2.538-.4,5.669-.123,7.281,2.119,2.889,4.018,2.144,10.576,1.832,15.19-.424,6.256-1.388,12.463-1.8,18.72-.217,3.317-.433,6.973.74,10.14,1.288,3.477,4.848,5.974,8.509,4.375,1.053-.463.144-2-.9-1.546Z" transform="translate(-1336.998 -1603.005)" fill="#cc694e"/>
      </g>
      <g id="Grupo_1208212-2" data-name="Grupo 1208212" transform="translate(28.761 5070.772)">
        <path id="Trazado_1050294-2" data-name="Trazado 1050294" d="M1368.394,1630.337c2.271,6.8,3.307,14.188,1.636,21.25-.81,3.424-2.434,6.5-3.745,9.735a26.543,26.543,0,0,0-1.931,10.069.9.9,0,0,0,1.789,0,26.98,26.98,0,0,1,2.559-11.2,36.438,36.438,0,0,0,1.417-30.327c-.363-1.088-2.091-.623-1.725.475Z" transform="translate(-1364.355 -1629.243)" fill="#cc694e"/>
      </g>
      <g id="Grupo_1208213-2" data-name="Grupo 1208213" transform="translate(23.501 5073.429)">
        <path id="Trazado_1050295-2" data-name="Trazado 1050295" d="M1350.041,1639.206a43.929,43.929,0,0,1,.914,19.1c-1.022,5.765-4.372,11.292-4.119,17.225.049,1.147,1.839,1.153,1.789,0-.144-3.376,1.067-6.449,2.152-9.581a46.73,46.73,0,0,0,2.174-8.887,45.988,45.988,0,0,0-1.185-18.331.9.9,0,0,0-1.725.476Z" transform="translate(-1346.823 -1638.098)" fill="#cc694e"/>
      </g>
    </g>
    <path id="Trazado_1050318" data-name="Trazado 1050318" d="M2698.92,4896.032l6.7-.342,24.517-1.989s7.869.518,11.528,0,2.4-3.141,2.4-3.141-.427-2.057-.726-4.89c-.115-1.163.6-3.2-.642-4.015-.085-.056-.3.157-.673,0-.83-.428-1.911-.04-3.991,0-3.163.055-7.437,0-7.437,0h-1.134s-11.518.706-18.863,1.547a90.744,90.744,0,0,0-10.291,1.57c-3.438.617-3.462.9-3.462.9Z" transform="translate(-2293.458 97)" fill="#ffe5d4"/>
  </g>
</svg>
