<svg xmlns="http://www.w3.org/2000/svg" xmlns:xlink="http://www.w3.org/1999/xlink" width="93.934" height="93.934" viewBox="0 0 93.934 93.934">
  <defs>
    <filter id="Trazado_982547" x="0" y="0" width="93.934" height="93.934" filterUnits="userSpaceOnUse">
      <feOffset dy="3" input="SourceAlpha"/>
      <feGaussianBlur stdDeviation="3" result="blur"/>
      <feFlood flood-opacity="0.161"/>
      <feComposite operator="in" in2="blur"/>
      <feComposite in="SourceGraphic"/>
    </filter>
  </defs>
  <g id="Grupo_1208430" data-name="Grupo 1208430" transform="translate(-612.066 -7866.674)">
    <g id="Grupo_1183190" data-name="Grupo 1183190" transform="translate(1 1016.674)">
      <g id="Grupo_1179611" data-name="Grupo 1179611" transform="translate(428 4723.467)">
        <g id="Grupo_1175227" data-name="Grupo 1175227" transform="translate(-5.967 140.533)">
          <g id="Grupo_1167337" data-name="Grupo 1167337" transform="translate(198.033 1992)">
            <g id="Grupo_1166720" data-name="Grupo 1166720">
              <g id="Grupo_1164305" data-name="Grupo 1164305">
                <g id="Grupo_1163948" data-name="Grupo 1163948">
                  <g id="Grupo_1158168" data-name="Grupo 1158168">
                    <g id="Grupo_1152576" data-name="Grupo 1152576">
                      <g id="Grupo_1148633" data-name="Grupo 1148633">
                        <g id="Grupo_1148525" data-name="Grupo 1148525">
                          <g transform="matrix(1, 0, 0, 1, -9, -6)" filter="url(#Trazado_982547)">
                            <g id="Trazado_982547-2" data-name="Trazado 982547" transform="translate(9 6)" fill="#f5f5f5">
                              <path d="M 37.966796875 74.43359375 C 33.04315185546875 74.43359375 28.26757431030273 73.46962738037109 23.77274131774902 71.56847381591797 C 19.43047523498535 69.73184967041016 15.53040790557861 67.10224914550781 12.18087482452393 63.75271987915039 C 8.831341743469238 60.4031867980957 6.201741218566895 56.50312042236328 4.365118980407715 52.16086196899414 C 2.463963508605957 47.66601943969727 1.499996900558472 42.89044189453125 1.499996900558472 37.966796875 C 1.499996900558472 33.04315185546875 2.463963508605957 28.26757431030273 4.365118980407715 23.77274131774902 C 6.201741218566895 19.43047523498535 8.831341743469238 15.53040790557861 12.18087482452393 12.18087482452393 C 15.53040790557861 8.831341743469238 19.43047523498535 6.201741218566895 23.77274131774902 4.365118980407715 C 28.26757431030273 2.463963508605957 33.04315185546875 1.499996900558472 37.966796875 1.499996900558472 C 42.89044189453125 1.499996900558472 47.66601943969727 2.463963508605957 52.16086196899414 4.365118980407715 C 56.50312042236328 6.201741218566895 60.4031867980957 8.831341743469238 63.75271987915039 12.18087482452393 C 67.10224914550781 15.53040790557861 69.73184967041016 19.43047523498535 71.56847381591797 23.77274131774902 C 73.46962738037109 28.26757431030273 74.43359375 33.04315185546875 74.43359375 37.966796875 C 74.43359375 42.89044189453125 73.46962738037109 47.66601943969727 71.56847381591797 52.16086196899414 C 69.73184967041016 56.50313186645508 67.10224914550781 60.4031867980957 63.75271987915039 63.75271987915039 C 60.4031867980957 67.10224914550781 56.50313186645508 69.73184967041016 52.16086196899414 71.56847381591797 C 47.66601943969727 73.46962738037109 42.89044189453125 74.43359375 37.966796875 74.43359375 Z" stroke="none"/>
                              <path d="M 37.966796875 3 C 33.2449836730957 3 28.66600799560547 3.924095153808594 24.35705947875977 5.746635437011719 C 20.19359588623047 7.507637023925781 16.45379638671875 10.02928161621094 13.24153518676758 13.24153518676758 C 10.02927398681641 16.45379638671875 7.507621765136719 20.19359588623047 5.746635437011719 24.35705947875977 C 3.924095153808594 28.66600799560547 3 33.2449836730957 3 37.966796875 C 3 42.6886100769043 3.924095153808594 47.26758575439453 5.746635437011719 51.57653427124023 C 7.507621765136719 55.73999786376953 10.02927398681641 59.47979736328125 13.24153518676758 62.69205856323242 C 16.45379638671875 65.90431976318359 20.19359588623047 68.42597198486328 24.35705947875977 70.18695831298828 C 28.66600799560547 72.00949859619141 33.2449836730957 72.93359375 37.966796875 72.93359375 C 42.6886100769043 72.93359375 47.26758575439453 72.00949859619141 51.57653427124023 70.18695831298828 C 55.73999786376953 68.42597198486328 59.47979736328125 65.90431976318359 62.69205856323242 62.69205856323242 C 65.90431976318359 59.47979736328125 68.42597198486328 55.73999786376953 70.18695831298828 51.57653427124023 C 72.00949859619141 47.26758575439453 72.93359375 42.6886100769043 72.93359375 37.966796875 C 72.93359375 33.2449836730957 72.00949859619141 28.66600799560547 70.18695831298828 24.35705947875977 C 68.42597198486328 20.19359588623047 65.90431976318359 16.45379638671875 62.69205856323242 13.24153518676758 C 59.47979736328125 10.02928161621094 55.73999786376953 7.507637023925781 51.57653427124023 5.746635437011719 C 47.26758575439453 3.924095153808594 42.6886100769043 3 37.966796875 3 M 37.966796875 0 C 58.93528366088867 0 75.93359375 16.99832153320312 75.93359375 37.966796875 C 75.93359375 58.93528366088867 58.93528366088867 75.93359375 37.966796875 75.93359375 C 16.99831008911133 75.93359375 0 58.93528366088867 0 37.966796875 C 0 16.99832153320312 16.99831008911133 0 37.966796875 0 Z" stroke="none" fill="#86b60c"/>
                            </g>
                          </g>
                        </g>
                      </g>
                    </g>
                  </g>
                </g>
              </g>
            </g>
          </g>
        </g>
      </g>
    </g>
    <g id="gestion-de-residuos" transform="translate(629.241 7876.32)">
      <g id="Grupo_1208429" data-name="Grupo 1208429" transform="translate(8.729 16.905)">
        <g id="Grupo_1208427" data-name="Grupo 1208427" transform="translate(0 0)">
          <path id="Trazado_1050715" data-name="Trazado 1050715" d="M72.9,120.374l-2.792,30.4A2.8,2.8,0,0,1,67.3,153.29H46.5a2.8,2.8,0,0,1-2.815-2.518l-2.792-30.4Z" transform="translate(-38.622 -114.499)" fill="#9facba" fill-rule="evenodd"/>
          <path id="Trazado_1050716" data-name="Trazado 1050716" d="M313.915,120.374l-2.792,30.4a2.8,2.8,0,0,1-2.815,2.518h-2.262a2.8,2.8,0,0,0,2.815-2.518l2.792-30.4Z" transform="translate(-279.634 -114.499)" fill="#8d9ca8" fill-rule="evenodd"/>
          <path id="Trazado_1050717" data-name="Trazado 1050717" d="M72.9,120.374l-.389,4.235H41.278l-.389-4.235Z" transform="translate(-38.622 -114.499)" fill="#8d9ca8" fill-rule="evenodd"/>
          <path id="Trazado_1050718" data-name="Trazado 1050718" d="M366,120.374l-.389,4.235h-2.262l.389-4.235Z" transform="translate(-331.717 -114.499)" fill="#8192a5" fill-rule="evenodd"/>
          <path id="Trazado_1050719" data-name="Trazado 1050719" d="M19.055,55.861H49.491c1.51,0,3.056.816,3.056,2.045V61.58a.384.384,0,0,1-.407.4H16.406a.384.384,0,0,1-.407-.4V57.906C16,56.688,17.545,55.861,19.055,55.861Z" transform="translate(-15.999 -55.861)" fill="#8192a5" fill-rule="evenodd"/>
          <path id="Trazado_1050720" data-name="Trazado 1050720" d="M51.3,60.328a1.922,1.922,0,0,1,1.242,1.638V65.64a.384.384,0,0,1-.408.4H16.406a.384.384,0,0,1-.407-.4V64.9h34.99a.384.384,0,0,0,.408-.4V60.833A1.43,1.43,0,0,0,51.3,60.328Z" transform="translate(-15.999 -59.921)" fill="#65788e" fill-rule="evenodd"/>
        </g>
        <g id="Grupo_1208428" data-name="Grupo 1208428" transform="translate(17.35 13.264)">
          <path id="Trazado_1050721" data-name="Trazado 1050721" d="M222.328,203.705a11.251,11.251,0,0,1,3.294,1.365l2.14-.951,2.523,2.523-.95,2.14a11.246,11.246,0,0,1,1.366,3.295l2.184.84v3.568l-2.184.841a11.249,11.249,0,0,1-1.365,3.294l.951,2.14-2.523,2.523-2.14-.95a11.246,11.246,0,0,1-3.295,1.366l-.84,2.184H217.92l-.841-2.184a11.25,11.25,0,0,1-3.294-1.365l-2.14.951-2.523-2.523.95-2.14a11.246,11.246,0,0,1-1.366-3.295l-2.184-.84v-3.568l2.184-.841a11.248,11.248,0,0,1,1.366-3.294l-.951-2.14,2.523-2.523,2.14.951a11.25,11.25,0,0,1,3.294-1.365l.841-2.184h3.567Z" transform="translate(-206.523 -201.521)" fill="#ffe177" fill-rule="evenodd"/>
          <path id="Trazado_1050722" data-name="Trazado 1050722" d="M261.616,224.333l-2.14.951-.33-.33,2.007-.891Q261.381,224.2,261.616,224.333Zm8.543-20.627a11.251,11.251,0,0,1,3.294,1.365l-.608.27a14.834,14.834,0,0,0-3.757-1.636l-.841-2.184h1.072Zm3.294,20.627a11.246,11.246,0,0,1-3.295,1.366l-.841,2.184h-1.072l.841-2.184a14.831,14.831,0,0,0,3.758-1.636Zm-14.307-19.883.33-.33,2.14.951q-.235.13-.463.27Zm15.7,0,.742-.33,2.523,2.523-.95,2.14a11.245,11.245,0,0,1,1.366,3.295l2.184.84v3.568l-2.184.841a11.251,11.251,0,0,1-1.365,3.294l.951,2.14-2.523,2.523-.742-.33,2.193-2.193-.951-2.14a11.255,11.255,0,0,0,1.366-3.294l2.184-.841v-3.568l-2.184-.84a11.25,11.25,0,0,0-1.366-3.295l.95-2.14Z" transform="translate(-254.354 -201.522)" fill="#ffd064" fill-rule="evenodd"/>
          <circle id="Elipse_11594" data-name="Elipse 11594" cx="4.934" cy="4.934" r="4.934" transform="translate(6.228 12.484) rotate(-39.358)" fill="#ffc338"/>
          <path id="Trazado_1050723" data-name="Trazado 1050723" d="M302.015,292.083a4.934,4.934,0,1,0,0,9.867q.2,0,.392-.015a4.934,4.934,0,0,1,0-9.836Q302.213,292.083,302.015,292.083Z" transform="translate(-288.835 -283.836)" fill="#f5b829" fill-rule="evenodd"/>
        </g>
      </g>
      <path id="Trazado_1050724" data-name="Trazado 1050724" d="M47.665,43a8.4,8.4,0,0,1-1.059,4.452.729.729,0,0,1-.089,1.37l-1.363.389a.706.706,0,0,1-.2.028.73.73,0,0,1-.729-.7l-.05-1.416a.726.726,0,0,1,1.241-.541,6.954,6.954,0,0,0-9.653-9.243.729.729,0,1,1-.733-1.259A8.414,8.414,0,0,1,47.665,43Zm-3.914,6.628a.728.728,0,0,0-1-.263A6.954,6.954,0,0,1,33.1,40.122a.724.724,0,0,0,.513.213h.027a.728.728,0,0,0,.7-.754l-.051-1.417a.728.728,0,0,0-.928-.674L32,37.878a.729.729,0,0,0-.089,1.37A8.415,8.415,0,0,0,43.489,50.623a.728.728,0,0,0,.262-1Zm-3.689-4.841a1.14,1.14,0,0,1-.756.259.865.865,0,0,1-.923-.545.728.728,0,1,0-1.413.352A2.161,2.161,0,0,0,38.53,46.4v.067a.729.729,0,0,0,1.457,0v-.055a2.266,2.266,0,0,0,1.176-.678,1.656,1.656,0,0,0,.393-1.322c-.119-.98-.85-1.586-2.174-1.8-.8-.131-.81-.378-.813-.459-.017-.337.361-.449.477-.475a.844.844,0,0,1,.994.454.729.729,0,1,0,1.343-.564,2.217,2.217,0,0,0-1.4-1.268v-.073a.729.729,0,0,0-1.457,0v.083a1.9,1.9,0,0,0-1.417,1.914c.027.562.327,1.546,2.033,1.827.917.15.949.424.964.541A.218.218,0,0,1,40.062,44.786Zm-.8-5.642a4.205,4.205,0,1,0,4.205,4.205,4.21,4.21,0,0,0-4.205-4.205Zm0,9.867A5.662,5.662,0,1,0,33.6,43.349,5.669,5.669,0,0,0,39.259,49.011Zm12.452-4.379V42.065l-1.717-.66a.728.728,0,0,1-.447-.512,10.513,10.513,0,0,0-1.277-3.081.73.73,0,0,1-.046-.678l.748-1.682-1.816-1.816-1.683.748a.724.724,0,0,1-.678-.046,10.5,10.5,0,0,0-3.08-1.277.727.727,0,0,1-.511-.447L40.543,30.9H37.976l-.661,1.717a.729.729,0,0,1-.512.447,10.5,10.5,0,0,0-3.08,1.277.727.727,0,0,1-.678.046l-1.683-.748-1.815,1.816.748,1.683a.729.729,0,0,1-.045.677,10.5,10.5,0,0,0-1.277,3.081.73.73,0,0,1-.447.512l-1.717.66v2.567l1.717.661a.729.729,0,0,1,.447.512,10.515,10.515,0,0,0,1.277,3.081.727.727,0,0,1,.045.677l-.747,1.683,1.815,1.815,1.683-.748a.73.73,0,0,1,.678.045,10.522,10.522,0,0,0,3.08,1.278.73.73,0,0,1,.512.447l.661,1.717h2.567l.66-1.717a.732.732,0,0,1,.512-.447A10.5,10.5,0,0,0,44.8,52.36a.727.727,0,0,1,.678-.046l1.682.747,1.816-1.815-.748-1.683a.728.728,0,0,1,.046-.679,10.487,10.487,0,0,0,1.276-3.08.73.73,0,0,1,.447-.512ZM16.6,54.966H36.094l0-.008a11.973,11.973,0,0,1-2.8-1.16l-1.8.8a.729.729,0,0,1-.811-.151l-2.523-2.523a.728.728,0,0,1-.151-.81l.8-1.8a11.967,11.967,0,0,1-1.16-2.8l-1.833-.706a.729.729,0,0,1-.466-.679V41.565a.727.727,0,0,1,.466-.679l1.833-.706a11.939,11.939,0,0,1,1.16-2.8l-.8-1.8a.729.729,0,0,1,.151-.81l2.523-2.523a.728.728,0,0,1,.811-.15l1.8.8a11.928,11.928,0,0,1,2.8-1.159l.705-1.833a.729.729,0,0,1,.679-.467h3.568a.726.726,0,0,1,.6.312l.185-2.011H12.184l2.33,25.367A2.064,2.064,0,0,0,16.6,54.966ZM42.19,23.748l-.233,2.537H12.05l-.233-2.537Zm-32.732-4.8c0-.689,1.109-1.316,2.328-1.316H42.221c1.218,0,2.327.627,2.327,1.316v3.342H9.458Zm13.158-4.166a.328.328,0,0,1,.324-.324h8.126a.329.329,0,0,1,.324.324v1.393H22.616ZM52.7,40.885l-1.832-.7a11.979,11.979,0,0,0-1.16-2.8l.8-1.8a.727.727,0,0,0-.151-.81l-2.522-2.523a.731.731,0,0,0-.811-.15l-1.8.8a11.938,11.938,0,0,0-2.319-1.017l.747-8.135h1.216a1.106,1.106,0,0,0,1.137-1.125V18.949c0-1.736-1.925-2.773-3.785-2.773H32.848V14.783A1.783,1.783,0,0,0,31.066,13H22.94a1.783,1.783,0,0,0-1.781,1.781v1.393H11.786C9.965,16.176,8,17.236,8,18.949v3.674a1.106,1.106,0,0,0,1.136,1.125h1.217l2.709,29.5a3.514,3.514,0,0,0,3.54,3.18H36.654l.142.368a.728.728,0,0,0,.679.467h3.568a.729.729,0,0,0,.68-.467l.7-1.832a11.963,11.963,0,0,0,2.8-1.16l1.8.8a.729.729,0,0,0,.811-.151l2.522-2.523a.727.727,0,0,0,.151-.81l-.8-1.8a11.937,11.937,0,0,0,1.159-2.8l1.833-.706a.728.728,0,0,0,.467-.679V41.565a.729.729,0,0,0-.467-.68Z" fill-rule="evenodd"/>
    </g>
  </g>
</svg>
