<svg xmlns="http://www.w3.org/2000/svg" xmlns:xlink="http://www.w3.org/1999/xlink" width="93.934" height="93.934" viewBox="0 0 93.934 93.934">
  <defs>
    <filter id="Trazado_982547" x="0" y="0" width="93.934" height="93.934" filterUnits="userSpaceOnUse">
      <feOffset dy="3" input="SourceAlpha"/>
      <feGaussianBlur stdDeviation="3" result="blur"/>
      <feFlood flood-opacity="0.161"/>
      <feComposite operator="in" in2="blur"/>
      <feComposite in="SourceGraphic"/>
    </filter>
  </defs>
  <g id="Grupo_1207958" data-name="Grupo 1207958" transform="translate(-189 -896.864)">
    <g id="Grupo_1200933" data-name="Grupo 1200933" transform="translate(0 -3717.169)">
      <g id="Grupo_1183815" data-name="Grupo 1183815" transform="translate(0 4267.973)">
        <g id="Grupo_1181939" data-name="Grupo 1181939" transform="translate(0 -388.939)">
          <g id="Grupo_1175133" data-name="Grupo 1175133" transform="translate(-0.033 -1251)">
            <g id="Grupo_1167337" data-name="Grupo 1167337" transform="translate(198.033 1992)">
              <g id="Grupo_1166720" data-name="Grupo 1166720">
                <g id="Grupo_1164305" data-name="Grupo 1164305">
                  <g id="Grupo_1163948" data-name="Grupo 1163948">
                    <g id="Grupo_1158168" data-name="Grupo 1158168">
                      <g id="Grupo_1152576" data-name="Grupo 1152576">
                        <g id="Grupo_1148633" data-name="Grupo 1148633">
                          <g id="Grupo_1148525" data-name="Grupo 1148525">
                            <g transform="matrix(1, 0, 0, 1, -9, -6)" filter="url(#Trazado_982547)">
                              <g id="Trazado_982547-2" data-name="Trazado 982547" transform="translate(9 6)" fill="#f2f7e5">
                                <path d="M 37.966796875 74.43359375 C 33.04315185546875 74.43359375 28.26757431030273 73.46962738037109 23.77274131774902 71.56847381591797 C 19.43047523498535 69.73184967041016 15.53040790557861 67.10224914550781 12.18087482452393 63.75271987915039 C 8.831341743469238 60.4031867980957 6.201741218566895 56.50312042236328 4.365118980407715 52.16086196899414 C 2.463963508605957 47.66601943969727 1.499996900558472 42.89044189453125 1.499996900558472 37.966796875 C 1.499996900558472 33.04315185546875 2.463963508605957 28.26757431030273 4.365118980407715 23.77274131774902 C 6.201741218566895 19.43047523498535 8.831341743469238 15.53040790557861 12.18087482452393 12.18087482452393 C 15.53040790557861 8.831341743469238 19.43047523498535 6.201741218566895 23.77274131774902 4.365118980407715 C 28.26757431030273 2.463963508605957 33.04315185546875 1.499996900558472 37.966796875 1.499996900558472 C 42.89044189453125 1.499996900558472 47.66601943969727 2.463963508605957 52.16086196899414 4.365118980407715 C 56.50312042236328 6.201741218566895 60.4031867980957 8.831341743469238 63.75271987915039 12.18087482452393 C 67.10224914550781 15.53040790557861 69.73184967041016 19.43047523498535 71.56847381591797 23.77274131774902 C 73.46962738037109 28.26757431030273 74.43359375 33.04315185546875 74.43359375 37.966796875 C 74.43359375 42.89044189453125 73.46962738037109 47.66601943969727 71.56847381591797 52.16086196899414 C 69.73184967041016 56.50313186645508 67.10224914550781 60.4031867980957 63.75271987915039 63.75271987915039 C 60.4031867980957 67.10224914550781 56.50313186645508 69.73184967041016 52.16086196899414 71.56847381591797 C 47.66601943969727 73.46962738037109 42.89044189453125 74.43359375 37.966796875 74.43359375 Z" stroke="none"/>
                                <path d="M 37.966796875 3 C 33.2449836730957 3 28.66600799560547 3.924095153808594 24.35705947875977 5.746635437011719 C 20.19359588623047 7.507637023925781 16.45379638671875 10.02928161621094 13.24153518676758 13.24153518676758 C 10.02927398681641 16.45379638671875 7.507621765136719 20.19359588623047 5.746635437011719 24.35705947875977 C 3.924095153808594 28.66600799560547 3 33.2449836730957 3 37.966796875 C 3 42.6886100769043 3.924095153808594 47.26758575439453 5.746635437011719 51.57653427124023 C 7.507621765136719 55.73999786376953 10.02927398681641 59.47979736328125 13.24153518676758 62.69205856323242 C 16.45379638671875 65.90431976318359 20.19359588623047 68.42597198486328 24.35705947875977 70.18695831298828 C 28.66600799560547 72.00949859619141 33.2449836730957 72.93359375 37.966796875 72.93359375 C 42.6886100769043 72.93359375 47.26758575439453 72.00949859619141 51.57653427124023 70.18695831298828 C 55.73999786376953 68.42597198486328 59.47979736328125 65.90431976318359 62.69205856323242 62.69205856323242 C 65.90431976318359 59.47979736328125 68.42597198486328 55.73999786376953 70.18695831298828 51.57653427124023 C 72.00949859619141 47.26758575439453 72.93359375 42.6886100769043 72.93359375 37.966796875 C 72.93359375 33.2449836730957 72.00949859619141 28.66600799560547 70.18695831298828 24.35705947875977 C 68.42597198486328 20.19359588623047 65.90431976318359 16.45379638671875 62.69205856323242 13.24153518676758 C 59.47979736328125 10.02928161621094 55.73999786376953 7.507637023925781 51.57653427124023 5.746635437011719 C 47.26758575439453 3.924095153808594 42.6886100769043 3 37.966796875 3 M 37.966796875 0 C 58.93528366088867 0 75.93359375 16.99832153320312 75.93359375 37.966796875 C 75.93359375 58.93528366088867 58.93528366088867 75.93359375 37.966796875 75.93359375 C 16.99831008911133 75.93359375 0 58.93528366088867 0 37.966796875 C 0 16.99832153320312 16.99831008911133 0 37.966796875 0 Z" stroke="none" fill="#86b60c"/>
                              </g>
                            </g>
                          </g>
                        </g>
                      </g>
                    </g>
                  </g>
                </g>
              </g>
            </g>
          </g>
        </g>
      </g>
    </g>
    <g id="risk_8542085" transform="translate(202.709 907.573)">
      <g id="Grupo_1207948" data-name="Grupo 1207948" transform="translate(7.501 7.5)">
        <g id="Grupo_1207947" data-name="Grupo 1207947" transform="translate(0 25.782)">
          <path id="Trazado_1049582" data-name="Trazado 1049582" d="M31.864,266.42l-.051-.01a.865.865,0,0,1-.655-.6,11.2,11.2,0,0,0-.825-1.981.865.865,0,0,1,.039-.889l.033-.049a1.717,1.717,0,0,0-.215-2.167L28.765,259.3a1.719,1.719,0,0,0-2.168-.215l-.054.036a.866.866,0,0,1-.888.039,11.209,11.209,0,0,0-1.972-.817.865.865,0,0,1-.6-.655l-.013-.066a1.718,1.718,0,0,0-1.685-1.381H19.369a1.718,1.718,0,0,0-1.685,1.381l-.013.066a.865.865,0,0,1-.6.655,11.2,11.2,0,0,0-1.97.816.866.866,0,0,1-.888-.04l-.058-.039a1.719,1.719,0,0,0-2.168.215l-1.425,1.424a1.717,1.717,0,0,0-.215,2.167l.035.052a.865.865,0,0,1,.039.889A11.2,11.2,0,0,0,9.6,265.8a.865.865,0,0,1-.655.6l-.059.012A1.718,1.718,0,0,0,7.5,268.1v2.014A1.718,1.718,0,0,0,8.884,271.8l.047.009a.865.865,0,0,1,.656.6,11.191,11.191,0,0,0,.823,1.991.865.865,0,0,1-.04.887l-.026.039a1.717,1.717,0,0,0,.215,2.167l1.425,1.424a1.719,1.719,0,0,0,2.168.215l.031-.021a.866.866,0,0,1,.89-.038,11.209,11.209,0,0,0,2,.832.865.865,0,0,1,.6.655l.007.035a1.718,1.718,0,0,0,1.685,1.381h2.015a1.718,1.718,0,0,0,1.685-1.381l.006-.031a.865.865,0,0,1,.6-.655,11.208,11.208,0,0,0,2-.831.866.866,0,0,1,.889.039l.03.02a1.719,1.719,0,0,0,2.168-.215l1.425-1.424a1.717,1.717,0,0,0,.215-2.167l-.022-.033a.865.865,0,0,1-.039-.888,11.2,11.2,0,0,0,.826-2,.865.865,0,0,1,.656-.6l.043-.009a1.718,1.718,0,0,0,1.381-1.684V268.1A1.719,1.719,0,0,0,31.864,266.42Zm-11.49,7.809a5.1,5.1,0,1,1,5.106-5.1A5.1,5.1,0,0,1,20.374,274.229Z" transform="translate(-7.503 -256.243)" fill="#e2dee2"/>
          <g id="Grupo_1207946" data-name="Grupo 1207946" transform="translate(18.789 2.555)">
            <g id="Grupo_1207945" data-name="Grupo 1207945">
              <g id="Grupo_1207944" data-name="Grupo 1207944">
                <path id="Trazado_1049583" data-name="Trazado 1049583" d="M194.347,288.516l-.051-.01a.865.865,0,0,1-.655-.6,11.2,11.2,0,0,0-.825-1.981.865.865,0,0,1,.039-.889l.033-.049a1.717,1.717,0,0,0-.215-2.167l-1.425-1.424a1.719,1.719,0,0,0-2.168-.215l-.054.036a.846.846,0,0,1-.238.108c.026.023.052.045.076.07l1.425,1.424a1.717,1.717,0,0,1,.215,2.167l-.033.049a.865.865,0,0,0-.039.889,11.2,11.2,0,0,1,.825,1.981.865.865,0,0,0,.655.6l.051.01a1.718,1.718,0,0,1,1.381,1.684v2.014a1.718,1.718,0,0,1-1.381,1.684l-.043.009a.865.865,0,0,0-.656.6,11.2,11.2,0,0,1-.826,2,.865.865,0,0,0,.039.888l.022.033a1.717,1.717,0,0,1-.215,2.167l-1.425,1.424c-.027.027-.056.053-.085.078a.849.849,0,0,1,.271.117l.03.02a1.719,1.719,0,0,0,2.168-.215l1.425-1.424a1.717,1.717,0,0,0,.215-2.167l-.022-.033a.865.865,0,0,1-.039-.888,11.2,11.2,0,0,0,.826-2,.865.865,0,0,1,.656-.6l.043-.009a1.718,1.718,0,0,0,1.381-1.684V290.2A1.718,1.718,0,0,0,194.347,288.516Z" transform="translate(-188.775 -280.894)" fill="#cbc4cc"/>
              </g>
            </g>
          </g>
          <path id="Trazado_1049584" data-name="Trazado 1049584" d="M64.808,305.958a7.73,7.73,0,1,0,7.733,7.73A7.731,7.731,0,0,0,64.808,305.958Zm0,11.165a3.435,3.435,0,1,1,3.437-3.435A3.436,3.436,0,0,1,64.808,317.123Z" transform="translate(-51.937 -300.805)" fill="#b5adb6"/>
        </g>
        <path id="Trazado_1049585" data-name="Trazado 1049585" d="M293.178,31.513H276.134a3.488,3.488,0,0,1-3.121-5.048l8.522-17.037a3.49,3.49,0,0,1,6.243,0L296.3,26.465A3.488,3.488,0,0,1,293.178,31.513Z" transform="translate(-245.159 -7.5)" fill="#ffe177"/>
        <path id="Trazado_1049586" data-name="Trazado 1049586" d="M105.422,61.493V58.059a.859.859,0,0,0-.859-.859h-14.6a1.718,1.718,0,0,0-1.718,1.716l-.006,8.444a.429.429,0,0,1-.429.429H86.525a.429.429,0,0,0-.344.687L90.476,74.2a.43.43,0,0,0,.687,0l4.295-5.724a.429.429,0,0,0-.344-.687H93.826a.429.429,0,0,1-.429-.429V63.21a.859.859,0,0,1,.859-.859h10.307A.859.859,0,0,0,105.422,61.493Z" transform="translate(-77.949 -52.049)" fill="#01d0fb"/>
        <path id="Trazado_1049587" data-name="Trazado 1049587" d="M304.074,278.463l-4.295-5.724a.43.43,0,0,0-.687,0l-4.295,5.724a.429.429,0,0,0,.344.687h1.288a.429.429,0,0,1,.429.429v4.15a.859.859,0,0,1-.859.858h-6.012a.859.859,0,0,0-.859.859v3.434a.859.859,0,0,0,.859.859h10.3a1.717,1.717,0,0,0,1.718-1.716l.006-8.444a.429.429,0,0,1,.429-.429h1.288A.429.429,0,0,0,304.074,278.463Z" transform="translate(-259.939 -245.093)" fill="#01d0fb"/>
        <path id="Trazado_1049588" data-name="Trazado 1049588" d="M389.905,26.474,381.383,9.438a3.484,3.484,0,0,0-4.313-1.722A3.429,3.429,0,0,1,379,9.438l8.522,17.037a3.488,3.488,0,0,1-3.121,5.048h2.384A3.488,3.488,0,0,0,389.905,26.474Z" transform="translate(-338.765 -7.509)" fill="#ffd15b"/>
        <path id="Trazado_1049589" data-name="Trazado 1049589" d="M243.653,57.2h-2.384a.859.859,0,0,1,.859.859v3.434a.859.859,0,0,1-.859.859h2.384a.859.859,0,0,0,.859-.859V58.059A.859.859,0,0,0,243.653,57.2Z" transform="translate(-217.039 -52.049)" fill="#01c0fa"/>
        <path id="Trazado_1049590" data-name="Trazado 1049590" d="M379.972,278.463l-4.295-5.724a.43.43,0,0,0-.687,0l-.848,1.131,3.446,4.593a.429.429,0,0,1-.344.687h-1.288a.429.429,0,0,0-.429.429l-.006,8.444a1.718,1.718,0,0,1-1.718,1.716h2.384a1.717,1.717,0,0,0,1.718-1.716l.006-8.444a.429.429,0,0,1,.429-.429h1.288A.429.429,0,0,0,379.972,278.463Z" transform="translate(-335.836 -245.093)" fill="#01c0fa"/>
      </g>
      <g id="Grupo_1207957" data-name="Grupo 1207957" transform="translate(7.501 7.5)">
        <g id="Grupo_1207954" data-name="Grupo 1207954" transform="translate(0 0)">
          <g id="Grupo_1207952" data-name="Grupo 1207952" transform="translate(27.481)">
            <g id="Grupo_1207951" data-name="Grupo 1207951" transform="translate(11.202 4.739)">
              <path id="Trazado_1049591" data-name="Trazado 1049591" d="M382.343,178.57a.814.814,0,1,1-.814-.814A.814.814,0,0,1,382.343,178.57Z" transform="translate(-380.715 -164.848)"/>
              <g id="Grupo_1207950" data-name="Grupo 1207950" transform="translate(0.826)">
                <g id="Grupo_1207949" data-name="Grupo 1207949">
                  <line id="Línea_625" data-name="Línea 625" y1="10.419" fill="none" stroke="#000" stroke-linecap="round" stroke-linejoin="round" stroke-miterlimit="10" stroke-width="1"/>
                </g>
              </g>
            </g>
            <path id="Trazado_1049592" data-name="Trazado 1049592" d="M280.025,12.447l1.51-3.018a3.49,3.49,0,0,1,6.243,0L296.3,26.465a3.488,3.488,0,0,1-3.121,5.048H276.134a3.488,3.488,0,0,1-3.121-5.048l5.372-10.74" transform="translate(-272.64 -7.5)" fill="none" stroke="#000" stroke-linecap="round" stroke-linejoin="round" stroke-miterlimit="10" stroke-width="1"/>
          </g>
          <g id="Grupo_1207953" data-name="Grupo 1207953" transform="translate(0 25.782)">
            <path id="Trazado_1049593" data-name="Trazado 1049593" d="M33.243,270.12v-2.014a1.718,1.718,0,0,0-1.381-1.684l-.051-.01a.865.865,0,0,1-.655-.6,11.2,11.2,0,0,0-.825-1.981.865.865,0,0,1,.039-.889l.033-.049a1.717,1.717,0,0,0-.215-2.167L28.763,259.3a1.719,1.719,0,0,0-2.168-.215l-.055.036a.866.866,0,0,1-.888.039,11.207,11.207,0,0,0-1.972-.817.865.865,0,0,1-.6-.655l-.013-.066a1.718,1.718,0,0,0-1.685-1.381H19.367a1.718,1.718,0,0,0-1.685,1.381l-.013.066a.865.865,0,0,1-.6.655,11.2,11.2,0,0,0-1.97.816.866.866,0,0,1-.888-.039l-.058-.039a1.719,1.719,0,0,0-2.168.215l-1.425,1.424a1.717,1.717,0,0,0-.215,2.167l.035.052a.865.865,0,0,1,.039.889,11.2,11.2,0,0,0-.823,1.975.865.865,0,0,1-.655.6l-.059.012A1.718,1.718,0,0,0,7.5,268.1v2.014A1.718,1.718,0,0,0,8.882,271.8l.047.009a.865.865,0,0,1,.656.6,11.194,11.194,0,0,0,.823,1.991.865.865,0,0,1-.04.887l-.026.039a1.717,1.717,0,0,0,.215,2.167l1.425,1.424a1.719,1.719,0,0,0,2.168.215l.031-.021a.866.866,0,0,1,.89-.038,11.2,11.2,0,0,0,2,.832.865.865,0,0,1,.6.655l.007.035a1.718,1.718,0,0,0,1.685,1.381h2.015a1.718,1.718,0,0,0,1.685-1.381l.006-.031a.865.865,0,0,1,.6-.655,11.208,11.208,0,0,0,2-.831.866.866,0,0,1,.889.039l.03.02a1.719,1.719,0,0,0,2.168-.215l1.425-1.424a1.717,1.717,0,0,0,.215-2.167l-.022-.033a.865.865,0,0,1-.039-.888,11.2,11.2,0,0,0,.826-2,.865.865,0,0,1,.656-.6l.043-.009A1.718,1.718,0,0,0,33.243,270.12Z" transform="translate(-7.501 -256.244)" fill="none" stroke="#000" stroke-linecap="round" stroke-linejoin="round" stroke-miterlimit="10" stroke-width="1"/>
            <ellipse id="Elipse_11568" data-name="Elipse 11568" cx="3.437" cy="3.435" rx="3.437" ry="3.435" transform="translate(9.434 9.447)" fill="none" stroke="#000" stroke-linecap="round" stroke-linejoin="round" stroke-miterlimit="10" stroke-width="1"/>
            <ellipse id="Elipse_11569" data-name="Elipse 11569" cx="7.733" cy="7.73" rx="7.733" ry="7.73" transform="translate(5.138 5.153)" fill="none" stroke="#000" stroke-linecap="round" stroke-linejoin="round" stroke-miterlimit="10" stroke-width="1"/>
          </g>
          <path id="Trazado_1049594" data-name="Trazado 1049594" d="M105.422,61.493V58.059a.859.859,0,0,0-.859-.859h-14.6a1.718,1.718,0,0,0-1.718,1.716l-.006,8.444a.429.429,0,0,1-.429.429H86.525a.429.429,0,0,0-.344.687L90.476,74.2a.43.43,0,0,0,.687,0l4.295-5.724a.429.429,0,0,0-.344-.687H93.826a.429.429,0,0,1-.429-.429V63.21a.859.859,0,0,1,.859-.859h10.307A.859.859,0,0,0,105.422,61.493Z" transform="translate(-77.949 -52.049)" fill="none" stroke="#000" stroke-linecap="round" stroke-linejoin="round" stroke-miterlimit="10" stroke-width="1"/>
          <path id="Trazado_1049595" data-name="Trazado 1049595" d="M295.215,289.737h5.075a1.717,1.717,0,0,0,1.718-1.716l.006-8.444a.429.429,0,0,1,.429-.429h1.288a.429.429,0,0,0,.344-.687l-4.295-5.724a.43.43,0,0,0-.687,0l-4.295,5.724a.429.429,0,0,0,.344.687h1.288a.429.429,0,0,1,.429.429v4.15a.859.859,0,0,1-.859.859h-6.012a.859.859,0,0,0-.859.859v3.434a.859.859,0,0,0,.859.859h1.6" transform="translate(-259.938 -245.091)" fill="none" stroke="#000" stroke-linecap="round" stroke-linejoin="round" stroke-miterlimit="10" stroke-width="1"/>
        </g>
        <g id="Grupo_1207956" data-name="Grupo 1207956" transform="translate(39.509 4.739)">
          <g id="Grupo_1207955" data-name="Grupo 1207955">
            <line id="Línea_626" data-name="Línea 626" y1="10.419" fill="none" stroke="#000" stroke-linecap="round" stroke-linejoin="round" stroke-miterlimit="10" stroke-width="1"/>
          </g>
        </g>
      </g>
    </g>
  </g>
</svg>
