<svg xmlns="http://www.w3.org/2000/svg" xmlns:xlink="http://www.w3.org/1999/xlink" width="93.934" height="93.934" viewBox="0 0 93.934 93.934">
  <defs>
    <filter id="Trazado_982547" x="0" y="0" width="93.934" height="93.934" filterUnits="userSpaceOnUse">
      <feOffset dy="3" input="SourceAlpha"/>
      <feGaussianBlur stdDeviation="3" result="blur"/>
      <feFlood flood-opacity="0.161"/>
      <feComposite operator="in" in2="blur"/>
      <feComposite in="SourceGraphic"/>
    </filter>
  </defs>
  <g id="Grupo_1208170" data-name="Grupo 1208170" transform="translate(-609 -2102.932)">
    <g id="Grupo_1207740" data-name="Grupo 1207740" transform="translate(0 -3975.159)">
      <g id="Grupo_1185504" data-name="Grupo 1185504" transform="translate(420.598 -3401.478)">
        <g id="Grupo_1183665" data-name="Grupo 1183665" transform="translate(-0.598 8175.569)">
          <g id="Grupo_1181743" data-name="Grupo 1181743" transform="translate(0 569)">
            <g id="Grupo_1175133" data-name="Grupo 1175133" transform="translate(-0.033 -1251)">
              <g id="Grupo_1167337" data-name="Grupo 1167337" transform="translate(198.033 1992)">
                <g id="Grupo_1166720" data-name="Grupo 1166720">
                  <g id="Grupo_1164305" data-name="Grupo 1164305">
                    <g id="Grupo_1163948" data-name="Grupo 1163948">
                      <g id="Grupo_1158168" data-name="Grupo 1158168">
                        <g id="Grupo_1152576" data-name="Grupo 1152576">
                          <g id="Grupo_1148633" data-name="Grupo 1148633">
                            <g id="Grupo_1148525" data-name="Grupo 1148525">
                              <g transform="matrix(1, 0, 0, 1, -9, -6)" filter="url(#Trazado_982547)">
                                <g id="Trazado_982547-2" data-name="Trazado 982547" transform="translate(9 6)" fill="#f2f7e5">
                                  <path d="M 37.966796875 74.43359375 C 33.04315185546875 74.43359375 28.26757431030273 73.46962738037109 23.77274131774902 71.56847381591797 C 19.43047523498535 69.73184967041016 15.53040790557861 67.10224914550781 12.18087482452393 63.75271987915039 C 8.831341743469238 60.4031867980957 6.201741218566895 56.50312042236328 4.365118980407715 52.16086196899414 C 2.463963508605957 47.66601943969727 1.499996900558472 42.89044189453125 1.499996900558472 37.966796875 C 1.499996900558472 33.04315185546875 2.463963508605957 28.26757431030273 4.365118980407715 23.77274131774902 C 6.201741218566895 19.43047523498535 8.831341743469238 15.53040790557861 12.18087482452393 12.18087482452393 C 15.53040790557861 8.831341743469238 19.43047523498535 6.201741218566895 23.77274131774902 4.365118980407715 C 28.26757431030273 2.463963508605957 33.04315185546875 1.499996900558472 37.966796875 1.499996900558472 C 42.89044189453125 1.499996900558472 47.66601943969727 2.463963508605957 52.16086196899414 4.365118980407715 C 56.50312042236328 6.201741218566895 60.4031867980957 8.831341743469238 63.75271987915039 12.18087482452393 C 67.10224914550781 15.53040790557861 69.73184967041016 19.43047523498535 71.56847381591797 23.77274131774902 C 73.46962738037109 28.26757431030273 74.43359375 33.04315185546875 74.43359375 37.966796875 C 74.43359375 42.89044189453125 73.46962738037109 47.66601943969727 71.56847381591797 52.16086196899414 C 69.73184967041016 56.50313186645508 67.10224914550781 60.4031867980957 63.75271987915039 63.75271987915039 C 60.4031867980957 67.10224914550781 56.50313186645508 69.73184967041016 52.16086196899414 71.56847381591797 C 47.66601943969727 73.46962738037109 42.89044189453125 74.43359375 37.966796875 74.43359375 Z" stroke="none"/>
                                  <path d="M 37.966796875 3 C 33.2449836730957 3 28.66600799560547 3.924095153808594 24.35705947875977 5.746635437011719 C 20.19359588623047 7.507637023925781 16.45379638671875 10.02928161621094 13.24153518676758 13.24153518676758 C 10.02927398681641 16.45379638671875 7.507621765136719 20.19359588623047 5.746635437011719 24.35705947875977 C 3.924095153808594 28.66600799560547 3 33.2449836730957 3 37.966796875 C 3 42.6886100769043 3.924095153808594 47.26758575439453 5.746635437011719 51.57653427124023 C 7.507621765136719 55.73999786376953 10.02927398681641 59.47979736328125 13.24153518676758 62.69205856323242 C 16.45379638671875 65.90431976318359 20.19359588623047 68.42597198486328 24.35705947875977 70.18695831298828 C 28.66600799560547 72.00949859619141 33.2449836730957 72.93359375 37.966796875 72.93359375 C 42.6886100769043 72.93359375 47.26758575439453 72.00949859619141 51.57653427124023 70.18695831298828 C 55.73999786376953 68.42597198486328 59.47979736328125 65.90431976318359 62.69205856323242 62.69205856323242 C 65.90431976318359 59.47979736328125 68.42597198486328 55.73999786376953 70.18695831298828 51.57653427124023 C 72.00949859619141 47.26758575439453 72.93359375 42.6886100769043 72.93359375 37.966796875 C 72.93359375 33.2449836730957 72.00949859619141 28.66600799560547 70.18695831298828 24.35705947875977 C 68.42597198486328 20.19359588623047 65.90431976318359 16.45379638671875 62.69205856323242 13.24153518676758 C 59.47979736328125 10.02928161621094 55.73999786376953 7.507637023925781 51.57653427124023 5.746635437011719 C 47.26758575439453 3.924095153808594 42.6886100769043 3 37.966796875 3 M 37.966796875 0 C 58.93528366088867 0 75.93359375 16.99832153320312 75.93359375 37.966796875 C 75.93359375 58.93528366088867 58.93528366088867 75.93359375 37.966796875 75.93359375 C 16.99831008911133 75.93359375 0 58.93528366088867 0 37.966796875 C 0 16.99832153320312 16.99831008911133 0 37.966796875 0 Z" stroke="none" fill="#86b60c"/>
                                </g>
                              </g>
                            </g>
                          </g>
                        </g>
                      </g>
                    </g>
                  </g>
                </g>
              </g>
            </g>
          </g>
        </g>
      </g>
    </g>
    <g id="precio-bajo_1_" data-name="precio-bajo (1)" transform="translate(630.271 2124.738)">
      <g id="Layer_3" data-name="Layer 3" transform="translate(0.811 0.796)">
        <path id="Trazado_1050140" data-name="Trazado 1050140" d="M31.493,30.7c-2.207,0-3.194.016-3.194.016a1.605,1.605,0,0,1-1.613-1.605V18.024A11.237,11.237,0,1,0,7.43,18.04V29.108A1.605,1.605,0,0,1,6.908,30.3a1.662,1.662,0,0,1-1.092.417h-3.2A1.605,1.605,0,0,0,1.362,33.33L14.469,49.567a3.242,3.242,0,0,0,5.033,0L32.745,33.314A1.605,1.605,0,0,0,31.493,30.7Z" transform="translate(-1.003 -1)" fill="#fbf198"/>
        <path id="Trazado_1050141" data-name="Trazado 1050141" d="M8.613,29.108a1.587,1.587,0,0,1-.222.8h3.065a1.658,1.658,0,0,0,1.092-.417,1.605,1.605,0,0,0,.522-1.188V17.235A11.232,11.232,0,0,1,18.5,1.014c-.088,0-.174-.014-.262-.014A11.237,11.237,0,0,0,8.613,18.04Z" transform="translate(-2.186 -1)" fill="#fccf81"/>
        <path id="Trazado_1050142" data-name="Trazado 1050142" d="M18.926,56.07,5.816,39.832A1.575,1.575,0,0,1,5.69,38.02H2.614a1.605,1.605,0,0,0-1.252,2.617L14.469,56.874a3.242,3.242,0,0,0,5.033,0l.14-.171a3.187,3.187,0,0,1-.715-.633Z" transform="translate(-1.003 -8.307)" fill="#fccf81"/>
        <path id="Trazado_1050143" data-name="Trazado 1050143" d="M18.237,1A11.237,11.237,0,1,0,29.474,12.237,11.237,11.237,0,0,0,18.237,1Z" transform="translate(-2.187 -1)" fill="#ff8999"/>
        <circle id="Elipse_11572" data-name="Elipse 11572" cx="8.026" cy="8.026" r="8.026" transform="translate(8.024 3.211)" fill="#fbfaba"/>
        <path id="Trazado_1050144" data-name="Trazado 1050144" d="M23.034,19.458a8.015,8.015,0,0,1-4.853-14.4,8.026,8.026,0,1,0,5.7,14.357A8.115,8.115,0,0,1,23.034,19.458Z" transform="translate(-2.971 -1.801)" fill="#f5ec98"/>
        <path id="Trazado_1050145" data-name="Trazado 1050145" d="M57.445,12.237a.8.8,0,0,1,.618,1.332l-8.2,9.351a1.647,1.647,0,0,1-2.464,0L39.2,13.569a.8.8,0,0,1,.618-1.332h3.194V2.605A1.605,1.605,0,0,1,44.619,1h8.026A1.61,1.61,0,0,1,54.25,2.605v9.632Z" transform="translate(-8.503 -1)" fill="#fbf198"/>
        <g id="Grupo_1208169" data-name="Grupo 1208169" transform="translate(30.498)">
          <path id="Trazado_1050146" data-name="Trazado 1050146" d="M44.017,11.434h3.194V1.8a1.592,1.592,0,0,1,.222-.8H45.605A1.605,1.605,0,0,0,44,2.605v8.829Z" transform="translate(-39.988 -1)" fill="#fccf81"/>
          <path id="Trazado_1050147" data-name="Trazado 1050147" d="M42.412,15.53A.772.772,0,0,1,42.22,15h-2.4a.8.8,0,0,0-.618,1.332L47.4,25.683a1.647,1.647,0,0,0,2.464,0l.722-.827Z" transform="translate(-39.001 -3.763)" fill="#fccf81"/>
        </g>
      </g>
      <g id="Layer_1" data-name="Layer 1" transform="translate(0.03 -0.032)">
        <path id="Trazado_1050148" data-name="Trazado 1050148" d="M13.639,49.876a4.089,4.089,0,0,0,5.809.493,4.174,4.174,0,0,0,.47-.49L33.163,33.624A2.43,2.43,0,0,0,31.288,29.7c-2.2,0-3.2.016-3.2.016a.807.807,0,0,1-.811-.8V18.035a12.056,12.056,0,1,0-3.552,3.877.8.8,0,0,0-.921-1.314,10.412,10.412,0,1,1,2.983-3.187.9.9,0,0,0-.115.414V28.912a2.418,2.418,0,0,0,2.429,2.408c.006,0,.99-.016,3.182-.016a.814.814,0,0,1,.629,1.306L18.672,48.866a2.462,2.462,0,0,1-3.784,0L1.781,32.629a.811.811,0,0,1,.628-1.308h3.2a2.435,2.435,0,0,0,2.416-2.408V22.8a.8.8,0,0,0-1.605,0v6.108a.808.808,0,0,1-.811.8h-3.2A2.441,2.441,0,0,0,.532,33.638Z" transform="translate(-0.03 0.032)"/>
        <path id="Trazado_1050149" data-name="Trazado 1050149" d="M18.813,4.011a8.829,8.829,0,1,0,8.829,8.829,8.829,8.829,0,0,0-8.829-8.829Zm0,16.053a7.224,7.224,0,1,1,7.224-7.224,7.224,7.224,0,0,1-7.224,7.224Z" transform="translate(-1.994 -0.766)"/>
        <path id="Trazado_1050150" data-name="Trazado 1050150" d="M20.392,11.419H22a.8.8,0,0,0,0-1.605h-.8a.8.8,0,1,0-1.605,0v.137a2.408,2.408,0,0,0,.8,4.678.8.8,0,0,1,0,1.605H18.787a.8.8,0,1,0,0,1.605h.8a.8.8,0,0,0,1.605,0v-.148a2.4,2.4,0,0,0-.8-4.668.8.8,0,1,1,0-1.605Z" transform="translate(-3.573 -1.753)"/>
        <path id="Trazado_1050151" data-name="Trazado 1050151" d="M54.04,11.247a.8.8,0,0,0,0,1.605h3.211l-8.2,9.35a.865.865,0,0,1-1.259,0l-8.183-9.35H42.8a.8.8,0,0,0,.8-.8V2.418a.8.8,0,0,1,.8-.8h8.026a.8.8,0,0,1,.8.8V8.839a.8.8,0,1,0,1.605,0V2.418A2.408,2.408,0,0,0,52.432.01H44.406A2.408,2.408,0,0,0,42,2.418v8.829H39.606a1.622,1.622,0,0,0-1.222,2.664l8.2,9.351a2.479,2.479,0,0,0,3.67,0l8.2-9.351a1.584,1.584,0,0,0,.255-1.716,1.605,1.605,0,0,0-1.477-.948Z" transform="translate(-7.525 0.024)"/>
      </g>
    </g>
  </g>
</svg>
