<svg xmlns="http://www.w3.org/2000/svg" xmlns:xlink="http://www.w3.org/1999/xlink" width="113" height="113" viewBox="0 0 113 113">
  <defs>
    <filter id="Trazado_982547" x="0" y="0" width="113" height="113" filterUnits="userSpaceOnUse">
      <feOffset dy="3" input="SourceAlpha"/>
      <feGaussianBlur stdDeviation="3" result="blur"/>
      <feFlood flood-opacity="0.161"/>
      <feComposite operator="in" in2="blur"/>
      <feComposite in="SourceGraphic"/>
    </filter>
  </defs>
  <g id="Grupo_1207824" data-name="Grupo 1207824" transform="translate(-191 -295)">
    <g id="Grupo_1200897" data-name="Grupo 1200897" transform="translate(36 -5344)">
      <g id="Grupo_1200342" data-name="Grupo 1200342" transform="translate(0 606)">
        <g id="Grupo_1185978" data-name="Grupo 1185978" transform="translate(164 5039)">
          <g id="Grupo_1180760" data-name="Grupo 1180760">
            <g id="Grupo_1174888" data-name="Grupo 1174888">
              <g id="Grupo_1166845" data-name="Grupo 1166845">
                <g id="Grupo_1166720" data-name="Grupo 1166720">
                  <g id="Grupo_1164305" data-name="Grupo 1164305">
                    <g id="Grupo_1163948" data-name="Grupo 1163948">
                      <g id="Grupo_1158168" data-name="Grupo 1158168">
                        <g id="Grupo_1152576" data-name="Grupo 1152576">
                          <g id="Grupo_1148633" data-name="Grupo 1148633">
                            <g id="Grupo_1148525" data-name="Grupo 1148525">
                              <g transform="matrix(1, 0, 0, 1, -9, -6)" filter="url(#Trazado_982547)">
                                <g id="Trazado_982547-2" data-name="Trazado 982547" transform="translate(9 6)" fill="#fff4e6">
                                  <path d="M 47.5 93.5 C 41.28937149047852 93.5 35.26533508300781 92.28397369384766 29.59518623352051 89.88570404052734 C 24.11771965026855 87.56893157958984 19.19813346862793 84.25196075439453 14.97309303283691 80.02691650390625 C 10.74804019927979 75.80186462402344 7.431066513061523 70.88229370117188 5.114293098449707 65.40481567382812 C 2.716026782989502 59.73468017578125 1.5 53.71062850952148 1.5 47.5 C 1.5 41.28937149047852 2.716026782989502 35.26533508300781 5.114293098449707 29.59518623352051 C 7.431066513061523 24.11771965026855 10.74804019927979 19.19813346862793 14.97309303283691 14.97309303283691 C 19.19813346862793 10.74804019927979 24.11771965026855 7.431066513061523 29.59518623352051 5.114293098449707 C 35.26533508300781 2.716026782989502 41.28937149047852 1.5 47.5 1.5 C 53.71062850952148 1.5 59.73468017578125 2.716026782989502 65.40481567382812 5.114293098449707 C 70.88229370117188 7.431066513061523 75.80186462402344 10.74804019927979 80.02691650390625 14.97309303283691 C 84.25196075439453 19.19813346862793 87.56893157958984 24.11771965026855 89.88570404052734 29.59518623352051 C 92.28397369384766 35.26533508300781 93.5 41.28937149047852 93.5 47.5 C 93.5 53.71062850952148 92.28397369384766 59.73468017578125 89.88570404052734 65.40481567382812 C 87.56893157958984 70.88229370117188 84.25196075439453 75.80186462402344 80.02691650390625 80.02691650390625 C 75.80186462402344 84.25196075439453 70.88229370117188 87.56893157958984 65.40481567382812 89.88570404052734 C 59.73468017578125 92.28397369384766 53.71062850952148 93.5 47.5 93.5 Z" stroke="none"/>
                                  <path d="M 47.5 3 C 41.49121475219727 3 35.66376876831055 4.176155090332031 30.17950439453125 6.495796203613281 C 24.88084411621094 8.736953735351562 20.12152099609375 11.94598388671875 16.03375244140625 16.03375244140625 C 11.94598388671875 20.12152099609375 8.736953735351562 24.88084411621094 6.495796203613281 30.17950439453125 C 4.176155090332031 35.66376876831055 3 41.49121475219727 3 47.5 C 3 53.50878524780273 4.176155090332031 59.33623123168945 6.495796203613281 64.82049560546875 C 8.736953735351562 70.11915588378906 11.94598388671875 74.87847900390625 16.03375244140625 78.96624755859375 C 20.12152099609375 83.05401611328125 24.88084411621094 86.26304626464844 30.17950439453125 88.50419616699219 C 35.66376876831055 90.82384490966797 41.49121475219727 92 47.5 92 C 53.50878524780273 92 59.33623123168945 90.82384490966797 64.82049560546875 88.50419616699219 C 70.11915588378906 86.26304626464844 74.87847900390625 83.05401611328125 78.96624755859375 78.96624755859375 C 83.05401611328125 74.87847900390625 86.26304626464844 70.11915588378906 88.50419616699219 64.82049560546875 C 90.82384490966797 59.33623123168945 92 53.50878524780273 92 47.5 C 92 41.49121475219727 90.82384490966797 35.66376876831055 88.50419616699219 30.17950439453125 C 86.26304626464844 24.88084411621094 83.05401611328125 20.12152099609375 78.96624755859375 16.03375244140625 C 74.87847900390625 11.94598388671875 70.11915588378906 8.736953735351562 64.82049560546875 6.495796203613281 C 59.33623123168945 4.176155090332031 53.50878524780273 3 47.5 3 M 47.5 0 C 73.7335205078125 0 95 21.2664794921875 95 47.5 C 95 73.7335205078125 73.7335205078125 95 47.5 95 C 21.2664794921875 95 0 73.7335205078125 0 47.5 C 0 21.2664794921875 21.2664794921875 0 47.5 0 Z" stroke="none" fill="#ff9d1c"/>
                                </g>
                              </g>
                            </g>
                          </g>
                        </g>
                      </g>
                    </g>
                  </g>
                </g>
              </g>
            </g>
          </g>
        </g>
      </g>
    </g>
    <g id="sostenibilidad_1_" data-name="sostenibilidad (1)" transform="translate(190.051 285.692)">
      <g id="Grupo_1207823" data-name="Grupo 1207823" transform="translate(27.532 41.37)">
        <path id="Trazado_1049238" data-name="Trazado 1049238" d="M259.34,232.7l.013.519.784,18.8H257l.784-18.8.027-.519Z" transform="translate(-226.952 -214.365)" fill="#dd6e42" fill-rule="evenodd"/>
        <path id="Trazado_1049239" data-name="Trazado 1049239" d="M237.652,94.8a15.358,15.358,0,0,1,.2,22.217,15.358,15.358,0,0,1-.2-22.217Z" transform="translate(-206.141 -94.8)" fill="#718446" fill-rule="evenodd"/>
        <path id="Trazado_1049240" data-name="Trazado 1049240" d="M267.716,103.7a15.122,15.122,0,0,1,3.67,9.879,15.567,15.567,0,0,1-1.423,6.728,15.122,15.122,0,0,1-3.67-9.879A15.567,15.567,0,0,1,267.716,103.7Z" transform="translate(-235.009 -102.517)" fill="#b4c08b" fill-rule="evenodd"/>
        <path id="Trazado_1049241" data-name="Trazado 1049241" d="M138.217,227.158A14.921,14.921,0,0,0,120.8,214.421a14.921,14.921,0,0,0,17.417,12.737Z" transform="translate(-108.86 -198.266)" fill="#718446" fill-rule="evenodd"/>
        <path id="Trazado_1049242" data-name="Trazado 1049242" d="M172.547,227.168a14.7,14.7,0,0,0-5.73-8.483A15.152,15.152,0,0,0,160.7,216a14.642,14.642,0,0,0,5.73,8.483A15.231,15.231,0,0,0,172.547,227.168Z" transform="translate(-143.455 -199.885)" fill="#b4c08b" fill-rule="evenodd"/>
        <path id="Trazado_1049243" data-name="Trazado 1049243" d="M285.9,227.158a14.921,14.921,0,0,1,17.417-12.737A14.939,14.939,0,0,1,285.9,227.158Z" transform="translate(-252.009 -198.266)" fill="#718446" fill-rule="evenodd"/>
        <path id="Trazado_1049244" data-name="Trazado 1049244" d="M287.8,227.168a14.7,14.7,0,0,1,5.73-8.483A15.153,15.153,0,0,1,299.647,216a14.642,14.642,0,0,1-5.73,8.483A15.074,15.074,0,0,1,287.8,227.168Z" transform="translate(-253.656 -199.885)" fill="#b4c08b" fill-rule="evenodd"/>
        <path id="Trazado_1049245" data-name="Trazado 1049245" d="M166.7,344.574l14.9-6.595c2.805-1.25,5.837,2.407,1.808,4.893l-15.529,9.586a6.277,6.277,0,0,1-3.457.917l-15,.027-5.518-2.433.186-7.166h-1v-8.4h9.746a4.177,4.177,0,0,1,4.042,3.045h8.536a3.2,3.2,0,0,1,1.276,6.129Z" transform="translate(-128.195 -303.41)" fill="#e2bb92" fill-rule="evenodd"/>
        <path id="Trazado_1049246" data-name="Trazado 1049246" d="M188.316,353c2.207.213,3.71,3.071.386,5.132l-15.529,9.586a6.277,6.277,0,0,1-3.457.917l-15,.027-5.518-2.433.12-4.547c.572-.971,1.21-1.968,1.915-3Q171.4,368.35,188.316,353Z" transform="translate(-133.484 -318.67)" fill="#db9876" fill-rule="evenodd"/>
        <path id="Trazado_1049247" data-name="Trazado 1049247" d="M31,331.1h6.834v17.152H31Z" transform="translate(-31 -299.682)" fill="#d04d4d" fill-rule="evenodd"/>
        <path id="Trazado_1049248" data-name="Trazado 1049248" d="M31,395.7h6.834v8.576H31Z" transform="translate(-31 -355.693)" fill="#c62a29" fill-rule="evenodd"/>
        <path id="Trazado_1049249" data-name="Trazado 1049249" d="M85.033,315.1H90.67a2.639,2.639,0,0,1,2.633,2.633v15.955a2.639,2.639,0,0,1-2.633,2.633H85.033a2.639,2.639,0,0,1-2.633-2.633V317.733a2.639,2.639,0,0,1,2.633-2.633Z" transform="translate(-75.566 -285.809)" fill="#f598a2" fill-rule="evenodd"/>
        <path id="Trazado_1049250" data-name="Trazado 1049250" d="M93.4,395.7v7.884a2.639,2.639,0,0,1-2.633,2.633H85.133a2.639,2.639,0,0,1-2.633-2.633V395.7Z" transform="translate(-75.653 -355.693)" fill="#df5356" fill-rule="evenodd"/>
      </g>
      <path id="Trazado_1049251" data-name="Trazado 1049251" d="M37,70.129h5.637a3.2,3.2,0,0,1,3.138,2.7h6.409a4.712,4.712,0,0,1,4.427,3.058h.558l.239-5.571A.523.523,0,0,1,57,70.78c-6.236,1.343-12.9-1.954-16.141-7.406a14.081,14.081,0,0,1-1.928-5.757.534.534,0,0,1,.412-.612c6.236-1.343,12.9,1.954,16.141,7.419a14.081,14.081,0,0,1,1.928,5.757c0,.027.013.053.013.093l.306-7.419A15.968,15.968,0,0,1,58.7,41.011a.514.514,0,0,1,.7,0c4.946,4.321,6.315,11.847,3.816,17.87A14.606,14.606,0,0,1,60.6,63.056L60.9,70.3a.26.26,0,0,1,.013-.093,13.887,13.887,0,0,1,1.928-5.757C66.076,59,72.751,55.69,78.986,57.033a.534.534,0,0,1,.412.612A13.7,13.7,0,0,1,77.471,63.4c-3.231,5.451-9.905,8.762-16.141,7.406a.507.507,0,0,1-.412-.465l.239,5.571h3.6a3.73,3.73,0,0,1,3.457,5.106l12.5-5.531a3.278,3.278,0,0,1,3.244.293,2.839,2.839,0,0,1,1.25,2.42A3.968,3.968,0,0,1,83,81.324L67.5,90.857a6.718,6.718,0,0,1-3.736,1l-15,.027a.551.551,0,0,1-.213-.04l-3-1.316a3.166,3.166,0,0,1-2.912,1.915H37a3.2,3.2,0,0,1-2.925-1.954H27.532A.533.533,0,0,1,27,89.953V72.8a.533.533,0,0,1,.532-.532h6.475A3.182,3.182,0,0,1,37,70.129Zm8.815,3.763v15.37a1.143,1.143,0,0,1-.013.213l3.071,1.356L63.749,90.8a5.814,5.814,0,0,0,3.178-.838L82.457,80.38c1.4-.864,2.074-2.034,1.489-3.1a1.791,1.791,0,0,0-.6-.665,2.219,2.219,0,0,0-2.207-.186L66.262,83.012a.487.487,0,0,1-.239.053H54.655a.532.532,0,0,1,0-1.064H65.917a2.74,2.74,0,0,0,1.077-.944,2.67,2.67,0,0,0-2.234-4.122H56.224a.536.536,0,0,1-.519-.412,3.646,3.646,0,0,0-3.523-2.646H45.813Zm-3.164-2.7H37.012a2.105,2.105,0,0,0-2.1,2.1V89.248a2.105,2.105,0,0,0,2.1,2.1h5.637a2.105,2.105,0,0,0,2.1-2.1V73.293A2.105,2.105,0,0,0,42.649,71.193ZM33.834,73.32h-5.77V89.408h5.77Zm24.411,2.553h1.808l-.492-11.847A.52.52,0,0,1,58.91,64c-.053-.053-.106-.093-.16-.146ZM84.4,66.632a.535.535,0,0,1,1.037.266,27.555,27.555,0,0,1-2.619,6.568.533.533,0,0,1-.931-.519A25.676,25.676,0,0,0,84.4,66.632Zm-49.58,2.513a.53.53,0,0,1-1,.359A27.311,27.311,0,0,1,32.6,64.983l-.412,1.21a.528.528,0,0,1-1-.346l1-2.885a.538.538,0,0,1,.864-.213L35.4,64.93a.527.527,0,0,1-.718.771l-1.037-.971A24.8,24.8,0,0,0,34.818,69.145Zm52.026-14.2a.532.532,0,0,1,1.037.239l-.851,3.6a.527.527,0,0,1-.891.253l-2.633-2.207a.529.529,0,0,1,.678-.811l1.25,1.05C82.975,46.555,76.5,37.82,65.624,35.055A25.972,25.972,0,0,0,34.047,53.828a.529.529,0,0,1-1.024-.266A27.035,27.035,0,0,1,65.89,34.018C77.1,36.863,83.853,45.824,86.445,56.66ZM63.736,64.957a13.041,13.041,0,0,0-1.728,4.88c7.446,1.3,15.237-4.4,16.261-11.873A14.511,14.511,0,0,0,63.736,64.957ZM56.3,69.823C55.28,62.338,47.489,56.647,40.043,57.95,41.067,65.435,48.871,71.126,56.3,69.823Zm5.81-23.347a13.478,13.478,0,0,0-3.058-4.388c-5.571,5.451-5.478,15.423.2,20.781C63.5,58.721,64.481,51.887,62.114,46.476Z" transform="translate(0)"/>
    </g>
  </g>
</svg>
