<svg xmlns="http://www.w3.org/2000/svg" xmlns:xlink="http://www.w3.org/1999/xlink" width="113" height="113" viewBox="0 0 113 113">
  <defs>
    <filter id="Trazado_982547" x="0" y="0" width="113" height="113" filterUnits="userSpaceOnUse">
      <feOffset dy="3" input="SourceAlpha"/>
      <feGaussianBlur stdDeviation="3" result="blur"/>
      <feFlood flood-opacity="0.161"/>
      <feComposite operator="in" in2="blur"/>
      <feComposite in="SourceGraphic"/>
    </filter>
  </defs>
  <g id="Grupo_1207990" data-name="Grupo 1207990" transform="translate(-200.542 -336)">
    <g id="Grupo_1200932" data-name="Grupo 1200932" transform="translate(45.542 -5303)">
      <g id="Grupo_1200342" data-name="Grupo 1200342" transform="translate(0 606)">
        <g id="Grupo_1185978" data-name="Grupo 1185978" transform="translate(164 5039)">
          <g id="Grupo_1180760" data-name="Grupo 1180760">
            <g id="Grupo_1174888" data-name="Grupo 1174888">
              <g id="Grupo_1166845" data-name="Grupo 1166845">
                <g id="Grupo_1166720" data-name="Grupo 1166720">
                  <g id="Grupo_1164305" data-name="Grupo 1164305">
                    <g id="Grupo_1163948" data-name="Grupo 1163948">
                      <g id="Grupo_1158168" data-name="Grupo 1158168">
                        <g id="Grupo_1152576" data-name="Grupo 1152576">
                          <g id="Grupo_1148633" data-name="Grupo 1148633">
                            <g id="Grupo_1148525" data-name="Grupo 1148525">
                              <g transform="matrix(1, 0, 0, 1, -9, -6)" filter="url(#Trazado_982547)">
                                <g id="Trazado_982547-2" data-name="Trazado 982547" transform="translate(9 6)" fill="#fff4e6">
                                  <path d="M 47.5 93.5 C 41.28937149047852 93.5 35.26533508300781 92.28397369384766 29.59518623352051 89.88570404052734 C 24.11771965026855 87.56893157958984 19.19813346862793 84.25196075439453 14.97309303283691 80.02691650390625 C 10.74804019927979 75.80186462402344 7.431066513061523 70.88229370117188 5.114293098449707 65.40481567382812 C 2.716026782989502 59.73468017578125 1.5 53.71062850952148 1.5 47.5 C 1.5 41.28937149047852 2.716026782989502 35.26533508300781 5.114293098449707 29.59518623352051 C 7.431066513061523 24.11771965026855 10.74804019927979 19.19813346862793 14.97309303283691 14.97309303283691 C 19.19813346862793 10.74804019927979 24.11771965026855 7.431066513061523 29.59518623352051 5.114293098449707 C 35.26533508300781 2.716026782989502 41.28937149047852 1.5 47.5 1.5 C 53.71062850952148 1.5 59.73468017578125 2.716026782989502 65.40481567382812 5.114293098449707 C 70.88229370117188 7.431066513061523 75.80186462402344 10.74804019927979 80.02691650390625 14.97309303283691 C 84.25196075439453 19.19813346862793 87.56893157958984 24.11771965026855 89.88570404052734 29.59518623352051 C 92.28397369384766 35.26533508300781 93.5 41.28937149047852 93.5 47.5 C 93.5 53.71062850952148 92.28397369384766 59.73468017578125 89.88570404052734 65.40481567382812 C 87.56893157958984 70.88229370117188 84.25196075439453 75.80186462402344 80.02691650390625 80.02691650390625 C 75.80186462402344 84.25196075439453 70.88229370117188 87.56893157958984 65.40481567382812 89.88570404052734 C 59.73468017578125 92.28397369384766 53.71062850952148 93.5 47.5 93.5 Z" stroke="none"/>
                                  <path d="M 47.5 3 C 41.49121475219727 3 35.66376876831055 4.176155090332031 30.17950439453125 6.495796203613281 C 24.88084411621094 8.736953735351562 20.12152099609375 11.94598388671875 16.03375244140625 16.03375244140625 C 11.94598388671875 20.12152099609375 8.736953735351562 24.88084411621094 6.495796203613281 30.17950439453125 C 4.176155090332031 35.66376876831055 3 41.49121475219727 3 47.5 C 3 53.50878524780273 4.176155090332031 59.33623123168945 6.495796203613281 64.82049560546875 C 8.736953735351562 70.11915588378906 11.94598388671875 74.87847900390625 16.03375244140625 78.96624755859375 C 20.12152099609375 83.05401611328125 24.88084411621094 86.26304626464844 30.17950439453125 88.50419616699219 C 35.66376876831055 90.82384490966797 41.49121475219727 92 47.5 92 C 53.50878524780273 92 59.33623123168945 90.82384490966797 64.82049560546875 88.50419616699219 C 70.11915588378906 86.26304626464844 74.87847900390625 83.05401611328125 78.96624755859375 78.96624755859375 C 83.05401611328125 74.87847900390625 86.26304626464844 70.11915588378906 88.50419616699219 64.82049560546875 C 90.82384490966797 59.33623123168945 92 53.50878524780273 92 47.5 C 92 41.49121475219727 90.82384490966797 35.66376876831055 88.50419616699219 30.17950439453125 C 86.26304626464844 24.88084411621094 83.05401611328125 20.12152099609375 78.96624755859375 16.03375244140625 C 74.87847900390625 11.94598388671875 70.11915588378906 8.736953735351562 64.82049560546875 6.495796203613281 C 59.33623123168945 4.176155090332031 53.50878524780273 3 47.5 3 M 47.5 0 C 73.7335205078125 0 95 21.2664794921875 95 47.5 C 95 73.7335205078125 73.7335205078125 95 47.5 95 C 21.2664794921875 95 0 73.7335205078125 0 47.5 C 0 21.2664794921875 21.2664794921875 0 47.5 0 Z" stroke="none" fill="#ff9d1c"/>
                                </g>
                              </g>
                            </g>
                          </g>
                        </g>
                      </g>
                    </g>
                  </g>
                </g>
              </g>
            </g>
          </g>
        </g>
      </g>
    </g>
    <g id="Artboard491" transform="translate(207.125 325.868)">
      <g id="Grupo_1207989" data-name="Grupo 1207989" transform="translate(7 23.584)">
        <g id="Grupo_1207988" data-name="Grupo 1207988" transform="translate(1.462 1.341)">
          <g id="Grupo_1207981" data-name="Grupo 1207981" transform="translate(11.529 12.024)">
            <path id="Trazado_1049645" data-name="Trazado 1049645" d="M108.791,100.815a26.72,26.72,0,1,1-26.721,26.718,26.717,26.717,0,0,1,26.721-26.718Z" transform="translate(-82.069 -100.815)" fill="#8ac9fe" fill-rule="evenodd"/>
            <path id="Trazado_1049646" data-name="Trazado 1049646" d="M230.386,100.815a26.72,26.72,0,0,1,0,53.44c-.429,0-.852-.01-1.275-.032a26.719,26.719,0,0,0,0-53.377c.423-.022.846-.032,1.275-.032Z" transform="translate(-203.665 -100.815)" fill="#41a8fc" fill-rule="evenodd"/>
          </g>
          <g id="Grupo_1207982" data-name="Grupo 1207982">
            <path id="Trazado_1049647" data-name="Trazado 1049647" d="M36.6,34.255A15.035,15.035,0,0,1,41,36.082l2.864-1.271,3.374,3.374-1.27,2.864A15.033,15.033,0,0,1,47.8,45.457l2.922,1.125v4.774L47.8,52.48a15.045,15.045,0,0,1-1.827,4.405l1.27,2.864-3.374,3.376L41,61.853A15.039,15.039,0,0,1,36.6,63.682L35.471,66.6H30.7l-1.125-2.922a15.046,15.046,0,0,1-4.405-1.827L22.3,63.126l-3.376-3.376L20.2,56.887a15.085,15.085,0,0,1-1.829-4.407l-2.92-1.125V46.582l2.92-1.125A15.039,15.039,0,0,1,20.2,41.05l-1.272-2.864L22.3,34.811l2.862,1.271a15.082,15.082,0,0,1,4.407-1.827L30.7,31.333h4.774Z" transform="translate(-15.451 -31.333)" fill="#ffe177" fill-rule="evenodd"/>
            <path id="Trazado_1049648" data-name="Trazado 1049648" d="M73.609,35.238l.962-.427,3.374,3.374-1.27,2.864A15.033,15.033,0,0,1,78.5,45.457l2.922,1.125v4.774L78.5,52.48a15.044,15.044,0,0,1-1.827,4.405l1.27,2.864-3.374,3.376-.962-.427,2.949-2.949-1.273-2.864a15.045,15.045,0,0,0,1.827-4.405l2.922-1.125V46.582l-2.922-1.125a15.034,15.034,0,0,0-1.827-4.407l1.273-2.864Zm-21.028,0,.427-.427,2.862,1.271c-.2.112-.4.229-.6.352ZM67.3,34.255a15.035,15.035,0,0,1,4.407,1.827l-.789.352a19.666,19.666,0,0,0-5.007-2.179l-1.125-2.922h1.389Zm-11.429,27.6-2.864,1.273-.427-.427,2.691-1.2q.294.181.6.35Zm15.836,0A15.039,15.039,0,0,1,67.3,63.682L66.176,66.6H64.786l1.125-2.92A19.711,19.711,0,0,0,70.92,61.5Z" transform="translate(-46.155 -31.333)" fill="#ffd064" fill-rule="evenodd"/>
            <path id="Trazado_1049649" data-name="Trazado 1049649" d="M77.254,86.954a8.391,8.391,0,1,1-8.39,8.392A8.392,8.392,0,0,1,77.254,86.954Z" transform="translate(-59.621 -77.328)" fill="#eceff1" fill-rule="evenodd"/>
            <path id="Trazado_1049650" data-name="Trazado 1049650" d="M77.254,86.954c.191,0,.38.007.569.02a8.39,8.39,0,0,0,0,16.743c-.189.012-.378.019-.569.019a8.391,8.391,0,0,1,0-16.782Z" transform="translate(-59.621 -77.328)" fill="#d1d1d6" fill-rule="evenodd"/>
          </g>
          <g id="Grupo_1207987" data-name="Grupo 1207987" transform="translate(48.701 30.295)">
            <g id="Grupo_1207986" data-name="Grupo 1207986">
              <path id="Trazado_1049651" data-name="Trazado 1049651" d="M329.587,240.264H297.913a1.044,1.044,0,0,0-1.042,1.042v38.6a1.045,1.045,0,0,0,1.042,1.045h31.674a1.046,1.046,0,0,0,1.045-1.045v-38.6A1.045,1.045,0,0,0,329.587,240.264Z" transform="translate(-296.87 -234.402)" fill="#eceff1" fill-rule="evenodd"/>
              <path id="Trazado_1049652" data-name="Trazado 1049652" d="M481.879,240.264h-.846v40.69h.846a1.046,1.046,0,0,0,1.045-1.045v-38.6A1.045,1.045,0,0,0,481.879,240.264Z" transform="translate(-449.163 -234.402)" fill="#d1d1d6" fill-rule="evenodd"/>
              <path id="Trazado_1049653" data-name="Trazado 1049653" d="M347.193,209.208h3.784a3.683,3.683,0,0,1,7.16,0h3.781a.98.98,0,0,1,.981.978v3.676a.98.98,0,0,1-.981.978H347.193a.98.98,0,0,1-.978-.978v-3.676A.98.98,0,0,1,347.193,209.208Z" transform="translate(-337.676 -206.391)" fill="#e3a76f" fill-rule="evenodd"/>
              <path id="Trazado_1049654" data-name="Trazado 1049654" d="M361.917,222.671a.98.98,0,0,1,.981.978v3.676a.98.98,0,0,1-.981.978H347.193a.98.98,0,0,1-.978-.978H360.94a.982.982,0,0,0,.978-.981Z" transform="translate(-337.676 -219.854)" fill="#c48958" fill-rule="evenodd"/>
              <g id="Grupo_1207983" data-name="Grupo 1207983" transform="translate(4.672 12.327)">
                <path id="Trazado_1049655" data-name="Trazado 1049655" d="M324.62,277.621h5.774a.758.758,0,0,1,.755.755v5.774a.756.756,0,0,1-.755.755H324.62a.756.756,0,0,1-.755-.755v-5.774A.758.758,0,0,1,324.62,277.621Z" transform="translate(-323.865 -277.621)" fill="#8ac9fe" fill-rule="evenodd"/>
                <path id="Trazado_1049656" data-name="Trazado 1049656" d="M354.541,277.621h1.221a.758.758,0,0,1,.755.755v5.774a.756.756,0,0,1-.755.755h-1.221a.758.758,0,0,0,.755-.755v-5.774A.76.76,0,0,0,354.541,277.621Z" transform="translate(-349.232 -277.621)" fill="#60b7ff" fill-rule="evenodd"/>
              </g>
              <g id="Grupo_1207984" data-name="Grupo 1207984" transform="translate(4.672 23.692)">
                <path id="Trazado_1049657" data-name="Trazado 1049657" d="M324.62,343.295h5.774a.758.758,0,0,1,.755.755v5.777a.755.755,0,0,1-.755.752H324.62a.755.755,0,0,1-.755-.752V344.05A.758.758,0,0,1,324.62,343.295Z" transform="translate(-323.865 -343.295)" fill="#ffe177" fill-rule="evenodd"/>
                <path id="Trazado_1049658" data-name="Trazado 1049658" d="M354.541,343.295h1.221a.758.758,0,0,1,.755.755v5.777a.755.755,0,0,1-.755.752h-1.221a.757.757,0,0,0,.755-.752V344.05A.76.76,0,0,0,354.541,343.295Z" transform="translate(-349.232 -343.295)" fill="#ffd064" fill-rule="evenodd"/>
              </g>
              <g id="Grupo_1207985" data-name="Grupo 1207985" transform="translate(4.672 34.917)">
                <path id="Trazado_1049659" data-name="Trazado 1049659" d="M324.62,408.158h5.774a.758.758,0,0,1,.755.755v5.777a.755.755,0,0,1-.755.752H324.62a.755.755,0,0,1-.755-.752v-5.777A.758.758,0,0,1,324.62,408.158Z" transform="translate(-323.865 -408.158)" fill="#fe646f" fill-rule="evenodd"/>
                <path id="Trazado_1049660" data-name="Trazado 1049660" d="M354.541,408.158h1.221a.758.758,0,0,1,.755.755v5.777a.755.755,0,0,1-.755.752h-1.221a.757.757,0,0,0,.755-.752v-5.777A.76.76,0,0,0,354.541,408.158Z" transform="translate(-349.232 -408.158)" fill="#fd4755" fill-rule="evenodd"/>
              </g>
            </g>
          </g>
        </g>
        <path id="Trazado_1049661" data-name="Trazado 1049661" d="M19.47,57.76q-.744-.322-1.455-.716l-2.218.982a1.385,1.385,0,0,1-1.54-.287l-3.373-3.373a1.384,1.384,0,0,1-.286-1.541l.985-2.214a16.484,16.484,0,0,1-1.434-3.456l-2.261-.87A1.384,1.384,0,0,1,7,44.992V40.221a1.384,1.384,0,0,1,.887-1.292l2.261-.87a16.485,16.485,0,0,1,1.435-3.46L10.6,32.383a1.384,1.384,0,0,1,.286-1.541l3.373-3.373a1.384,1.384,0,0,1,1.541-.286l2.215.985a16.38,16.38,0,0,1,3.456-1.432l.874-2.265a1.384,1.384,0,0,1,1.292-.886h4.772a1.385,1.385,0,0,1,1.292.888l.87,2.264a16.385,16.385,0,0,1,3.455,1.432l2.215-.985a1.384,1.384,0,0,1,1.541.286l3.373,3.373a1.384,1.384,0,0,1,.287,1.54L40.461,34.6a16.356,16.356,0,0,1,.9,1.906A28.14,28.14,0,0,1,73.248,54.388a4.883,4.883,0,0,1,.568-.033,4.831,4.831,0,0,1,4.3,2.635h3.5a1.385,1.385,0,0,1,1.384,1.384v1.19h6.418a3.421,3.421,0,0,1,3.412,3.412V100.27a3.418,3.418,0,0,1-3.412,3.41H58.212a3.418,3.418,0,0,1-3.412-3.41V91.03A28.123,28.123,0,0,1,19.47,57.76ZM44.988,39.844a1.38,1.38,0,0,1,.052.376v4.772a1.384,1.384,0,0,1-.887,1.292l-2.26.87q-.224.781-.524,1.536c1.353.171,2.727.279,4.106.322V39.5q-.246.17-.487.345ZM40.815,51.41l.628,1.417a1.384,1.384,0,0,1-.287,1.54L37.782,57.74a1.385,1.385,0,0,1-1.54.287l-2.215-.981q-.343.191-.7.365a29.669,29.669,0,0,0-.709,5.272H45.475V51.777A46.261,46.261,0,0,1,40.815,51.41Zm-10.7,8.249L29.7,60.737a1.385,1.385,0,0,1-1.292.887H23.637a1.385,1.385,0,0,1-1.292-.887l-.428-1.113a25.4,25.4,0,0,0-.351,3.059h8.287Q29.914,61.152,30.116,59.658ZM70.7,55.493a25.318,25.318,0,0,0-4.844-8.179,30.183,30.183,0,0,1-5.3,2.347,32.3,32.3,0,0,1,3.04,9.9h1.029v-1.19a1.385,1.385,0,0,1,1.384-1.384h3.5a4.856,4.856,0,0,1,1.189-1.5ZM63.838,45.268a25.272,25.272,0,0,0-11.216-5.875A32.9,32.9,0,0,1,59.212,47.2,28.521,28.521,0,0,0,63.838,45.268ZM83.005,62.333v1.312a1.384,1.384,0,0,1-1.384,1.384H66.014a1.384,1.384,0,0,1-1.384-1.384V62.333H58.212a.645.645,0,0,0-.644.644V100.27a.644.644,0,0,0,.644.641H89.423a.644.644,0,0,0,.644-.641V62.977a.645.645,0,0,0-.644-.644ZM54.8,88.13V86.691q-1.026,1.066-2.154,2.044Q53.741,88.479,54.8,88.13Zm0-5.656V79.836a42.954,42.954,0,0,0-6.555-.707v9.52A29.982,29.982,0,0,0,54.8,82.473Zm0-5.451V65.451H48.244V76.368A45.637,45.637,0,0,1,54.8,77.023Zm.013-14.34a3.423,3.423,0,0,1,3.4-3.118H60.8a29.55,29.55,0,0,0-2.942-9.107,44.561,44.561,0,0,1-9.617,1.318V62.682ZM21.565,65.451a25.227,25.227,0,0,0,6.3,15.377,30.134,30.134,0,0,1,5.3-2.347,32.718,32.718,0,0,1-3.313-13.03Zm8.326,17.422a25.272,25.272,0,0,0,11.191,5.863,32.55,32.55,0,0,1-6.57-7.8A28.491,28.491,0,0,0,29.891,82.874Zm18.354-43.38v9.52a41.754,41.754,0,0,0,8.184-1.042A30.146,30.146,0,0,0,48.244,39.494ZM45.475,65.451H32.628a29.942,29.942,0,0,0,3.242,12.234,44.568,44.568,0,0,1,9.606-1.316Zm0,23.193V79.127a41.7,41.7,0,0,0-8.181,1.043A29.878,29.878,0,0,0,45.475,88.644ZM28.24,28.391l-.783-2.039H24.586l-.787,2.04a1.385,1.385,0,0,1-.972.848,13.623,13.623,0,0,0-4,1.658,1.384,1.384,0,0,1-1.289.086L15.543,30.1l-2.029,2.028.887,1.995a1.384,1.384,0,0,1-.086,1.289,13.741,13.741,0,0,0-1.663,4.008,1.384,1.384,0,0,1-.849.969l-2.034.783v2.87l2.034.783a1.384,1.384,0,0,1,.849.968,13.71,13.71,0,0,0,1.662,4,1.384,1.384,0,0,1,.088,1.291l-.887,1.995,2.03,2.029,2-.884a1.384,1.384,0,0,1,1.284.085,13.73,13.73,0,0,0,4.007,1.659,1.384,1.384,0,0,1,.973.85l.783,2.034h2.87l.783-2.034a1.384,1.384,0,0,1,.972-.85,13.568,13.568,0,0,0,4-1.657,1.384,1.384,0,0,1,1.289-.088l2,.884,2.03-2.03-.884-2a1.384,1.384,0,0,1,.085-1.284,13.757,13.757,0,0,0,1.66-4,1.384,1.384,0,0,1,.85-.972l2.035-.783v-2.87l-2.035-.783a1.384,1.384,0,0,1-.85-.973,13.594,13.594,0,0,0-1.658-4,1.384,1.384,0,0,1-.087-1.287l.884-2L36.5,30.1l-1.995.887a1.384,1.384,0,0,1-1.289-.086,13.625,13.625,0,0,0-4-1.658,1.384,1.384,0,0,1-.972-.85ZM26.02,32.9A9.71,9.71,0,1,1,16.313,42.6,9.709,9.709,0,0,1,26.02,32.9Zm0,2.769A6.941,6.941,0,1,0,32.963,42.6,6.936,6.936,0,0,0,26.02,35.666ZM67.4,59.759v2.5H80.236v-2.5H77.167a1.384,1.384,0,0,1-1.346-1.06,2.062,2.062,0,0,0-4.007,0,1.384,1.384,0,0,1-1.346,1.06Zm6.418-.284a.911.911,0,1,1,.912-.909A.911.911,0,0,1,73.816,59.475ZM74.4,70.718a1.384,1.384,0,0,1,0-2.769h9.456a1.384,1.384,0,1,1,0,2.769ZM63.8,66.845h3.5a2.545,2.545,0,0,1,2.541,2.541v3.5A2.549,2.549,0,0,1,67.3,75.428H63.8a2.549,2.549,0,0,1-2.538-2.541v-3.5A2.546,2.546,0,0,1,63.8,66.845Zm.231,2.769v3.046h3.043V69.614ZM74.4,84.428a1.384,1.384,0,0,1,0-2.769h4.728a1.384,1.384,0,0,1,0,2.769Zm0,8.788a1.384,1.384,0,0,1,0-2.769h9.456a1.384,1.384,0,1,1,0,2.769ZM63.8,78.092h3.5a2.546,2.546,0,0,1,2.541,2.541v3.5A2.546,2.546,0,0,1,67.3,86.676H63.8a2.546,2.546,0,0,1-2.539-2.539v-3.5A2.546,2.546,0,0,1,63.8,78.092Zm.23,2.769v3.045h3.046V80.861Zm10.37-6.54a1.384,1.384,0,0,1,0-2.769h4.728a1.384,1.384,0,0,1,0,2.769Zm0,6.5a1.384,1.384,0,0,1,0-2.769h9.456a1.384,1.384,0,1,1,0,2.769ZM63.8,89.341h3.5a2.546,2.546,0,0,1,2.541,2.539v3.5A2.546,2.546,0,0,1,67.3,97.924H63.8a2.546,2.546,0,0,1-2.539-2.541v-3.5A2.546,2.546,0,0,1,63.8,89.341Zm.23,2.769v3.045h3.046V92.11ZM74.4,96.819a1.384,1.384,0,0,1,0-2.769h4.728a1.384,1.384,0,1,1,0,2.769Z" transform="translate(-7 -23.584)" fill-rule="evenodd"/>
      </g>
    </g>
  </g>
</svg>
