<svg xmlns="http://www.w3.org/2000/svg" xmlns:xlink="http://www.w3.org/1999/xlink" width="93.934" height="93.934" viewBox="0 0 93.934 93.934">
  <defs>
    <filter id="Trazado_982547" x="0" y="0" width="93.934" height="93.934" filterUnits="userSpaceOnUse">
      <feOffset dy="3" input="SourceAlpha"/>
      <feGaussianBlur stdDeviation="3" result="blur"/>
      <feFlood flood-opacity="0.161"/>
      <feComposite operator="in" in2="blur"/>
      <feComposite in="SourceGraphic"/>
    </filter>
  </defs>
  <g id="Grupo_1208174" data-name="Grupo 1208174" transform="translate(-609 -2242.511)">
    <g id="Grupo_1207741" data-name="Grupo 1207741" transform="translate(0 -3964.579)">
      <g id="Grupo_1206678" data-name="Grupo 1206678" transform="translate(420.598 -3272.478)">
        <g id="Grupo_1183665" data-name="Grupo 1183665" transform="translate(-0.598 8175.569)">
          <g id="Grupo_1181743" data-name="Grupo 1181743" transform="translate(0 569)">
            <g id="Grupo_1175133" data-name="Grupo 1175133" transform="translate(-0.033 -1251)">
              <g id="Grupo_1167337" data-name="Grupo 1167337" transform="translate(198.033 1992)">
                <g id="Grupo_1166720" data-name="Grupo 1166720">
                  <g id="Grupo_1164305" data-name="Grupo 1164305">
                    <g id="Grupo_1163948" data-name="Grupo 1163948">
                      <g id="Grupo_1158168" data-name="Grupo 1158168">
                        <g id="Grupo_1152576" data-name="Grupo 1152576">
                          <g id="Grupo_1148633" data-name="Grupo 1148633">
                            <g id="Grupo_1148525" data-name="Grupo 1148525">
                              <g transform="matrix(1, 0, 0, 1, -9, -6)" filter="url(#Trazado_982547)">
                                <g id="Trazado_982547-2" data-name="Trazado 982547" transform="translate(9 6)" fill="#f2f7e5">
                                  <path d="M 37.966796875 74.43359375 C 33.04315185546875 74.43359375 28.26757431030273 73.46962738037109 23.77274131774902 71.56847381591797 C 19.43047523498535 69.73184967041016 15.53040790557861 67.10224914550781 12.18087482452393 63.75271987915039 C 8.831341743469238 60.4031867980957 6.201741218566895 56.50312042236328 4.365118980407715 52.16086196899414 C 2.463963508605957 47.66601943969727 1.499996900558472 42.89044189453125 1.499996900558472 37.966796875 C 1.499996900558472 33.04315185546875 2.463963508605957 28.26757431030273 4.365118980407715 23.77274131774902 C 6.201741218566895 19.43047523498535 8.831341743469238 15.53040790557861 12.18087482452393 12.18087482452393 C 15.53040790557861 8.831341743469238 19.43047523498535 6.201741218566895 23.77274131774902 4.365118980407715 C 28.26757431030273 2.463963508605957 33.04315185546875 1.499996900558472 37.966796875 1.499996900558472 C 42.89044189453125 1.499996900558472 47.66601943969727 2.463963508605957 52.16086196899414 4.365118980407715 C 56.50312042236328 6.201741218566895 60.4031867980957 8.831341743469238 63.75271987915039 12.18087482452393 C 67.10224914550781 15.53040790557861 69.73184967041016 19.43047523498535 71.56847381591797 23.77274131774902 C 73.46962738037109 28.26757431030273 74.43359375 33.04315185546875 74.43359375 37.966796875 C 74.43359375 42.89044189453125 73.46962738037109 47.66601943969727 71.56847381591797 52.16086196899414 C 69.73184967041016 56.50313186645508 67.10224914550781 60.4031867980957 63.75271987915039 63.75271987915039 C 60.4031867980957 67.10224914550781 56.50313186645508 69.73184967041016 52.16086196899414 71.56847381591797 C 47.66601943969727 73.46962738037109 42.89044189453125 74.43359375 37.966796875 74.43359375 Z" stroke="none"/>
                                  <path d="M 37.966796875 3 C 33.2449836730957 3 28.66600799560547 3.924095153808594 24.35705947875977 5.746635437011719 C 20.19359588623047 7.507637023925781 16.45379638671875 10.02928161621094 13.24153518676758 13.24153518676758 C 10.02927398681641 16.45379638671875 7.507621765136719 20.19359588623047 5.746635437011719 24.35705947875977 C 3.924095153808594 28.66600799560547 3 33.2449836730957 3 37.966796875 C 3 42.6886100769043 3.924095153808594 47.26758575439453 5.746635437011719 51.57653427124023 C 7.507621765136719 55.73999786376953 10.02927398681641 59.47979736328125 13.24153518676758 62.69205856323242 C 16.45379638671875 65.90431976318359 20.19359588623047 68.42597198486328 24.35705947875977 70.18695831298828 C 28.66600799560547 72.00949859619141 33.2449836730957 72.93359375 37.966796875 72.93359375 C 42.6886100769043 72.93359375 47.26758575439453 72.00949859619141 51.57653427124023 70.18695831298828 C 55.73999786376953 68.42597198486328 59.47979736328125 65.90431976318359 62.69205856323242 62.69205856323242 C 65.90431976318359 59.47979736328125 68.42597198486328 55.73999786376953 70.18695831298828 51.57653427124023 C 72.00949859619141 47.26758575439453 72.93359375 42.6886100769043 72.93359375 37.966796875 C 72.93359375 33.2449836730957 72.00949859619141 28.66600799560547 70.18695831298828 24.35705947875977 C 68.42597198486328 20.19359588623047 65.90431976318359 16.45379638671875 62.69205856323242 13.24153518676758 C 59.47979736328125 10.02928161621094 55.73999786376953 7.507637023925781 51.57653427124023 5.746635437011719 C 47.26758575439453 3.924095153808594 42.6886100769043 3 37.966796875 3 M 37.966796875 0 C 58.93528366088867 0 75.93359375 16.99832153320312 75.93359375 37.966796875 C 75.93359375 58.93528366088867 58.93528366088867 75.93359375 37.966796875 75.93359375 C 16.99831008911133 75.93359375 0 58.93528366088867 0 37.966796875 C 0 16.99832153320312 16.99831008911133 0 37.966796875 0 Z" stroke="none" fill="#86b60c"/>
                                </g>
                              </g>
                            </g>
                          </g>
                        </g>
                      </g>
                    </g>
                  </g>
                </g>
              </g>
            </g>
          </g>
        </g>
      </g>
    </g>
    <g id="mision-cumplida_3_" data-name="mision-cumplida (3)" transform="translate(621.61 2252.027)">
      <g id="Grupo_1208173" data-name="Grupo 1208173" transform="translate(9.012 8.948)">
        <g id="Grupo_1208171" data-name="Grupo 1208171" transform="translate(0 0)">
          <path id="Trazado_1050152" data-name="Trazado 1050152" d="M43.184,19.549a18.28,18.28,0,0,1,5.352,2.219l3.478-1.545,4.1,4.1L54.57,27.8a18.278,18.278,0,0,1,2.219,5.354l3.549,1.366v5.8l-3.549,1.366a18.28,18.28,0,0,1-2.219,5.352l1.545,3.478-4.1,4.1-3.477-1.544a18.275,18.275,0,0,1-5.354,2.219l-1.366,3.549h-5.8l-1.366-3.549A18.281,18.281,0,0,1,29.3,53.068l-3.478,1.545-4.1-4.1,1.544-3.477a18.279,18.279,0,0,1-2.219-5.354L17.5,40.317v-5.8l3.549-1.366A18.278,18.278,0,0,1,23.269,27.8l-1.544-3.478,4.1-4.1L29.3,21.768a18.282,18.282,0,0,1,5.352-2.219L36.021,16h5.8Z" transform="translate(-17.501 -16)" fill="#ffe177" fill-rule="evenodd"/>
          <path id="Trazado_1050153" data-name="Trazado 1050153" d="M94.8,53.068l-3.478,1.545-.536-.536,3.261-1.448Q94.417,52.858,94.8,53.068Zm13.882-33.519a18.279,18.279,0,0,1,5.352,2.219l-.989.439a24.112,24.112,0,0,0-6.105-2.658L105.573,16h1.741Zm5.354,33.519a18.275,18.275,0,0,1-5.354,2.219l-1.366,3.549h-1.741l1.366-3.549a24.1,24.1,0,0,0,6.107-2.658ZM90.785,20.759l.536-.536L94.8,21.768q-.381.21-.753.439Zm25.521,0,1.206-.536,4.1,4.1L120.066,27.8a18.278,18.278,0,0,1,2.219,5.354l3.549,1.366v5.8l-3.549,1.366a18.28,18.28,0,0,1-2.219,5.352l1.545,3.478-4.1,4.1-1.206-.536,3.564-3.564-1.545-3.478a18.279,18.279,0,0,0,2.219-5.352l3.549-1.366v-5.8l-3.549-1.366a18.278,18.278,0,0,0-2.219-5.354l1.544-3.477Z" transform="translate(-82.997 -16)" fill="#ffd064" fill-rule="evenodd"/>
          <circle id="Elipse_11573" data-name="Elipse 11573" cx="11.357" cy="11.357" r="11.357" transform="translate(7.756 12.968) rotate(-13.3)" fill="#eceff1"/>
          <path id="Trazado_1050154" data-name="Trazado 1050154" d="M123.54,110.68a11.357,11.357,0,0,0,0,22.714q.456,0,.9-.036a11.357,11.357,0,0,1,0-22.643Q124,110.68,123.54,110.68Z" transform="translate(-102.122 -100.619)" fill="#d1d1d6" fill-rule="evenodd"/>
        </g>
        <g id="Grupo_1208172" data-name="Grupo 1208172" transform="translate(21.116 21.466)">
          <circle id="Elipse_11574" data-name="Elipse 11574" cx="13.326" cy="13.326" r="13.326" transform="translate(0 2.889)" fill="#fe646f"/>
          <path id="Trazado_1050155" data-name="Trazado 1050155" d="M337.146,245.192a13.326,13.326,0,1,1,0,26.652c-.178,0-.355,0-.531-.011a13.325,13.325,0,0,0,0-26.629C336.791,245.2,336.968,245.192,337.146,245.192Z" transform="translate(-323.82 -242.303)" fill="#fd4755" fill-rule="evenodd"/>
          <circle id="Elipse_11575" data-name="Elipse 11575" cx="8.564" cy="8.564" r="8.564" transform="translate(4.763 7.652)" fill="#eceff1"/>
          <path id="Trazado_1050156" data-name="Trazado 1050156" d="M269.592,290.011c.179,0,.356.006.531.017a8.563,8.563,0,0,0,0,17.093c-.176.011-.353.017-.531.017a8.564,8.564,0,0,1,0-17.127Z" transform="translate(-256.266 -282.359)" fill="#d1d1d6" fill-rule="evenodd"/>
          <circle id="Elipse_11576" data-name="Elipse 11576" cx="3.801" cy="3.801" r="3.801" transform="translate(8.375 14.153) rotate(-22.514)" fill="#fe646f"/>
          <path id="Trazado_1050157" data-name="Trazado 1050157" d="M309.649,334.829a3.824,3.824,0,0,1,.531.037,3.8,3.8,0,0,0,0,7.527,3.8,3.8,0,1,1-.531-7.564Z" transform="translate(-296.323 -322.414)" fill="#fd4755" fill-rule="evenodd"/>
          <path id="Trazado_1050158" data-name="Trazado 1050158" d="M410.78,223.087l-4.763,4.763a.311.311,0,0,1-.293.086l-3.736-.805a.313.313,0,0,1-.245-.245l-.805-3.736a.311.311,0,0,1,.086-.293l4.763-4.763a.319.319,0,0,1,.537.158l.718,3.334a.313.313,0,0,0,.245.245l3.334.718a.319.319,0,0,1,.158.537Z" transform="translate(-381.302 -218.001)" fill="#e3a76f" fill-rule="evenodd"/>
          <path id="Trazado_1050159" data-name="Trazado 1050159" d="M417.15,261.135l-4.763,4.763a.311.311,0,0,1-.293.086l-3.736-.805a.313.313,0,0,1-.245-.245l-.055-.257,3.716.8a.311.311,0,0,0,.293-.086l4.763-4.763a.342.342,0,0,0,.045-.056l.116.025a.319.319,0,0,1,.158.537Z" transform="translate(-387.672 -256.049)" fill="#c48958" fill-rule="evenodd"/>
        </g>
      </g>
      <path id="Trazado_1050160" data-name="Trazado 1050160" d="M58.156,35.576l-2.13-.459-3.868,3.868,2.128.459ZM33.366,8.109a.85.85,0,0,1,.6.522l1.208,3.137a19.089,19.089,0,0,1,4.775,1.98l3.075-1.366a.85.85,0,0,1,.947.176l4.1,4.1a.85.85,0,0,1,.176.946l-1.365,3.074a19.085,19.085,0,0,1,1.98,4.778l3.137,1.207a.851.851,0,0,1,.544.793v1.3a.85.85,0,1,1-1.7,0v-.713l-3-1.157a.847.847,0,0,1-.522-.6A17.39,17.39,0,0,0,45.2,21.181a.851.851,0,0,1-.053-.791l1.308-2.943-3.274-3.274-2.945,1.308a.851.851,0,0,1-.791-.053,17.386,17.386,0,0,0-5.1-2.116.847.847,0,0,1-.6-.522l-1.158-3H27.956l-1.157,3a.852.852,0,0,1-.6.522,17.39,17.39,0,0,0-5.1,2.116.851.851,0,0,1-.791.053l-2.945-1.308L14.09,17.447,15.4,20.392a.853.853,0,0,1-.053.791,17.372,17.372,0,0,0-2.116,5.1.853.853,0,0,1-.522.6l-3,1.157v4.63l3,1.156a.851.851,0,0,1,.522.6,17.38,17.38,0,0,0,2.117,5.105.852.852,0,0,1,.053.791L14.09,43.261l3.274,3.274,2.945-1.308a.851.851,0,0,1,.791.053A17.39,17.39,0,0,0,26.2,47.4a.85.85,0,0,1,.6.522l1.194,3.1a.85.85,0,0,1-.39,1.606h-.231a.849.849,0,0,1-.793-.545L25.371,48.94A19.072,19.072,0,0,1,20.6,46.96L17.52,48.326a.848.848,0,0,1-.945-.176l-4.1-4.1A.85.85,0,0,1,12.3,43.1l1.366-3.074a19.055,19.055,0,0,1-1.981-4.777L8.547,34.046A.849.849,0,0,1,8,33.253v-5.8a.849.849,0,0,1,.544-.793l3.137-1.208a19.056,19.056,0,0,1,1.981-4.776L12.3,17.6a.85.85,0,0,1,.175-.946l4.1-4.1a.849.849,0,0,1,.945-.176L20.6,13.748a19.076,19.076,0,0,1,4.775-1.98l1.208-3.137a.848.848,0,0,1,.6-.522h6.191Zm22.4,38.508a12.471,12.471,0,1,1-7.051-11.237.876.876,0,0,0,.018.18l.787,3.654-.189.19a9.417,9.417,0,1,0,1.2,1.2l.193-.192,3.653.787a.835.835,0,0,0,.165.018,12.5,12.5,0,0,1,1.224,5.395Zm-7.642-6.005a7.726,7.726,0,1,0,1.2,1.206L47.139,44a4.659,4.659,0,1,1-1.2-1.208ZM45.9,45.241l-1.992,1.992a.85.85,0,1,1-1.2-1.2l2-2A2.951,2.951,0,1,0,45.9,45.241ZM50.5,35.655l3.868-3.868.459,2.129-3.868,3.868Zm9.963.021L55.936,40.2A14.175,14.175,0,1,1,49.752,34l4.515-4.515A.85.85,0,0,1,55.7,29.9l.556,2.582.265-.265a.85.85,0,0,1,1.2,1.2l-.265.265,2.581.556a.85.85,0,0,1,.422,1.432ZM29.7,34.686l6.142-7.594a.85.85,0,1,0-1.322-1.069l-5.548,6.859-3.018-3.018a.85.85,0,0,0-1.2,1.2l3.685,3.686a.852.852,0,0,0,.6.249h.045A.851.851,0,0,0,29.7,34.686Zm-1.884,5.887A10.508,10.508,0,1,1,40.776,30.2a.849.849,0,0,0,.849.837h.013a.849.849,0,0,0,.837-.862,12.207,12.207,0,1,0-21.746,7.8,12.268,12.268,0,0,0,6.695,4.256.842.842,0,0,0,.2.023.85.85,0,0,0,.2-1.677Z" transform="translate(0 0)" fill="#242222" fill-rule="evenodd"/>
    </g>
  </g>
</svg>
