<svg xmlns="http://www.w3.org/2000/svg" xmlns:xlink="http://www.w3.org/1999/xlink" width="93.934" height="93.934" viewBox="0 0 93.934 93.934">
  <defs>
    <filter id="Trazado_982547" x="0" y="0" width="93.934" height="93.934" filterUnits="userSpaceOnUse">
      <feOffset dy="3" input="SourceAlpha"/>
      <feGaussianBlur stdDeviation="3" result="blur"/>
      <feFlood flood-opacity="0.161"/>
      <feComposite operator="in" in2="blur"/>
      <feComposite in="SourceGraphic"/>
    </filter>
  </defs>
  <g id="Grupo_1208176" data-name="Grupo 1208176" transform="translate(-609 -2382.534)">
    <g id="Grupo_1207744" data-name="Grupo 1207744" transform="translate(0 -3954.557)">
      <g id="Grupo_1206679" data-name="Grupo 1206679" transform="translate(420.598 -3142.478)">
        <g id="Grupo_1183665" data-name="Grupo 1183665" transform="translate(-0.598 8175.569)">
          <g id="Grupo_1181743" data-name="Grupo 1181743" transform="translate(0 569)">
            <g id="Grupo_1175133" data-name="Grupo 1175133" transform="translate(-0.033 -1251)">
              <g id="Grupo_1167337" data-name="Grupo 1167337" transform="translate(198.033 1992)">
                <g id="Grupo_1166720" data-name="Grupo 1166720">
                  <g id="Grupo_1164305" data-name="Grupo 1164305">
                    <g id="Grupo_1163948" data-name="Grupo 1163948">
                      <g id="Grupo_1158168" data-name="Grupo 1158168">
                        <g id="Grupo_1152576" data-name="Grupo 1152576">
                          <g id="Grupo_1148633" data-name="Grupo 1148633">
                            <g id="Grupo_1148525" data-name="Grupo 1148525">
                              <g transform="matrix(1, 0, 0, 1, -9, -6)" filter="url(#Trazado_982547)">
                                <g id="Trazado_982547-2" data-name="Trazado 982547" transform="translate(9 6)" fill="#f2f7e5">
                                  <path d="M 37.966796875 74.43359375 C 33.04315185546875 74.43359375 28.26757431030273 73.46962738037109 23.77274131774902 71.56847381591797 C 19.43047523498535 69.73184967041016 15.53040790557861 67.10224914550781 12.18087482452393 63.75271987915039 C 8.831341743469238 60.4031867980957 6.201741218566895 56.50312042236328 4.365118980407715 52.16086196899414 C 2.463963508605957 47.66601943969727 1.499996900558472 42.89044189453125 1.499996900558472 37.966796875 C 1.499996900558472 33.04315185546875 2.463963508605957 28.26757431030273 4.365118980407715 23.77274131774902 C 6.201741218566895 19.43047523498535 8.831341743469238 15.53040790557861 12.18087482452393 12.18087482452393 C 15.53040790557861 8.831341743469238 19.43047523498535 6.201741218566895 23.77274131774902 4.365118980407715 C 28.26757431030273 2.463963508605957 33.04315185546875 1.499996900558472 37.966796875 1.499996900558472 C 42.89044189453125 1.499996900558472 47.66601943969727 2.463963508605957 52.16086196899414 4.365118980407715 C 56.50312042236328 6.201741218566895 60.4031867980957 8.831341743469238 63.75271987915039 12.18087482452393 C 67.10224914550781 15.53040790557861 69.73184967041016 19.43047523498535 71.56847381591797 23.77274131774902 C 73.46962738037109 28.26757431030273 74.43359375 33.04315185546875 74.43359375 37.966796875 C 74.43359375 42.89044189453125 73.46962738037109 47.66601943969727 71.56847381591797 52.16086196899414 C 69.73184967041016 56.50313186645508 67.10224914550781 60.4031867980957 63.75271987915039 63.75271987915039 C 60.4031867980957 67.10224914550781 56.50313186645508 69.73184967041016 52.16086196899414 71.56847381591797 C 47.66601943969727 73.46962738037109 42.89044189453125 74.43359375 37.966796875 74.43359375 Z" stroke="none"/>
                                  <path d="M 37.966796875 3 C 33.2449836730957 3 28.66600799560547 3.924095153808594 24.35705947875977 5.746635437011719 C 20.19359588623047 7.507637023925781 16.45379638671875 10.02928161621094 13.24153518676758 13.24153518676758 C 10.02927398681641 16.45379638671875 7.507621765136719 20.19359588623047 5.746635437011719 24.35705947875977 C 3.924095153808594 28.66600799560547 3 33.2449836730957 3 37.966796875 C 3 42.6886100769043 3.924095153808594 47.26758575439453 5.746635437011719 51.57653427124023 C 7.507621765136719 55.73999786376953 10.02927398681641 59.47979736328125 13.24153518676758 62.69205856323242 C 16.45379638671875 65.90431976318359 20.19359588623047 68.42597198486328 24.35705947875977 70.18695831298828 C 28.66600799560547 72.00949859619141 33.2449836730957 72.93359375 37.966796875 72.93359375 C 42.6886100769043 72.93359375 47.26758575439453 72.00949859619141 51.57653427124023 70.18695831298828 C 55.73999786376953 68.42597198486328 59.47979736328125 65.90431976318359 62.69205856323242 62.69205856323242 C 65.90431976318359 59.47979736328125 68.42597198486328 55.73999786376953 70.18695831298828 51.57653427124023 C 72.00949859619141 47.26758575439453 72.93359375 42.6886100769043 72.93359375 37.966796875 C 72.93359375 33.2449836730957 72.00949859619141 28.66600799560547 70.18695831298828 24.35705947875977 C 68.42597198486328 20.19359588623047 65.90431976318359 16.45379638671875 62.69205856323242 13.24153518676758 C 59.47979736328125 10.02928161621094 55.73999786376953 7.507637023925781 51.57653427124023 5.746635437011719 C 47.26758575439453 3.924095153808594 42.6886100769043 3 37.966796875 3 M 37.966796875 0 C 58.93528366088867 0 75.93359375 16.99832153320312 75.93359375 37.966796875 C 75.93359375 58.93528366088867 58.93528366088867 75.93359375 37.966796875 75.93359375 C 16.99831008911133 75.93359375 0 58.93528366088867 0 37.966796875 C 0 16.99832153320312 16.99831008911133 0 37.966796875 0 Z" stroke="none" fill="#86b60c"/>
                                </g>
                              </g>
                            </g>
                          </g>
                        </g>
                      </g>
                    </g>
                  </g>
                </g>
              </g>
            </g>
          </g>
        </g>
      </g>
    </g>
    <g id="empleado" transform="translate(608.314 2395.986)">
      <path id="Trazado_1050161" data-name="Trazado 1050161" d="M148.489,22.273v-1.9l2.291-.452,1.006-2.425-1.3-1.94,2.682-2.682,1.94,1.3,2.425-1.006.452-2.291h3.794l.452,2.291,2.425,1.006,1.94-1.3,2.682,2.682-1.3,1.94,1.006,2.425,2.291.452v1.9h-4.95a6.442,6.442,0,0,0-12.883,0h-4.95Z" transform="translate(-112.229 -6.343)" fill="#7986bf" fill-rule="evenodd"/>
      <path id="Trazado_1050162" data-name="Trazado 1050162" d="M170.164,20.374l-2.291-.452L166.867,17.5l1.3-1.94-2.238-2.238-1.7,1.141-3.109-1.29-.452-2.291h-2.686l-.452,2.291-3.109,1.29-1.7-1.141-2.238,2.238,1.3,1.94-1.006,2.425-2.291.452v1.9h4.95a6.442,6.442,0,0,1,12.883,0h3.843v-1.9Z" transform="translate(-112.227 -6.341)" fill="#909cd1" fill-rule="evenodd"/>
      <path id="Trazado_1050163" data-name="Trazado 1050163" d="M187.555,64.036h.81a6.442,6.442,0,0,1,6.036-6.429c-.134-.008-.269-.013-.405-.013A6.442,6.442,0,0,0,187.555,64.036Z" transform="translate(-147.155 -48.106)" fill="#7986bf" fill-rule="evenodd"/>
      <path id="Trazado_1050164" data-name="Trazado 1050164" d="M86.8,147.987a6.97,6.97,0,0,1,6.941,6.337H79.861A6.971,6.971,0,0,1,86.8,147.987Z" transform="translate(-50.874 -128.92)" fill="#8bbd00" fill-rule="evenodd"/>
      <path id="Trazado_1050165" data-name="Trazado 1050165" d="M91.81,154.578H79.861a6.972,6.972,0,0,1,6.292-6.307A7.172,7.172,0,0,1,91.81,154.578Z" transform="translate(-50.874 -129.173)" fill="#a8e304" fill-rule="evenodd"/>
      <circle id="Elipse_11577" data-name="Elipse 11577" cx="3.32" cy="3.32" r="3.32" transform="translate(31.934 13.252) rotate(-13.3)" fill="#fdb0a0"/>
      <path id="Trazado_1050166" data-name="Trazado 1050166" d="M116.684,92.271a3.32,3.32,0,0,1,0-6.5,3.32,3.32,0,0,1,0,6.5Z" transform="translate(-81.427 -73.294)" fill="#ffcec0" fill-rule="evenodd"/>
      <path id="Trazado_1050167" data-name="Trazado 1050167" d="M308.073,147.987a6.97,6.97,0,0,1,6.941,6.337H301.132A6.971,6.971,0,0,1,308.073,147.987Z" transform="translate(-248.696 -128.92)" fill="#f9ac00" fill-rule="evenodd"/>
      <path id="Trazado_1050168" data-name="Trazado 1050168" d="M313.081,154.578H301.132a6.972,6.972,0,0,1,6.292-6.307A7.172,7.172,0,0,1,313.081,154.578Z" transform="translate(-248.696 -129.173)" fill="#fdc72e" fill-rule="evenodd"/>
      <circle id="Elipse_11578" data-name="Elipse 11578" cx="3.32" cy="3.32" r="3.32" transform="translate(55.377 13.246) rotate(-13.3)" fill="#fdb0a0"/>
      <path id="Trazado_1050169" data-name="Trazado 1050169" d="M337.956,92.271a3.32,3.32,0,1,1,2.648-3.251A3.321,3.321,0,0,1,337.956,92.271Z" transform="translate(-279.25 -73.294)" fill="#ffcec0" fill-rule="evenodd"/>
      <path id="Trazado_1050170" data-name="Trazado 1050170" d="M197.437,147.986a6.971,6.971,0,0,1,6.941,6.337H190.5A6.971,6.971,0,0,1,197.437,147.986Z" transform="translate(-149.785 -128.919)" fill="#2a92fa" fill-rule="evenodd"/>
      <path id="Trazado_1050171" data-name="Trazado 1050171" d="M202.446,154.577H190.5a6.972,6.972,0,0,1,6.292-6.307,7.172,7.172,0,0,1,5.657,6.307Z" transform="translate(-149.785 -129.173)" fill="#4eb1fc" fill-rule="evenodd"/>
      <circle id="Elipse_11579" data-name="Elipse 11579" cx="3.32" cy="3.32" r="3.32" transform="translate(42.955 15.727) rotate(-45)" fill="#fdb0a0"/>
      <g id="Grupo_1208175" data-name="Grupo 1208175" transform="translate(22.957 3.786)">
        <path id="Trazado_1050172" data-name="Trazado 1050172" d="M227.32,92.271a3.32,3.32,0,1,1,2.648-3.251A3.321,3.321,0,0,1,227.32,92.271Z" transform="translate(-203.296 -77.08)" fill="#ffcec0" fill-rule="evenodd"/>
        <path id="Trazado_1050173" data-name="Trazado 1050173" d="M68.612,264.693l2.048,1.165c2.644,1.527,4.242-1.719,2.177-2.922l1.15.664a1.929,1.929,0,0,0,1.935-3.337l.615.355a2.054,2.054,0,0,0,2.062-3.552h0l.611.353a2.05,2.05,0,0,0,3.007-2.309,2.306,2.306,0,0,0-.954-1.248L75.1,250.3a75.158,75.158,0,0,1-7.472-6.6c-4.238-3.046-7.289.743-12.9-2.41l-3.988-2.243c-3.559,2.9-5.579,6.529-4.327,12.448l7.123,3.672,1.836,1.976,13.241,7.555Z" transform="translate(-43.594 -214.111)" fill="#f29988" fill-rule="evenodd"/>
        <path id="Trazado_1050174" data-name="Trazado 1050174" d="M192.993,289.219a2.042,2.042,0,0,0,.348-.446,2.063,2.063,0,0,0,.2-1.557,2.306,2.306,0,0,0-.954-1.248l-6.171-3.563a75.163,75.163,0,0,1-7.472-6.6,6.927,6.927,0,0,0-1.539-.848l-5.391,3.361a3.056,3.056,0,0,0-.207,5.073,4.927,4.927,0,0,0,3.388,1.226c2.554-.1,4.568-2.22,6.885-2.234a7.269,7.269,0,0,1,3.57,1.355l6.1,3.522c.522.333,1.56.926,1.242,1.964Z" transform="translate(-154.917 -246.216)" fill="#ea806f" fill-rule="evenodd"/>
        <path id="Trazado_1050175" data-name="Trazado 1050175" d="M286.05,462a.8.8,0,0,0-.8,1.378l1.873,1.082a1.751,1.751,0,0,0-.781-2.289Z" transform="translate(-257.103 -413.348)" fill="#ea806f" fill-rule="evenodd"/>
        <path id="Trazado_1050176" data-name="Trazado 1050176" d="M306.066,432.1a.888.888,0,0,0-.888,1.539l2.795,1.614a1.937,1.937,0,0,0-.771-2.5Z" transform="translate(-274.874 -386.604)" fill="#ea806f" fill-rule="evenodd"/>
        <path id="Trazado_1050177" data-name="Trazado 1050177" d="M327.25,399.578l-1.754-1.013a.888.888,0,0,0-.888,1.539l3.508,2.025a2.064,2.064,0,0,0-.865-2.552Z" transform="translate(-292.245 -356.623)" fill="#ea806f" fill-rule="evenodd"/>
        <path id="Trazado_1050178" data-name="Trazado 1050178" d="M128.562,385.553a2.031,2.031,0,1,0,3.517,2.031l1.459-2.528a2.031,2.031,0,0,0-3.517-2.031l-1.459,2.528Z" transform="translate(-117.129 -341.931)" fill="#ffcec0" fill-rule="evenodd"/>
        <path id="Trazado_1050179" data-name="Trazado 1050179" d="M228.13,443.039a2.031,2.031,0,1,0,3.517,2.031l1.459-2.528a2.031,2.031,0,0,0-3.517-2.031l-1.459,2.528Z" transform="translate(-206.146 -393.325)" fill="#ffcec0" fill-rule="evenodd"/>
        <path id="Trazado_1050180" data-name="Trazado 1050180" d="M190.291,424.73a2.031,2.031,0,1,0,3.517,2.031l1.952-3.381a2.031,2.031,0,0,0-3.517-2.031l-1.952,3.381Z" transform="translate(-172.316 -376.193)" fill="#ffcec0" fill-rule="evenodd"/>
        <path id="Trazado_1050181" data-name="Trazado 1050181" d="M153.2,406.285a2.031,2.031,0,1,0,3.517,2.031l2.366-4.1a2.031,2.031,0,1,0-3.517-2.031l-2.366,4.1Z" transform="translate(-139.154 -359.062)" fill="#ffcec0" fill-rule="evenodd"/>
        <path id="Trazado_1050182" data-name="Trazado 1050182" d="M214.3,251.491l-7.825,3.621a2.306,2.306,0,0,0-.954-1.248L199.35,250.3a8.423,8.423,0,0,0-4.346-1.56c-3.693.022-6.174,3.936-9.285,1.36a1.533,1.533,0,0,1,.041-2.589l6.6-4.114a8.122,8.122,0,0,1,6.976-1.234,7.264,7.264,0,0,0,6-.54l4.64-2.581a11.161,11.161,0,0,1,4.327,12.448Z" transform="translate(-167.849 -214.112)" fill="#ffcec0" fill-rule="evenodd"/>
        <path id="Trazado_1050183" data-name="Trazado 1050183" d="M400.491,243.876l-1.961.833a.782.782,0,0,1-1.088-.712,14.492,14.492,0,0,0-5.333-11.32.782.782,0,0,1,.123-1.282l2.5-1.391a1.153,1.153,0,0,1,1.3.1c3.954,3.119,6.043,8.561,5.152,12.923A1.142,1.142,0,0,1,400.491,243.876Z" transform="translate(-352.74 -205.895)" fill="#8bbd00" fill-rule="evenodd"/>
        <path id="Trazado_1050184" data-name="Trazado 1050184" d="M408.6,243.876l-1.351.574-.024-.015a.808.808,0,0,1-.375-.685,15.365,15.365,0,0,0-5.655-12,.8.8,0,0,1-.295-.663l1.941-1.08a1.153,1.153,0,0,1,1.3.1c3.955,3.119,6.043,8.561,5.152,12.923a1.142,1.142,0,0,1-.691.845Z" transform="translate(-360.845 -205.895)" fill="#a8e304" fill-rule="evenodd"/>
        <path id="Trazado_1050185" data-name="Trazado 1050185" d="M30.893,243.876l1.961.833A.782.782,0,0,0,33.941,244a14.492,14.492,0,0,1,5.333-11.32.782.782,0,0,0-.123-1.282L36.65,230a1.152,1.152,0,0,0-1.3.1c-3.954,3.119-6.043,8.561-5.152,12.923a1.142,1.142,0,0,0,.691.845Z" transform="translate(-29.252 -205.895)" fill="#2a92fa" fill-rule="evenodd"/>
        <path id="Trazado_1050186" data-name="Trazado 1050186" d="M30.893,243.876l1.351.574.024-.015a.808.808,0,0,0,.375-.685,15.365,15.365,0,0,1,5.655-12,.8.8,0,0,0,.295-.663L36.65,230a1.153,1.153,0,0,0-1.3.1c-3.954,3.119-6.043,8.561-5.152,12.923a1.142,1.142,0,0,0,.691.845Z" transform="translate(-29.252 -205.895)" fill="#4eb1fc" fill-rule="evenodd"/>
        <path id="Trazado_1050187" data-name="Trazado 1050187" d="M141.42,392.817a2.041,2.041,0,0,0,2.4-.912l1.459-2.528a2.038,2.038,0,0,0-.408-2.532Z" transform="translate(-128.866 -346.251)" fill="#fdb0a0" fill-rule="evenodd"/>
        <path id="Trazado_1050188" data-name="Trazado 1050188" d="M240.987,450.3a2.041,2.041,0,0,0,2.4-.912l1.459-2.528a2.038,2.038,0,0,0-.408-2.532l-3.448,5.972Z" transform="translate(-217.882 -397.645)" fill="#fdb0a0" fill-rule="evenodd"/>
        <path id="Trazado_1050189" data-name="Trazado 1050189" d="M203.149,431.993a2.041,2.041,0,0,0,2.4-.912L207.5,427.7a2.038,2.038,0,0,0-.408-2.532Z" transform="translate(-184.053 -380.513)" fill="#fdb0a0" fill-rule="evenodd"/>
        <path id="Trazado_1050190" data-name="Trazado 1050190" d="M166.055,413.55a2.041,2.041,0,0,0,2.394-.908l2.368-4.1a2.038,2.038,0,0,0-.408-2.532l-4.354,7.542Z" transform="translate(-150.89 -363.383)" fill="#fdb0a0" fill-rule="evenodd"/>
        <path id="Trazado_1050191" data-name="Trazado 1050191" d="M70.677,40.822a.4.4,0,0,1-.255.31l-1.961.833a.035.035,0,0,1-.015.006.03.03,0,0,1-.02-.009.106.106,0,0,1-.015-.013.034.034,0,0,1-.005-.021,15.305,15.305,0,0,0-5.6-11.883c-.01-.009-.01-.015-.01-.015s-.005-.006,0-.02v-.019a.072.072,0,0,1,.02-.012l2.5-1.391a.415.415,0,0,1,.48.038c3.678,2.9,5.736,8.033,4.883,12.2Zm-9.659,2.071c.02.013.041.025.061.04a3.327,3.327,0,0,1,.868.867l4.965-2.3a13.643,13.643,0,0,0-4.9-10.184l-1.2.664a8.023,8.023,0,0,1-6.569.595c-1.972-.65-4.04-.272-6.329,1.155l-6.579,4.1a.694.694,0,0,0-.383.541,1.1,1.1,0,0,0,.424.838c1.43,1.184,2.59.708,4.526-.237a9.76,9.76,0,0,1,4.25-1.29,8.735,8.735,0,0,1,4.556,1.566l6.3,3.64Zm-.26,3.068a1.32,1.32,0,0,1-1.788.478l-.618-.358-.925-.534a.741.741,0,0,0-.741,1.285l.925.535a1.306,1.306,0,0,1-1.308,2.26l-1.568-.908A.743.743,0,1,0,53.989,50l.955.55a1.17,1.17,0,0,1,.547.718,1.167,1.167,0,0,1-.833,1.444,1.17,1.17,0,0,1-.894-.117l-1.149-.663c-.005,0-.005,0-.005,0l-.174-.1a.741.741,0,1,0-.741,1.285l.174.1a1.01,1.01,0,0,1,.434,1.428c-.266.462-.894.759-1.864.2l-.521-.295.695-1.208A2.763,2.763,0,0,0,47.5,49.29l-.1.028a2.755,2.755,0,0,0-3.5-2.026c-.01-.032-.015-.065-.026-.1a2.754,2.754,0,0,0-3.382-1.953c-.036.009-.066.018-.1.028-.01-.033-.015-.066-.026-.1A2.768,2.768,0,0,0,35.3,44.5L34.7,45.558l-1.149-1.235a.693.693,0,0,0-.2-.154l-4.96-2.554a13.644,13.644,0,0,1,4.888-10.283l.557.312a11.452,11.452,0,0,0,7.458,1.326,7.7,7.7,0,0,1,4.337.442l-5.072,3.162a2.161,2.161,0,0,0-1.078,1.7,2.553,2.553,0,0,0,.96,2.08c2.232,1.852,4.3.844,6.119-.045a8.5,8.5,0,0,1,3.611-1.14h.026a7.529,7.529,0,0,1,3.78,1.366l6.267,3.621a1.537,1.537,0,0,1,.649.846,1.35,1.35,0,0,1-.133.957ZM46.123,55.588a1.283,1.283,0,0,0,1.752-.469L49.331,52.6a1.295,1.295,0,0,0-.47-1.752,1.282,1.282,0,0,0-.976-.125,1.262,1.262,0,0,0-.776.595l-1.456,2.52a1.283,1.283,0,0,0,.47,1.751ZM43.1,54.54a1.266,1.266,0,0,0,.776-.595l.49-.851s.005,0,.005,0l1.451-2.518a1.281,1.281,0,0,0-2.217-1.286s-.005,0-.005,0l-1.941,3.368v0A1.277,1.277,0,0,0,43.1,54.54Zm-3.141-1.9.317-.544,2.043-3.544a1.292,1.292,0,0,0-.47-1.748,1.272,1.272,0,0,0-.971-.125,1.287,1.287,0,0,0-.782.592l-1.451,2.52s-.005,0-.005,0l-.9,1.565a1.28,1.28,0,1,0,2.217,1.282Zm-3.381-2.995a1.289,1.289,0,0,0,.782-.594l1.456-2.52a1.3,1.3,0,0,0-.47-1.752,1.281,1.281,0,0,0-.976-.125,1.264,1.264,0,0,0-.776.595l-1.456,2.519a1.284,1.284,0,0,0,.47,1.752,1.269,1.269,0,0,0,.971.125ZM26.9,41.949v-.02a15.338,15.338,0,0,1,5.6-11.884c.015-.009.015-.015.015-.015s.005-.006,0-.02a.03.03,0,0,0-.005-.019s0-.005-.015-.012l-2.5-1.391a.415.415,0,0,0-.48.038c-3.683,2.9-5.736,8.033-4.883,12.2a.4.4,0,0,0,.255.31l1.956.833a.07.07,0,0,0,.02.006.078.078,0,0,0,.036-.022ZM66.708,27.461a1.884,1.884,0,0,0-2.115-.171l-2.5,1.391a1.5,1.5,0,0,0-.782,1.186c0,.049-.005.1-.005.144l-1.211.674a6.488,6.488,0,0,1-5.384.483c-2.385-.786-4.934-.347-7.58,1.3l-.072.043c-2.13-1.351-4.046-1.185-5.9-1.025a10.076,10.076,0,0,1-6.6-1.14L34,30.035c0-.056-.005-.111-.01-.166a1.5,1.5,0,0,0-.776-1.186l-2.5-1.391a1.892,1.892,0,0,0-2.12.171c-4.1,3.232-6.375,8.976-5.42,13.658A1.893,1.893,0,0,0,24.3,42.5l1.961.833a1.528,1.528,0,0,0,.6.124,1.51,1.51,0,0,0,.833-.252,1.335,1.335,0,0,0,.209-.168l4.648,2.395L33.92,46.9l-.066.12a2.765,2.765,0,0,0,2.355,4.149,2.767,2.767,0,0,0,4.015,3.222,2.78,2.78,0,0,0,1.16,1.307,2.746,2.746,0,0,0,2.1.273,2.789,2.789,0,0,0,.771-.337,2.758,2.758,0,0,0,2.5,1.606,2.781,2.781,0,0,0,.725-.1,2.733,2.733,0,0,0,1.681-1.286l.015-.026.531.3a3.432,3.432,0,0,0,1.711.5,2.485,2.485,0,0,0,2.171-1.249,2.617,2.617,0,0,0,.342-1.183A2.656,2.656,0,0,0,57,51.283a2.82,2.82,0,0,0,.679-.1,2.779,2.779,0,0,0,2.038-3.094A2.8,2.8,0,0,0,60.344,48a2.77,2.77,0,0,0,1.7-1.3,2.828,2.828,0,0,0,.368-1.48l4.909-2.271a1.555,1.555,0,0,0,.3.252,1.506,1.506,0,0,0,.827.252,1.534,1.534,0,0,0,.6-.124L71,42.5a1.893,1.893,0,0,0,1.129-1.38c.955-4.68-1.323-10.424-5.425-13.657ZM35.928,19.809a6.2,6.2,0,0,1,4.98,2.493,7.651,7.651,0,0,0-.838,2.353H29.86a6.182,6.182,0,0,1,6.068-4.846Zm0-6.655a2.575,2.575,0,1,1-2.574,2.574A2.577,2.577,0,0,1,35.928,13.154ZM41.02,7.482l1.435.964a.743.743,0,0,0,.7.069l2.426-1.008a.737.737,0,0,0,.444-.541l.337-1.7h2.579l.332,1.7a.748.748,0,0,0,.444.541l2.431,1.008a.733.733,0,0,0,.695-.069l1.44-.964,1.823,1.825-.965,1.438a.738.738,0,0,0-.066.7l.873,2.113a4.132,4.132,0,0,0-.6,1.642h-.541a7.2,7.2,0,0,0-14.323,0h-.536a4.07,4.07,0,0,0-.6-1.644l.879-2.111a.753.753,0,0,0-.072-.7l-.965-1.438L41.02,7.482Zm18.358,5.672A2.575,2.575,0,1,1,56.8,15.728,2.577,2.577,0,0,1,59.378,13.154Zm6.068,11.5H55.236A7.786,7.786,0,0,0,54.4,22.3a6.222,6.222,0,0,1,11.048,2.353Zm-23.864,0a6.226,6.226,0,0,1,12.142,0ZM47.651,18.3a2.575,2.575,0,1,0-2.574-2.575A2.577,2.577,0,0,0,47.651,18.3Zm-9.067.49a7.667,7.667,0,0,1,3.208,2.238,8.363,8.363,0,0,1,.649-.677A7.737,7.737,0,0,1,45,18.8a4.061,4.061,0,1,1,5.3,0,7.7,7.7,0,0,1,2.564,1.558,8.381,8.381,0,0,1,.649.677,7.667,7.667,0,0,1,3.208-2.238,4.043,4.043,0,0,1-1.287-2.113H54.112a.746.746,0,0,1-.746-.742,5.716,5.716,0,0,0-11.432,0,.742.742,0,0,1-.741.742H39.871a4.045,4.045,0,0,1-1.287,2.113ZM29,26.139H66.31a.737.737,0,0,0,.741-.809A7.7,7.7,0,0,0,62.029,18.8a4.056,4.056,0,0,0-4.955-6.407L56.6,11.241l1.083-1.614a.747.747,0,0,0-.092-.938L54.9,6a.746.746,0,0,0-.94-.091L52.35,6.993l-1.7-.7-.373-1.9a.745.745,0,0,0-.73-.6h-3.8a.739.739,0,0,0-.725.6l-.378,1.9-1.7.7L41.337,5.911A.739.739,0,0,0,40.4,6L37.716,8.689a.741.741,0,0,0-.092.938l1.083,1.614-.48,1.147a4.055,4.055,0,0,0-4.95,6.409,7.7,7.7,0,0,0-5.021,6.534.737.737,0,0,0,.741.809Z" transform="translate(-22.957 -3.786)" fill-rule="evenodd"/>
      </g>
    </g>
  </g>
</svg>
