<svg xmlns="http://www.w3.org/2000/svg" xmlns:xlink="http://www.w3.org/1999/xlink" width="113" height="113" viewBox="0 0 113 113">
  <defs>
    <filter id="Trazado_982547" x="0" y="0" width="113" height="113" filterUnits="userSpaceOnUse">
      <feOffset dy="3" input="SourceAlpha"/>
      <feGaussianBlur stdDeviation="3" result="blur"/>
      <feFlood flood-opacity="0.161"/>
      <feComposite operator="in" in2="blur"/>
      <feComposite in="SourceGraphic"/>
    </filter>
  </defs>
  <g id="Grupo_1208198" data-name="Grupo 1208198" transform="translate(-200.542 -3797.674)">
    <g id="Grupo_1207749" data-name="Grupo 1207749" transform="translate(45.542 -1841.326)">
      <g id="Grupo_1200342" data-name="Grupo 1200342" transform="translate(0 606)">
        <g id="Grupo_1185978" data-name="Grupo 1185978" transform="translate(164 5039)">
          <g id="Grupo_1180760" data-name="Grupo 1180760">
            <g id="Grupo_1174888" data-name="Grupo 1174888">
              <g id="Grupo_1166845" data-name="Grupo 1166845">
                <g id="Grupo_1166720" data-name="Grupo 1166720">
                  <g id="Grupo_1164305" data-name="Grupo 1164305">
                    <g id="Grupo_1163948" data-name="Grupo 1163948">
                      <g id="Grupo_1158168" data-name="Grupo 1158168">
                        <g id="Grupo_1152576" data-name="Grupo 1152576">
                          <g id="Grupo_1148633" data-name="Grupo 1148633">
                            <g id="Grupo_1148525" data-name="Grupo 1148525">
                              <g transform="matrix(1, 0, 0, 1, -9, -6)" filter="url(#Trazado_982547)">
                                <g id="Trazado_982547-2" data-name="Trazado 982547" transform="translate(9 6)" fill="#f2f7e5">
                                  <path d="M 47.5 93.5 C 41.28937149047852 93.5 35.26533508300781 92.28397369384766 29.59518623352051 89.88570404052734 C 24.11771965026855 87.56893157958984 19.19813346862793 84.25196075439453 14.97309303283691 80.02691650390625 C 10.74804019927979 75.80186462402344 7.431066513061523 70.88229370117188 5.114293098449707 65.40481567382812 C 2.716026782989502 59.73468017578125 1.5 53.71062850952148 1.5 47.5 C 1.5 41.28937149047852 2.716026782989502 35.26533508300781 5.114293098449707 29.59518623352051 C 7.431066513061523 24.11771965026855 10.74804019927979 19.19813346862793 14.97309303283691 14.97309303283691 C 19.19813346862793 10.74804019927979 24.11771965026855 7.431066513061523 29.59518623352051 5.114293098449707 C 35.26533508300781 2.716026782989502 41.28937149047852 1.5 47.5 1.5 C 53.71062850952148 1.5 59.73468017578125 2.716026782989502 65.40481567382812 5.114293098449707 C 70.88229370117188 7.431066513061523 75.80186462402344 10.74804019927979 80.02691650390625 14.97309303283691 C 84.25196075439453 19.19813346862793 87.56893157958984 24.11771965026855 89.88570404052734 29.59518623352051 C 92.28397369384766 35.26533508300781 93.5 41.28937149047852 93.5 47.5 C 93.5 53.71062850952148 92.28397369384766 59.73468017578125 89.88570404052734 65.40481567382812 C 87.56893157958984 70.88229370117188 84.25196075439453 75.80186462402344 80.02691650390625 80.02691650390625 C 75.80186462402344 84.25196075439453 70.88229370117188 87.56893157958984 65.40481567382812 89.88570404052734 C 59.73468017578125 92.28397369384766 53.71062850952148 93.5 47.5 93.5 Z" stroke="none"/>
                                  <path d="M 47.5 3 C 41.49121475219727 3 35.66376876831055 4.176155090332031 30.17950439453125 6.495796203613281 C 24.88084411621094 8.736953735351562 20.12152099609375 11.94598388671875 16.03375244140625 16.03375244140625 C 11.94598388671875 20.12152099609375 8.736953735351562 24.88084411621094 6.495796203613281 30.17950439453125 C 4.176155090332031 35.66376876831055 3 41.49121475219727 3 47.5 C 3 53.50878524780273 4.176155090332031 59.33623123168945 6.495796203613281 64.82049560546875 C 8.736953735351562 70.11915588378906 11.94598388671875 74.87847900390625 16.03375244140625 78.96624755859375 C 20.12152099609375 83.05401611328125 24.88084411621094 86.26304626464844 30.17950439453125 88.50419616699219 C 35.66376876831055 90.82384490966797 41.49121475219727 92 47.5 92 C 53.50878524780273 92 59.33623123168945 90.82384490966797 64.82049560546875 88.50419616699219 C 70.11915588378906 86.26304626464844 74.87847900390625 83.05401611328125 78.96624755859375 78.96624755859375 C 83.05401611328125 74.87847900390625 86.26304626464844 70.11915588378906 88.50419616699219 64.82049560546875 C 90.82384490966797 59.33623123168945 92 53.50878524780273 92 47.5 C 92 41.49121475219727 90.82384490966797 35.66376876831055 88.50419616699219 30.17950439453125 C 86.26304626464844 24.88084411621094 83.05401611328125 20.12152099609375 78.96624755859375 16.03375244140625 C 74.87847900390625 11.94598388671875 70.11915588378906 8.736953735351562 64.82049560546875 6.495796203613281 C 59.33623123168945 4.176155090332031 53.50878524780273 3 47.5 3 M 47.5 0 C 73.7335205078125 0 95 21.2664794921875 95 47.5 C 95 73.7335205078125 73.7335205078125 95 47.5 95 C 21.2664794921875 95 0 73.7335205078125 0 47.5 C 0 21.2664794921875 21.2664794921875 0 47.5 0 Z" stroke="none" fill="#86b60c"/>
                                </g>
                              </g>
                            </g>
                          </g>
                        </g>
                      </g>
                    </g>
                  </g>
                </g>
              </g>
            </g>
          </g>
        </g>
      </g>
    </g>
    <g id="impacto-social" transform="translate(211.185 3801.043)">
      <path id="Trazado_1050235" data-name="Trazado 1050235" d="M34.457,54.117a20.665,20.665,0,1,1,32.761,0,6.378,6.378,0,0,1,.679,1.023,4.929,4.929,0,0,1,5.067-.421,5.257,5.257,0,0,1,1.536,1.1,4.45,4.45,0,0,1,.984,1.561,3.76,3.76,0,0,1-1.256,4.248L59.651,74.622l0,0c-1.533,1.4-4.506,2.5-7.624,3.186-3.6.8-7.455,1.063-9.493.625l-10.7-2.3-4.16-.07-.04,1.841a1.451,1.451,0,0,1-.528,1.082,1.692,1.692,0,0,1-1.118.39c-2.8-.047-5.605-.072-8.4-.14a1.683,1.683,0,0,1-1.1-.429,1.442,1.442,0,0,1-.484-1.1c.111-6.521.284-13.049.426-19.57a1.451,1.451,0,0,1,.528-1.082,1.692,1.692,0,0,1,1.118-.39c2.8.047,5.605.072,8.4.14a1.683,1.683,0,0,1,1.1.429,1.442,1.442,0,0,1,.484,1.1c-.01.56-.024,1.121-.036,1.681l4.084.068q.484-.2.933-.371V58.1a6.3,6.3,0,0,1,1.419-3.985Z" fill-rule="evenodd"/>
      <path id="Trazado_1050236" data-name="Trazado 1050236" d="M310.7,46.749a4.469,4.469,0,0,0-.573.295,2.914,2.914,0,0,1-.86.379,2.4,2.4,0,0,0-.778.283,1.746,1.746,0,0,0-.533.464,1.891,1.891,0,0,0-.271.72c-.021.09-.043.183-.078.316a5.309,5.309,0,0,1-.352.955,3.481,3.481,0,0,1-.509.778,4.714,4.714,0,0,1-.844.713c-.091.065-.182.129-.264.193.406-.014.92-.067,1.339-.11l.11-.011c.428-.044.731-.072.953-.09s.456-.03.7-.04a5.2,5.2,0,0,1,.75.015,3.139,3.139,0,0,1,.9.226,4.17,4.17,0,0,1,.877.519,3.724,3.724,0,0,1,.716.7,2.015,2.015,0,0,1,.366.764,1.5,1.5,0,0,1-.051.863,1.284,1.284,0,0,1-.511.642,2,2,0,0,1-.767.284c-.241.043-.526.064-.853.089h0c-.316.024-.676.05-1.051.1-.495.071-1.067.2-1.645.322-.221.048-.444.1-.831.176l-.246.05h0l-.048.009a4.226,4.226,0,0,0-1.715.587,2.44,2.44,0,0,0-.522.59,4.45,4.45,0,0,0-.457.933,2.7,2.7,0,0,0-.15.672c-.011.1-.021.187-.041.289-.013.066-.029.134-.047.205a1.248,1.248,0,0,0-.036.582,3.563,3.563,0,0,0,.219.664,9.266,9.266,0,0,0,.463.934,4.694,4.694,0,0,0,.486.728,1.145,1.145,0,0,0,.412.334,2.5,2.5,0,0,0,1.159-.02l.126-.02a4.317,4.317,0,0,1,.786-.069,1.339,1.339,0,0,1,.869.3,1.5,1.5,0,0,1,.442.739,4.292,4.292,0,0,1,.122.616l.006.044a2.83,2.83,0,0,0,.17.729c.057.14.162.348.281.584.106.21.224.443.357.734a6.174,6.174,0,0,1,.376,1.014,3.221,3.221,0,0,1,.091,1.261,2.185,2.185,0,0,1-.319.876,1.38,1.38,0,0,0-.207.758.731.731,0,0,0,.009.135.715.715,0,0,0,.3.457,1.209,1.209,0,0,0,.52.211,3.88,3.88,0,0,1,3.88-3.862H314c.021-.2.037-.391.052-.583a8.743,8.743,0,0,1,.175-1.324,10.756,10.756,0,0,1,.711-1.917c.075-.167.146-.326.225-.518a4.077,4.077,0,0,0,.236-.7.686.686,0,0,0,.017-.278.859.859,0,0,0-.051-.128,1.089,1.089,0,0,1,.073-1.3,4.855,4.855,0,0,1,.677-.7,5.359,5.359,0,0,0,.718-.742,1.7,1.7,0,0,0,.254-1.031c0-1.03,0-1.5,1.338-.984a5.06,5.06,0,0,1,1.184.69,5.926,5.926,0,0,1,1,.974,1.533,1.533,0,0,0,.478.394A19.334,19.334,0,0,0,310.7,46.749Z" transform="translate(-251.61 -22.647)" fill="#337a2e" fill-rule="evenodd"/>
      <path id="Trazado_1050237" data-name="Trazado 1050237" d="M307.933,58.44a2,2,0,0,0-.249.688c-.021.09-.043.183-.078.316a5.31,5.31,0,0,1-.352.955,3.481,3.481,0,0,1-.509.778,4.714,4.714,0,0,1-.844.713c-.091.065-.182.129-.264.193.406-.014.919-.067,1.339-.11l.11-.011c.428-.044.731-.072.953-.09s.456-.03.7-.04a5.2,5.2,0,0,1,.75.015,3.139,3.139,0,0,1,.9.226l.059.026a28.642,28.642,0,0,0-2.517-3.659Zm4.123,6.89a1.34,1.34,0,0,1-.268.231,2,2,0,0,1-.767.284c-.241.043-.526.064-.853.089h0c-.316.024-.676.05-1.051.1-.495.071-1.067.2-1.645.322-.221.048-.444.1-.831.176l-.246.05h0l-.048.009a4.226,4.226,0,0,0-1.715.587,2.439,2.439,0,0,0-.522.59,4.448,4.448,0,0,0-.457.933,2.7,2.7,0,0,0-.15.672c-.011.1-.021.187-.041.289-.013.066-.029.134-.047.205a1.248,1.248,0,0,0-.036.582,3.561,3.561,0,0,0,.219.664,9.267,9.267,0,0,0,.463.934,4.689,4.689,0,0,0,.486.728,1.145,1.145,0,0,0,.412.334,2.5,2.5,0,0,0,1.159-.02l.126-.02a4.318,4.318,0,0,1,.786-.069,1.339,1.339,0,0,1,.869.3,1.5,1.5,0,0,1,.442.739,4.292,4.292,0,0,1,.122.616l.006.044a2.829,2.829,0,0,0,.17.729c.057.14.162.348.281.584.106.21.224.443.357.734a6.174,6.174,0,0,1,.376,1.014,3.222,3.222,0,0,1,.091,1.261,2.185,2.185,0,0,1-.319.876,1.38,1.38,0,0,0-.207.758.726.726,0,0,0,.009.135.716.716,0,0,0,.3.457,1.209,1.209,0,0,0,.52.211,3.88,3.88,0,0,1,3.88-3.862H314c.021-.2.037-.391.052-.583a8.74,8.74,0,0,1,.175-1.324q.018-.077.038-.153a28.432,28.432,0,0,0-2.205-10.216Z" transform="translate(-251.609 -32.883)" fill="#4caa46" fill-rule="evenodd"/>
      <path id="Trazado_1050238" data-name="Trazado 1050238" d="M227.073,59.59h-.078a2.639,2.639,0,0,1-1.5-.492,2.043,2.043,0,0,1-.863-1.724,2.549,2.549,0,0,1,.383-1.4,1.044,1.044,0,0,0,.153-.39,1.888,1.888,0,0,0-.059-.732,4.89,4.89,0,0,0-.3-.79c-.105-.23-.226-.47-.335-.686-.123-.243-.23-.457-.324-.685a3.848,3.848,0,0,1-.26-1.049l-.006-.044a3.282,3.282,0,0,0-.079-.424c-.016-.055-.015-.083-.02-.087-.02-.018.009.024-.025.023a3.2,3.2,0,0,0-.535.053l-.121.02a3.461,3.461,0,0,1-1.885-.06,2.464,2.464,0,0,1-.941-.718,6.045,6.045,0,0,1-.63-.941,10.663,10.663,0,0,1-.532-1.073,4.95,4.95,0,0,1-.3-.937,2.418,2.418,0,0,1,.052-1.164c.011-.046.022-.09.031-.136s.017-.115.025-.182a3.91,3.91,0,0,1,.22-.976,5.834,5.834,0,0,1,.606-1.227,3.8,3.8,0,0,1,.827-.921,5.284,5.284,0,0,1,2.33-.857h0c.31-.062-.178.039.241-.046.158-.032.487-.1.815-.176.593-.13,1.18-.258,1.741-.338.426-.061.808-.089,1.145-.114.282-.021.528-.039.714-.073a.833.833,0,0,0,.245-.07.207.207,0,0,0-.006-.074.67.67,0,0,0-.126-.246,2.348,2.348,0,0,0-.449-.433,2.761,2.761,0,0,0-.584-.343,1.778,1.778,0,0,0-.509-.13,4,4,0,0,0-.563-.009c-.18.007-.379.018-.65.04s-.572.049-.919.084l-.107.011a7.544,7.544,0,0,1-2.549,0,1.078,1.078,0,0,1-.44-.287.912.912,0,0,1-.241-.536,1.07,1.07,0,0,1,.061-.473,2.155,2.155,0,0,1,.581-.8,5.876,5.876,0,0,1,.585-.457,3.719,3.719,0,0,0,.614-.5,2.131,2.131,0,0,0,.307-.474,3.942,3.942,0,0,0,.256-.7c.02-.073.044-.178.068-.279a2.952,2.952,0,0,1,.5-1.216,3.113,3.113,0,0,1,.944-.838,3.77,3.77,0,0,1,1.222-.443.258.258,0,0,0,.048-.017,19.247,19.247,0,0,0-6.622-1.167q-.465,0-.924.022a6.606,6.606,0,0,1,.827.466l.005,0,.022.015.005.005a1.54,1.54,0,0,1,.693,1.325,2.423,2.423,0,0,1-.484,1.321l-.044.062a5.082,5.082,0,0,1-1.2,1.164,3.416,3.416,0,0,1-1.412.6,3.332,3.332,0,0,1-2.03-.489c-.14-.069-.277-.137-.406-.192A2.055,2.055,0,0,0,213.6,36a.364.364,0,0,0-.184.019.459.459,0,0,0-.081.219,2.841,2.841,0,0,0-.032.689c0,.06.015.2.026.33a2.778,2.778,0,0,1-.23,1.726,3.684,3.684,0,0,1-.966,1,7.353,7.353,0,0,0-.657.575,9.4,9.4,0,0,0-.911,1.181c-.185.267-.363.525-.528.735a9.033,9.033,0,0,1-.9.962c-.131.126-.253.244-.363.364a2.1,2.1,0,0,0-.31.424,1.234,1.234,0,0,0-.136.412h0a1.939,1.939,0,0,0,.009.514,3.88,3.88,0,0,0,.168.7,5.467,5.467,0,0,0,.275.669,6.128,6.128,0,0,0,.378.658,4.319,4.319,0,0,0,.434.568,3.816,3.816,0,0,0,.592.516c.16.114.344.231.536.352a5.814,5.814,0,0,1,2.23,2.116,8.169,8.169,0,0,0,.756.993,4.936,4.936,0,0,1,.823,1.24,3.229,3.229,0,0,0,.4.649,2.668,2.668,0,0,1,.462,2.4,9.456,9.456,0,0,1-.762,2.042,4.442,4.442,0,0,1-1.659,1.79,6.209,6.209,0,0,1-2.2.86q-.118.143-.25.275a3.893,3.893,0,0,1-.937.691,6.385,6.385,0,0,1,3.916,3.381,6.385,6.385,0,0,1,3.929-3.385,3.876,3.876,0,1,1,3.621,0,6.385,6.385,0,0,1,3.916,3.381,6.385,6.385,0,0,1,3.929-3.385,3.894,3.894,0,0,1-1.819-2.066Z" transform="translate(-168.391 -9.626)" fill="#4394cf" fill-rule="evenodd"/>
      <path id="Trazado_1050239" data-name="Trazado 1050239" d="M227.072,59.589h-.078a2.639,2.639,0,0,1-1.5-.492,2.043,2.043,0,0,1-.863-1.724,2.549,2.549,0,0,1,.383-1.4,1.044,1.044,0,0,0,.153-.39,1.888,1.888,0,0,0-.059-.732,4.889,4.889,0,0,0-.3-.79c-.105-.23-.226-.47-.335-.686-.123-.243-.23-.457-.324-.685a3.847,3.847,0,0,1-.26-1.049l-.006-.044a3.284,3.284,0,0,0-.079-.424c-.016-.055-.015-.083-.02-.087-.02-.018.009.024-.025.023a3.2,3.2,0,0,0-.535.053l-.121.02a3.461,3.461,0,0,1-1.885-.06,2.464,2.464,0,0,1-.941-.718,6.045,6.045,0,0,1-.63-.941,10.666,10.666,0,0,1-.532-1.073,4.95,4.95,0,0,1-.3-.937,2.418,2.418,0,0,1,.052-1.164c.011-.046.022-.09.031-.136s.017-.115.025-.182a3.91,3.91,0,0,1,.22-.976,5.834,5.834,0,0,1,.606-1.227,3.8,3.8,0,0,1,.827-.921,5.284,5.284,0,0,1,2.33-.857h0c.31-.062-.178.039.241-.046.158-.032.487-.1.815-.176.593-.13,1.18-.258,1.741-.338.426-.061.808-.089,1.145-.114.282-.021.528-.039.714-.073a.833.833,0,0,0,.245-.07.207.207,0,0,0-.006-.074.67.67,0,0,0-.126-.246,2.348,2.348,0,0,0-.449-.433,2.761,2.761,0,0,0-.584-.343,1.778,1.778,0,0,0-.509-.13,4,4,0,0,0-.563-.009c-.18.007-.379.018-.65.04s-.572.049-.919.084l-.107.011a7.544,7.544,0,0,1-2.549,0,1.078,1.078,0,0,1-.44-.287.912.912,0,0,1-.241-.536,1.07,1.07,0,0,1,.061-.473,2.155,2.155,0,0,1,.581-.8,5.876,5.876,0,0,1,.585-.457,3.718,3.718,0,0,0,.614-.5,2.131,2.131,0,0,0,.307-.474,3.941,3.941,0,0,0,.256-.7c.02-.073.044-.178.068-.279a2.952,2.952,0,0,1,.5-1.216,2.794,2.794,0,0,1,.179-.22,28.746,28.746,0,0,0-2.054-2.081,19.452,19.452,0,0,0-2.533-.165q-.465,0-.924.022a6.606,6.606,0,0,1,.827.466l.005,0,.022.015.005.005a1.54,1.54,0,0,1,.693,1.325,2.423,2.423,0,0,1-.484,1.321l-.044.062a5.082,5.082,0,0,1-1.2,1.164,3.416,3.416,0,0,1-1.412.6,3.332,3.332,0,0,1-2.03-.489c-.14-.069-.277-.137-.406-.192A2.055,2.055,0,0,0,213.6,36a.364.364,0,0,0-.184.019.459.459,0,0,0-.081.219,2.843,2.843,0,0,0-.032.689c0,.06.015.2.026.33a2.778,2.778,0,0,1-.23,1.726,3.684,3.684,0,0,1-.966,1,7.355,7.355,0,0,0-.657.575,9.4,9.4,0,0,0-.911,1.181c-.185.267-.363.525-.528.735a9.033,9.033,0,0,1-.9.962c-.131.126-.253.244-.363.364a2.1,2.1,0,0,0-.31.424,1.234,1.234,0,0,0-.136.412h0a1.939,1.939,0,0,0,.009.514,3.882,3.882,0,0,0,.168.7,5.466,5.466,0,0,0,.275.669,6.135,6.135,0,0,0,.378.658,4.32,4.32,0,0,0,.434.568,3.815,3.815,0,0,0,.592.516c.16.114.344.231.536.352a5.814,5.814,0,0,1,2.23,2.116,8.17,8.17,0,0,0,.756.993,4.936,4.936,0,0,1,.823,1.24,3.229,3.229,0,0,0,.4.649,2.668,2.668,0,0,1,.462,2.4,9.456,9.456,0,0,1-.762,2.042,4.443,4.443,0,0,1-1.659,1.79,6.209,6.209,0,0,1-2.2.86q-.118.143-.25.275a3.894,3.894,0,0,1-.937.691A6.385,6.385,0,0,1,213.5,65.04a6.385,6.385,0,0,1,3.929-3.385,3.876,3.876,0,1,1,3.621,0,6.385,6.385,0,0,1,3.916,3.381,6.385,6.385,0,0,1,3.929-3.385,3.894,3.894,0,0,1-1.819-2.066Z" transform="translate(-168.39 -9.625)" fill="#65ade0" fill-rule="evenodd"/>
      <path id="Trazado_1050240" data-name="Trazado 1050240" d="M327.428,123.929l-.046.01.046-.009Z" transform="translate(-272.646 -90.226)" fill="#ccc" fill-rule="evenodd"/>
      <path id="Trazado_1050241" data-name="Trazado 1050241" d="M405.786,144.862l-.144-.043a3.106,3.106,0,0,1-1.746-1.07,4.541,4.541,0,0,0-.767-.745c-.123-.094-.241-.176-.35-.245a2.661,2.661,0,0,1-.482,1.271,6.455,6.455,0,0,1-.915.961,5.243,5.243,0,0,0-.441.432l.009,0h0a2,2,0,0,1,.137.363,1.969,1.969,0,0,1-.007.881,5.344,5.344,0,0,1-.31.954c-.058.139-.147.339-.241.55a9.677,9.677,0,0,0-.626,1.666,7.85,7.85,0,0,0-.143,1.126c-.019.237-.038.481-.071.742a3.882,3.882,0,0,1,.389,7.048,6.337,6.337,0,0,1,1.839.9q.144.1.283.213a19.342,19.342,0,0,0,3.586-15Z" transform="translate(-335.958 -106.714)" fill="#4394cf" fill-rule="evenodd"/>
      <path id="Trazado_1050242" data-name="Trazado 1050242" d="M409.4,164.2c-.037.053.03-.037.042-.048l-.009,0C409.42,164.168,409.409,164.183,409.4,164.2Z" transform="translate(-344.452 -125.443)" fill="#ccc" fill-rule="evenodd"/>
      <path id="Trazado_1050243" data-name="Trazado 1050243" d="M153.236,45.774c.15.41.3.81.434,1.151a9.678,9.678,0,0,0,.493,1.082,2.336,2.336,0,0,0,.42.567,2.55,2.55,0,0,0,.525.369c.154.087.3.163.458.243a10.319,10.319,0,0,1,1.431.846,7.684,7.684,0,0,1,1.026.909,6,6,0,0,1,.788,1.019,3.106,3.106,0,0,1,.439,2.054c-.024.2-.061.394-.1.6a4.7,4.7,0,0,0-.12,1.1,3.662,3.662,0,0,0,.089.627q.018.08.04.162.19-.019.385-.019a3.883,3.883,0,0,1,3.795,4.692,4.623,4.623,0,0,0,.669-.352,3.086,3.086,0,0,0,1.157-1.224,8.352,8.352,0,0,0,.661-1.738,1.42,1.42,0,0,0-.163-1.232,4.323,4.323,0,0,1-.574-.916,3.77,3.77,0,0,0-.61-.93,9.233,9.233,0,0,1-.884-1.153,6.515,6.515,0,0,0-.656-.861,6.442,6.442,0,0,0-1.174-.87c-.21-.133-.413-.261-.6-.394a5.173,5.173,0,0,1-.8-.7,5.58,5.58,0,0,1-.578-.745,7.469,7.469,0,0,1-.458-.807,6.834,6.834,0,0,1-.345-.84,5.246,5.246,0,0,1-.226-.943,3.263,3.263,0,0,1-.009-.88v0a2.566,2.566,0,0,1,.28-.861,3.439,3.439,0,0,1,.508-.707c.128-.14.273-.279.427-.429a7.794,7.794,0,0,0,.769-.823c.165-.21.32-.434.48-.666a10.436,10.436,0,0,1,1.055-1.357,8.438,8.438,0,0,1,.779-.687,2.909,2.909,0,0,0,.635-.606,1.9,1.9,0,0,0,.054-.941c-.008-.1-.017-.2-.026-.373a4.132,4.132,0,0,1,.059-1.031,1.682,1.682,0,0,1,.556-1,1.6,1.6,0,0,1,1.1-.324,3.4,3.4,0,0,1,1.166.288c.161.069.317.145.475.224a2.316,2.316,0,0,0,1.234.361,2.071,2.071,0,0,0,.829-.371,3.67,3.67,0,0,0,.866-.838l.028-.041a1.139,1.139,0,0,0,.243-.563.248.248,0,0,0-.121-.2h0l-.022-.015h0a9.525,9.525,0,0,0-1.162-.606c-.442-.209-.922-.436-1.385-.7a19.323,19.323,0,0,0-14.341,11.459Z" transform="translate(-120.162 -11.759)" fill="#4caa46" fill-rule="evenodd"/>
      <path id="Trazado_1050244" data-name="Trazado 1050244" d="M147.127,151.316q-.031-.116-.057-.234a5.05,5.05,0,0,1-.121-.868,5.745,5.745,0,0,1,.141-1.417c.033-.173.065-.34.083-.494a1.746,1.746,0,0,0-.257-1.205,4.609,4.609,0,0,0-.606-.778,6.292,6.292,0,0,0-.839-.743,9.221,9.221,0,0,0-1.25-.734c-.185-.1-.359-.185-.5-.265a3.81,3.81,0,0,1-.8-.572,3.665,3.665,0,0,1-.671-.893,9.461,9.461,0,0,1-.443-.937,19.263,19.263,0,0,0,3.066,17.177,6.334,6.334,0,0,1,2.135-1.119,3.882,3.882,0,0,1,.116-6.92Z" transform="translate(-109.442 -106.204)" fill="#65ade0" fill-rule="evenodd"/>
      <path id="Trazado_1050245" data-name="Trazado 1050245" d="M163.938,286.212a15.737,15.737,0,0,1,9.933-.8v-.3a4.967,4.967,0,0,0-9.933,0Z" transform="translate(-129.533 -227.014)" fill="#66b8de" fill-rule="evenodd"/>
      <path id="Trazado_1050246" data-name="Trazado 1050246" d="M256.113,285.7l.465.089c.507.1,1.043.2,1.431.273l8.037.5v-1.445a4.967,4.967,0,0,0-9.934,0v.586Z" transform="translate(-210.242 -227.012)" fill="#66b8de" fill-rule="evenodd"/>
      <path id="Trazado_1050247" data-name="Trazado 1050247" d="M348.291,286.674a3.731,3.731,0,0,1,3.014,2.143l6.475-5.753a5.028,5.028,0,0,0-1.658-2,4.97,4.97,0,0,0-7.831,4.053Z" transform="translate(-290.954 -227.014)" fill="#4a8aa8" fill-rule="evenodd"/>
      <path id="Trazado_1050248" data-name="Trazado 1050248" d="M348.291,288.048q.145.021.283.05a28.491,28.491,0,0,0,3.309-6.38,4.992,4.992,0,0,0-3.591,4.772Z" transform="translate(-290.954 -228.388)" fill="#66b8de" fill-rule="evenodd"/>
      <path id="Trazado_1050249" data-name="Trazado 1050249" d="M36.231,322.158l.051-2.359a.1.1,0,0,0-.04-.065.313.313,0,0,0-.205-.076l-8.4-.14a.325.325,0,0,0-.215.07.113.113,0,0,0-.047.067l-.426,19.565a.1.1,0,0,0,.04.065.313.313,0,0,0,.2.076l8.4.14a.325.325,0,0,0,.215-.07.113.113,0,0,0,.047-.067l.374-17.206Z" transform="translate(-9.587 -261.486)" fill="#5296c7" fill-rule="evenodd"/>
      <path id="Trazado_1050250" data-name="Trazado 1050250" d="M37.9,322.158l.051-2.359a.1.1,0,0,0-.04-.065.313.313,0,0,0-.205-.076l-8.4-.14a.325.325,0,0,0-.215.07.113.113,0,0,0-.047.067l-.188,8.639a28.442,28.442,0,0,0,8.817,4.2Z" transform="translate(-11.26 -261.486)" fill="#6db2e3" fill-rule="evenodd"/>
      <path id="Trazado_1050251" data-name="Trazado 1050251" d="M372.395,224.233a2.513,2.513,0,1,0,.736,1.777A2.5,2.5,0,0,0,372.395,224.233Z" transform="translate(-308.304 -177.409)" fill="#4a8aa8" fill-rule="evenodd"/>
      <g id="Grupo_1208197" data-name="Grupo 1208197" transform="translate(36.87 46.088)">
        <path id="Trazado_1050252" data-name="Trazado 1050252" d="M370.852,223.508q-.115-.011-.232-.011a2.513,2.513,0,0,0-.653,4.939A28.453,28.453,0,0,0,370.852,223.508Z" transform="translate(-345.175 -223.497)" fill="#66b8de" fill-rule="evenodd"/>
        <path id="Trazado_1050253" data-name="Trazado 1050253" d="M280.219,224.233a2.513,2.513,0,1,0,.736,1.777A2.5,2.5,0,0,0,280.219,224.233Z" transform="translate(-264.464 -223.497)" fill="#66b8de" fill-rule="evenodd"/>
        <path id="Trazado_1050254" data-name="Trazado 1050254" d="M188.043,224.233a2.513,2.513,0,1,0,.736,1.777A2.5,2.5,0,0,0,188.043,224.233Z" transform="translate(-183.754 -223.497)" fill="#66b8de" fill-rule="evenodd"/>
      </g>
      <path id="Trazado_1050255" data-name="Trazado 1050255" d="M110.048,318.943l4.226.071a.682.682,0,0,1,.131.015h0l10.757,2.31c1.869.4,5.487.138,8.916-.62,2.92-.645,5.666-1.638,7.006-2.867l.007-.006,0,0,14.577-12.99a2.471,2.471,0,0,0,.882-2.768,3.081,3.081,0,0,0-.685-1.075,3.884,3.884,0,0,0-1.136-.814,3.613,3.613,0,0,0-4.049.584l-7.7,6.844a3.327,3.327,0,0,1-.383,1.352,3.713,3.713,0,0,1-3.536,1.852l-9.482-.158a.681.681,0,1,1,.021-1.362l9.482.158a2.408,2.408,0,0,0,2.313-1.13,1.96,1.96,0,0,0,.228-.856q0-.053,0-.105a.709.709,0,0,1,0-.074,2.039,2.039,0,0,0-.169-.708,2.512,2.512,0,0,0-2.3-1.374l-.147-.009h0a.712.712,0,0,1-.088-.006l-.072,0h0a.7.7,0,0,1-.089-.006l-8.755-.54a.68.68,0,0,1-.106-.015c-.643-.121-1.063-.2-1.459-.278l-.979-.187a.665.665,0,0,1-.081-.015l-.086-.016a.652.652,0,0,1-.077-.015c-4.265-.8-6.041-.911-10.869.926l-.048.018c-.454.173-.934.363-1.447.572a.678.678,0,0,1-.319.047l-4.183-.07-.29,13.324Z" transform="translate(-82.346 -244.242)" fill="#eec3a1" fill-rule="evenodd"/>
      <path id="Trazado_1050256" data-name="Trazado 1050256" d="M133.908,337.146l-3.819-.064a.681.681,0,1,1,.021-1.362l5.472.091a28.732,28.732,0,0,0,3.976-4.188l-.043,0h0a.713.713,0,0,1-.088-.006l-.072,0h0a.7.7,0,0,1-.089-.006l-8.755-.54a.68.68,0,0,1-.106-.015c-.643-.121-1.063-.2-1.459-.278l-.979-.187a.659.659,0,0,1-.081-.015l-.086-.016a.665.665,0,0,1-.077-.015c-4.265-.8-6.041-.911-10.869.926l-.048.018c-.454.173-.934.363-1.447.572a.678.678,0,0,1-.319.047l-4.183-.07-.217,9.974a28.611,28.611,0,0,0,23.274-4.861Z" transform="translate(-82.859 -270.655)" fill="#fad4b6" fill-rule="evenodd"/>
    </g>
  </g>
</svg>
