<svg xmlns="http://www.w3.org/2000/svg" width="122.051" height="122.453" viewBox="0 0 122.051 122.453">
  <g id="layer1" transform="translate(-6.607 -6.428)">
    <g id="g4582" transform="translate(-11.216 0.017)">
      <g id="g6161">
        <path id="path6916" d="M28.9,75.255a22.3,22.3,0,1,0,11.141,41.611c.573,1.975.9,4.56-.547,6.225-2.6,3-6.271,5.565-2.669,5.565,3.39,0,14.454-6.935,10.529-18.59A22.3,22.3,0,0,0,28.9,75.255Z" transform="translate(11.219 -0.017)" fill="#7738c7"/>
        <path id="path6130" d="M29.7,98.732s.178-3.052,4-4.191c4.924-1.467,7.6,2.377,4.874,5.985s-2.345,6.627-1.6,8.463,2.9,2.227,2.6-.161,1.415-5.161,3.353-7.8c2.712-3.7,1.792-14.1-7.671-12.441-7.731,1.352-9.565,7.038-9.593,9.17s.415,3.845,1.881,4.008,2.164-.95,2.155-3.029Z" fill="#fff"/>
        <path id="path6139" d="M45.892,98.43c-6.013-.025-11.333.108-11.333.108s2.8,8.273,7.272,11.275c3.92,2.633,3.632,10.345-1.763,12.383a3.832,3.832,0,0,1-.572.894c-2.6,3-6.271,5.565-2.669,5.565,3.39,0,14.454-6.935,10.529-18.59A22.3,22.3,0,0,0,51.179,98.5c-1.748-.041-3.543-.064-5.287-.072Z" transform="translate(11.219 -0.017)" fill="#171d8f"/>
        <path id="path6834" d="M67.974,6.41a50.3,50.3,0,1,0,11.257,99.35c6.485,8.1,19.2,22.41,28.646,23.027,13.193.863,10.579-5.86,4.488-5.86-11.721,0-11.531-18.374-11.514-28.025A50.3,50.3,0,0,0,68.131,6.411h-.157Z" fill="#ffc517"/>
        <path id="path6929" d="M51.734,42.877s4.393-7.116,15.068-4.895c13.759,2.863,15.217,15.6,3.958,20.738S56.506,71.626,55.914,77.012s4.1,9.133,6.473,2.991S72.495,69.418,80.595,65.575c11.331-5.377,22.621-31.6-2.306-39.911-20.365-6.788-32.167,4.516-35,9.613s-3.995,9.794-.677,12.09,6.442.523,9.122-4.491Z" fill="#fff"/>
        <path id="path6134" d="M75.48,59.441s-4.34,10.945,3.4,26.041-10.989,20.1-10.989,20.1c6.473,8.087,19.167,22.369,28.594,22.985,13.169.861,10.56-5.849,4.48-5.849-11.7,0-11.51-18.341-11.493-27.975a50.185,50.185,0,0,0,12.865-16.971c-5.617-8.7-14.07-16.831-26.854-18.335Z" transform="translate(11.219 -0.017)" fill="#ffac17"/>
        <path id="path6837" d="M100.755,32.024a27.9,27.9,0,1,0,7.535,54.765c1.531,4.836,4.7,10.4,11.264,11.416,10.108,1.572-6.461-3.011-2.394-15.713a27.9,27.9,0,0,0-16.406-50.469Z" transform="translate(11.219 -0.017)" fill="#ff4b3d"/>
        <g id="Grupo_1208199" data-name="Grupo 1208199">
          <path id="path6124" d="M55.834,85.9s-5.1,0-5.671,3.875,1.512,7.184,6.427,6.049,5.2-11.059-.756-9.925Z" fill="#fff"/>
          <path id="path6126" d="M103.474,56.076s.247-4.232,5.543-5.81c6.827-2.034,10.542,3.3,6.757,8.3s-3.252,9.187-2.219,11.732,4.027,3.087,3.607-.224,1.961-7.155,4.649-10.819c3.76-5.126,2.484-19.541-10.635-17.248-10.718,1.874-13.261,9.757-13.3,12.712s.575,5.33,2.608,5.556,3-1.317,2.988-4.2Z" fill="#fff"/>
          <path id="path6128" d="M115.659,74.282s-2.277,1.229-1.6,3.094,2.4,2.84,4.323,1.151S118.042,72.343,115.659,74.282Z" fill="#fff"/>
          <path id="path6132" d="M38.488,111.864s-1.642.886-1.152,2.232,1.734,2.049,3.118.83-.247-4.461-1.966-3.062Z" fill="#fff"/>
        </g>
        <path id="path6144" d="M127.208,51.055c-2.021,1.422-3.25,3.945-3.25,7.922,0,22.283-25.886,28.287-25.886,28.287l.3.46q1.188.1,2.381.1a27.9,27.9,0,0,0,7.535-1.037c1.531,4.836,4.7,10.4,11.264,11.416,10.108,1.572-6.461-3.011-2.394-15.713a27.9,27.9,0,0,0,10.048-31.436Z" transform="translate(11.219 -0.017)" fill="#cf1531"/>
      </g>
    </g>
  </g>
</svg>
