<svg xmlns="http://www.w3.org/2000/svg" xmlns:xlink="http://www.w3.org/1999/xlink" width="113" height="113" viewBox="0 0 113 113">
  <defs>
    <filter id="Trazado_982547" x="0" y="0" width="113" height="113" filterUnits="userSpaceOnUse">
      <feOffset dy="3" input="SourceAlpha"/>
      <feGaussianBlur stdDeviation="3" result="blur"/>
      <feFlood flood-opacity="0.161"/>
      <feComposite operator="in" in2="blur"/>
      <feComposite in="SourceGraphic"/>
    </filter>
  </defs>
  <g id="Grupo_1208250" data-name="Grupo 1208250" transform="translate(-154.542 -7115.674)">
    <g id="Grupo_1207777" data-name="Grupo 1207777" transform="translate(163.542 7121.674)">
      <g id="Grupo_1200358" data-name="Grupo 1200358">
        <g id="Grupo_1185978" data-name="Grupo 1185978">
          <g id="Grupo_1180760" data-name="Grupo 1180760">
            <g id="Grupo_1174888" data-name="Grupo 1174888">
              <g id="Grupo_1166845" data-name="Grupo 1166845">
                <g id="Grupo_1166720" data-name="Grupo 1166720">
                  <g id="Grupo_1164305" data-name="Grupo 1164305">
                    <g id="Grupo_1163948" data-name="Grupo 1163948">
                      <g id="Grupo_1158168" data-name="Grupo 1158168">
                        <g id="Grupo_1152576" data-name="Grupo 1152576">
                          <g id="Grupo_1148633" data-name="Grupo 1148633">
                            <g id="Grupo_1148525" data-name="Grupo 1148525">
                              <g transform="matrix(1, 0, 0, 1, -9, -6)" filter="url(#Trazado_982547)">
                                <g id="Trazado_982547-2" data-name="Trazado 982547" transform="translate(9 6)" fill="#e9f9fd">
                                  <path d="M 47.5 93.5 C 41.28937149047852 93.5 35.26533508300781 92.28397369384766 29.59518623352051 89.88570404052734 C 24.11771965026855 87.56893157958984 19.19813346862793 84.25196075439453 14.97309303283691 80.02691650390625 C 10.74804019927979 75.80186462402344 7.431066513061523 70.88229370117188 5.114293098449707 65.40481567382812 C 2.716026782989502 59.73468017578125 1.5 53.71062850952148 1.5 47.5 C 1.5 41.28937149047852 2.716026782989502 35.26533508300781 5.114293098449707 29.59518623352051 C 7.431066513061523 24.11771965026855 10.74804019927979 19.19813346862793 14.97309303283691 14.97309303283691 C 19.19813346862793 10.74804019927979 24.11771965026855 7.431066513061523 29.59518623352051 5.114293098449707 C 35.26533508300781 2.716026782989502 41.28937149047852 1.5 47.5 1.5 C 53.71062850952148 1.5 59.73468017578125 2.716026782989502 65.40481567382812 5.114293098449707 C 70.88229370117188 7.431066513061523 75.80186462402344 10.74804019927979 80.02691650390625 14.97309303283691 C 84.25196075439453 19.19813346862793 87.56893157958984 24.11771965026855 89.88570404052734 29.59518623352051 C 92.28397369384766 35.26533508300781 93.5 41.28937149047852 93.5 47.5 C 93.5 53.71062850952148 92.28397369384766 59.73468017578125 89.88570404052734 65.40481567382812 C 87.56893157958984 70.88229370117188 84.25196075439453 75.80186462402344 80.02691650390625 80.02691650390625 C 75.80186462402344 84.25196075439453 70.88229370117188 87.56893157958984 65.40481567382812 89.88570404052734 C 59.73468017578125 92.28397369384766 53.71062850952148 93.5 47.5 93.5 Z" stroke="none"/>
                                  <path d="M 47.5 3 C 41.49121475219727 3 35.66376876831055 4.176155090332031 30.17950439453125 6.495796203613281 C 24.88084411621094 8.736953735351562 20.12152099609375 11.94598388671875 16.03375244140625 16.03375244140625 C 11.94598388671875 20.12152099609375 8.736953735351562 24.88084411621094 6.495796203613281 30.17950439453125 C 4.176155090332031 35.66376876831055 3 41.49121475219727 3 47.5 C 3 53.50878524780273 4.176155090332031 59.33623123168945 6.495796203613281 64.82049560546875 C 8.736953735351562 70.11915588378906 11.94598388671875 74.87847900390625 16.03375244140625 78.96624755859375 C 20.12152099609375 83.05401611328125 24.88084411621094 86.26304626464844 30.17950439453125 88.50419616699219 C 35.66376876831055 90.82384490966797 41.49121475219727 92 47.5 92 C 53.50878524780273 92 59.33623123168945 90.82384490966797 64.82049560546875 88.50419616699219 C 70.11915588378906 86.26304626464844 74.87847900390625 83.05401611328125 78.96624755859375 78.96624755859375 C 83.05401611328125 74.87847900390625 86.26304626464844 70.11915588378906 88.50419616699219 64.82049560546875 C 90.82384490966797 59.33623123168945 92 53.50878524780273 92 47.5 C 92 41.49121475219727 90.82384490966797 35.66376876831055 88.50419616699219 30.17950439453125 C 86.26304626464844 24.88084411621094 83.05401611328125 20.12152099609375 78.96624755859375 16.03375244140625 C 74.87847900390625 11.94598388671875 70.11915588378906 8.736953735351562 64.82049560546875 6.495796203613281 C 59.33623123168945 4.176155090332031 53.50878524780273 3 47.5 3 M 47.5 0 C 73.7335205078125 0 95 21.2664794921875 95 47.5 C 95 73.7335205078125 73.7335205078125 95 47.5 95 C 21.2664794921875 95 0 73.7335205078125 0 47.5 C 0 21.2664794921875 21.2664794921875 0 47.5 0 Z" stroke="none" fill="#1d7083"/>
                                </g>
                              </g>
                            </g>
                          </g>
                        </g>
                      </g>
                    </g>
                  </g>
                </g>
              </g>
            </g>
          </g>
        </g>
      </g>
    </g>
    <g id="planta" transform="translate(162.402 7136.698)">
      <g id="Grupo_1208247" data-name="Grupo 1208247" transform="translate(25.616 16.276)">
        <path id="Trazado_1050375" data-name="Trazado 1050375" d="M75.123,136.213a3.837,3.837,0,0,0-3.837-3.837H68.728v15.047h6.4S75.123,136.213,75.123,136.213Z" transform="translate(-68.728 -132.376)" fill="#fea084"/>
        <path id="Trazado_1050376" data-name="Trazado 1050376" d="M391.253,136.213a3.837,3.837,0,0,1,3.837-3.837h2.558v15.047h-6.4v-11.21Z" transform="translate(-351.6 -132.376)" fill="#fea084"/>
      </g>
      <path id="Trazado_1050377" data-name="Trazado 1050377" d="M331.215,92.138v14.29h0a3.838,3.838,0,0,0-3.767.7l-7.628,6.357a3.829,3.829,0,0,0-1.4,2.961v14.073h10.233v-3.839a3.832,3.832,0,0,1,1.581-3.1l7.076-5.307a3.832,3.832,0,0,0,1.576-3.1V92.138a3.837,3.837,0,1,0-7.675,0Z" transform="translate(-262.109 -77.444)" fill="#ffd2ba"/>
      <g id="Grupo_1208248" data-name="Grupo 1208248" transform="translate(62.791 10.857)">
        <path id="Trazado_1050378" data-name="Trazado 1050378" d="M379.368,88.793a3.835,3.835,0,0,1,1.959,3.346v14.47a6.251,6.251,0,0,0-3.917-2.663v2.485a3.838,3.838,0,0,1,2.558,3.618h0a3.827,3.827,0,0,1-1.4,2.961l-6.093,5.032-.009.025a3.828,3.828,0,0,0-1.375,2.942v9.505h3.757v-3.839a3.832,3.832,0,0,1,1.581-3.1l7.076-5.307a3.832,3.832,0,0,0,1.576-3.1V92.138a3.837,3.837,0,0,0-5.716-3.346Z" transform="translate(-371.094 -88.301)" fill="#ffbc99"/>
        <path id="Trazado_1050379" data-name="Trazado 1050379" d="M392.448,253.242a.815.815,0,0,0,1.155.119l1.074-.887a2,2,0,0,0-.58-3.419l-.05-.018a1.993,1.993,0,0,0-.641-.105,1.973,1.973,0,0,0-1.295.476l-.015.013-1.011.843a.815.815,0,0,0-.114,1.136Z" transform="translate(-388.37 -229.183)" fill="#ffbc99"/>
      </g>
      <rect id="Rectángulo_417830" data-name="Rectángulo 417830" width="15.349" height="5.119" transform="translate(53.757 51.789)" fill="#dcf3f4"/>
      <rect id="Rectángulo_417831" data-name="Rectángulo 417831" width="3.849" height="5.108" transform="translate(65.268 51.8)" fill="#b0cdcf"/>
      <rect id="Rectángulo_417832" data-name="Rectángulo 417832" width="20.465" height="6.396" transform="translate(51.199 55.626)" fill="#25739e"/>
      <rect id="Rectángulo_417833" data-name="Rectángulo 417833" width="3.837" height="6.396" transform="translate(67.827 55.626)" fill="#216486"/>
      <path id="Trazado_1050380" data-name="Trazado 1050380" d="M34.788,92.138v14.29h0a3.838,3.838,0,0,1,3.767.7l7.628,6.357a3.829,3.829,0,0,1,1.4,2.961v14.073H37.346v-3.839a3.832,3.832,0,0,0-1.581-3.1l-7.076-5.307a3.832,3.832,0,0,1-1.576-3.1V92.138a3.837,3.837,0,1,1,7.675,0Z" transform="translate(-6.613 -77.444)" fill="#ffd2ba"/>
      <g id="Grupo_1208249" data-name="Grupo 1208249" transform="translate(20.5 10.857)">
        <path id="Trazado_1050381" data-name="Trazado 1050381" d="M32.829,88.793a3.835,3.835,0,0,0-1.959,3.346v14.47a6.252,6.252,0,0,1,3.917-2.663v2.485a3.839,3.839,0,0,0-2.558,3.618h0a3.827,3.827,0,0,0,1.4,2.961l6.093,5.032.009.025a3.828,3.828,0,0,1,1.375,2.942v9.505H37.346v-3.839a3.832,3.832,0,0,0-1.581-3.1l-7.076-5.307a3.832,3.832,0,0,1-1.576-3.1V92.138a3.837,3.837,0,0,1,5.716-3.346Z" transform="translate(-27.113 -88.301)" fill="#ffbc99"/>
        <path id="Trazado_1050382" data-name="Trazado 1050382" d="M86.64,253.242a.815.815,0,0,1-1.155.119l-1.073-.887a2,2,0,0,1,.58-3.419l.05-.018a1.992,1.992,0,0,1,.641-.105,1.972,1.972,0,0,1,1.295.476l.015.013,1.011.843a.815.815,0,0,1,.114,1.136Z" transform="translate(-76.728 -229.183)" fill="#ffbc99"/>
      </g>
      <rect id="Rectángulo_417834" data-name="Rectángulo 417834" width="15.349" height="5.119" transform="translate(28.175 51.789)" fill="#dcf3f4"/>
      <rect id="Rectángulo_417835" data-name="Rectángulo 417835" width="3.849" height="5.108" transform="translate(28.163 51.8)" fill="#b0cdcf"/>
      <rect id="Rectángulo_417836" data-name="Rectángulo 417836" width="20.465" height="6.396" transform="translate(25.617 55.626)" fill="#25739e"/>
      <rect id="Rectángulo_417837" data-name="Rectángulo 417837" width="3.837" height="6.396" transform="translate(25.617 55.626)" fill="#216486"/>
      <path id="Trazado_1050383" data-name="Trazado 1050383" d="M213.85,5.07a11.815,11.815,0,0,0,0,20.466,11.815,11.815,0,0,0,0-20.466Z" transform="translate(-165.209 -4.445)" fill="#4fd255"/>
      <path id="Trazado_1050384" data-name="Trazado 1050384" d="M242.315,5.07A11.865,11.865,0,0,0,240.4,6.454a11.806,11.806,0,0,1,0,17.7,11.866,11.866,0,0,0,1.919,1.384,11.815,11.815,0,0,0,0-20.466Z" transform="translate(-193.674 -4.445)" fill="#2cb855"/>
      <path id="Trazado_1050385" data-name="Trazado 1050385" d="M290.915,162.827a5.908,5.908,0,0,0-8.186,6.14,5.908,5.908,0,0,0,8.186-6.14Z" transform="translate(-230.765 -142.39)" fill="#4fd255"/>
      <path id="Trazado_1050386" data-name="Trazado 1050386" d="M290.926,163.495a5.934,5.934,0,0,0-1.294-.381,5.9,5.9,0,0,1-6.9,5.173,5.932,5.932,0,0,0,0,1.349,5.908,5.908,0,0,0,8.186-6.14Z" transform="translate(-230.776 -143.059)" fill="#2cb855"/>
      <path id="Trazado_1050387" data-name="Trazado 1050387" d="M162.089,162.827a5.908,5.908,0,0,1,8.186,6.14,5.908,5.908,0,0,1-8.186-6.14Z" transform="translate(-124.958 -142.39)" fill="#4fd255"/>
      <path id="Trazado_1050388" data-name="Trazado 1050388" d="M162.089,163.495a5.934,5.934,0,0,1,1.294-.381,5.9,5.9,0,0,0,6.9,5.173,5.93,5.93,0,0,1,0,1.349,5.908,5.908,0,0,1-8.186-6.14Z" transform="translate(-124.958 -143.059)" fill="#2cb855"/>
      <path id="Trazado_1050389" data-name="Trazado 1050389" d="M291.947,80.765a4.769,4.769,0,0,0-4.764,4.764v.747a4.772,4.772,0,0,0-3.837,4.673v9.191l-7.22,6.017a4.751,4.751,0,0,0-1.733,3.676V121.7H272.76a.927.927,0,0,0-.927.927v2.911H270.2a.926.926,0,0,0-.927.927v6.4a.927.927,0,1,0,1.853,0v-5.469h18.613v5.469a.927.927,0,1,0,1.853,0v-6.4a.926.926,0,0,0-.927-.927h-1.632v-2.911a.926.926,0,0,0-.927-.927h-1.632v-1.632a2.923,2.923,0,0,1,1.2-2.355l.01-.008,7.066-5.3a4.783,4.783,0,0,0,1.956-3.849V85.529A4.769,4.769,0,0,0,291.947,80.765Zm-4.764,7.425v10.5c-.117-.009-.234-.015-.353-.015a4.778,4.778,0,0,0-1.632.288V90.948A2.915,2.915,0,0,1,287.183,88.19Zm0,37.345h-13.5V123.55h13.5v1.984Zm7.675-16.981a2.93,2.93,0,0,1-1.206,2.36l-7.071,5.3a4.782,4.782,0,0,0-1.956,3.849V121.7h-8.38V109.832a2.906,2.906,0,0,1,1.063-2.249l7.551-6.292.006,0,.079-.066a2.911,2.911,0,1,1,3.737,4.464l-7.256,5.993a.927.927,0,0,0,1.18,1.429l7.255-5.992a4.762,4.762,0,0,0-.825-7.9V85.529a2.911,2.911,0,1,1,5.821,0v23.024Z" transform="translate(-219.002 -70.834)"/>
      <path id="Trazado_1050390" data-name="Trazado 1050390" d="M314.376,476.118h-2.558a.927.927,0,0,0,0,1.853h2.558a.927.927,0,0,0,0-1.853Z" transform="translate(-255.502 -417.581)"/>
      <path id="Trazado_1050391" data-name="Trazado 1050391" d="M46.082,125.535H44.45v-2.911a.926.926,0,0,0-.927-.926H41.892V109.833a4.749,4.749,0,0,0-1.73-3.673l-7.224-6.02V90.949A4.771,4.771,0,0,0,29.1,86.276V85.53a4.764,4.764,0,0,0-9.528,0v23.024A4.778,4.778,0,0,0,21.52,112.4L28.6,117.7l.01.008a2.923,2.923,0,0,1,1.2,2.355V121.7H28.175a.926.926,0,0,0-.927.926v2.911H25.616a.926.926,0,0,0-.927.927v6.4a.927.927,0,0,0,1.853,0v-5.469h3.4a.927.927,0,1,0,0-1.853H29.1v-1.984H42.6v1.984H34.08a.927.927,0,0,0,0,1.853H45.156v5.469a.927.927,0,0,0,1.853,0v-6.4A.926.926,0,0,0,46.082,125.535Zm-15-34.586v8.013a4.768,4.768,0,0,0-1.632-.289c-.119,0-.236.006-.353.015V88.19A2.915,2.915,0,0,1,31.086,90.949ZM29.7,116.217l-7.081-5.311a2.924,2.924,0,0,1-1.2-2.353V85.53a2.911,2.911,0,0,1,5.821,0V99.217a4.762,4.762,0,0,0-.825,7.9l7.256,5.993a.927.927,0,0,0,1.18-1.429L27.6,105.684a2.911,2.911,0,1,1,3.745-4.457l.074.062h0l7.556,6.3a2.9,2.9,0,0,1,1.06,2.247V121.7h-8.38v-1.632A4.781,4.781,0,0,0,29.7,116.217Z" transform="translate(0 -70.835)"/>
      <path id="Trazado_1050392" data-name="Trazado 1050392" d="M168.717,476.118h-2.558a.927.927,0,0,0,0,1.853h2.558a.927.927,0,0,0,0-1.853Z" transform="translate(-127.751 -417.581)"/>
      <path id="Trazado_1050393" data-name="Trazado 1050393" d="M171.754,36.743a.926.926,0,0,0-.926-.927h-2.911V29.531l2.547-1.91a6.831,6.831,0,0,0,8.955-7.294.927.927,0,0,0-.557-.743,6.832,6.832,0,0,0-9.512,6.556l-1.434,1.076v-5.3A12.739,12.739,0,0,0,167.454.126a.927.927,0,0,0-.928,0,12.739,12.739,0,0,0-.462,21.787v5.3l-1.434-1.076a6.832,6.832,0,0,0-9.512-6.556.927.927,0,0,0-.557.743,6.835,6.835,0,0,0,8.955,7.294l2.547,1.91v6.284h-2.911a.927.927,0,0,0,0,1.853h7.675A.927.927,0,0,0,171.754,36.743Zm1.435-14.859a5,5,0,0,1,4.425-.784,4.979,4.979,0,0,1-6.416,4.812A5,5,0,0,1,173.19,21.884Zm-14.832,3.245a5,5,0,0,1-1.991-4.028,4.979,4.979,0,0,1,6.417,4.812A5,5,0,0,1,158.357,25.129Zm3.651-13.968a10.933,10.933,0,0,1,4.982-9.147,10.883,10.883,0,0,1,.927,17.62V14.291l2.046-1.023a.926.926,0,0,0-.829-1.657l-1.217.609V8.6a.927.927,0,0,0-1.853,0V9.662l-1.217-.609a.927.927,0,0,0-.829,1.657l2.046,1.023v7.9A10.931,10.931,0,0,1,162.008,11.161Z" transform="translate(-118.35 0)"/>
    </g>
  </g>
</svg>
