<svg xmlns="http://www.w3.org/2000/svg" xmlns:xlink="http://www.w3.org/1999/xlink" width="93.934" height="93.934" viewBox="0 0 93.934 93.934">
  <defs>
    <filter id="Trazado_982547" x="0" y="0" width="93.934" height="93.934" filterUnits="userSpaceOnUse">
      <feOffset dy="3" input="SourceAlpha"/>
      <feGaussianBlur stdDeviation="3" result="blur"/>
      <feFlood flood-opacity="0.161"/>
      <feComposite operator="in" in2="blur"/>
      <feComposite in="SourceGraphic"/>
    </filter>
  </defs>
  <g id="Grupo_1208426" data-name="Grupo 1208426" transform="translate(-192.066 -7866.674)">
    <g id="Grupo_1183196" data-name="Grupo 1183196" transform="translate(1 1016.674)">
      <g id="Grupo_1179610" data-name="Grupo 1179610" transform="translate(8 4723.467)">
        <g id="Grupo_1175227" data-name="Grupo 1175227" transform="translate(-5.967 140.533)">
          <g id="Grupo_1167337" data-name="Grupo 1167337" transform="translate(198.033 1992)">
            <g id="Grupo_1166720" data-name="Grupo 1166720">
              <g id="Grupo_1164305" data-name="Grupo 1164305">
                <g id="Grupo_1163948" data-name="Grupo 1163948">
                  <g id="Grupo_1158168" data-name="Grupo 1158168">
                    <g id="Grupo_1152576" data-name="Grupo 1152576">
                      <g id="Grupo_1148633" data-name="Grupo 1148633">
                        <g id="Grupo_1148525" data-name="Grupo 1148525">
                          <g transform="matrix(1, 0, 0, 1, -9, -6)" filter="url(#Trazado_982547)">
                            <g id="Trazado_982547-2" data-name="Trazado 982547" transform="translate(9 6)" fill="#f5f5f5">
                              <path d="M 37.966796875 74.43359375 C 33.04315185546875 74.43359375 28.26757431030273 73.46962738037109 23.77274131774902 71.56847381591797 C 19.43047523498535 69.73184967041016 15.53040790557861 67.10224914550781 12.18087482452393 63.75271987915039 C 8.831341743469238 60.4031867980957 6.201741218566895 56.50312042236328 4.365118980407715 52.16086196899414 C 2.463963508605957 47.66601943969727 1.499996900558472 42.89044189453125 1.499996900558472 37.966796875 C 1.499996900558472 33.04315185546875 2.463963508605957 28.26757431030273 4.365118980407715 23.77274131774902 C 6.201741218566895 19.43047523498535 8.831341743469238 15.53040790557861 12.18087482452393 12.18087482452393 C 15.53040790557861 8.831341743469238 19.43047523498535 6.201741218566895 23.77274131774902 4.365118980407715 C 28.26757431030273 2.463963508605957 33.04315185546875 1.499996900558472 37.966796875 1.499996900558472 C 42.89044189453125 1.499996900558472 47.66601943969727 2.463963508605957 52.16086196899414 4.365118980407715 C 56.50312042236328 6.201741218566895 60.4031867980957 8.831341743469238 63.75271987915039 12.18087482452393 C 67.10224914550781 15.53040790557861 69.73184967041016 19.43047523498535 71.56847381591797 23.77274131774902 C 73.46962738037109 28.26757431030273 74.43359375 33.04315185546875 74.43359375 37.966796875 C 74.43359375 42.89044189453125 73.46962738037109 47.66601943969727 71.56847381591797 52.16086196899414 C 69.73184967041016 56.50313186645508 67.10224914550781 60.4031867980957 63.75271987915039 63.75271987915039 C 60.4031867980957 67.10224914550781 56.50313186645508 69.73184967041016 52.16086196899414 71.56847381591797 C 47.66601943969727 73.46962738037109 42.89044189453125 74.43359375 37.966796875 74.43359375 Z" stroke="none"/>
                              <path d="M 37.966796875 3 C 33.2449836730957 3 28.66600799560547 3.924095153808594 24.35705947875977 5.746635437011719 C 20.19359588623047 7.507637023925781 16.45379638671875 10.02928161621094 13.24153518676758 13.24153518676758 C 10.02927398681641 16.45379638671875 7.507621765136719 20.19359588623047 5.746635437011719 24.35705947875977 C 3.924095153808594 28.66600799560547 3 33.2449836730957 3 37.966796875 C 3 42.6886100769043 3.924095153808594 47.26758575439453 5.746635437011719 51.57653427124023 C 7.507621765136719 55.73999786376953 10.02927398681641 59.47979736328125 13.24153518676758 62.69205856323242 C 16.45379638671875 65.90431976318359 20.19359588623047 68.42597198486328 24.35705947875977 70.18695831298828 C 28.66600799560547 72.00949859619141 33.2449836730957 72.93359375 37.966796875 72.93359375 C 42.6886100769043 72.93359375 47.26758575439453 72.00949859619141 51.57653427124023 70.18695831298828 C 55.73999786376953 68.42597198486328 59.47979736328125 65.90431976318359 62.69205856323242 62.69205856323242 C 65.90431976318359 59.47979736328125 68.42597198486328 55.73999786376953 70.18695831298828 51.57653427124023 C 72.00949859619141 47.26758575439453 72.93359375 42.6886100769043 72.93359375 37.966796875 C 72.93359375 33.2449836730957 72.00949859619141 28.66600799560547 70.18695831298828 24.35705947875977 C 68.42597198486328 20.19359588623047 65.90431976318359 16.45379638671875 62.69205856323242 13.24153518676758 C 59.47979736328125 10.02928161621094 55.73999786376953 7.507637023925781 51.57653427124023 5.746635437011719 C 47.26758575439453 3.924095153808594 42.6886100769043 3 37.966796875 3 M 37.966796875 0 C 58.93528366088867 0 75.93359375 16.99832153320312 75.93359375 37.966796875 C 75.93359375 58.93528366088867 58.93528366088867 75.93359375 37.966796875 75.93359375 C 16.99831008911133 75.93359375 0 58.93528366088867 0 37.966796875 C 0 16.99832153320312 16.99831008911133 0 37.966796875 0 Z" stroke="none" fill="#86b60c"/>
                            </g>
                          </g>
                        </g>
                      </g>
                    </g>
                  </g>
                </g>
              </g>
            </g>
          </g>
        </g>
      </g>
    </g>
    <g id="la-contaminacion-del-aire" transform="translate(210.43 7882.04)">
      <g id="Grupo_1208425" data-name="Grupo 1208425" transform="translate(13.658 24.316)">
        <path id="Trazado_1050691" data-name="Trazado 1050691" d="M95.424,346.46H98.96v3.218a.8.8,0,0,1-.8.8H96.223a.8.8,0,0,1-.8-.8Z" transform="translate(-94.506 -332.13)" fill="#3d4a75" fill-rule="evenodd"/>
        <path id="Trazado_1050692" data-name="Trazado 1050692" d="M113.858,346.46h1.768v3.218a.8.8,0,0,1-.8.8h-.969V346.46Z" transform="translate(-111.172 -332.13)" fill="#323e66" fill-rule="evenodd"/>
        <path id="Trazado_1050693" data-name="Trazado 1050693" d="M306.325,346.46h3.536v3.218a.8.8,0,0,1-.8.8h-1.937a.8.8,0,0,1-.8-.8Z" transform="translate(-285.183 -332.13)" fill="#323e66" fill-rule="evenodd"/>
        <path id="Trazado_1050694" data-name="Trazado 1050694" d="M324.76,346.46h1.768v3.218a.8.8,0,0,1-.8.8h-.969V346.46Z" transform="translate(-301.851 -332.13)" fill="#3d4a75" fill-rule="evenodd"/>
        <path id="Trazado_1050695" data-name="Trazado 1050695" d="M110.284,206.076l1.615-7.916a1.416,1.416,0,0,1,1.4-1.142H128.36a1.416,1.416,0,0,1,1.4,1.142l1.615,7.916-10.545.045-10.545-.045Z" transform="translate(-107.941 -197.018)" fill="#f9ac00" fill-rule="evenodd"/>
        <path id="Trazado_1050696" data-name="Trazado 1050696" d="M220.25,197.018h7.532a1.416,1.416,0,0,1,1.4,1.142l1.615,7.916-10.545.045v-9.1Z" transform="translate(-207.362 -197.018)" fill="#fdc72e" fill-rule="evenodd"/>
        <path id="Trazado_1050697" data-name="Trazado 1050697" d="M150.909,222.42l-1.1-5.38H135.553l-1.1,5.38Z" transform="translate(-129.795 -215.12)" fill="#c8e8fb" fill-rule="evenodd"/>
        <path id="Trazado_1050698" data-name="Trazado 1050698" d="M228.477,222.42l-1.1-5.38H220.25v5.38Z" transform="translate(-207.362 -215.12)" fill="#f3f3ff" fill-rule="evenodd"/>
        <path id="Trazado_1050699" data-name="Trazado 1050699" d="M111.442,276.346v3.833h-25.6V276.4a2.92,2.92,0,0,1,1.54-2.613l1.161-.643H108.92l1.058.628A2.915,2.915,0,0,1,111.442,276.346Z" transform="translate(-85.846 -265.849)" fill="#d76a00" fill-rule="evenodd"/>
        <path id="Trazado_1050700" data-name="Trazado 1050700" d="M129.072,276.346v3.833H105.346V276.4a2.92,2.92,0,0,1,1.54-2.613l1.161-.643h18.5l1.058.628a2.915,2.915,0,0,1,1.463,2.569Z" transform="translate(-103.476 -265.849)" fill="#e68207" fill-rule="evenodd"/>
        <path id="Trazado_1050701" data-name="Trazado 1050701" d="M232.958,276.346v3.833H220.25v-7.03h10.186l1.058.628A2.915,2.915,0,0,1,232.958,276.346Z" transform="translate(-207.362 -265.849)" fill="#fda02f" fill-rule="evenodd"/>
      </g>
      <path id="Trazado_1050702" data-name="Trazado 1050702" d="M74.1,329.542h27.849v2.614H74.1Z" transform="translate(-61.565 -292.519)" fill="#c45b00"/>
      <path id="Trazado_1050703" data-name="Trazado 1050703" d="M220.25,329.542h13.834v2.614H220.25Z" transform="translate(-193.704 -292.519)" fill="#d76a00"/>
      <path id="Trazado_1050704" data-name="Trazado 1050704" d="M177.448,292.429l-.349,1.71h-9.236l-.349-1.71Z" transform="translate(-146.026 -258.964)" fill="#b54500" fill-rule="evenodd"/>
      <path id="Trazado_1050705" data-name="Trazado 1050705" d="M181.255,292.429l-.29,1.422h-8.949l-.29-1.422Z" transform="translate(-149.833 -258.964)" fill="#c45b00" fill-rule="evenodd"/>
      <path id="Trazado_1050706" data-name="Trazado 1050706" d="M225.126,292.429l-.29,1.422H220.25v-1.422Z" transform="translate(-193.704 -258.964)" fill="#d76a00" fill-rule="evenodd"/>
      <circle id="Elipse_11592" data-name="Elipse 11592" cx="1.424" cy="1.424" r="1.424" transform="translate(16.061 35.005) rotate(-45)" fill="#b54500"/>
      <circle id="Elipse_11593" data-name="Elipse 11593" cx="1.424" cy="1.424" r="1.424" transform="translate(15.504 35.004) rotate(-45)" fill="#f3f3ff"/>
      <path id="Trazado_1050707" data-name="Trazado 1050707" d="M304.865,296.506a1.424,1.424,0,1,0-1.424-1.424A1.427,1.427,0,0,0,304.865,296.506Z" transform="translate(-268.918 -260.076)" fill="#b54500" fill-rule="evenodd"/>
      <path id="Trazado_1050708" data-name="Trazado 1050708" d="M299.057,296.506a1.424,1.424,0,1,0-1.424-1.424A1.427,1.427,0,0,0,299.057,296.506Z" transform="translate(-263.667 -260.076)" fill="#f3f3ff" fill-rule="evenodd"/>
      <path id="Trazado_1050709" data-name="Trazado 1050709" d="M20.775,14.038a3.344,3.344,0,0,0-6.672.472,3.174,3.174,0,1,0,0,6.348H24.468a2.3,2.3,0,0,0,0-4.6,2.237,2.237,0,0,0-3.693-2.218Z" transform="translate(-4.455 -4.49)" fill="#2a92fa" fill-rule="evenodd"/>
      <path id="Trazado_1050710" data-name="Trazado 1050710" d="M14.1,21.371a3.174,3.174,0,1,0,0,6.348h9.263a2.3,2.3,0,0,0,0-4.6,1.757,1.757,0,0,0-3.124-1.468c-.458-4.2-5.883-3.962-6.139-.279Z" transform="translate(-4.455 -11.352)" fill="#4eb1fc" fill-rule="evenodd"/>
      <path id="Trazado_1050711" data-name="Trazado 1050711" d="M30.968,84.369a19.975,19.975,0,1,1-19.976,19.975A19.975,19.975,0,0,1,30.968,84.369ZM44.2,92.847,19.471,117.573A17.526,17.526,0,0,0,44.2,92.848ZM17.739,115.841,42.464,91.116a17.526,17.526,0,0,0-24.726,24.726Z" transform="translate(-4.511 -70.855)" fill="#ff3838" fill-rule="evenodd"/>
      <path id="Trazado_1050712" data-name="Trazado 1050712" d="M305.3,14.943a4.216,4.216,0,0,0-8.41.595,4,4,0,0,0,0,8h13.066a2.9,2.9,0,0,0,0-5.8,2.821,2.821,0,0,0-4.655-2.8Z" transform="translate(-259.378 -4.584)" fill="#2a92fa" fill-rule="evenodd"/>
      <path id="Trazado_1050713" data-name="Trazado 1050713" d="M296.89,24.187a4,4,0,0,0,0,8h11.677a2.9,2.9,0,0,0,0-5.8,2.215,2.215,0,0,0-3.938-1.85c-.577-5.293-7.416-4.995-7.739-.352Z" transform="translate(-259.378 -13.234)" fill="#4eb1fc" fill-rule="evenodd"/>
      <path id="Trazado_1050714" data-name="Trazado 1050714" d="M47.016,15.178a.48.48,0,0,0-.672.092l-.108.141V12.9a.479.479,0,0,0-.959,0V15.41l-.107-.141a.479.479,0,0,0-.763.58l.969,1.274a.48.48,0,0,0,.763,0l.969-1.274a.481.481,0,0,0-.091-.672Zm-3.97,0a.48.48,0,0,0-.672.092l-.108.141V11.487a.479.479,0,0,0-.959,0v3.924L41.2,15.27a.479.479,0,0,0-.763.58l.968,1.274a.481.481,0,0,0,.763,0l.969-1.274a.48.48,0,0,0-.091-.672ZM42.972,20.2v.561a.479.479,0,1,0,.959,0V20.2a.479.479,0,0,0-.959,0Zm2.785,3.357a.48.48,0,0,0-.48.479v.192a.479.479,0,0,0,.959,0v-.192A.479.479,0,0,0,45.757,23.556Zm.479-3.357a.479.479,0,0,0-.959,0v.959a.479.479,0,0,0,.959,0Zm1.88,3.357a.479.479,0,0,0-.48.479v.959a.479.479,0,1,0,.959,0v-.959A.479.479,0,0,0,48.116,23.556Zm0-3.836a.48.48,0,0,0-.48.479v.959a.479.479,0,0,0,.959,0V20.2A.48.48,0,0,0,48.116,19.72Zm0,7.671a.48.48,0,0,0-.48.48v.153a.479.479,0,1,0,.959,0v-.153A.48.48,0,0,0,48.116,27.391Zm2.3-7.671a.479.479,0,0,0-.479.479v.959a.479.479,0,1,0,.959,0V20.2A.479.479,0,0,0,50.417,19.72Zm0,7.671a.48.48,0,0,0-.479.48v.153a.479.479,0,1,0,.959,0v-.153A.48.48,0,0,0,50.417,27.391Zm0-3.835a.479.479,0,0,0-.479.479v.959a.479.479,0,1,0,.959,0v-.959A.479.479,0,0,0,50.417,23.556ZM42.174,8.813a.479.479,0,1,0,.179-.942,2.873,2.873,0,0,0-3.476,2.468.479.479,0,1,0,.95.125,1.939,1.939,0,0,1,.781-1.338,1.976,1.976,0,0,1,1.566-.313Zm10.813,7.244a2.43,2.43,0,0,1-2.4,2.424H37.507a3.526,3.526,0,0,1,0-7.052.479.479,0,0,0,.479-.508,3.754,3.754,0,0,1,3.47-3.955c.089-.007.176-.009.265-.009a3.755,3.755,0,0,1,3.728,3.436.479.479,0,0,0,.8.316,2.448,2.448,0,0,1,2.173-.578,2.3,2.3,0,0,1,1.4,1.063,2.431,2.431,0,0,1,.3,1.841.478.478,0,0,0,.461.6,2.431,2.431,0,0,1,2.4,2.424ZM39.973,19.441a19.312,19.312,0,0,1,5.98,14.048,19.483,19.483,0,1,1-12.926-18.36,4.447,4.447,0,0,0,.441,1.775,18.006,18.006,0,0,0-20.6,28.4.479.479,0,0,0,.345.165h.016a.479.479,0,0,0,.339-.14L38.292,20.6a.48.48,0,0,0-.024-.7q-.27-.234-.549-.457h2.254Zm-23.92-3.557a20.292,20.292,0,0,1,5.693-2.3,1.821,1.821,0,0,0-1.74-1.337.48.48,0,0,1-.461-.6,1.824,1.824,0,0,0-.223-1.382,1.721,1.721,0,0,0-1.049-.8,1.836,1.836,0,0,0-1.631.435.48.48,0,0,1-.8-.316,2.862,2.862,0,0,0-5.71.4.479.479,0,0,1-.478.508,2.692,2.692,0,1,0,0,5.385h6.4ZM37.246,20.29A17.048,17.048,0,0,0,13.258,44.278L14.634,42.9a1.276,1.276,0,0,1-.536-1.038V40.116H12.533a.479.479,0,0,1-.479-.48V37.023a.478.478,0,0,1,.479-.479h.647V34.871a3.38,3.38,0,0,1,1.788-3.033l.968-.535,1.212-5.942a1.89,1.89,0,0,1,1.868-1.526H33.7l3.545-3.545Zm-4.5,4.5H19.015a.94.94,0,0,0-.928.759l-1.139,5.582h.981l1.02-5a.48.48,0,0,1,.47-.385H31.781l.961-.961Zm-1.92,1.92H19.809l-.9,4.421H26.4l4.421-4.421Zm-13.3,9.236a.945.945,0,1,0-.944-.945A.945.945,0,0,0,17.522,35.95ZM20.033,37.5H13.012v1.654h5.367L20.033,37.5ZM17.42,40.116H15.057v1.748a.324.324,0,0,0,.3.317Zm8.021-8.021H16.484l-1.053.583a2.446,2.446,0,0,0-1.293,2.194v1.672H16.4a1.9,1.9,0,1,1,2.235,0h2.352l.89-.89h-.043a.481.481,0,0,1-.47-.384l-.349-1.71a.481.481,0,0,1,.47-.576h3.062l.89-.89Zm-1.848,1.849H22.078l.152.752h.611ZM53.946,16.058a3.393,3.393,0,0,1-3.356,3.383H41.324a20.459,20.459,0,1,1-26.741-2.6H9.653a3.651,3.651,0,0,1-.477-7.271,3.821,3.821,0,0,1,7.481-.823,2.775,2.775,0,0,1,1.836-.213,2.681,2.681,0,0,1,1.647,1.232,2.822,2.822,0,0,1,.411,1.574,2.785,2.785,0,0,1,2.133,2.042,20.523,20.523,0,0,1,10.413.754,4.493,4.493,0,0,1,3.927-3.64,4.7,4.7,0,0,1,9.246-.969,3.4,3.4,0,0,1,2.37-.329,3.264,3.264,0,0,1,2,1.5,3.44,3.44,0,0,1,.495,2.026,3.394,3.394,0,0,1,2.807,3.333ZM43.5,33.489A17.038,17.038,0,0,0,39.655,22.7l-3.531,3.531,1.036,5.08.876.52a3.39,3.39,0,0,1,1.7,2.981v1.732h.647a.479.479,0,0,1,.479.479v2.613a.479.479,0,0,1-.479.48H38.815v1.748a1.28,1.28,0,0,1-1.278,1.278H35.6a1.28,1.28,0,0,1-1.279-1.278V40.116H22.24l-6.572,6.572A17.048,17.048,0,0,0,43.5,33.489Zm-7.358-2.353-.834-4.092-.815.815.669,3.277h.98Zm-1.959,0-.5-2.464L31.22,31.135Zm-3.5,3.56.154-.752H28.412l-.752.752Zm8.092.117a2.424,2.424,0,0,0-1.228-2.157l-.945-.561H30.261l-.89.89h2.052a.479.479,0,0,1,.47.576l-.349,1.71a.48.48,0,0,1-.469.384H26.7l-.89.89h8.462a1.9,1.9,0,1,1,2.234,0h2.267V34.812ZM35.391,35.95a.945.945,0,1,0-.944-.945A.946.946,0,0,0,35.391,35.95ZM39.9,39.157V37.5H24.853L23.2,39.157ZM35.28,41.864a.324.324,0,0,0,.32.319h1.937a.324.324,0,0,0,.32-.319V40.116H35.28Zm4.767-20.187a.483.483,0,0,0-.345-.164.477.477,0,0,0-.356.14L14.62,46.378a.481.481,0,0,0,.025.7,18.006,18.006,0,0,0,25.4-25.4ZM13.891,8.044a.48.48,0,0,1-.561.381,1.463,1.463,0,0,0-1.162.23,1.436,1.436,0,0,0-.578.993.479.479,0,0,1-.475.416.486.486,0,0,1-.063,0,.478.478,0,0,1-.412-.538A2.375,2.375,0,0,1,13.51,7.484a.479.479,0,0,1,.381.561Z" transform="translate(0 0)" fill-rule="evenodd"/>
    </g>
  </g>
</svg>
