<svg xmlns="http://www.w3.org/2000/svg" xmlns:xlink="http://www.w3.org/1999/xlink" width="93.934" height="93.934" viewBox="0 0 93.934 93.934">
  <defs>
    <filter id="Trazado_982547" x="0" y="0" width="93.934" height="93.934" filterUnits="userSpaceOnUse">
      <feOffset dy="3" input="SourceAlpha"/>
      <feGaussianBlur stdDeviation="3" result="blur"/>
      <feFlood flood-opacity="0.161"/>
      <feComposite operator="in" in2="blur"/>
      <feComposite in="SourceGraphic"/>
    </filter>
  </defs>
  <g id="Grupo_1208432" data-name="Grupo 1208432" transform="translate(-1032.066 -7866.674)">
    <g id="Grupo_1183184" data-name="Grupo 1183184" transform="translate(1 1016.674)">
      <g id="Grupo_1179612" data-name="Grupo 1179612" transform="translate(848 4723.467)">
        <g id="Grupo_1175227" data-name="Grupo 1175227" transform="translate(-5.967 140.533)">
          <g id="Grupo_1167337" data-name="Grupo 1167337" transform="translate(198.033 1992)">
            <g id="Grupo_1166720" data-name="Grupo 1166720">
              <g id="Grupo_1164305" data-name="Grupo 1164305">
                <g id="Grupo_1163948" data-name="Grupo 1163948">
                  <g id="Grupo_1158168" data-name="Grupo 1158168">
                    <g id="Grupo_1152576" data-name="Grupo 1152576">
                      <g id="Grupo_1148633" data-name="Grupo 1148633">
                        <g id="Grupo_1148525" data-name="Grupo 1148525">
                          <g transform="matrix(1, 0, 0, 1, -9, -6)" filter="url(#Trazado_982547)">
                            <g id="Trazado_982547-2" data-name="Trazado 982547" transform="translate(9 6)" fill="#f5f5f5">
                              <path d="M 37.966796875 74.43359375 C 33.04315185546875 74.43359375 28.26757431030273 73.46962738037109 23.77274131774902 71.56847381591797 C 19.43047523498535 69.73184967041016 15.53040790557861 67.10224914550781 12.18087482452393 63.75271987915039 C 8.831341743469238 60.4031867980957 6.201741218566895 56.50312042236328 4.365118980407715 52.16086196899414 C 2.463963508605957 47.66601943969727 1.499996900558472 42.89044189453125 1.499996900558472 37.966796875 C 1.499996900558472 33.04315185546875 2.463963508605957 28.26757431030273 4.365118980407715 23.77274131774902 C 6.201741218566895 19.43047523498535 8.831341743469238 15.53040790557861 12.18087482452393 12.18087482452393 C 15.53040790557861 8.831341743469238 19.43047523498535 6.201741218566895 23.77274131774902 4.365118980407715 C 28.26757431030273 2.463963508605957 33.04315185546875 1.499996900558472 37.966796875 1.499996900558472 C 42.89044189453125 1.499996900558472 47.66601943969727 2.463963508605957 52.16086196899414 4.365118980407715 C 56.50312042236328 6.201741218566895 60.4031867980957 8.831341743469238 63.75271987915039 12.18087482452393 C 67.10224914550781 15.53040790557861 69.73184967041016 19.43047523498535 71.56847381591797 23.77274131774902 C 73.46962738037109 28.26757431030273 74.43359375 33.04315185546875 74.43359375 37.966796875 C 74.43359375 42.89044189453125 73.46962738037109 47.66601943969727 71.56847381591797 52.16086196899414 C 69.73184967041016 56.50313186645508 67.10224914550781 60.4031867980957 63.75271987915039 63.75271987915039 C 60.4031867980957 67.10224914550781 56.50313186645508 69.73184967041016 52.16086196899414 71.56847381591797 C 47.66601943969727 73.46962738037109 42.89044189453125 74.43359375 37.966796875 74.43359375 Z" stroke="none"/>
                              <path d="M 37.966796875 3 C 33.2449836730957 3 28.66600799560547 3.924095153808594 24.35705947875977 5.746635437011719 C 20.19359588623047 7.507637023925781 16.45379638671875 10.02928161621094 13.24153518676758 13.24153518676758 C 10.02927398681641 16.45379638671875 7.507621765136719 20.19359588623047 5.746635437011719 24.35705947875977 C 3.924095153808594 28.66600799560547 3 33.2449836730957 3 37.966796875 C 3 42.6886100769043 3.924095153808594 47.26758575439453 5.746635437011719 51.57653427124023 C 7.507621765136719 55.73999786376953 10.02927398681641 59.47979736328125 13.24153518676758 62.69205856323242 C 16.45379638671875 65.90431976318359 20.19359588623047 68.42597198486328 24.35705947875977 70.18695831298828 C 28.66600799560547 72.00949859619141 33.2449836730957 72.93359375 37.966796875 72.93359375 C 42.6886100769043 72.93359375 47.26758575439453 72.00949859619141 51.57653427124023 70.18695831298828 C 55.73999786376953 68.42597198486328 59.47979736328125 65.90431976318359 62.69205856323242 62.69205856323242 C 65.90431976318359 59.47979736328125 68.42597198486328 55.73999786376953 70.18695831298828 51.57653427124023 C 72.00949859619141 47.26758575439453 72.93359375 42.6886100769043 72.93359375 37.966796875 C 72.93359375 33.2449836730957 72.00949859619141 28.66600799560547 70.18695831298828 24.35705947875977 C 68.42597198486328 20.19359588623047 65.90431976318359 16.45379638671875 62.69205856323242 13.24153518676758 C 59.47979736328125 10.02928161621094 55.73999786376953 7.507637023925781 51.57653427124023 5.746635437011719 C 47.26758575439453 3.924095153808594 42.6886100769043 3 37.966796875 3 M 37.966796875 0 C 58.93528366088867 0 75.93359375 16.99832153320312 75.93359375 37.966796875 C 75.93359375 58.93528366088867 58.93528366088867 75.93359375 37.966796875 75.93359375 C 16.99831008911133 75.93359375 0 58.93528366088867 0 37.966796875 C 0 16.99832153320312 16.99831008911133 0 37.966796875 0 Z" stroke="none" fill="#86b60c"/>
                            </g>
                          </g>
                        </g>
                      </g>
                    </g>
                  </g>
                </g>
              </g>
            </g>
          </g>
        </g>
      </g>
    </g>
    <g id="cumplimiento-normativo_1_" data-name="cumplimiento-normativo (1)" transform="translate(1042.497 7858.811)">
      <g id="Grupo_1208431" data-name="Grupo 1208431" transform="translate(16.029 32.788)">
        <path id="Trazado_1050725" data-name="Trazado 1050725" d="M47.584,66.924v3.857a1.659,1.659,0,0,1-1.655,1.656l-28.24,0a1.659,1.659,0,0,1-1.656-1.655l0-31.948a.5.5,0,0,1,.143-.351l4.547-5.51a.5.5,0,0,1,.386-.182v0l24.819,0a1.659,1.659,0,0,1,1.656,1.655v1.374l3.849-1.11a.5.5,0,0,1,.281,0l7.718,2.223a.5.5,0,0,1,.411.493v5.1a11.38,11.38,0,0,1-8.117,10.892.5.5,0,0,1-.288,0A11.2,11.2,0,0,1,47.582,51.4v4.714l3.894,3.2a.758.758,0,0,1,.1,1.066l-1.437,1.747a.758.758,0,0,1-1.066.1l-.069-.057-.526.639c.148.35.138.562.438.808l5.958,4.9c.433.356.67.113,1.362.372a2.394,2.394,0,1,1-3.185,2.794.95.95,0,0,0-.334-.543l-5.139-4.226Z" transform="translate(-16.029 -32.788)" fill-rule="evenodd"/>
        <path id="Trazado_1050726" data-name="Trazado 1050726" d="M31.734,43.783v3.888a1.659,1.659,0,0,1-1.655,1.656H27.021l0,31.446a.655.655,0,0,0,.652.652l28.24,0a.655.655,0,0,0,.652-.652V76.117a2.687,2.687,0,0,0-.693-.152l-.42.511c.232.191.43.325.463.669a.754.754,0,0,1-.169.553l-1.437,1.747a.758.758,0,0,1-1.066.1l-6.376-5.244a.758.758,0,0,1-.1-1.066L48.2,71.493a.758.758,0,0,1,1.066-.1l.191.157L53,67.239c-.287-.236-.548-.389-.585-.77a.754.754,0,0,1,.169-.553l1.468-1.785h0a.758.758,0,0,1,1.034-.067l1.479,1.216v-4.8a11.441,11.441,0,0,1-3.27-7.973v-5.1h0a.5.5,0,0,1,.362-.48l2.9-.837V44.432a.655.655,0,0,0-.652-.652l-24.179,0Zm-.658,27.152h5.781a.5.5,0,0,1,.5.5v.138l.227-.221a.5.5,0,1,1,.7.717l-.924.9v4.246a.5.5,0,0,1-.5.5H31.077a.5.5,0,0,1-.5-.5V71.437a.5.5,0,0,1,.5-.5Zm0-9h5.781a.5.5,0,0,1,.5.5v.138l.227-.221a.5.5,0,0,1,.7.717l-.924.9v4.246a.5.5,0,0,1-.5.5H31.076a.5.5,0,0,1-.5-.5V62.441a.5.5,0,0,1,.5-.5Zm0-9h5.781a.5.5,0,0,1,.5.5v.138l.227-.221a.5.5,0,0,1,.7.717l-.924.9v4.246a.5.5,0,0,1-.5.5H31.075a.5.5,0,0,1-.5-.5V53.444a.5.5,0,0,1,.5-.5ZM40.179,58.4a.5.5,0,0,1,0-1l12.531,0a.5.5,0,0,1,0,1Zm0-3.136a.5.5,0,1,1,0-1H51.651a.5.5,0,0,1,0,1Zm0,9a.5.5,0,0,1,0-1H51.653a.5.5,0,1,1,0,1Zm0,3.136a.5.5,0,1,1,0-1H50.266a.5.5,0,1,1,0,1Zm0,5.86a.5.5,0,1,1,0-1h5.043a.5.5,0,1,1,0,1Zm0,3.136a.5.5,0,1,1,0-1h5.771a.5.5,0,0,1,0,1Z" transform="translate(-26.018 -42.777)" fill="#fff" fill-rule="evenodd"/>
        <path id="Trazado_1050727" data-name="Trazado 1050727" d="M33.158,55.557h2.5a.655.655,0,0,0,.652-.652V51.74Z" transform="translate(-31.594 -50.01)" fill="#999" fill-rule="evenodd"/>
        <path id="Trazado_1050728" data-name="Trazado 1050728" d="M351.9,373.29a.5.5,0,0,1,.072.058l5.925,4.873c.879.723.452,1.286,1.14,1.851a1.408,1.408,0,0,0,2.277-1.233,1.367,1.367,0,0,0-1.325-1.246,1.924,1.924,0,0,1-1.2-.45l-5.958-4.9a1.9,1.9,0,0,1-.536-.688l-1.129,1.372a1.881,1.881,0,0,1,.74.363Z" transform="translate(-320.567 -340.631)" fill="#aa723a" fill-rule="evenodd"/>
        <path id="Trazado_1050729" data-name="Trazado 1050729" d="M328.805,65.982a.5.5,0,0,1-.1.027l-2.858.824v4.725a10.42,10.42,0,0,0,3.133,7.422,10.225,10.225,0,0,0,4.131,2.467,10.382,10.382,0,0,0,7.261-9.891V66.832l-7.263-2.092-4.309,1.242Zm1.219,7.623a.5.5,0,1,1,.619-.788l1.9,1.49,2.979-3.442a.5.5,0,1,1,.756.654L333,75.3a.5.5,0,0,1-.707.088l-2.271-1.785Z" transform="translate(-297.57 -61.823)" fill="#49a679" fill-rule="evenodd"/>
        <path id="Trazado_1050730" data-name="Trazado 1050730" d="M320.47,277.89l-.021-.017-2.1-1.726-1.129,1.373,6,4.936,1.129-1.373Z" transform="translate(-289.727 -253.931)" fill="#c9935d" fill-rule="evenodd"/>
      </g>
      <path id="Trazado_1050731" data-name="Trazado 1050731" d="M0,0H5.576V5.763H0Z" transform="translate(40.228 62.197) rotate(-50.561)" fill="#aa723a"/>
      <path id="Trazado_1050732" data-name="Trazado 1050732" d="M0,0H1.778V7.771H0Z" transform="translate(37.688 63.703) rotate(-50.561)" fill="#c9935d"/>
      <path id="Trazado_1050733" data-name="Trazado 1050733" d="M81.695,155.138H76.917v4.778H81.7v-2.766l-1.714,1.671a.5.5,0,0,1-.679.055l-1.832-1.44a.5.5,0,1,1,.619-.788l1.487,1.169,2.118-2.065v-.614Z" transform="translate(-55.33 -111.181)" fill="#49a679" fill-rule="evenodd"/>
      <path id="Trazado_1050734" data-name="Trazado 1050734" d="M81.708,253.69H76.93v4.778h4.778V255.7l-1.714,1.671a.5.5,0,0,1-.679.055l-1.832-1.44a.5.5,0,1,1,.619-.788l1.487,1.169,2.118-2.065v-.614Z" transform="translate(-55.342 -200.737)" fill="#49a679" fill-rule="evenodd"/>
      <path id="Trazado_1050735" data-name="Trazado 1050735" d="M81.72,352.243H76.942v4.778H81.72v-2.767l-1.714,1.671a.5.5,0,0,1-.679.055L77.5,354.54a.5.5,0,0,1,.619-.788l1.487,1.169,2.118-2.065v-.614Z" transform="translate(-55.353 -290.294)" fill="#49a679" fill-rule="evenodd"/>
    </g>
  </g>
</svg>
