<svg xmlns="http://www.w3.org/2000/svg" xmlns:xlink="http://www.w3.org/1999/xlink" width="93.934" height="93.934" viewBox="0 0 93.934 93.934">
  <defs>
    <filter id="Trazado_982547" x="0" y="0" width="93.934" height="93.934" filterUnits="userSpaceOnUse">
      <feOffset dy="3" input="SourceAlpha"/>
      <feGaussianBlur stdDeviation="3" result="blur"/>
      <feFlood flood-opacity="0.161"/>
      <feComposite operator="in" in2="blur"/>
      <feComposite in="SourceGraphic"/>
    </filter>
  </defs>
  <g id="Grupo_1208434" data-name="Grupo 1208434" transform="translate(-191.609 -8010.674)">
    <g id="Grupo_1183174" data-name="Grupo 1183174" transform="translate(0.542 1016.674)">
      <g id="Grupo_1179613" data-name="Grupo 1179613" transform="translate(8 4867.467)">
        <g id="Grupo_1175227" data-name="Grupo 1175227" transform="translate(-5.967 140.533)">
          <g id="Grupo_1167337" data-name="Grupo 1167337" transform="translate(198.033 1992)">
            <g id="Grupo_1166720" data-name="Grupo 1166720">
              <g id="Grupo_1164305" data-name="Grupo 1164305">
                <g id="Grupo_1163948" data-name="Grupo 1163948">
                  <g id="Grupo_1158168" data-name="Grupo 1158168">
                    <g id="Grupo_1152576" data-name="Grupo 1152576">
                      <g id="Grupo_1148633" data-name="Grupo 1148633">
                        <g id="Grupo_1148525" data-name="Grupo 1148525">
                          <g transform="matrix(1, 0, 0, 1, -9, -6)" filter="url(#Trazado_982547)">
                            <g id="Trazado_982547-2" data-name="Trazado 982547" transform="translate(9 6)" fill="#f5f5f5">
                              <path d="M 37.966796875 74.43359375 C 33.04315185546875 74.43359375 28.26757431030273 73.46962738037109 23.77274131774902 71.56847381591797 C 19.43047523498535 69.73184967041016 15.53040790557861 67.10224914550781 12.18087482452393 63.75271987915039 C 8.831341743469238 60.4031867980957 6.201741218566895 56.50312042236328 4.365118980407715 52.16086196899414 C 2.463963508605957 47.66601943969727 1.499996900558472 42.89044189453125 1.499996900558472 37.966796875 C 1.499996900558472 33.04315185546875 2.463963508605957 28.26757431030273 4.365118980407715 23.77274131774902 C 6.201741218566895 19.43047523498535 8.831341743469238 15.53040790557861 12.18087482452393 12.18087482452393 C 15.53040790557861 8.831341743469238 19.43047523498535 6.201741218566895 23.77274131774902 4.365118980407715 C 28.26757431030273 2.463963508605957 33.04315185546875 1.499996900558472 37.966796875 1.499996900558472 C 42.89044189453125 1.499996900558472 47.66601943969727 2.463963508605957 52.16086196899414 4.365118980407715 C 56.50312042236328 6.201741218566895 60.4031867980957 8.831341743469238 63.75271987915039 12.18087482452393 C 67.10224914550781 15.53040790557861 69.73184967041016 19.43047523498535 71.56847381591797 23.77274131774902 C 73.46962738037109 28.26757431030273 74.43359375 33.04315185546875 74.43359375 37.966796875 C 74.43359375 42.89044189453125 73.46962738037109 47.66601943969727 71.56847381591797 52.16086196899414 C 69.73184967041016 56.50313186645508 67.10224914550781 60.4031867980957 63.75271987915039 63.75271987915039 C 60.4031867980957 67.10224914550781 56.50313186645508 69.73184967041016 52.16086196899414 71.56847381591797 C 47.66601943969727 73.46962738037109 42.89044189453125 74.43359375 37.966796875 74.43359375 Z" stroke="none"/>
                              <path d="M 37.966796875 3 C 33.2449836730957 3 28.66600799560547 3.924095153808594 24.35705947875977 5.746635437011719 C 20.19359588623047 7.507637023925781 16.45379638671875 10.02928161621094 13.24153518676758 13.24153518676758 C 10.02927398681641 16.45379638671875 7.507621765136719 20.19359588623047 5.746635437011719 24.35705947875977 C 3.924095153808594 28.66600799560547 3 33.2449836730957 3 37.966796875 C 3 42.6886100769043 3.924095153808594 47.26758575439453 5.746635437011719 51.57653427124023 C 7.507621765136719 55.73999786376953 10.02927398681641 59.47979736328125 13.24153518676758 62.69205856323242 C 16.45379638671875 65.90431976318359 20.19359588623047 68.42597198486328 24.35705947875977 70.18695831298828 C 28.66600799560547 72.00949859619141 33.2449836730957 72.93359375 37.966796875 72.93359375 C 42.6886100769043 72.93359375 47.26758575439453 72.00949859619141 51.57653427124023 70.18695831298828 C 55.73999786376953 68.42597198486328 59.47979736328125 65.90431976318359 62.69205856323242 62.69205856323242 C 65.90431976318359 59.47979736328125 68.42597198486328 55.73999786376953 70.18695831298828 51.57653427124023 C 72.00949859619141 47.26758575439453 72.93359375 42.6886100769043 72.93359375 37.966796875 C 72.93359375 33.2449836730957 72.00949859619141 28.66600799560547 70.18695831298828 24.35705947875977 C 68.42597198486328 20.19359588623047 65.90431976318359 16.45379638671875 62.69205856323242 13.24153518676758 C 59.47979736328125 10.02928161621094 55.73999786376953 7.507637023925781 51.57653427124023 5.746635437011719 C 47.26758575439453 3.924095153808594 42.6886100769043 3 37.966796875 3 M 37.966796875 0 C 58.93528366088867 0 75.93359375 16.99832153320312 75.93359375 37.966796875 C 75.93359375 58.93528366088867 58.93528366088867 75.93359375 37.966796875 75.93359375 C 16.99831008911133 75.93359375 0 58.93528366088867 0 37.966796875 C 0 16.99832153320312 16.99831008911133 0 37.966796875 0 Z" stroke="none" fill="#86b60c"/>
                            </g>
                          </g>
                        </g>
                      </g>
                    </g>
                  </g>
                </g>
              </g>
            </g>
          </g>
        </g>
      </g>
    </g>
    <g id="impacto-ambiental" transform="translate(156.436 8025.893)">
      <path id="Trazado_1050736" data-name="Trazado 1050736" d="M97.847,16.336l2.252-1.51a.908.908,0,0,1,1.157.113l3.485,3.485a.908.908,0,0,1,.113,1.157l-1.51,2.252,1.916,4.624,2.66.524a.908.908,0,0,1,.738.9v4.929a.908.908,0,0,1-.738.9l-2.66.524-1.916,4.624,1.51,2.252a.908.908,0,0,1-.113,1.157l-3.485,3.485a.908.908,0,0,1-1.157.113l-2.252-1.51-4.624,1.916-.524,2.66a.908.908,0,0,1-.9.738H86.872a.908.908,0,0,1-.9-.738l-.524-2.66-4.624-1.916-2.252,1.51a.908.908,0,0,1-1.157-.113l-3.485-3.485a.908.908,0,0,1-.113-1.157l1.51-2.252-1.916-4.624-2.66-.524a.908.908,0,0,1-.738-.9V27.879a.908.908,0,0,1,.738-.9l2.66-.524,1.916-4.624-1.51-2.252a.908.908,0,0,1,.113-1.157l3.485-3.485a.908.908,0,0,1,1.157-.113l2.252,1.51L85.45,14.42l.525-2.66a.908.908,0,0,1,.9-.738H91.8a.908.908,0,0,1,.9.738l.524,2.66,4.624,1.916Z" transform="translate(-7.196 -7.19)" fill="#fdc72e" fill-rule="evenodd"/>
      <path id="Trazado_1050737" data-name="Trazado 1050737" d="M97.848,16.336l1.634-1.1,3.716,3.716-1.929,2.877,1.916,4.624,3.4.67v6.434l-3.4.67-1.916,4.624,1.929,2.877-3.716,3.716-3.317-2.224-4.81,1.993-.877,4.449H86.872a.908.908,0,0,1-.9-.738l-.524-2.66-6.345-2.628-2.274,1.525-2.9-2.9a.908.908,0,0,1-.113-1.157l1.51-2.252-1.916-4.624-2.66-.524a.908.908,0,0,1-.738-.9V27.879a.908.908,0,0,1,.738-.9l2.66-.524,1.916-4.624-1.51-2.252a.908.908,0,0,1,.113-1.157l2.9-2.9,2.274,1.525,1.721-.713L85.45,14.42l.524-2.66a.908.908,0,0,1,.9-.738h3.606l.877,4.449,4.81,1.993,1.682-1.128Z" transform="translate(-7.196 -7.19)" fill="#ffeb87" fill-rule="evenodd"/>
      <circle id="Elipse_11595" data-name="Elipse 11595" cx="11.738" cy="11.738" r="11.738" transform="matrix(0.974, -0.226, 0.226, 0.974, 68.054, 14.366)" fill="#66deff"/>
      <g id="Grupo_1208433" data-name="Grupo 1208433" transform="translate(61.985 2.999)">
        <path id="Trazado_1050738" data-name="Trazado 1050738" d="M154.754,84.021a11.738,11.738,0,1,0,0,23.477c.136,0,.27,0,.4-.008a10.016,10.016,0,0,0,3.118-1.222c3.4-2.057,5.292-6.247,5.292-10.509s-1.895-8.453-5.292-10.509a10.017,10.017,0,0,0-3.118-1.222c-.135,0-.269-.008-.4-.008Z" transform="translate(-134.598 -75.604)" fill="#78eaff" fill-rule="evenodd"/>
        <path id="Trazado_1050739" data-name="Trazado 1050739" d="M210.393,291.285c6.8,6.3,7.3,14.624,0,18.237C203.095,305.909,203.592,297.582,210.393,291.285Z" transform="translate(-190.237 -261.338)" fill="#90ef90" fill-rule="evenodd"/>
        <path id="Trazado_1050740" data-name="Trazado 1050740" d="M210.393,309.522c-7.3-3.613-6.8-11.94,0-18.237C215.277,297.07,216.3,305.5,210.393,309.522Z" transform="translate(-190.237 -261.338)" fill="#adffad" fill-rule="evenodd"/>
        <path id="Trazado_1050741" data-name="Trazado 1050741" d="M113.091,358.69c-.385,10.02,6.126,16.5,14.832,12.075C126.78,360.144,117.339,360.008,113.091,358.69Z" transform="translate(-107.767 -321.741)" fill="#75e075" fill-rule="evenodd"/>
        <path id="Trazado_1050742" data-name="Trazado 1050742" d="M113.09,362c-.168,7.354,3.411,12.726,8.832,13.124a12.31,12.31,0,0,0,4.7-1.393c-1.037-9.64-8.911-10.642-13.533-11.731Z" transform="translate(-107.776 -324.711)" fill="#90ef90" fill-rule="evenodd"/>
        <path id="Trazado_1050743" data-name="Trazado 1050743" d="M270.848,358.69c.385,10.02-6.126,16.5-14.832,12.075C257.159,360.144,266.6,360.008,270.848,358.69Z" transform="translate(-235.86 -321.741)" fill="#75e075" fill-rule="evenodd"/>
        <path id="Trazado_1050744" data-name="Trazado 1050744" d="M260.716,375.128a12.31,12.31,0,0,1-4.7-1.393c1.037-9.64,8.911-10.642,13.533-11.731.168,7.354-3.411,12.726-8.832,13.124Z" transform="translate(-235.859 -324.711)" fill="#90ef90" fill-rule="evenodd"/>
        <path id="Trazado_1050745" data-name="Trazado 1050745" d="M96.156,41.031c-.436.106-.9.209-1.376.315-4.341.967-10.193,2.27-11.6,9.389a33.643,33.643,0,0,0,7.109-3.658.831.831,0,1,1,.946,1.366,34.128,34.128,0,0,1-6.888,3.615,8.039,8.039,0,0,0,7.173-.6c2.885-1.848,4.585-5.7,4.641-10.425ZM82.97,40.4a.831.831,0,1,0-1.662,0v6.029a11.153,11.153,0,0,0-3.541-3.792l-.059-.039A14.044,14.044,0,0,1,82.14,34.1a14.039,14.039,0,0,1,4.432,8.495l-.059.039a11.158,11.158,0,0,0-3.541,3.792V40.4ZM72.839,47.287A.831.831,0,0,1,74,47.078,33.643,33.643,0,0,0,81.1,50.736c-1.411-7.119-7.263-8.422-11.6-9.389-.477-.106-.94-.209-1.377-.315.057,4.726,1.756,8.577,4.642,10.425a8.04,8.04,0,0,0,7.173.6,34.115,34.115,0,0,1-6.888-3.615.832.832,0,0,1-.21-1.156ZM97.8,39.916c.223,5.8-1.793,10.635-5.392,12.939a8.972,8.972,0,0,1-4.9,1.412,12.048,12.048,0,0,1-4.536-.951v1.415a.831.831,0,1,1-1.662,0V53.316a12.045,12.045,0,0,1-4.535.951,8.975,8.975,0,0,1-4.9-1.411c-3.6-2.3-5.616-7.141-5.393-12.939a.832.832,0,0,1,1.077-.762c.644.2,1.452.38,2.307.57a27.511,27.511,0,0,1,6.274,1.968,16.348,16.348,0,0,1,5.441-9.356.831.831,0,0,1,1.129,0,16.357,16.357,0,0,1,5.44,9.356,27.507,27.507,0,0,1,6.273-1.968c.855-.19,1.663-.37,2.307-.57a.832.832,0,0,1,1.077.762Zm-7.814-9.2A10.816,10.816,0,0,0,93,23.985H89.116a20.066,20.066,0,0,1-.95,5.519,12.449,12.449,0,0,1,1.822,1.217ZM87.557,15.238a10.931,10.931,0,0,0,1.158-.765,10.893,10.893,0,0,0-2.472-1.411,10.82,10.82,0,0,1,1.314,2.176Zm-.1,8.747H82.97v4.007a12.523,12.523,0,0,1,3.682.808A18.475,18.475,0,0,0,87.453,23.985ZM82.97,22.323h4.483a18.606,18.606,0,0,0-.809-4.813,12.514,12.514,0,0,1-3.673.806Zm0-5.676a10.864,10.864,0,0,0,3.081-.691,5.931,5.931,0,0,0-3.081-3.39ZM89.978,15.6A12.57,12.57,0,0,1,88.172,16.8a19.945,19.945,0,0,1,.944,5.522H93A10.858,10.858,0,0,0,89.978,15.6Zm-8.67-3.029a5.931,5.931,0,0,0-3.081,3.39,10.868,10.868,0,0,0,3.081.691Zm0,5.749a12.526,12.526,0,0,1-3.673-.806,18.664,18.664,0,0,0-.809,4.813h4.483Zm0,5.669H76.826a18.435,18.435,0,0,0,.8,4.816,12.517,12.517,0,0,1,3.68-.808V23.985ZM78.036,13.063a10.894,10.894,0,0,0-2.472,1.411,10.964,10.964,0,0,0,1.158.765A10.893,10.893,0,0,1,78.036,13.063ZM76.112,29.5a20.067,20.067,0,0,1-.949-5.519H71.277a10.84,10.84,0,0,0,3.017,6.733A12.573,12.573,0,0,1,76.112,29.5Zm-4.836-7.181h3.887a19.946,19.946,0,0,1,.944-5.522A12.568,12.568,0,0,1,74.3,15.6a10.858,10.858,0,0,0-3.024,6.727Zm15.7,10.6a.831.831,0,1,0,.739,1.489,12.557,12.557,0,1,0-11.3-.078.831.831,0,0,0,.759-1.479,11.044,11.044,0,0,1-1.613-1.013,10.933,10.933,0,0,1,1.169-.773,11.529,11.529,0,0,0,.94,1.672A.831.831,0,0,0,79.04,31.8a9.987,9.987,0,0,1-.814-1.449,10.889,10.889,0,0,1,3.083-.691v1.456a.831.831,0,1,0,1.662,0V29.66a10.883,10.883,0,0,1,3.083.691A10.027,10.027,0,0,1,85.24,31.8a.831.831,0,1,0,1.371.938,11.446,11.446,0,0,0,.94-1.672,10.793,10.793,0,0,1,1.169.773,11.039,11.039,0,0,1-1.747,1.08Zm15.32-12.23a1.73,1.73,0,0,0-1.409-1.715l-2.222-.438-1.575-3.8,1.261-1.882a1.731,1.731,0,0,0-.215-2.21L94.65,7.161a1.73,1.73,0,0,0-2.21-.216L90.558,8.206l-3.8-1.575-.438-2.222A1.731,1.731,0,0,0,84.6,3H79.676a1.729,1.729,0,0,0-1.715,1.41l-.438,2.222-3.8,1.575L71.839,6.944a1.729,1.729,0,0,0-2.209.216l-3.484,3.483a1.73,1.73,0,0,0-.216,2.21l1.262,1.882-1.576,3.8-2.222.438a1.73,1.73,0,0,0-1.409,1.715v4.927a1.73,1.73,0,0,0,1.409,1.715l2.222.438,1.576,3.8L65.93,33.454a1.73,1.73,0,0,0,.216,2.21l3.484,3.484a1.731,1.731,0,0,0,2.21.215L73.721,38.1l1.531.634a.831.831,0,0,0,.636-1.536l-1.942-.8a.829.829,0,0,0-.78.078l-2.252,1.51a.079.079,0,0,1-.108-.01l-3.484-3.484a.079.079,0,0,1-.01-.109l1.509-2.251a.834.834,0,0,0,.078-.781l-1.917-4.624a.828.828,0,0,0-.607-.5L63.717,25.7a.079.079,0,0,1-.07-.084V20.69a.079.079,0,0,1,.07-.084l2.658-.524a.829.829,0,0,0,.607-.5L68.9,14.96a.833.833,0,0,0-.078-.781l-1.509-2.251a.079.079,0,0,1,.01-.109l3.484-3.484a.079.079,0,0,1,.108-.01l2.252,1.51a.831.831,0,0,0,.78.078L78.571,8a.834.834,0,0,0,.5-.607l.524-2.659a.08.08,0,0,1,.085-.07H84.6a.08.08,0,0,1,.084.07l.524,2.659a.83.83,0,0,0,.5.607l4.625,1.916a.832.832,0,0,0,.781-.078l2.251-1.51a.078.078,0,0,1,.108.01l3.484,3.484a.079.079,0,0,1,.01.109l-1.51,2.251a.832.832,0,0,0-.078.781L97.3,19.585a.83.83,0,0,0,.607.5l2.659.524a.079.079,0,0,1,.069.084v4.927a.079.079,0,0,1-.069.084l-2.659.524a.829.829,0,0,0-.607.5l-1.916,4.624a.832.832,0,0,0,.078.781l1.51,2.251a.079.079,0,0,1-.01.109l-3.484,3.484a.078.078,0,0,1-.108.01l-2.252-1.51a.827.827,0,0,0-.78-.078l-2.019.836a.831.831,0,0,0,.637,1.536l1.606-.666,1.881,1.262a1.732,1.732,0,0,0,2.211-.215l3.484-3.484a1.73,1.73,0,0,0,.215-2.21l-1.261-1.881,1.575-3.8,2.222-.438a1.73,1.73,0,0,0,1.409-1.715V20.69Z" transform="translate(-61.985 -2.999)" fill-rule="evenodd"/>
      </g>
    </g>
  </g>
</svg>
