<svg xmlns="http://www.w3.org/2000/svg" xmlns:xlink="http://www.w3.org/1999/xlink" width="93.934" height="93.934" viewBox="0 0 93.934 93.934">
  <defs>
    <filter id="Trazado_982547" x="0" y="0" width="93.934" height="93.934" filterUnits="userSpaceOnUse">
      <feOffset dy="3" input="SourceAlpha"/>
      <feGaussianBlur stdDeviation="3" result="blur"/>
      <feFlood flood-opacity="0.161"/>
      <feComposite operator="in" in2="blur"/>
      <feComposite in="SourceGraphic"/>
    </filter>
  </defs>
  <g id="Grupo_1208442" data-name="Grupo 1208442" transform="translate(-611.609 -8010.674)">
    <g id="Grupo_1183158" data-name="Grupo 1183158" transform="translate(0.542 1016.674)">
      <g id="Grupo_1179614" data-name="Grupo 1179614" transform="translate(428 4867.467)">
        <g id="Grupo_1175227" data-name="Grupo 1175227" transform="translate(-5.967 140.533)">
          <g id="Grupo_1167337" data-name="Grupo 1167337" transform="translate(198.033 1992)">
            <g id="Grupo_1166720" data-name="Grupo 1166720">
              <g id="Grupo_1164305" data-name="Grupo 1164305">
                <g id="Grupo_1163948" data-name="Grupo 1163948">
                  <g id="Grupo_1158168" data-name="Grupo 1158168">
                    <g id="Grupo_1152576" data-name="Grupo 1152576">
                      <g id="Grupo_1148633" data-name="Grupo 1148633">
                        <g id="Grupo_1148525" data-name="Grupo 1148525">
                          <g transform="matrix(1, 0, 0, 1, -9, -6)" filter="url(#Trazado_982547)">
                            <g id="Trazado_982547-2" data-name="Trazado 982547" transform="translate(9 6)" fill="#f5f5f5">
                              <path d="M 37.966796875 74.43359375 C 33.04315185546875 74.43359375 28.26757431030273 73.46962738037109 23.77274131774902 71.56847381591797 C 19.43047523498535 69.73184967041016 15.53040790557861 67.10224914550781 12.18087482452393 63.75271987915039 C 8.831341743469238 60.4031867980957 6.201741218566895 56.50312042236328 4.365118980407715 52.16086196899414 C 2.463963508605957 47.66601943969727 1.499996900558472 42.89044189453125 1.499996900558472 37.966796875 C 1.499996900558472 33.04315185546875 2.463963508605957 28.26757431030273 4.365118980407715 23.77274131774902 C 6.201741218566895 19.43047523498535 8.831341743469238 15.53040790557861 12.18087482452393 12.18087482452393 C 15.53040790557861 8.831341743469238 19.43047523498535 6.201741218566895 23.77274131774902 4.365118980407715 C 28.26757431030273 2.463963508605957 33.04315185546875 1.499996900558472 37.966796875 1.499996900558472 C 42.89044189453125 1.499996900558472 47.66601943969727 2.463963508605957 52.16086196899414 4.365118980407715 C 56.50312042236328 6.201741218566895 60.4031867980957 8.831341743469238 63.75271987915039 12.18087482452393 C 67.10224914550781 15.53040790557861 69.73184967041016 19.43047523498535 71.56847381591797 23.77274131774902 C 73.46962738037109 28.26757431030273 74.43359375 33.04315185546875 74.43359375 37.966796875 C 74.43359375 42.89044189453125 73.46962738037109 47.66601943969727 71.56847381591797 52.16086196899414 C 69.73184967041016 56.50313186645508 67.10224914550781 60.4031867980957 63.75271987915039 63.75271987915039 C 60.4031867980957 67.10224914550781 56.50313186645508 69.73184967041016 52.16086196899414 71.56847381591797 C 47.66601943969727 73.46962738037109 42.89044189453125 74.43359375 37.966796875 74.43359375 Z" stroke="none"/>
                              <path d="M 37.966796875 3 C 33.2449836730957 3 28.66600799560547 3.924095153808594 24.35705947875977 5.746635437011719 C 20.19359588623047 7.507637023925781 16.45379638671875 10.02928161621094 13.24153518676758 13.24153518676758 C 10.02927398681641 16.45379638671875 7.507621765136719 20.19359588623047 5.746635437011719 24.35705947875977 C 3.924095153808594 28.66600799560547 3 33.2449836730957 3 37.966796875 C 3 42.6886100769043 3.924095153808594 47.26758575439453 5.746635437011719 51.57653427124023 C 7.507621765136719 55.73999786376953 10.02927398681641 59.47979736328125 13.24153518676758 62.69205856323242 C 16.45379638671875 65.90431976318359 20.19359588623047 68.42597198486328 24.35705947875977 70.18695831298828 C 28.66600799560547 72.00949859619141 33.2449836730957 72.93359375 37.966796875 72.93359375 C 42.6886100769043 72.93359375 47.26758575439453 72.00949859619141 51.57653427124023 70.18695831298828 C 55.73999786376953 68.42597198486328 59.47979736328125 65.90431976318359 62.69205856323242 62.69205856323242 C 65.90431976318359 59.47979736328125 68.42597198486328 55.73999786376953 70.18695831298828 51.57653427124023 C 72.00949859619141 47.26758575439453 72.93359375 42.6886100769043 72.93359375 37.966796875 C 72.93359375 33.2449836730957 72.00949859619141 28.66600799560547 70.18695831298828 24.35705947875977 C 68.42597198486328 20.19359588623047 65.90431976318359 16.45379638671875 62.69205856323242 13.24153518676758 C 59.47979736328125 10.02928161621094 55.73999786376953 7.507637023925781 51.57653427124023 5.746635437011719 C 47.26758575439453 3.924095153808594 42.6886100769043 3 37.966796875 3 M 37.966796875 0 C 58.93528366088867 0 75.93359375 16.99832153320312 75.93359375 37.966796875 C 75.93359375 58.93528366088867 58.93528366088867 75.93359375 37.966796875 75.93359375 C 16.99831008911133 75.93359375 0 58.93528366088867 0 37.966796875 C 0 16.99832153320312 16.99831008911133 0 37.966796875 0 Z" stroke="none" fill="#86b60c"/>
                            </g>
                          </g>
                        </g>
                      </g>
                    </g>
                  </g>
                </g>
              </g>
            </g>
          </g>
        </g>
      </g>
    </g>
    <g id="cliente" transform="translate(634.95 8031.048)">
      <g id="Grupo_1208440" data-name="Grupo 1208440" transform="translate(0.692 0.692)">
        <path id="Trazado_1050746" data-name="Trazado 1050746" d="M147.2,193.19a1.067,1.067,0,0,1-1.067-1.067V179.716a8.68,8.68,0,0,0-17.36,0v12.407a1.067,1.067,0,0,1-1.067,1.067,2.3,2.3,0,0,0-2.306,2.3,2.256,2.256,0,0,0,2.255,2.212h19.6a2.256,2.256,0,0,0,2.255-2.315A2.318,2.318,0,0,0,147.2,193.19Z" transform="translate(-114.516 -155.944)" fill="#6c5e69"/>
        <path id="Trazado_1050747" data-name="Trazado 1050747" d="M169.819,419.57a.338.338,0,0,1-.338.338H150.65a.338.338,0,0,1-.338-.338v-.447a7.815,7.815,0,0,1,7.393-7.8q.21-.011.422-.011H162q.16,0,.318.006a7.815,7.815,0,0,1,7.5,7.808Z" transform="translate(-137.132 -374.041)" fill="#64caff"/>
        <path id="Trazado_1050748" data-name="Trazado 1050748" d="M259.016,411.313q-.158-.006-.318-.006h-1.862q.16,0,.318.006a7.815,7.815,0,0,1,7.5,7.808v.786h1.523a.338.338,0,0,0,.338-.338v-.447A7.815,7.815,0,0,0,259.016,411.313Z" transform="translate(-233.825 -374.041)" fill="#00b8ff"/>
        <path id="Trazado_1050749" data-name="Trazado 1050749" d="M235.614,363.665a2.073,2.073,0,0,1-2.073-2.073v-5.772h4.145v5.772A2.072,2.072,0,0,1,235.614,363.665Z" transform="translate(-212.68 -323.675)" fill="#ffb29f"/>
        <path id="Trazado_1050750" data-name="Trazado 1050750" d="M198.773,239.543l-1.422-2.04a.2.2,0,0,0-.323,0l-1.422,2.04a.2.2,0,0,1-.162.084H190.29a.2.2,0,0,0-.2.2v5.621a6.082,6.082,0,0,0,12.165,0v-5.621a.2.2,0,0,0-.2-.2h-3.126A.2.2,0,0,1,198.773,239.543Z" transform="translate(-173.242 -216.2)" fill="#ffe0cf"/>
        <g id="Grupo_1208435" data-name="Grupo 1208435" transform="translate(21.98 23.427)">
          <path id="Trazado_1050751" data-name="Trazado 1050751" d="M252.508,261.351H250.6a.2.2,0,0,1,.2.2v5.621a6.083,6.083,0,0,1-5.129,6.007,6.084,6.084,0,0,0,7.036-6.007v-5.621A.2.2,0,0,0,252.508,261.351Z" transform="translate(-245.669 -261.351)" fill="#ffcfc0"/>
        </g>
        <path id="Trazado_1050752" data-name="Trazado 1050752" d="M50.5,7.5H10.37A2.87,2.87,0,0,0,7.5,10.37v7.808a2.87,2.87,0,0,0,2.87,2.87H27.65a.656.656,0,0,1,.568.328l1.648,2.854a.656.656,0,0,0,1.136,0l1.648-2.854a.656.656,0,0,1,.568-.328H50.5a2.87,2.87,0,0,0,2.87-2.87V10.37A2.87,2.87,0,0,0,50.5,7.5Z" transform="translate(-7.5 -7.5)" fill="#5ddfb6"/>
        <g id="Grupo_1208436" data-name="Grupo 1208436" transform="translate(40.997)">
          <path id="Trazado_1050753" data-name="Trazado 1050753" d="M453.728,7.5h-2a2.87,2.87,0,0,1,2.87,2.87v7.808a2.87,2.87,0,0,1-2.87,2.87h2a2.87,2.87,0,0,0,2.87-2.87V10.37A2.87,2.87,0,0,0,453.728,7.5Z" transform="translate(-451.728 -7.5)" fill="#00d6a0"/>
        </g>
        <g id="Grupo_1208439" data-name="Grupo 1208439" transform="translate(2.863 2.496)">
          <g id="Grupo_1208437" data-name="Grupo 1208437" transform="translate(10.383 0)">
            <circle id="Elipse_11596" data-name="Elipse 11596" cx="4.278" cy="4.278" r="4.278" fill="#ffe270"/>
          </g>
          <g id="Grupo_1208438" data-name="Grupo 1208438" transform="translate(0 3.2)">
            <path id="Trazado_1050754" data-name="Trazado 1050754" d="M44.522,74.085H39.963l-1.444-4.861h7.447Z" transform="translate(-38.519 -69.224)" fill="#ffc25e"/>
          </g>
          <path id="Trazado_1050755" data-name="Trazado 1050755" d="M394.1,46.325l-2.644-2.644a.566.566,0,0,1,0-.8l3.809-3.809a.566.566,0,0,1,.552-.145l2.069.575a.566.566,0,0,1,.394.394l.575,2.069a.566.566,0,0,1-.145.552L394.9,46.325A.566.566,0,0,1,394.1,46.325Z" transform="translate(-358.733 -38.503)" fill="#ff94be"/>
        </g>
      </g>
      <g id="Grupo_1208441" data-name="Grupo 1208441" transform="translate(0)">
        <path id="Trazado_1050756" data-name="Trazado 1050756" d="M224.453,290.131v-.793a.692.692,0,0,0-1.384,0v.793a.692.692,0,0,0,1.384,0Z" transform="translate(-202.482 -262.007)"/>
        <path id="Trazado_1050757" data-name="Trazado 1050757" d="M274.624,290.823a.692.692,0,0,0,.692-.692v-.793a.692.692,0,0,0-1.384,0v.793A.692.692,0,0,0,274.624,290.823Z" transform="translate(-248.651 -262.007)"/>
        <path id="Trazado_1050758" data-name="Trazado 1050758" d="M231.925,331.6a.692.692,0,1,0-.809-1.124,2.461,2.461,0,0,1-3.191,0,.692.692,0,0,0-.809,1.124,3.829,3.829,0,0,0,4.809,0Z" transform="translate(-205.895 -299.857)"/>
        <path id="Trazado_1050759" data-name="Trazado 1050759" d="M295.4,43.955a.692.692,0,0,0,.906-.37l2.849-6.788a.692.692,0,1,0-1.277-.536l-2.849,6.788A.692.692,0,0,0,295.4,43.955Z" transform="translate(-267.752 -32.529)"/>
        <path id="Trazado_1050760" data-name="Trazado 1050760" d="M273.328,34.564a1.961,1.961,0,1,0-1.951,2.155A2.063,2.063,0,0,0,273.328,34.564Zm-1.951.771c-.307,0-.567-.353-.567-.771s.26-.771.567-.771.567.353.567.771S271.684,35.335,271.377,35.335Z" transform="translate(-244.561 -29.418)"/>
        <path id="Trazado_1050761" data-name="Trazado 1050761" d="M324.069,87.009a2.166,2.166,0,1,0-1.951-2.155A2.063,2.063,0,0,0,324.069,87.009Zm0-2.926c.307,0,.567.353.567.771s-.259.771-.567.771-.567-.353-.567-.771S323.762,84.083,324.069,84.083Z" transform="translate(-292.39 -75.067)"/>
        <path id="Trazado_1050762" data-name="Trazado 1050762" d="M143.528,32.019a4.97,4.97,0,1,0,4.97-4.97A4.976,4.976,0,0,0,143.528,32.019Zm8.556,0a3.586,3.586,0,1,1-3.586-3.586A3.59,3.59,0,0,1,152.084,32.019Z" transform="translate(-130.282 -24.553)"/>
        <path id="Trazado_1050763" data-name="Trazado 1050763" d="M180.329,46.661a.692.692,0,0,0-.692.67,1.536,1.536,0,0,0-.875,1.128,1.392,1.392,0,0,0,.473,1.369,4.618,4.618,0,0,0,1.285.623.22.22,0,0,1,.176.269.371.371,0,0,1-.371.315.828.828,0,0,1-.631-.16.692.692,0,0,0-.758,1.158,2.21,2.21,0,0,0,.705.325.692.692,0,0,0,1.381-.071v-.012a1.759,1.759,0,0,0,1.04-1.326,1.593,1.593,0,0,0-1.08-1.8,4.044,4.044,0,0,1-.862-.385.173.173,0,0,1,.092-.17,1.975,1.975,0,0,1,.944-.015.692.692,0,0,0,.366-1.335,3.044,3.044,0,0,0-.53-.088A.692.692,0,0,0,180.329,46.661Z" transform="translate(-162.138 -42.355)"/>
        <path id="Trazado_1050764" data-name="Trazado 1050764" d="M35.864,32.409H35a2.068,2.068,0,0,0-2.066,2.066v.639H31.711a.692.692,0,0,0-.664.889l1.445,4.861a.692.692,0,0,0,.663.495h4.558a.692.692,0,0,0,.663-.495L39.821,36a.692.692,0,0,0-.664-.889H37.93v-.639A2.068,2.068,0,0,0,35.864,32.409Zm-1.541,2.066A.683.683,0,0,1,35,33.793h.859a.683.683,0,0,1,.682.682v.639H34.323Zm2.874,5.5H33.672L32.638,36.5H38.23Z" transform="translate(-28.156 -29.418)"/>
        <path id="Trazado_1050765" data-name="Trazado 1050765" d="M384.164,37.364l2.644,2.644h0a1.26,1.26,0,0,0,1.779,0L392.4,36.2a1.26,1.26,0,0,0,.323-1.227l-.575-2.069a1.265,1.265,0,0,0-.876-.876l-2.069-.575a1.26,1.26,0,0,0-1.227.323l-3.809,3.809A1.26,1.26,0,0,0,384.164,37.364Zm4.736-4.558,1.93.536.536,1.93L387.7,38.94l-2.466-2.466Z" transform="translate(-348.376 -28.508)"/>
        <path id="Trazado_1050766" data-name="Trazado 1050766" d="M43.689,0h-6.24a.692.692,0,0,0,0,1.384h6.24a2.181,2.181,0,0,1,2.178,2.178v7.808a2.181,2.181,0,0,1-2.178,2.178H26.409a1.352,1.352,0,0,0-1.167.674l-1.616,2.8-1.616-2.8a1.352,1.352,0,0,0-1.167-.674H3.563a2.181,2.181,0,0,1-2.178-2.178V3.562A2.181,2.181,0,0,1,3.563,1.384H34.773a.692.692,0,1,0,0-1.384H3.563A3.566,3.566,0,0,0,0,3.562v7.808a3.566,3.566,0,0,0,3.562,3.562H20.821l.289.5a9.332,9.332,0,0,0-5.74,4.59.692.692,0,1,0,1.219.657,7.953,7.953,0,0,1,5.24-4l.629,1.089a1.348,1.348,0,0,0,2.335,0l.629-1.089a7.98,7.98,0,0,1,6.191,7.785V36.872a1.761,1.761,0,0,0,1.759,1.759,1.62,1.62,0,0,1,1.614,1.522,1.563,1.563,0,0,1-1.563,1.605h-.356a8.529,8.529,0,0,0-6.677-4.452V36.122a6.784,6.784,0,0,0,4.01-6.184V24.12a.692.692,0,0,0-.692-.692H26.644l-1.435-2.06a.692.692,0,0,0-1.136,0l-1.435,2.06H17.543a.692.692,0,0,0-.692.692v5.818a6.784,6.784,0,0,0,4.01,6.184v1.184a8.5,8.5,0,0,0-6.676,4.452h-.357a1.571,1.571,0,0,1-1.563-1.533,1.524,1.524,0,0,1,.447-1.1,1.646,1.646,0,0,1,1.167-.493,1.761,1.761,0,0,0,1.759-1.759V24.465a8.063,8.063,0,0,1,.116-1.363.692.692,0,0,0-1.364-.235,9.46,9.46,0,0,0-.136,1.6V36.872a.375.375,0,0,1-.375.375,3.039,3.039,0,0,0-2.155.908,2.9,2.9,0,0,0-.843,2.1A2.964,2.964,0,0,0,13.6,43.133a8.506,8.506,0,0,0-.418,2.641v.786a.692.692,0,0,0,.692.692H25.023a.692.692,0,1,0,0-1.384H14.564v-.094a7.119,7.119,0,0,1,6.3-7.076,2.765,2.765,0,0,0,5.527,0,7.1,7.1,0,0,1,6.3,7.076v.094H27.7a.692.692,0,0,0,0,1.384h5.68a.692.692,0,0,0,.692-.692v-.786a8.518,8.518,0,0,0-.417-2.64,2.948,2.948,0,0,0,2.715-3.016,2.993,2.993,0,0,0-3-2.87A.375.375,0,0,1,33,36.872V24.465a9.365,9.365,0,0,0-6.857-9.031l.289-.5H43.689a3.566,3.566,0,0,0,3.562-3.562V3.563A3.566,3.566,0,0,0,43.689,0ZM18.236,29.938V24.812H23a.692.692,0,0,0,.568-.3l1.074-1.541,1.074,1.541a.692.692,0,0,0,.568.3h2.734v5.126a5.39,5.39,0,0,1-10.78,0Zm5.39,10.053a1.382,1.382,0,0,1-1.381-1.381V36.57a6.811,6.811,0,0,0,2.761,0V38.61a1.382,1.382,0,0,1-1.381,1.381Z" transform="translate(0)"/>
      </g>
    </g>
  </g>
</svg>
