<svg xmlns="http://www.w3.org/2000/svg" xmlns:xlink="http://www.w3.org/1999/xlink" width="295" height="383.694" viewBox="0 0 295 383.694">
  <defs>
    <clipPath id="clip-path">
      <rect id="Rect치ngulo_417843" data-name="Rect치ngulo 417843" width="295" height="376" fill="#fff" stroke="#707070" stroke-width="1"/>
    </clipPath>
  </defs>
  <g id="Grupo_1208424" data-name="Grupo 1208424" transform="translate(-1124.542 -8123)">
    <g id="Grupo_1208230" data-name="Grupo 1208230" transform="translate(1144.553 8160.174)">
      <rect id="Rect치ngulo_416878" data-name="Rect치ngulo 416878" width="247.978" height="346.354" rx="65" transform="translate(0 0)" fill="#86b60c"/>
    </g>
    <g id="Enmascarar_grupo_1098884" data-name="Enmascarar grupo 1098884" transform="translate(1124.542 8123)" clip-path="url(#clip-path)">
      <g id="Grupo_1208423" data-name="Grupo 1208423" transform="translate(1.14 18.827)">
        <path id="Trazado_1050633" data-name="Trazado 1050633" d="M990.28,234.45a1.015,1.015,0,0,0-.221-.621c-2.925-3.747-8.953-2.429-12.345-.088a10.947,10.947,0,0,0-4.705,10.13,11.3,11.3,0,0,0-8.43,9.818c-.707,6.508,4.05,9.268,9.523,9.747a.857.857,0,0,0,.631.6c5.25,1.416,7.347-4.4,8.969-8.344,2.771-6.746,5.336-13.559,6.6-20.793A1.009,1.009,0,0,0,990.28,234.45Z" transform="translate(-814.973 -226.525)" fill="#693c24"/>
        <path id="Trazado_1050634" data-name="Trazado 1050634" d="M934.112,1275.934a1.346,1.346,0,0,1-1.185,1.525c-11.451,1.045-22.869,1.681-34.368,1.649-12.641-.033-26.04,0-37.966-1.6a1.1,1.1,0,0,1-.939-.987q-.5-4.128-.9-8.2c-.069.578-.139,1.149-.2,1.726q-.328,2.745-.657,5.478a10.478,10.478,0,0,1-.443,2.531c-.3.733-9.219,2.531-17.974,2.667-7.474.117-14.947.688-22.421.519-5.269-.123-10.522-.487-15.769-.908-.454-.033-.9-.071-1.356-.11-4.869-.39-9.737-.818-14.622-1.116a.867.867,0,0,1-.726-.915c-.315-31.99,3.924-73.754,7.436-92.88,2.023-11.026,6.075-25.766,9.417-36.76.8-2.629,6.8-27.34,8.58-32.377,1.863-5.257,1.077,3.074.714-7.706-.016-.526,2.787-1.084,3.091-1.038,5.872-8.2,16.143-1.9,23.11.357,9.524,3.083,19.319,4.615,29.11,5.783,2.509.3,5.023.571,7.538.844,1.98-.376,3.988-.578,5.861-.811a84.66,84.66,0,0,1,16.367-.441,1.043,1.043,0,0,1,.892.682c.406.019,9.611-1.516,9.733-.886.619,3.238,19.01,60.72,23.567,106.428C931.408,1233.557,933.15,1257.416,934.112,1275.934Z" transform="translate(-678.754 -864.647)" fill="#a0a5b9"/>
        <g id="Grupo_1208396" data-name="Grupo 1208396" transform="translate(209.018 256.111)">
          <path id="Trazado_1050635" data-name="Trazado 1050635" d="M1209.36,1169.24c3.042,8.19,5.442,16.868,9.453,24.572,3.333,6.4,12.455,9.791,18.688,7.074.87-.379.491-1.949-.391-1.565-3.337,1.454-7.234.785-10.5-.6a13.342,13.342,0,0,1-7.188-7.057c-3.49-7.307-5.812-15.231-8.645-22.856-.354-.955-1.778-.536-1.418.432Z" transform="translate(-1209.302 -1168.269)" fill="#24191c"/>
        </g>
        <g id="Grupo_1208397" data-name="Grupo 1208397" transform="translate(180.627 331.848)">
          <path id="Trazado_1050636" data-name="Trazado 1050636" d="M1108.872,1451.117c-3.179,4.909-6.546,9.729-9.546,14.773a16.68,16.68,0,0,0-2.082,7.031c-.333,3.054-.628,6.114-.942,9.17q-1.917,18.676-3.833,37.352c-.106,1.036,1.365,1.027,1.471,0q1.851-18.037,3.7-36.075.458-4.469.917-8.939c.3-2.93.648-5.447,2.171-7.938,3.016-4.936,6.275-9.711,9.412-14.555a.755.755,0,1,0-1.27-.819Z" transform="translate(-1092.464 -1450.761)" fill="#24191c"/>
        </g>
        <path id="Trazado_1050637" data-name="Trazado 1050637" d="M837.983,1389.906c-.454-.032-.9-.071-1.356-.11q-1.065-9.054-1.81-18.153a532.792,532.792,0,0,1,2.519-110.89c.8-2.628,1.591-5.186,2.381-7.652q-2.21,15.382-3.513,30.919A532.109,532.109,0,0,0,837.983,1389.906Z" transform="translate(-715.454 -974.246)" fill="#24191c"/>
        <g id="Grupo_1208398" data-name="Grupo 1208398" transform="translate(120.641 257.878)">
          <path id="Trazado_1050638" data-name="Trazado 1050638" d="M875.573,1175.443c-1.423,8.624-3,17.756-8.479,24.5-5.214,6.413-13.125,8.954-20.788,8.126-.941-.1-.935,1.522,0,1.623a24.484,24.484,0,0,0,21.531-8.242c5.892-6.995,7.655-16.477,9.155-25.571.168-1.018-1.248-1.458-1.418-.431Z" transform="translate(-845.602 -1174.858)" fill="#24191c"/>
        </g>
        <path id="Trazado_1050639" data-name="Trazado 1050639" d="M1147.937,258.393c1.283-3.047,2.166-6.614-.12-9.372-2.423-2.924-6.726-3.318-10.176-2.784a.725.725,0,0,0-.608-.039,3.278,3.278,0,0,0-.618.3.734.734,0,0,0-.131.085,3.414,3.414,0,0,0-.4.309c-.468-.424-1.249-.391-1.358.431-1.029,7.772-2.122,15.669-2.5,23.515-.322,6.667.65,13.442,5.014,18.388a.837.837,0,0,0,1.248,0,63.031,63.031,0,0,0,8.764-12.133,9.838,9.838,0,0,0,8.242-9.53C1155.451,262.67,1152.161,258.775,1147.937,258.393Z" transform="translate(-941.746 -237.179)" fill="#693c24"/>
        <path id="Trazado_1050640" data-name="Trazado 1050640" d="M930.313,1120.357c-13.841,3.049-27.861,7.156-41.929,8.457s-28.5.058-42.614-.206c-.421-1.409-.177-3.161-.421-1.409-2.04,14.685-5.842,30.822-6.894,45.643a1.323,1.323,0,0,0,1.777,1.475c28.991,11.261,75.505-1.4,86.034-4.53a3.638,3.638,0,0,0,2.47-3.132c1.566-13.38,2.481-32,2.581-43.254C932.77,1122.775,932.007,1119.984,930.313,1120.357Z" transform="translate(-719.546 -877.066)" fill="#ffe5d4"/>
        <path id="Trazado_1050641" data-name="Trazado 1050641" d="M1051.312,547.743c-1.9-1.486-9.421-2.578-12.331-2.647a84.828,84.828,0,0,0-12.353.67c-2.05.252-9.394,1.319-10.578,2.563a4.173,4.173,0,0,0-1.064,2.125.336.336,0,0,0,.291.4c1.277,2.034,3.993,2.722,6.135,3.248a38.6,38.6,0,0,0,8.524.942c3.371.059,6.75-.044,10.119-.163a82.8,82.8,0,0,0,9.154-.548c2.766-.409,4.871,1.826,4.744-1.156C1053.912,552.222,1052.238,548.467,1051.312,547.743Z" transform="translate(-853.181 -456.045)" fill="#b34530"/>
        <path id="Trazado_1050642" data-name="Trazado 1050642" d="M1063.575,447.5a229.979,229.979,0,0,1,2.687-35.73.9.9,0,0,0-.4-.952c-.216-.516-.771-.843-1.27-.371a102.518,102.518,0,0,1-15.275,12.047c-3.653,2.336-9.235,4.13-10.451,9.09a.971.971,0,0,0-.447.91,151.307,151.307,0,0,1-.339,20.034.969.969,0,0,0,.563,1.008,1.033,1.033,0,0,0-.334.8c.059,6.829,9.449,6.986,13.721,6.044a15.634,15.634,0,0,0,11.8-12.007A.823.823,0,0,0,1063.575,447.5Z" transform="translate(-870.661 -357.341)" fill="#cc694e"/>
        <path id="Trazado_1050643" data-name="Trazado 1050643" d="M1037.736,274.539c-4.079-10.156-12.7-14.347-22.8-12.251a2.376,2.376,0,0,0-.531.181,2.3,2.3,0,0,0-.341.037c-17.969,3.826-17.991,25.336-18.642,40.3-.193,4.438-.787,10.813-.29,15.256.362,3.241,1.9,5.926,5.088,6.929,4.707,1.481,9.794,1.13,14.489.061,5.532-1.26,10.008-2.943,13.123-8.094,3.64-6.019,6.067-12.712,9.34-18.938a2.35,2.35,0,0,0,.2-.661,18.258,18.258,0,0,0,3.558-6.181C1042.574,286.187,1039.728,279.5,1037.736,274.539Z" transform="translate(-838.005 -248.689)" fill="#ffa58c"/>
        <g id="Grupo_1208399" data-name="Grupo 1208399" transform="translate(167.54 40.146)">
          <path id="Trazado_1050644" data-name="Trazado 1050644" d="M1039.1,364.367c1.772.78,1.078,3.649.9,5.2-.146,1.3-.357,2.614-.423,3.925a5.564,5.564,0,0,0,2.743,5.26c.794.573,1.532-.831.742-1.4a4.235,4.235,0,0,1-1.972-4.376c.129-1.526.354-3.044.511-4.567.237-2.3.07-4.646-2.113-5.607-.88-.387-1.261,1.181-.391,1.564Z" transform="translate(-1038.607 -362.742)" fill="#cc694e"/>
        </g>
        <path id="Trazado_1050645" data-name="Trazado 1050645" d="M1251.5,1156.352c-1.216-.842-2.989-.283-4.272-.072a40.615,40.615,0,0,0-13,4.625,1.429,1.429,0,0,0-.663,1.76,1.831,1.831,0,0,0-.117,1.009c.719,4.71,3.444,23.278,5.253,26.486,1.648,2.921,4.532,2.769,7.282,3.386,3.044.683,8.875-.522,11.8-1.22a2.257,2.257,0,0,0,1.594-2.525C1258.325,1181.256,1252.648,1157.146,1251.5,1156.352Z" transform="translate(-1018.542 -903.106)" fill="#ffe5d4"/>
        <path id="Trazado_1050646" data-name="Trazado 1050646" d="M1159.3,325.7c-2.42-4.209-6.76-1.83-9.461.58a.861.861,0,0,0-.043,1.267,1.207,1.207,0,0,0-.042.222,75.12,75.12,0,0,0-.424,9.109c.027,1.557,1.82,4.453,3.062,5.685.863.856-.16,1.319.637.561.849-.807,2.11.2,2.894-.707C1156.736,341.473,1161.246,329.072,1159.3,325.7Z" transform="translate(-954.88 -293.794)" fill="#693c24"/>
        <g id="Grupo_1208400" data-name="Grupo 1208400" transform="translate(171.804 52.651)">
          <path id="Trazado_1050647" data-name="Trazado 1050647" d="M1056.889,411.008a3.32,3.32,0,0,1,1.666.717.7.7,0,0,0,1.006-.291.877.877,0,0,0-.264-1.11,4.7,4.7,0,0,0-2.408-.939c-.4-.043-.735.4-.735.811a.792.792,0,0,0,.735.811Z" transform="translate(-1056.154 -409.382)" fill="#cc694e"/>
        </g>
        <path id="Trazado_1050648" data-name="Trazado 1050648" d="M1027.531,561.214c-6.661-2.435-30.172-13.742-30.8-18.652a13.139,13.139,0,0,1-.023-1.788,32.5,32.5,0,0,1-10.329,2.1c-4.783.237-12.918.248-17.313-3.593l-.334,2.78c-.274,2.28-.159,3.6-2.465,5.229a12.275,12.275,0,0,1-3.073,1.284c-4.578,1.576-9.31,2.706-13.954,4.024a.5.5,0,0,0-.365.582.621.621,0,0,0-.04,1,124.734,124.734,0,0,0,12.561,8.518.65.65,0,0,0,.233.925c9.9,4.915,49.628,11.268,65.393-.321.373-.274.569-.565.447-.919C1027.915,562.177,1028.092,561.42,1027.531,561.214Z" transform="translate(-802.935 -451.804)" fill="#ffe5d4"/>
        <path id="Trazado_1050649" data-name="Trazado 1050649" d="M1330.307,764.088c-1.485-10.973-4.592-21.728-7.779-32.247-3.23-10.662-6.892-21.168-10.8-31.564-4.227-11.247-8.739-22.368-13.323-33.452-2.12-5.126-4.079-10.4-6.5-15.372-1.863-3.832-5.229-7.239-9.005-10.165-.19-.325-15.186,15.374-17.987,25.485-3.58,12.919-3.714,25.47-3.552,38.942a.9.9,0,0,0,.508.845,416.7,416.7,0,0,0,14.613,62.831c2.846,8.871,6.518,17.764,13.113,24.173,5.819,5.655,13.593,9.463,21.5,9.634,7.807.168,13.367-2.742,16.794-10.476C1331.765,783.987,1331.576,773.445,1330.307,764.088Z" transform="translate(-1039.664 -526.46)" fill="#b34530"/>
        <g id="Grupo_1208401" data-name="Grupo 1208401" transform="translate(132.202 251.343)">
          <path id="Trazado_1050650" data-name="Trazado 1050650" d="M893.291,1154.021c.556.983,2.046,1.213,2.97,1.446a63.143,63.143,0,0,0,6.3,1.159,151.016,151.016,0,0,0,15.055,1.38c7.468.343,14.943.4,22.416.413a174.393,174.393,0,0,0,21.266-.964,93.976,93.976,0,0,0,11.082-2.052c2.751-.673,5.976-1.124,8-3.522.644-.764-.394-1.914-1.04-1.147-1.781,2.113-4.74,2.474-7.167,3.061a93.6,93.6,0,0,1-9.8,1.9,157.911,157.911,0,0,1-20.163,1.1c-11.959.038-24.035.14-35.938-1.3-2.554-.308-5.107-.663-7.636-1.161-.9-.177-1.8-.367-2.69-.626a4.87,4.87,0,0,1-1.382-.511c-.5-.886-1.773-.071-1.27.819Z" transform="translate(-893.176 -1150.483)" fill="#24191c"/>
        </g>
        <path id="Trazado_1050651" data-name="Trazado 1050651" d="M1080.283,353a14.408,14.408,0,0,0-5.714.672,2.531,2.531,0,0,0-1.82,1.9,1.545,1.545,0,0,0,1.184,1.953c.911.188,1.789-.47,2.662-.648a8.609,8.609,0,0,1,2.785-.019c1.43.184,4.228,1.685,5.044-.275C1085.354,354.338,1081.87,353.078,1080.283,353Z" transform="translate(-896.88 -315.438)" fill="#693c24"/>
        <path id="Trazado_1050652" data-name="Trazado 1050652" d="M891.632,615.28c-3.315-7.631-4.634-16.064-7.783-23.768-2.87-7.018-7.189-12.181-13.471-15.568-6.961-3.753-14.287-6.857-21.48-10.02-3.83-1.684-18.383-7.944-18.984-10.1a2.964,2.964,0,0,0-4.223-.635c-4.974,3.312-10.815,3.649-16.484,3.824-5.617.174-15.545-3.085-15.8-4-.123-.435-47.842,18.915-54.135,26.026a44.54,44.54,0,0,0-7.384,10.554,170.578,170.578,0,0,0-11.451,32.705,1.241,1.241,0,0,0,1.682,1.5,1.147,1.147,0,0,0,.634.273c7.845.822,13.164,7.99,16.139,15.467.745,1.872,5.228,28.8,7.909,40.1,1.706,7.184,1.884,26.146,3.887,53.083.271,3.64,54.726,9.125,116.051-7.786,4.9-1.35,4.27-62.28,5.588-74.784.237-2.245,1.411-23.237,4.928-24.927,4.741-2.278,10.9-4.569,13.363-9.973A1.4,1.4,0,0,0,891.632,615.28Z" transform="translate(-630.173 -462.996)" fill="#b34530"/>
        <path id="Trazado_1050653" data-name="Trazado 1050653" d="M1005.668,355.146c.668,2.108,3.492.645,4.857.523a4.27,4.27,0,0,1,2.316.454,4.214,4.214,0,0,0,1.13.508c.936.165,1.293-.8,1.166-1.637-.46-3.045-3.9-3.318-6.182-3.275C1007.643,351.742,1004.88,352.663,1005.668,355.146Z" transform="translate(-846.027 -314.524)" fill="#693c24"/>
        <path id="Trazado_1050654" data-name="Trazado 1050654" d="M1090.005,372.565c-2.924-.742-3.516,5.19-1.625,6.556,1.634,1.18,2.912-.763,3.174-2.274C1091.8,375.437,1091.633,372.979,1090.005,372.565Z" transform="translate(-907.921 -329.738)" fill="#240704"/>
        <path id="Trazado_1050655" data-name="Trazado 1050655" d="M1025.621,374.532c-2.573-.731-3.053,4.914-1.383,6.23,1.443,1.137,2.552-.7,2.771-2.139C1027.215,377.282,1027.052,374.94,1025.621,374.532Z" transform="translate(-859.45 -331.177)" fill="#240704"/>
        <path id="Trazado_1050656" data-name="Trazado 1050656" d="M1056.181,430.421c-.055.007-.115.029-.189.037a53.935,53.935,0,0,1-8.628.138c-.928-.152-.754.825-.541,1.366a2.184,2.184,0,0,0,2.052,1.563,10.86,10.86,0,0,0,4.972-.739,5.765,5.765,0,0,0,1.887-1.288C1055.836,431.391,1056.73,430.349,1056.181,430.421Z" transform="translate(-877.159 -372.127)" fill="#ad5137"/>
        <path id="Trazado_1050657" data-name="Trazado 1050657" d="M1152.665,379.1c-3.337-3.151-6.6,4.369-7.216,6.87-.481,1.952-.784,7.04,1.761,6.252C1150.478,391.207,1155.355,381.635,1152.665,379.1Z" transform="translate(-951.7 -334.009)" fill="#ffa58c"/>
        <g id="Grupo_1208402" data-name="Grupo 1208402" transform="translate(195.058 46.339)">
          <path id="Trazado_1050658" data-name="Trazado 1050658" d="M1156.534,386.022c-2.109-1.434-4.248,6.062-4.642,7.395a.742.742,0,1,0,1.418.431,32.623,32.623,0,0,1,1.34-3.762c.376-.865.913-2.333,1.755-2.751h-.742l.13.088c.808.549,1.546-.853.742-1.4Z" transform="translate(-1151.852 -385.84)" fill="#cc694e"/>
        </g>
        <path id="Trazado_1050659" data-name="Trazado 1050659" d="M684.95,724.244q-3.156-23.7-6.311-47.392c-.914-6.86-1.534-13.868-2.93-20.634-1.106-5.361-3.054-10.523-7.052-14.014-.414-.362-.555-1.655-1.159-1.318-12.185,6.813-16.942,21.551-21.657,33.658-5.487,14.091-9.925,28.635-14.126,43.243-4.29,14.915-8.915,29.926-10.99,45.456-1.105,8.272-2.4,18.23.168,26.341,2.236,7.072,8.592,14,14.372,17.6,5.43,3.378,12.694,5.164,18.662,2.562,8.774-3.826,13.286-13.416,16.6-22.657C679.186,762.955,685.5,728.357,684.95,724.244Z" transform="translate(-553.725 -526.128)" fill="#b34530"/>
        <path id="Trazado_1050660" data-name="Trazado 1050660" d="M630.847,798.889c-2.474-.636-7.451,1.241-10.208,2.157-3.662,1.218-7.2,2.872-10.744,4.436-4.217,1.859-8.453,3.674-12.646,5.6-2.67,1.223-7.678,2.1-7.676,5.879,0,.239,1.911,6.216,3.06,6.455,3.318.691,7.176-.17,10.393-1.113,7.172-2.1,13.714-6.3,20.117-10.321,1.55-.973,3.086-1.976,4.569-3.071,1.319-.975-.3.945.662-.488C629.863,806.192,630.847,798.889,630.847,798.889Z" transform="translate(-531.145 -641.715)" fill="#b34530"/>
        <path id="Trazado_1050661" data-name="Trazado 1050661" d="M441.393,698.722c-.726-8.714-.258-18.575-6.361-25.319-2.429-2.685-5.854-4.3-8.89-5.933a114.172,114.172,0,0,0-22.716-9.278c-2.368-.678-6.246-2.5-8.624-.992-1.907,1.206-1.955,3.991-.78,5.826,2.042,3.188,6.517,3.692,9.5,5.2a10.154,10.154,0,0,1,4.952,4.642l.014.032a2.7,2.7,0,0,1-1.7,3.772,64.043,64.043,0,0,1-12.755,1.252c-5.328-.023-11.028-.5-15.492-4.075-3.6-2.882-6.452-7.366-11.17-7.985a6.251,6.251,0,0,0-5.787,2.436.143.143,0,0,1-.228.012,10.416,10.416,0,0,0-2.441-2.062c-2.371-1.4-6.514-1.612-8.665.443-2.793,2.668.277,8.115,1.784,10.672,6.181,10.491,16.9,19.226,27.931,21.911,4.984,1.213,10.067,1.771,15.1,2.651,4.847.847,8.842,1.846,13.708,2.03a2.074,2.074,0,0,1,1.9,1.784c.188,1.065.394,2.282.418,2.614a.822.822,0,0,0,.247,1.166c2.2,1.287,6.868-.164,9.156-.817a60.59,60.59,0,0,0,7.989-2.79C433.688,703.6,441.428,699.145,441.393,698.722Z" transform="translate(-349.119 -537.683)" fill="#ffa58c"/>
        <path id="Trazado_1050662" data-name="Trazado 1050662" d="M633.581,795.147c-.909-5.582-2.621-11.183-3.906-16.674a.806.806,0,0,0-.873-.686.783.783,0,0,0-.9.688c-1.419,6.792-4.12,10.137-9.325,13.752-5.735,3.984-17.857,5.513-20.492,4.112a.946.946,0,0,0-1.333.829.908.908,0,0,0,.015.31q.229,3.467.633,6.912a.994.994,0,0,0-.512,1.806c.277.167.559.348.844.533a.664.664,0,0,0,.641.422c2.48,1.658,5.228,3.649,8.026,3.711,3.508.078,7.51-2.237,10.72-3.592,5.541-2.339,12.508-4.641,15.543-10.765a1.027,1.027,0,0,0,.106-.6C632.93,795.694,633.635,795.483,633.581,795.147Z" transform="translate(-536.355 -626.359)" fill="#ffe5d4"/>
        <path id="Trazado_1050663" data-name="Trazado 1050663" d="M647.163,868.7c-2.21-10.763-4.718-21.466-7.126-32.177-2.783-12.383-9.538-37.4-9.538-37.4a.585.585,0,0,0-.79.4c-2.546,8.144-10.331,12.966-17.228,15.908-7.1,3.031-14.8,4.009-22.158,1.546a.5.5,0,0,0-.29-.01.593.593,0,0,0-.851.565,508.212,508.212,0,0,0,3.434,66.407c1.75,15.4,8.152,39.942,27.116,42.222a60.337,60.337,0,0,0,11.787-9.187c5.315-5.705,8.948-13.012,11.781-20.5a96.753,96.753,0,0,0,4.231-13.337C648.6,878.261,648.159,873.55,647.163,868.7Z" transform="translate(-530.797 -641.954)" fill="#b34530"/>
        <g id="Grupo_1208403" data-name="Grupo 1208403" transform="translate(13.992 140.572)">
          <path id="Trazado_1050664" data-name="Trazado 1050664" d="M410.954,749.357c-1.5-2.117-3.314-4.772-2.642-7.626a3.554,3.554,0,0,1,1.941-2.625c1.535-.585,3.083.555,4.07,1.771,1.54,1.9,2.526,4.226,4.166,6.053a18.529,18.529,0,0,0,5.042,3.973c9.369,4.993,19.165-.784,28.4-3.211,2.826-.743,5.9-1.388,8.805-.866,2.792.5,5.633,2.485,5.949,5.843.1,1.028,1.568,1.039,1.471,0-.552-5.884-6.088-7.916-10.748-7.582-6.065.434-11.737,3.086-17.551,4.793-6.055,1.778-12.281,2.269-17.714-1.722-2.536-1.863-4.065-4.363-5.8-7.048-1.293-2.006-3.163-3.963-5.571-3.777-2.274.176-3.741,2.467-4.021,4.8-.385,3.209,1.475,5.987,3.164,8.371.582.822,1.616-.333,1.04-1.147Z" transform="translate(-406.699 -737.32)" fill="#cc694e"/>
        </g>
        <g id="Grupo_1208404" data-name="Grupo 1208404" transform="translate(5.366 135.186)">
          <path id="Trazado_1050665" data-name="Trazado 1050665" d="M372.774,724.333c-.152-1.311-.368-3.022.275-4.232a2.649,2.649,0,0,1,3.208-1.1c2.28.682,4.064,3.339,5.516,5.242.61.8,1.646-.353,1.04-1.147-1.95-2.554-4.541-6.181-7.944-5.842-3.422.341-3.928,3.956-3.566,7.08.119,1.021,1.591,1.034,1.471,0Z" transform="translate(-371.203 -717.231)" fill="#cc694e"/>
        </g>
        <g id="Grupo_1208405" data-name="Grupo 1208405" transform="translate(13.105 130.895)">
          <path id="Trazado_1050666" data-name="Trazado 1050666" d="M403.225,702.652c3.052,4.2,6.249,8.153,10.875,10.214a60.554,60.554,0,0,0,15.872,4.168c.935.137.926-1.487,0-1.622a61.281,61.281,0,0,1-15-3.9c-4.584-1.942-7.712-5.881-10.706-10.005-.591-.815-1.626.339-1.04,1.147Z" transform="translate(-403.051 -701.226)" fill="#cc694e"/>
        </g>
        <g id="Grupo_1208406" data-name="Grupo 1208406" transform="translate(25.422 148.591)">
          <path id="Trazado_1050667" data-name="Trazado 1050667" d="M454.12,768.713a20.581,20.581,0,0,0,10.47,2.327c.943-.044.948-1.667,0-1.623a19.1,19.1,0,0,1-9.727-2.106c-.853-.438-1.6.961-.742,1.4Z" transform="translate(-453.74 -767.228)" fill="#cc694e"/>
        </g>
        <g id="Grupo_1208407" data-name="Grupo 1208407" transform="translate(95.292 155.35)">
          <path id="Trazado_1050668" data-name="Trazado 1050668" d="M741.989,794.062c2.071.1,3.211,2.306,3.911,4.205.809,2.194,1.333,4.543,1.954,6.808q2.169,7.914,4.209,15.869,4,15.6,7.507,31.357,2.027,9.11,3.885,18.264c.207,1.018,1.625.587,1.418-.431Q757.9,835.849,748.6,802.21c-1.031-3.724-2.227-9.568-6.614-9.771-.946-.044-.945,1.579,0,1.622Z" transform="translate(-741.28 -792.439)" fill="#24191c"/>
        </g>
        <g id="Grupo_1208408" data-name="Grupo 1208408" transform="translate(95.273 141.863)">
          <path id="Trazado_1050669" data-name="Trazado 1050669" d="M741.734,743.706c6.8,1.05,10.875,9.972,13.4,16.113a69.582,69.582,0,0,1,4.461,15.86c1.847,11.943,2.062,24.21,3.054,36.26,1.024,12.444,2.368,24.852,3.92,37.228.129,1.03,1.546.591,1.418-.431-2.378-18.968-4-37.977-5.339-57.062-.368-5.242-.759-10.493-1.523-15.687a71.426,71.426,0,0,0-4.191-15.663,52.341,52.341,0,0,0-6.115-11.754c-2.194-3.028-5.084-5.874-8.69-6.43-.926-.143-1.326,1.421-.391,1.565Z" transform="translate(-741.201 -742.133)" fill="#24191c"/>
        </g>
        <g id="Grupo_1208409" data-name="Grupo 1208409" transform="translate(223.966 158.192)">
          <path id="Trazado_1050670" data-name="Trazado 1050670" d="M1283.7,803.819c1.195,20.72-5.361,40.642-12.806,59.309-.378.947.889,1.773,1.27.819,7.549-18.926,14.219-39.115,13.007-60.128a.737.737,0,1,0-1.471,0Z" transform="translate(-1270.821 -803.038)" fill="#24191c"/>
        </g>
        <g id="Grupo_1208410" data-name="Grupo 1208410" transform="translate(159.939 94.566)">
          <path id="Trazado_1050671" data-name="Trazado 1050671" d="M1007.418,566.944c1.647,3.406,4.795,5.217,8.088,6.1a45.591,45.591,0,0,0,11.662,1.426,35.8,35.8,0,0,0,11.244-1.675c3-.986,7.14-2.412,8.588-5.785.4-.939-.865-1.763-1.27-.819-1.355,3.157-5.63,4.423-8.438,5.268a34.918,34.918,0,0,1-10.124,1.389,47.956,47.956,0,0,1-10.007-1.064c-3.365-.725-6.773-2.146-8.473-5.661-.446-.921-1.717-.1-1.27.819Z" transform="translate(-1007.324 -565.72)" fill="#24191c"/>
        </g>
        <path id="Trazado_1050672" data-name="Trazado 1050672" d="M1195.131,973.643c-2.9,1.6-6.973,5.284-5.077,9.125.177.359.309-.34.588-.417a.5.5,0,0,0,.408.053c3.285-.949,5.211-4.19,4.882-7.839C1196.227,974.1,1195.712,973.322,1195.131,973.643Z" transform="translate(-985.346 -769.656)" fill="#ffe5d4"/>
        <path id="Trazado_1050673" data-name="Trazado 1050673" d="M992.723,887.977c-.783-2.8-3.553-5.047-5.23-7.182-2.231-2.84-4.691-5.647-7.893-7.12-4.263-1.961-8.475-.439-12.837.065-7.493.865-14.975,1.965-22.511,2.256A82.274,82.274,0,0,1,933,875.707c-3.087-.3-6.194-.819-9.293-.391-3.008.416-5.983,1.776-5.962,4.2-4.966-1.087-10.822-1.819-13.656,1.657-2.08-.5-4.362-.966-6.206-.008-6.8,3.534.3,9.852,4.587,11.8,6.335,2.876,26.343,10.886,60.415,6.245a2.3,2.3,0,0,1,2.108.86c2.515,3.123,5.664,4.046,7.869,7.861a1.083,1.083,0,0,0,1.079.593.835.835,0,0,0,.657.006C983.65,904.21,993.513,890.8,992.723,887.977Z" transform="translate(-762.405 -695.832)" fill="#ffa58c"/>
        <g id="Grupo_1208411" data-name="Grupo 1208411" transform="translate(158.394 185.372)">
          <path id="Trazado_1050674" data-name="Trazado 1050674" d="M1054.71,908.671c-1.5-2.774-4.277-3.826-7.066-4.133-3.887-.427-7.872.375-11.713.957a70.588,70.588,0,0,1-13.115.778c-3.933-.136-7.873-.593-11.805-.612-2.876-.015-6.518.276-8.658,2.7a5.3,5.3,0,0,0-.868,5.8c1.919,3.61,7.195,4.3,10.554,4.831,7.717,1.218,15.462,1.985,23.245,2.461.945.057.943-1.565,0-1.623-6.878-.42-13.69-1.121-20.522-2.071-3.4-.473-7.22-.815-10.261-2.719-1.373-.859-2.429-2.158-1.932-3.994.963-3.552,5.72-3.779,8.442-3.763,6.977.041,13.9,1.136,20.881.381,4.147-.448,8.25-1.37,12.42-1.56,3.18-.145,7.291,0,9.128,3.385.485.9,1.758.081,1.27-.818Z" transform="translate(-1000.967 -904.418)" fill="#cc694e"/>
        </g>
        <g id="Grupo_1208412" data-name="Grupo 1208412" transform="translate(139.725 188.271)">
          <path id="Trazado_1050675" data-name="Trazado 1050675" d="M927.133,923.222c-2.138-.72-1.722-3.679-.336-4.973,1.591-1.486,3.84-1.454,5.8-1.321a71.267,71.267,0,0,0,12.1-.038c.935-.095.944-1.718,0-1.622a59.967,59.967,0,0,1-9,.256c-2.718-.133-5.659-.784-8.252.438a5.474,5.474,0,0,0-3.3,4.535,4.163,4.163,0,0,0,2.6,4.289c.907.305,1.295-1.26.391-1.565Z" transform="translate(-924.138 -915.232)" fill="#cc694e"/>
        </g>
        <g id="Grupo_1208413" data-name="Grupo 1208413" transform="translate(142.535 184.352)">
          <path id="Trazado_1050676" data-name="Trazado 1050676" d="M936.233,902.191c6.45,1.169,12.924,2.312,19.479,2.283.946,0,.948-1.627,0-1.622-6.425.029-12.765-1.08-19.088-2.225-.926-.168-1.324,1.4-.391,1.565Z" transform="translate(-935.701 -900.614)" fill="#cc694e"/>
        </g>
        <path id="Trazado_1050677" data-name="Trazado 1050677" d="M1182.535,996.394a.288.288,0,0,0-.432-.194c-3.482,2.834-8.039,8.508-5.1,13.487a.324.324,0,0,0,.058.065.276.276,0,0,0,.112.12c1.1.613,2.191-.339,3.13-.963a8.967,8.967,0,0,0,3.021-3.024C1185.053,1002.768,1183.084,999.543,1182.535,996.394Z" transform="translate(-975.119 -786.186)" fill="#b34530"/>
        <g id="Grupo_1208414" data-name="Grupo 1208414" transform="translate(156.813 183.05)">
          <path id="Trazado_1050678" data-name="Trazado 1050678" d="M995.167,897.381a193.777,193.777,0,0,0,28.384.24c.941-.061.947-1.684,0-1.623a193.811,193.811,0,0,1-28.384-.24c-.944-.077-.94,1.546,0,1.623Z" transform="translate(-994.461 -895.756)" fill="#cc694e"/>
        </g>
        <path id="Trazado_1050679" data-name="Trazado 1050679" d="M1218.807,897.586c-.952-1.237-7.4-11.032-9.051-6.738a.527.527,0,0,0-.213.633c1.886,6.209-2.769,12.636-6.344,16.938a42.958,42.958,0,0,1-12.273,10.138.518.518,0,0,0-.127.11.5.5,0,0,0-.293.259,3.1,3.1,0,0,0,.377,3.156c.871,1.471,1.858,2.871,2.8,4.29a.5.5,0,0,0,.066.1c.063.095.127.189.189.283a.56.56,0,0,0,1.021-.217c2.337-.339,4.246-1.661,6.158-3.263a107.93,107.93,0,0,0,8.617-7.961c3.842-4.008,9.687-10.423,9.022-16.864A.668.668,0,0,0,1218.807,897.586Z" transform="translate(-985.838 -708.322)" fill="#ffe5d4"/>
        <path id="Trazado_1050680" data-name="Trazado 1050680" d="M1268.667,958c-1.454-9.9-21.731-31.032-36.135-41.262-8.3-5.9-26.116-21.914-26.28-20.76-.021.15-.048.3-.07.448a1.031,1.031,0,0,0-.1.615c-2.471,14.974-11.9,27.952-24.828,33.868a.885.885,0,0,0-.48.536c-1.59,1.051-2.035,3.082-1.575,5.159.913,4.119,32.4,40.455,38.919,46.906C1235.839,1001.029,1275.177,1002.327,1268.667,958Z" transform="translate(-977.368 -712.823)" fill="#b34530"/>
        <g id="Grupo_1208415" data-name="Grupo 1208415" transform="translate(227.986 181.746)">
          <path id="Trazado_1050681" data-name="Trazado 1050681" d="M1288.071,892.52c1.266-.067,2.12,1.244,3.03,2.07,1.053.957,2.117,1.9,3.176,2.85l6.352,5.7c4.126,3.7,8.268,7.387,12.37,11.122,7.662,6.975,15.169,14.3,21.205,23.056.566.821,1.843.013,1.27-.819-6.333-9.191-14.191-16.82-22.243-24.119-4.368-3.959-8.765-7.878-13.15-11.813l-6.805-6.107c-1.5-1.347-3.094-3.675-5.2-3.563-.943.05-.948,1.673,0,1.622Z" transform="translate(-1287.362 -890.894)" fill="#24191c"/>
        </g>
        <g id="Grupo_1208416" data-name="Grupo 1208416" transform="translate(204.972 215.844)">
          <path id="Trazado_1050682" data-name="Trazado 1050682" d="M1193.3,1018.5c-1.687,4.145.228,8.481,2.23,12.049a91.733,91.733,0,0,0,6.088,9.124c5.389,7.38,11.141,14.424,16.745,21.6.619.792,1.655-.359,1.04-1.147-5.129-6.569-10.373-13.032-15.364-19.731-2.165-2.906-4.308-5.849-6.229-8.96-2.046-3.315-4.908-8.022-3.24-12.119.385-.945-.881-1.771-1.27-.819Z" transform="translate(-1192.653 -1018.076)" fill="#24191c"/>
        </g>
        <g id="Grupo_1208417" data-name="Grupo 1208417" transform="translate(254.65 204.649)">
          <path id="Trazado_1050683" data-name="Trazado 1050683" d="M1397.806,977.943a31.664,31.664,0,0,1,18.587,6.366c.788.583,1.525-.821.742-1.4a32.987,32.987,0,0,0-19.329-6.587c-.948-.01-.948,1.613,0,1.623Z" transform="translate(-1397.095 -976.32)" fill="#24191c"/>
        </g>
        <g id="Grupo_1208418" data-name="Grupo 1208418" transform="translate(236.253 136.963)">
          <path id="Trazado_1050684" data-name="Trazado 1050684" d="M1341.848,724.24c-2.463-1.566-4.285,2.085-5.38,3.924q-2.971,4.989-5.652,10.179a202.167,202.167,0,0,0-9.372,21.078c-.365.962,1.057,1.382,1.418.431q3.516-9.265,7.9-18.086,2.084-4.186,4.358-8.252,1.208-2.159,2.468-4.282c.538-.906,2.142-4.466,3.516-3.591.822.522,1.563-.879.742-1.4Z" transform="translate(-1321.385 -723.859)" fill="#24191c"/>
        </g>
        <path id="Trazado_1050685" data-name="Trazado 1050685" d="M1037.574,518.938a1.421,1.421,0,0,0-1.323-.712,1.208,1.208,0,0,0-1.849.15c-4.387,5.315-15.508,6.806-21.142,3.868a16.58,16.58,0,0,1-3.2-2.347c-.33-.289-.722-.953-1.164-1.033-.49-.089-.96.524-1.289.49-.355-.037-7.29,9.4-7.843,11.227-.886,2.933,5.026,14.6,16.885,16.613.559.095,4.7-12.263,6.2-17.982l3.608,10.913c.86,2.6,1.45,8.124,4.739,8.161,5.514.06,12.863-15.891,12.488-16.777A105.615,105.615,0,0,0,1037.574,518.938Z" transform="translate(-841.599 -436.129)" fill="#ffe5d4"/>
        <path id="Trazado_1050686" data-name="Trazado 1050686" d="M1056.126,236.9a9.515,9.515,0,0,0-.017-2c-.624-5.577-5.492-9.716-10.055-10.663-.307-.118-.614-.222-.92-.311a10.217,10.217,0,0,0-2.426-8.991c-3.263-3.243-8.042-2.119-10.884,1.285-3.095-3.038-8.668-1.085-11.141,2.959a15.263,15.263,0,0,0-7.835,4.917c-2.069,3.021-2,7.585.159,9.825a6.691,6.691,0,0,0-2.091,9.57c4.231,6.538,13.661,3.865,19.375,3.361a.815.815,0,0,0,.18-.038,6.767,6.767,0,0,0,1.935,1.549c2.565,1.36,5.132.47,7.428-1.111,4.93,4.43,13.458,1.882,15.834-5.394A11.429,11.429,0,0,0,1056.126,236.9Z" transform="translate(-849.203 -212.999)" fill="#693c24"/>
        <g id="Grupo_1208419" data-name="Grupo 1208419" transform="translate(157.463 7.652)">
          <path id="Trazado_1050687" data-name="Trazado 1050687" d="M1011.115,241.556c-5.942-.38-9.854,6.161-7.581,12.1l.635-1.221a6.527,6.527,0,0,0-6.634,3.906,5.719,5.719,0,0,0,1.8,6.688c.806.553,1.545-.85.742-1.4a4.063,4.063,0,0,1-.944-5.182,5.234,5.234,0,0,1,5.038-2.389c.618.034.834-.7.635-1.221-1.873-4.9,1.611-9.961,6.311-9.66.945.06.943-1.562,0-1.623Z" transform="translate(-997.134 -241.54)" fill="#24191c"/>
        </g>
        <g id="Grupo_1208420" data-name="Grupo 1208420" transform="translate(187.798 9.874)">
          <path id="Trazado_1050688" data-name="Trazado 1050688" d="M1123.04,252.09c1.686-1.346,4.531-.3,6,1.089,2.1,1.987.342,5.634-.771,7.739a.823.823,0,0,0,.635,1.221,6.929,6.929,0,0,1,6.866,6.2c.384,3.778-2.618,7.094-6.071,6.011-.912-.286-1.3,1.279-.391,1.565,4.108,1.289,8.044-2.35,7.972-6.973a8.515,8.515,0,0,0-8.376-8.427l.635,1.221c1.507-2.85,3.239-7.08.541-9.705-1.917-1.867-5.54-3.13-7.779-1.343-.759.606-.028,2.015.743,1.4Z" transform="translate(-1121.977 -249.828)" fill="#24191c"/>
        </g>
        <g id="Grupo_1208421" data-name="Grupo 1208421" transform="translate(182.226 22.177)">
          <path id="Trazado_1050689" data-name="Trazado 1050689" d="M1099.8,297.215c2.9,1.621,1.23,4.77-.52,6.528-.7.7.341,1.849,1.04,1.147,1.278-1.285,2.562-2.919,2.586-4.939a4.676,4.676,0,0,0-2.364-4.138c-.842-.471-1.588.928-.742,1.4Z" transform="translate(-1099.044 -295.719)" fill="#24191c"/>
        </g>
        <g id="Grupo_1208422" data-name="Grupo 1208422" transform="translate(199.183 33.795)">
          <path id="Trazado_1050690" data-name="Trazado 1050690" d="M1168.833,339.826c.337,3.233,2.765,5.6,5.763,5.273.933-.1.943-1.725,0-1.623a3.888,3.888,0,0,1-4.293-3.651c-.107-1.025-1.577-1.037-1.471,0Z" transform="translate(-1168.827 -339.052)" fill="#24191c"/>
        </g>
      </g>
    </g>
    <path id="Trazado_1050317" data-name="Trazado 1050317" d="M29.058,0H179.072" transform="translate(1200.942 8502.694)" fill="none" stroke="#817489" stroke-linecap="round" stroke-width="8"/>
  </g>
</svg>
