<svg xmlns="http://www.w3.org/2000/svg" xmlns:xlink="http://www.w3.org/1999/xlink" width="569" height="307" viewBox="0 0 569 307">
  <defs>
    <clipPath id="clip-path">
      <rect id="Rectángulo_417698" data-name="Rectángulo 417698" width="569" height="307" transform="translate(136 1884)" fill="#fff" stroke="#707070" stroke-width="1" opacity="0.68"/>
    </clipPath>
    <clipPath id="clip-path-2">
      <path id="Trazado_1049253" data-name="Trazado 1049253" d="M455.183,158.064a80.741,80.741,0,0,0-79.934-80.737c-44.407-.435-81.16,35.614-81.545,80.022a80.594,80.594,0,0,0,31.259,64.518,78.431,78.431,0,0,1,28.282,43.586l1.71,7.123h38.973l1.71-7.121a79.033,79.033,0,0,1,28.46-43.726A80.593,80.593,0,0,0,455.183,158.064Z" transform="translate(-293.701 -77.323)"/>
    </clipPath>
    <clipPath id="clip-path-5">
      <path id="Trazado_1049298" data-name="Trazado 1049298" d="M279.79,181.7a18.684,18.684,0,1,0-33.52,1.541,18.15,18.15,0,0,1,1.986,11.858l-.293,1.669,8.272,3.592L257.254,199a18.287,18.287,0,0,1,10.071-6.658A18.646,18.646,0,0,0,279.79,181.7Z" transform="translate(-243.964 -155.584)"/>
    </clipPath>
  </defs>
  <g id="Enmascarar_grupo_1098875" data-name="Enmascarar grupo 1098875" transform="translate(-136 -1884)" clip-path="url(#clip-path)">
    <g id="OBJECTS" transform="translate(164.069 1874.752)">
      <g id="Grupo_1207825" data-name="Grupo 1207825" transform="translate(91.592 52.399)">
        <path id="Trazado_1049323" data-name="Trazado 1049323" d="M0,0H269.07V52.594H0Z" transform="translate(-141.605 144.898)" fill="#e9f9fd" opacity="0.7"/>
        <rect id="Rectángulo_417679" data-name="Rectángulo 417679" width="127.465" height="52.594" transform="translate(106.229 66.357)" fill="#dae6f0"/>
        <rect id="Rectángulo_417680" data-name="Rectángulo 417680" width="231.301" height="52.594" transform="translate(218.037 87.357)" fill="#e9f9fd" opacity="0.71"/>
      </g>
      <g id="Grupo_1207826" data-name="Grupo 1207826" transform="translate(223.198 -8.977)">
        <circle id="Elipse_11551" data-name="Elipse 11551" cx="58.275" cy="58.275" r="58.275" transform="translate(0 82.413) rotate(-45)" fill="none" stroke="#263f5c" stroke-linecap="round" stroke-miterlimit="10" stroke-width="1" stroke-dasharray="10 10 10"/>
        <circle id="Elipse_11552" data-name="Elipse 11552" cx="58.275" cy="58.275" r="58.275" transform="translate(110.907 141.107) rotate(-45)" fill="none" stroke="#263f5c" stroke-linecap="round" stroke-miterlimit="10" stroke-width="1" stroke-dasharray="10 10 10"/>
      </g>
      <path id="Trazado_1049322" data-name="Trazado 1049322" d="M154.265,0c85.2,0,154.265,5.444,154.265,12.16s-69.067,12.16-154.265,12.16S0,18.875,0,12.16,69.067,0,154.265,0Z" transform="translate(120.047 281.914)" fill="#e9f9fd" opacity="0.67"/>
      <g id="Grupo_1207831" data-name="Grupo 1207831" transform="translate(209.642 47.564)">
        <g id="Grupo_1207830" data-name="Grupo 1207830">
          <g id="Grupo_1207827" data-name="Grupo 1207827" clip-path="url(#clip-path-2)">
            <path id="Trazado_1049252" data-name="Trazado 1049252" d="M455.183,158.064a80.741,80.741,0,0,0-79.934-80.737c-44.407-.435-81.16,35.614-81.545,80.022a80.594,80.594,0,0,0,31.259,64.518,78.431,78.431,0,0,1,28.282,43.586l1.71,7.123h38.973l1.71-7.121a79.033,79.033,0,0,1,28.46-43.726A80.593,80.593,0,0,0,455.183,158.064Z" transform="translate(-293.701 -77.323)" fill="#e8ac29"/>
          </g>
          <g id="Grupo_1207828" data-name="Grupo 1207828" clip-path="url(#clip-path-2)">
            <path id="Trazado_1049254" data-name="Trazado 1049254" d="M424.973,95.091A80.384,80.384,0,0,0,375.25,77.327c-44.407-.435-81.16,35.614-81.545,80.022-.005.618,0,1.234.011,1.85C329.179,179,419.066,179,424.973,95.091Z" transform="translate(-293.702 -77.323)" fill="#f0ca6c"/>
          </g>
          <g id="Grupo_1207829" data-name="Grupo 1207829" clip-path="url(#clip-path-2)">
            <path id="Trazado_1049256" data-name="Trazado 1049256" d="M408.393,338.51s-16.077-94.718,6.808-117.136,37.561,32.182-18.485,32.182h-.978c-56.046,0-41.371-54.6-18.485-32.182s6.809,117.136,6.809,117.136" transform="translate(-315.487 -125.134)" fill="none" stroke="#fff" stroke-miterlimit="10" stroke-width="3"/>
          </g>
        </g>
        <path id="Trazado_1049258" data-name="Trazado 1049258" d="M423.292,388.911H384.527a5.371,5.371,0,0,1-5.371-5.371v-.934a5.371,5.371,0,0,1,5.371-5.371h38.765a5.371,5.371,0,0,1,5.371,5.371v.934A5.371,5.371,0,0,1,423.292,388.911Z" transform="translate(-323.169 -180.742)" fill="#0c143b"/>
        <path id="Trazado_1049259" data-name="Trazado 1049259" d="M418.315,409.659H399.529a5.839,5.839,0,0,1-5.838-5.838h0a5.839,5.839,0,0,1,5.838-5.838h18.786a5.839,5.839,0,0,1,5.838,5.838h0A5.838,5.838,0,0,1,418.315,409.659Z" transform="translate(-328.181 -187.897)" fill="#0c143b"/>
        <ellipse id="Elipse_11554" data-name="Elipse 11554" cx="30.638" cy="27.611" rx="30.638" ry="27.611" transform="translate(12.562 56.099) rotate(-51.39)" fill="#f5dea9"/>
      </g>
      <g id="Grupo_1207834" data-name="Grupo 1207834" transform="translate(152.302 153.952)">
        <g id="Grupo_1207832" data-name="Grupo 1207832">
          <path id="Trazado_1049260" data-name="Trazado 1049260" d="M305.789,331.278c.432-8.289,1.162-79.242-99.381-91.543C226.859,255.249,279.624,296.772,305.789,331.278Z" transform="translate(-206.261 -239.716)" fill="#477c6c"/>
          <path id="Trazado_1049261" data-name="Trazado 1049261" d="M206.33,239.725l-.147-.019s7.764,101.1,99.476,92.356c0,0,.026-.276.053-.793C279.546,296.762,226.781,255.239,206.33,239.725Z" transform="translate(-206.183 -239.706)" fill="#2e5245"/>
        </g>
        <g id="Grupo_1207833" data-name="Grupo 1207833" transform="translate(20.566 95.939)">
          <path id="Trazado_1049262" data-name="Trazado 1049262" d="M296.751,393.824c-2.848-2.355-28.013-21.457-59.107,11.212C248.619,401.846,277.471,394.013,296.751,393.824Z" transform="translate(-237.598 -386.14)" fill="#477c6c"/>
          <path id="Trazado_1049263" data-name="Trazado 1049263" d="M237.62,409.08l-.046.048S275.772,433.2,297,398.1c0,0-.092-.083-.269-.229C277.447,398.058,248.595,405.89,237.62,409.08Z" transform="translate(-237.574 -390.184)" fill="#2e5245"/>
        </g>
      </g>
      <g id="Grupo_1207837" data-name="Grupo 1207837" transform="translate(366.562 41.939)">
        <g id="Grupo_1207835" data-name="Grupo 1207835">
          <path id="Trazado_1049264" data-name="Trazado 1049264" d="M541.865,125.456c3.475-1.259,32.7-13.251,20.331-56.622C559.376,79.91,551.485,108.746,541.865,125.456Z" transform="translate(-536.196 -68.77)" fill="#477c6c"/>
          <path id="Trazado_1049265" data-name="Trazado 1049265" d="M559.212,68.8l-.018-.064s-40.124,20.7-20.647,56.8c0,0,.118-.037.335-.116C548.5,108.713,556.392,79.877,559.212,68.8Z" transform="translate(-533.212 -68.737)" fill="#2e5245"/>
        </g>
        <g id="Grupo_1207836" data-name="Grupo 1207836" transform="translate(7.33 46.316)">
          <path id="Trazado_1049266" data-name="Trazado 1049266" d="M544.826,163.67c2.934,2.247,28.8,20.388,58.643-13.428C592.623,153.843,564.085,162.755,544.826,163.67Z" transform="translate(-544.548 -143.158)" fill="#477c6c"/>
          <path id="Trazado_1049267" data-name="Trazado 1049267" d="M603.323,146.514l.044-.049s-39.076-22.618-58.966,13.257c0,0,.1.079.278.219C563.939,159.027,592.476,150.114,603.323,146.514Z" transform="translate(-544.401 -139.43)" fill="#2e5245"/>
        </g>
      </g>
      <g id="Grupo_1207840" data-name="Grupo 1207840" transform="translate(93.451 35.975)">
        <g id="Grupo_1207838" data-name="Grupo 1207838" transform="translate(38.09)">
          <path id="Trazado_1049268" data-name="Trazado 1049268" d="M260.711,111.347V95.852H250.068a32.954,32.954,0,0,0-3.721-9.687l7.821-7.821L243.212,67.388l-7.53,7.531a33,33,0,0,0-9.475-4.23V59.635H210.712V70.278A32.947,32.947,0,0,0,201.025,74L193.2,66.177,182.248,77.133l7.531,7.531a33,33,0,0,0-4.23,9.475H174.494v15.495h10.643a32.954,32.954,0,0,0,3.721,9.687l-7.821,7.821L191.993,138.1l7.531-7.531A33,33,0,0,0,209,134.8v11.054h15.495V135.208a32.952,32.952,0,0,0,9.687-3.721L242,139.308l10.956-10.956-7.531-7.531a33,33,0,0,0,4.23-9.475h11.055ZM217.6,119.766a17.023,17.023,0,1,1,17.023-17.023A17.023,17.023,0,0,1,217.6,119.766Z" transform="translate(-174.494 -59.635)" fill="#979cf9"/>
          <circle id="Elipse_11555" data-name="Elipse 11555" cx="29.274" cy="29.274" r="29.274" transform="matrix(0.976, -0.218, 0.218, 0.976, 8.154, 20.914)" fill="none" stroke="#fff" stroke-miterlimit="10" stroke-width="0.984"/>
          <circle id="Elipse_11556" data-name="Elipse 11556" cx="25.006" cy="25.006" r="25.006" transform="matrix(0.974, -0.226, 0.226, 0.974, 13.098, 24.395)" fill="none" stroke="#fff" stroke-miterlimit="10" stroke-width="0.841"/>
        </g>
        <g id="Grupo_1207839" data-name="Grupo 1207839" transform="translate(236.136 148.848)">
          <path id="Trazado_1049269" data-name="Trazado 1049269" d="M562.993,338.537V323.042H552.351a32.952,32.952,0,0,0-3.721-9.687l7.821-7.821-10.956-10.956-7.531,7.53a33,33,0,0,0-9.475-4.23V286.825H512.994v10.643a32.946,32.946,0,0,0-9.687,3.721l-7.821-7.821L484.53,304.324l7.53,7.53a33,33,0,0,0-4.23,9.475H476.777v15.495h10.643a32.951,32.951,0,0,0,3.721,9.687l-7.821,7.821,10.956,10.956,7.53-7.53a33,33,0,0,0,9.475,4.23v11.054h15.495V362.4a32.953,32.953,0,0,0,9.687-3.721l7.821,7.821,10.956-10.956-7.531-7.531a33.006,33.006,0,0,0,4.23-9.476h11.054Zm-43.108,8.419a17.023,17.023,0,1,1,17.023-17.023A17.023,17.023,0,0,1,519.885,346.956Z" transform="translate(-476.777 -286.825)" fill="#979cf9"/>
          <circle id="Elipse_11557" data-name="Elipse 11557" cx="29.274" cy="29.274" r="29.274" transform="translate(13.835 13.835)" fill="none" stroke="#fff" stroke-miterlimit="10" stroke-width="0.984"/>
          <circle id="Elipse_11558" data-name="Elipse 11558" cx="25.006" cy="25.006" r="25.006" transform="translate(18.102 18.102)" fill="none" stroke="#fff" stroke-miterlimit="10" stroke-width="0.841"/>
        </g>
        <path id="Trazado_1049270" data-name="Trazado 1049270" d="M166.025,231.592v-8.927h-6.131a19.006,19.006,0,0,0-2.143-5.581l4.506-4.506-6.312-6.312-4.339,4.339a19,19,0,0,0-5.459-2.437V201.8H137.22v6.131a18.989,18.989,0,0,0-5.581,2.144l-4.506-4.506-6.312,6.312,4.339,4.339a19.014,19.014,0,0,0-2.437,5.459h-6.368v8.927h6.131a19.006,19.006,0,0,0,2.143,5.581l-4.506,4.506L126.436,247l4.339-4.339a19,19,0,0,0,5.459,2.437v6.368h8.927V245.34a18.988,18.988,0,0,0,5.581-2.144l4.506,4.506,6.312-6.312-4.339-4.339a19.022,19.022,0,0,0,2.437-5.459h6.368Zm-24.835,4.85A9.807,9.807,0,1,1,151,226.636,9.807,9.807,0,0,1,141.19,236.442Z" transform="translate(-116.356 -108.658)" fill="#80aecc"/>
        <path id="Trazado_1049271" data-name="Trazado 1049271" d="M634.591,210.23V201.3H628.46a18.99,18.99,0,0,0-2.144-5.581l4.506-4.506-6.312-6.312-4.339,4.339a19,19,0,0,0-5.459-2.437v-6.368h-8.927v6.131a18.987,18.987,0,0,0-5.581,2.144l-4.506-4.506-6.312,6.312,4.339,4.339a19.022,19.022,0,0,0-2.437,5.459h-6.368v8.927h6.131a18.992,18.992,0,0,0,2.144,5.581l-4.506,4.506L595,225.642l4.339-4.339a19,19,0,0,0,5.459,2.437v6.368h8.927v-6.131a18.99,18.99,0,0,0,5.581-2.144l4.506,4.506,6.312-6.312-4.339-4.339a19.014,19.014,0,0,0,2.437-5.459Zm-24.836,4.85a9.807,9.807,0,1,1,9.807-9.807A9.807,9.807,0,0,1,609.755,215.08Z" transform="translate(-277.932 -101.292)" fill="#80aecc"/>
      </g>
      <g id="Grupo_1207864" data-name="Grupo 1207864" transform="translate(148.351 37.543)">
        <g id="Grupo_1207841" data-name="Grupo 1207841" transform="translate(38.524 0)">
          <rect id="Rectángulo_417681" data-name="Rectángulo 417681" width="3.472" height="254.457" transform="translate(34.275 0) rotate(7.741)" fill="#0c143b"/>
          <rect id="Rectángulo_417682" data-name="Rectángulo 417682" width="3.472" height="254.457" transform="translate(60.933 3.624) rotate(7.741)" fill="#0c143b"/>
          <rect id="Rectángulo_417683" data-name="Rectángulo 417683" width="26.903" height="4.437" transform="translate(34.61 10.432) rotate(7.747)" fill="#0c143b"/>
          <rect id="Rectángulo_417684" data-name="Rectángulo 417684" width="26.903" height="4.437" transform="translate(32.469 26.167) rotate(7.747)" fill="#0c143b"/>
          <rect id="Rectángulo_417685" data-name="Rectángulo 417685" width="26.903" height="4.437" transform="translate(30.329 41.902) rotate(7.747)" fill="#0c143b"/>
          <rect id="Rectángulo_417686" data-name="Rectángulo 417686" width="26.903" height="4.437" transform="translate(28.188 57.638) rotate(7.747)" fill="#0c143b"/>
          <rect id="Rectángulo_417687" data-name="Rectángulo 417687" width="26.903" height="4.437" transform="translate(26.047 73.372) rotate(7.747)" fill="#0c143b"/>
          <rect id="Rectángulo_417688" data-name="Rectángulo 417688" width="26.903" height="4.437" transform="translate(23.907 89.108) rotate(7.747)" fill="#0c143b"/>
          <rect id="Rectángulo_417689" data-name="Rectángulo 417689" width="26.903" height="4.437" transform="translate(21.766 104.843) rotate(7.747)" fill="#0c143b"/>
          <rect id="Rectángulo_417690" data-name="Rectángulo 417690" width="26.903" height="4.437" transform="translate(19.625 120.578) rotate(7.747)" fill="#0c143b"/>
          <rect id="Rectángulo_417691" data-name="Rectángulo 417691" width="26.903" height="4.437" transform="translate(17.485 136.313) rotate(7.747)" fill="#0c143b"/>
          <rect id="Rectángulo_417692" data-name="Rectángulo 417692" width="26.903" height="4.437" transform="translate(15.344 152.048) rotate(7.747)" fill="#0c143b"/>
          <rect id="Rectángulo_417693" data-name="Rectángulo 417693" width="26.903" height="4.437" transform="translate(13.204 167.783) rotate(7.747)" fill="#0c143b"/>
          <rect id="Rectángulo_417694" data-name="Rectángulo 417694" width="26.903" height="4.437" transform="translate(11.063 183.519) rotate(7.747)" fill="#0c143b"/>
          <rect id="Rectángulo_417695" data-name="Rectángulo 417695" width="26.903" height="4.437" transform="translate(8.923 199.253) rotate(7.747)" fill="#0c143b"/>
          <rect id="Rectángulo_417696" data-name="Rectángulo 417696" width="26.903" height="4.437" transform="translate(6.781 214.989) rotate(7.747)" fill="#0c143b"/>
          <rect id="Rectángulo_417697" data-name="Rectángulo 417697" width="26.903" height="4.437" transform="translate(4.641 230.724) rotate(7.747)" fill="#0c143b"/>
        </g>
        <g id="Grupo_1207863" data-name="Grupo 1207863" transform="translate(0 61.295)">
          <path id="Trazado_1049272" data-name="Trazado 1049272" d="M216.745,228.067a63.452,63.452,0,0,1,19.863,0S226.83,234.255,216.745,228.067Z" transform="translate(-205.874 -180.31)" fill="#aac5d8"/>
          <path id="Trazado_1049273" data-name="Trazado 1049273" d="M249.364,216.9c5.453-.134,13.948-.436,21.019-1.094,0,0-2.627-17.115-2.627-23.629l3.436.14s8.479,16.358,7.839,27.936A4.482,4.482,0,0,1,276.5,224c-3.358,1.648-11.057,4.169-26.892,4.342a5.74,5.74,0,0,1-5.813-5.724h0A5.715,5.715,0,0,1,249.364,216.9Z" transform="translate(-215.201 -168.201)" fill="#a35757"/>
          <path id="Trazado_1049274" data-name="Trazado 1049274" d="M269.318,215.751c.564,4.219,1.065,7.483,1.065,7.483-7.071.658-15.566.96-21.019,1.094a5.714,5.714,0,0,0-5.57,5.718h0a5.74,5.74,0,0,0,5.813,5.724c15.836-.172,23.534-2.694,26.892-4.342a4.481,4.481,0,0,0,2.532-3.748c.24-4.342-.8-9.356-2.2-13.928A12.9,12.9,0,0,0,269.318,215.751Z" transform="translate(-215.201 -175.632)" fill="#dae6f0"/>
          <path id="Trazado_1049275" data-name="Trazado 1049275" d="M279.431,190.045a3.069,3.069,0,0,1-2.052-3.28c.319-2.5-1.534-4.485-.855-5.537.561-.869,1.83.328,2.345,1.54.377.887.3,2.108.5,1.96a5.867,5.867,0,0,0,1.522-2.151c.261-.97,1.2-5.924,1.215-6.156.1-1.734.955-1.538.955-1.538,1.3.068.826,3.389.706,4.314-.181,1.4-.655,3.691-.655,3.691l.2.081s3.727-6.582,3.924-6.921a.781.781,0,0,1,1-.433c.269.136.549.533.3,1.36a44.832,44.832,0,0,1-2.929,7.106A32.527,32.527,0,0,1,289.4,179.5c.441-.351,1.141-.93,1.588-.461.51.535-.3,1.551-.413,1.717a38.006,38.006,0,0,1-3.75,4.675l.115.244s3.816-.883,4.882-1.221c.1-.033.61-.21.848.2.373.643-.29.955-.422,1.025a31.79,31.79,0,0,1-4.116,1.875,2.221,2.221,0,0,0-1.158.83,7.14,7.14,0,0,1-3.828,2.974A3.45,3.45,0,0,1,279.431,190.045Z" transform="translate(-226.435 -162.236)" fill="#a35757"/>
          <g id="Grupo_1207844" data-name="Grupo 1207844" transform="translate(7.95 27.704)">
            <path id="Trazado_1049276" data-name="Trazado 1049276" d="M218.87,199.783c1.394,1.872,1.8,5.02.246,6.149s-4.469-.187-5.862-2.059-1.266-4.306.285-5.435S217.477,197.911,218.87,199.783Z" transform="translate(-212.287 -197.869)" fill="#874545"/>
            <g id="Grupo_1207843" data-name="Grupo 1207843" transform="translate(2.179 3.008)">
              <g id="Grupo_1207842" data-name="Grupo 1207842">
                <path id="Trazado_1049277" data-name="Trazado 1049277" d="M218.544,204.176a4.35,4.35,0,0,0-.757-.748,4.677,4.677,0,0,0-2.043-.966c-.13-.024-.185.175-.055.2a4.474,4.474,0,0,1,1.976.932,5.083,5.083,0,0,1,.523.484c.048.051.1.1.14.157.011.013.069.086.038.046.079.1.259,0,.178-.1Z" transform="translate(-215.614 -202.46)" fill="#0c143b"/>
              </g>
            </g>
          </g>
          <path id="Trazado_1049278" data-name="Trazado 1049278" d="M225.38,320.726c8.8-.795,16.871-3.344,18.336-7.994L205.405,316.4s2.948,4.6,13.816,4.6c2.043,0,4.121-.09,6.159-.274" transform="translate(-201.963 -209.773)" fill="#2f5356"/>
          <g id="Grupo_1207845" data-name="Grupo 1207845" transform="translate(1.46 97.016)">
            <path id="Trazado_1049279" data-name="Trazado 1049279" d="M226.077,303.662v17.5l-2.94-.057s-2.385,18.427-10,65.968l-8.3-.086s-6.936-73.579,2.487-82.94Z" transform="translate(-202.38 -303.662)" fill="#0c143b"/>
            <path id="Trazado_1049280" data-name="Trazado 1049280" d="M233.255,304.062l1.308,17.061,1.3.026s3.382,27.5,2.342,65.927h9.364s13.527-52.564,2.492-83.413Z" transform="translate(-213.027 -303.662)" fill="#0c143b"/>
          </g>
          <path id="Trazado_1049281" data-name="Trazado 1049281" d="M236.875,228.782c-9.736-3-7.08-12.945-7.08-12.945h-9.673s2.655,9.943-7.08,12.945c-.607.187-1.179.375-1.727.564,7.724,7.644,20.378,5.733,27.256.121,0-.043.01-.087.014-.13Q237.769,229.057,236.875,228.782Z" transform="translate(-204.001 -176.361)" fill="#b26666"/>
          <g id="Grupo_1207846" data-name="Grupo 1207846" transform="translate(16.12 38.85)">
            <path id="Trazado_1049282" data-name="Trazado 1049282" d="M225.073,217.865a12.186,12.186,0,0,0-.317-2.357l4.489-.542v-.084l.348.042.348-.042v.084l4.489.542a13.1,13.1,0,0,0-.308,3.758C233.136,221.255,229.593,224.012,225.073,217.865Z" transform="translate(-224.756 -214.882)" fill="#874545"/>
          </g>
          <path id="Trazado_1049283" data-name="Trazado 1049283" d="M238.822,186.34c.408,4.059.747,12.8-3.075,16.621-5.026,5.019-13.719,2.048-15.837-3.1-1.828-4.439-1.821-12.572,1.375-17.918a10.192,10.192,0,0,1,9.408-4.567C237.036,177.7,238.694,185.062,238.822,186.34Z" transform="translate(-206.54 -163.094)" fill="#b26666"/>
          <g id="Grupo_1207848" data-name="Grupo 1207848" transform="translate(22.864 24.692)">
            <g id="Grupo_1207847" data-name="Grupo 1207847">
              <path id="Trazado_1049284" data-name="Trazado 1049284" d="M236.14,193.371q.087,1.723.174,3.445.065,1.273.129,2.545.026.5.05.993a2.735,2.735,0,0,0,.03.6c.009.027-.01.079.005.1-.079-.127.174-.079-.041-.076a1.567,1.567,0,0,0-.256.05l-1.108.214c-.13.025-.075.224.055.2l1.481-.286a.1.1,0,0,0,.076-.1q-.17-3.363-.341-6.726-.025-.479-.048-.957c-.007-.132-.214-.133-.206,0Z" transform="translate(-235.049 -193.272)" fill="#0c143b"/>
            </g>
          </g>
          <g id="Grupo_1207849" data-name="Grupo 1207849" transform="translate(15.462 31.647)">
            <path id="Trazado_1049285" data-name="Trazado 1049285" d="M228.129,205.776a2.212,2.212,0,1,1-2.188-1.889A2.056,2.056,0,0,1,228.129,205.776Z" transform="translate(-223.752 -203.887)" fill="#874545"/>
          </g>
          <g id="Grupo_1207850" data-name="Grupo 1207850" transform="translate(26.614 31.647)">
            <path id="Trazado_1049286" data-name="Trazado 1049286" d="M245.151,205.776a2.212,2.212,0,1,1-2.188-1.889A2.056,2.056,0,0,1,245.151,205.776Z" transform="translate(-240.774 -203.887)" fill="#874545"/>
          </g>
          <path id="Trazado_1049287" data-name="Trazado 1049287" d="M226.139,196.025c.081.42.884.211,1.887.021s1.827-.288,1.746-.708-.96-.607-1.964-.417S226.058,195.605,226.139,196.025Z" transform="translate(-209.111 -169.123)" fill="#0c143b"/>
          <path id="Trazado_1049288" data-name="Trazado 1049288" d="M240.267,195.107c-.083.419.74.522,1.743.715s1.8.407,1.887-.012-.662-.917-1.664-1.111S240.35,194.688,240.267,195.107Z" transform="translate(-213.983 -169.045)" fill="#0c143b"/>
          <path id="Trazado_1049289" data-name="Trazado 1049289" d="M239.192,241.389a21.61,21.61,0,0,0-3.074-10.071,31.939,31.939,0,0,1-5.232-2.842,27.346,27.346,0,0,1-19.863,0c-.753.149-7.419,4.141-7.775,7.626-.188,1.84-.244,3.7-.384,5.287-.373,4.225-2.712,39.344-2.712,39.344,5.641,3.657,13.365,4.9,20.437,5.108h.879c7.072-.211,14.8-1.451,20.437-5.108C241.9,280.732,239.565,245.615,239.192,241.389Z" transform="translate(-200.152 -180.719)" fill="#dae6f0"/>
          <path id="Trazado_1049290" data-name="Trazado 1049290" d="M201.018,286.869c-.482,7.143-.866,12.913-.866,12.913,5.641,3.657,13.365,4.9,20.437,5.108h.879c7.072-.211,14.8-1.451,20.437-5.108,0,0-.5-7.546-1.079-16.063A32.692,32.692,0,0,1,201.018,286.869Z" transform="translate(-200.152 -199.769)" fill="#aac5d8"/>
          <path id="Trazado_1049291" data-name="Trazado 1049291" d="M229.368,200.665c0,.64.312,1.159.7,1.159s.7-.519.7-1.159-.312-1.159-.7-1.159S229.368,200.025,229.368,200.665Z" transform="translate(-210.227 -170.729)" fill="#0c143b"/>
          <path id="Trazado_1049292" data-name="Trazado 1049292" d="M240.261,200.665c0,.64.312,1.159.7,1.159s.7-.519.7-1.159-.312-1.159-.7-1.159S240.261,200.025,240.261,200.665Z" transform="translate(-213.983 -170.729)" fill="#0c143b"/>
          <g id="Grupo_1207851" data-name="Grupo 1207851" transform="translate(25.633 167.493)">
            <path id="Trazado_1049293" data-name="Trazado 1049293" d="M254.175,411.233l-3.4,19.453s8.615,1.863,12.345,4.881a1.32,1.32,0,0,1-.807,2.344c-6.062.184-21.331.526-21.585-.683-.317-1.509-1.454-26-1.454-26Z" transform="translate(-239.276 -411.233)" fill="#28114f"/>
          </g>
          <g id="Grupo_1207852" data-name="Grupo 1207852" transform="translate(1.616 167.493)">
            <path id="Trazado_1049294" data-name="Trazado 1049294" d="M217.517,411.233l-3.4,19.453s8.615,1.863,12.345,4.881a1.32,1.32,0,0,1-.807,2.344c-6.062.184-21.331.526-21.585-.683-.317-1.509-1.454-26-1.454-26Z" transform="translate(-202.618 -411.233)" fill="#28114f"/>
          </g>
          <ellipse id="Elipse_11559" data-name="Elipse 11559" cx="0.44" cy="0.184" rx="0.44" ry="0.184" transform="translate(23.158 37.981)" fill="#874545"/>
          <g id="Grupo_1207854" data-name="Grupo 1207854" transform="translate(21.202 34.624)">
            <g id="Grupo_1207853" data-name="Grupo 1207853">
              <path id="Trazado_1049295" data-name="Trazado 1049295" d="M232.519,208.559a2.182,2.182,0,0,0,1.344,1.194,2.849,2.849,0,0,0,3-.611,1.648,1.648,0,0,0,.345-.584.1.1,0,0,0-.2-.055,1.78,1.78,0,0,1-1.118,1.05,2.745,2.745,0,0,1-2.849-.57,1.774,1.774,0,0,1-.319-.48c-.046-.124-.245-.071-.2.055Z" transform="translate(-232.513 -208.432)" fill="#0c143b"/>
            </g>
          </g>
          <path id="Trazado_1049296" data-name="Trazado 1049296" d="M214.971,189.4s1.694-.649,2.159,3.32c0,0,3.367,1.137,4.249-9.588,0,0,1.386,2,2.457,2.043s0-4.55,0-4.55,3.987-4.411,9.958,1.068c0,0,1.984,2.1,3.336,2.262,2.8.333,3.683-10.994-8.587-11.13s-11.688,9.889-11.688,9.889S212.441,183.536,214.971,189.4Z" transform="translate(-204.992 -161.529)" fill="#0c143b"/>
          <g id="Grupo_1207859" data-name="Grupo 1207859" transform="translate(28.704 0)">
            <g id="Grupo_1207858" data-name="Grupo 1207858">
              <g id="Grupo_1207855" data-name="Grupo 1207855" clip-path="url(#clip-path-5)">
                <path id="Trazado_1049297" data-name="Trazado 1049297" d="M279.79,181.7a18.684,18.684,0,1,0-33.52,1.541,18.15,18.15,0,0,1,1.986,11.858l-.293,1.669,8.272,3.592L257.254,199a18.287,18.287,0,0,1,10.071-6.658A18.646,18.646,0,0,0,279.79,181.7Z" transform="translate(-243.964 -155.584)" fill="#e8ac29"/>
              </g>
              <g id="Grupo_1207856" data-name="Grupo 1207856" clip-path="url(#clip-path-5)">
                <path id="Trazado_1049299" data-name="Trazado 1049299" d="M279.944,165.546a18.683,18.683,0,0,0-33.6,1.116c-.058.131-.113.262-.168.394C251.878,174.527,270.957,182.811,279.944,165.546Z" transform="translate(-244.727 -155.584)" fill="#f0ca6c"/>
              </g>
              <g id="Grupo_1207857" data-name="Grupo 1207857" clip-path="url(#clip-path-5)">
                <path id="Trazado_1049301" data-name="Trazado 1049301" d="M255.053,212.96s5.317-21.586,12.241-24.235,5.007,10.293-6.89,5.127l-.208-.09c-11.9-5.165-3.749-15.4-.958-8.534s-9.351,25.491-9.351,25.491" transform="translate(-246.007 -165.014)" fill="none" stroke="#fff" stroke-miterlimit="10" stroke-width="0.694"/>
              </g>
            </g>
            <path id="Trazado_1049303" data-name="Trazado 1049303" d="M256.118,224.854l-8.228-3.573a1.243,1.243,0,0,1-.645-1.635l.086-.2a1.243,1.243,0,0,1,1.635-.645l8.228,3.573a1.243,1.243,0,0,1,.645,1.635l-.086.2A1.243,1.243,0,0,1,256.118,224.854Z" transform="translate(-245.06 -177.348)" fill="#0c143b"/>
            <path id="Trazado_1049304" data-name="Trazado 1049304" d="M253.167,228.817l-3.987-1.732a1.351,1.351,0,0,1-.7-1.777h0a1.351,1.351,0,0,1,1.777-.7l3.987,1.732a1.351,1.351,0,0,1,.7,1.777h0A1.352,1.352,0,0,1,253.167,228.817Z" transform="translate(-245.482 -179.346)" fill="#0c143b"/>
            <path id="Trazado_1049305" data-name="Trazado 1049305" d="M261.351,160.969c-3.46,1.833-4.926,5.847-3.273,8.965s5.8,4.16,9.256,2.327,4.926-5.847,3.273-8.965S264.81,159.136,261.351,160.969Z" transform="translate(-248.597 -157.129)" fill="#f5dea9"/>
          </g>
          <g id="Grupo_1207862" data-name="Grupo 1207862" transform="translate(2.342 19.411)">
            <path id="Trazado_1049306" data-name="Trazado 1049306" d="M210.877,222.248c5.279,1.372,13.529,3.42,20.508,4.734,0,0,2.789-16.833,4.582-23.1l3.766.833s2.545,17.962-1.257,28.918a4.481,4.481,0,0,1-3.465,2.906c-3.682.66-11.777.965-27.049-3.229a5.74,5.74,0,0,1-4.013-7.1h0A5.713,5.713,0,0,1,210.877,222.248Z" transform="translate(-203.727 -191.651)" fill="#b26666"/>
            <path id="Trazado_1049307" data-name="Trazado 1049307" d="M250.2,200.381a3.069,3.069,0,0,1-2.052-3.28c.319-2.5-1.534-4.485-.855-5.537.561-.869,1.83.328,2.345,1.54.377.887.3,2.108.5,1.96a5.865,5.865,0,0,0,1.522-2.152c.261-.97,1.2-5.924,1.214-6.156.1-1.734.955-1.538.955-1.538,1.3.068.826,3.389.706,4.314-.181,1.4-.654,3.691-.654,3.691l.2.081s3.727-6.582,3.924-6.921a.781.781,0,0,1,1-.433c.269.136.549.533.3,1.36a44.768,44.768,0,0,1-2.929,7.106,32.5,32.5,0,0,1,3.8-4.582c.441-.351,1.141-.93,1.587-.461.51.535-.3,1.551-.413,1.717a38.021,38.021,0,0,1-3.75,4.674l.115.244s3.816-.883,4.882-1.221c.1-.033.61-.21.848.2.373.643-.29.955-.422,1.025a31.786,31.786,0,0,1-4.116,1.875,2.224,2.224,0,0,0-1.158.83,7.14,7.14,0,0,1-3.828,2.974A3.448,3.448,0,0,1,250.2,200.381Z" transform="translate(-218.698 -185.211)" fill="#b26666"/>
            <path id="Trazado_1049308" data-name="Trazado 1049308" d="M232.368,230.371c-.588,3.308-.983,5.693-.983,5.693-6.979-1.314-15.229-3.363-20.508-4.734a5.714,5.714,0,0,0-6.928,3.964h0a5.74,5.74,0,0,0,4.013,7.1c15.271,4.194,23.367,3.888,27.049,3.229a4.481,4.481,0,0,0,3.465-2.906,42.152,42.152,0,0,0,1.925-10.742A12.59,12.59,0,0,0,232.368,230.371Z" transform="translate(-203.727 -200.733)" fill="#dae6f0"/>
            <g id="Grupo_1207861" data-name="Grupo 1207861" transform="translate(3.996 29.265)">
              <g id="Grupo_1207860" data-name="Grupo 1207860">
                <path id="Trazado_1049309" data-name="Trazado 1049309" d="M210,242.514a94.38,94.38,0,0,0,19.411,3.547,39.409,39.409,0,0,0,5.57-.036c1.87-.159,3.8-.407,5.061-1.97,1.159-1.434,1.486-3.623,1.84-5.379a52.767,52.767,0,0,0,.867-6.818.24.24,0,0,0-.122-.212,13.177,13.177,0,0,0-8.221-1.631.238.238,0,0,0-.172.172q-.505,2.844-.983,5.693l.3-.172c-6.894-1.3-13.719-2.972-20.508-4.734a.246.246,0,0,0-.13.474c6.789,1.762,13.614,3.43,20.508,4.734a.248.248,0,0,0,.3-.172q.322-1.945.665-3.887c.1-.55.037-1.5.639-1.708a5.052,5.052,0,0,1,1.684-.05,12.477,12.477,0,0,1,3.7.814q.453.17.895.367a2.789,2.789,0,0,1,.8.386c.295.388.04,1.294,0,1.757-.132,1.384-.312,2.763-.562,4.13a34.316,34.316,0,0,1-.786,3.391,5.935,5.935,0,0,1-1.606,3.062c-1.579,1.374-4.258,1.326-6.249,1.368a54.2,54.2,0,0,1-8.28-.535,110.337,110.337,0,0,1-14.5-3.066.247.247,0,0,0-.13.476Z" transform="translate(-209.826 -229.878)" fill="#aac5d8"/>
              </g>
            </g>
          </g>
        </g>
      </g>
      <g id="Grupo_1207871" data-name="Grupo 1207871" transform="translate(100.69 29.948)">
        <g id="Grupo_1207865" data-name="Grupo 1207865" transform="translate(200.522)">
          <path id="Trazado_1049310" data-name="Trazado 1049310" d="M441.812,62.489h0a1.626,1.626,0,0,0,1.626-1.626v-8.8a1.626,1.626,0,0,0-1.626-1.626h0a1.626,1.626,0,0,0-1.626,1.626v8.8A1.626,1.626,0,0,0,441.812,62.489Z" transform="translate(-435.785 -50.435)" fill="#0c143b"/>
          <path id="Trazado_1049311" data-name="Trazado 1049311" d="M433.468,58.779h0a1.626,1.626,0,0,0,1.626,1.626h8.8a1.626,1.626,0,0,0,1.626-1.626h0a1.626,1.626,0,0,0-1.626-1.626h-8.8A1.626,1.626,0,0,0,433.468,58.779Z" transform="translate(-433.468 -52.752)" fill="#0c143b"/>
        </g>
        <g id="Grupo_1207866" data-name="Grupo 1207866" transform="translate(315.832 173.35)">
          <path id="Trazado_1049312" data-name="Trazado 1049312" d="M617.812,327.078h0a1.626,1.626,0,0,0,1.626-1.626v-8.8a1.626,1.626,0,0,0-1.626-1.626h0a1.626,1.626,0,0,0-1.626,1.626v8.8A1.626,1.626,0,0,0,617.812,327.078Z" transform="translate(-611.785 -315.024)" fill="#0c143b"/>
          <path id="Trazado_1049313" data-name="Trazado 1049313" d="M609.468,323.368h0a1.626,1.626,0,0,0,1.626,1.626h8.8a1.626,1.626,0,0,0,1.626-1.626h0a1.626,1.626,0,0,0-1.626-1.626h-8.8A1.626,1.626,0,0,0,609.468,323.368Z" transform="translate(-609.468 -317.341)" fill="#0c143b"/>
        </g>
        <g id="Grupo_1207867" data-name="Grupo 1207867" transform="translate(16.603 77.128)">
          <path id="Trazado_1049314" data-name="Trazado 1049314" d="M161.092,180.212h0a1.626,1.626,0,0,0,1.626-1.626v-8.8a1.626,1.626,0,0,0-1.626-1.626h0a1.626,1.626,0,0,0-1.626,1.626v8.8A1.626,1.626,0,0,0,161.092,180.212Z" transform="translate(-155.065 -168.158)" fill="#0c143b"/>
          <path id="Trazado_1049315" data-name="Trazado 1049315" d="M152.748,176.5h0a1.626,1.626,0,0,0,1.626,1.626h8.8A1.626,1.626,0,0,0,164.8,176.5h0a1.626,1.626,0,0,0-1.626-1.626h-8.8A1.627,1.627,0,0,0,152.748,176.5Z" transform="translate(-152.748 -170.474)" fill="#0c143b"/>
        </g>
        <g id="Grupo_1207868" data-name="Grupo 1207868" transform="translate(0 82.625)">
          <path id="Trazado_1049316" data-name="Trazado 1049316" d="M130.391,180.86h0a.582.582,0,0,0,.582-.582V177.13a.582.582,0,0,0-.582-.582h0a.582.582,0,0,0-.582.582v3.149A.582.582,0,0,0,130.391,180.86Z" transform="translate(-128.235 -176.548)" fill="#0c143b"/>
          <path id="Trazado_1049317" data-name="Trazado 1049317" d="M127.406,179.533h0a.582.582,0,0,0,.582.582h3.149a.582.582,0,0,0,.582-.582h0a.582.582,0,0,0-.582-.582h-3.149A.583.583,0,0,0,127.406,179.533Z" transform="translate(-127.406 -177.377)" fill="#0c143b"/>
        </g>
        <g id="Grupo_1207869" data-name="Grupo 1207869" transform="translate(223.244 13.304)">
          <path id="Trazado_1049318" data-name="Trazado 1049318" d="M471.134,75.053h0a.582.582,0,0,0,.582-.582V71.323a.582.582,0,0,0-.582-.582h0a.582.582,0,0,0-.582.582v3.149A.581.581,0,0,0,471.134,75.053Z" transform="translate(-468.978 -70.741)" fill="#0c143b"/>
          <path id="Trazado_1049319" data-name="Trazado 1049319" d="M468.149,73.726h0a.582.582,0,0,0,.582.582h3.149a.582.582,0,0,0,.582-.582h0a.582.582,0,0,0-.582-.582h-3.149A.582.582,0,0,0,468.149,73.726Z" transform="translate(-468.149 -71.57)" fill="#0c143b"/>
        </g>
        <g id="Grupo_1207870" data-name="Grupo 1207870" transform="translate(299.749 141.016)">
          <path id="Trazado_1049320" data-name="Trazado 1049320" d="M590.89,274.3h0a1.163,1.163,0,0,0,1.164-1.164v-6.3a1.164,1.164,0,0,0-1.164-1.164h0a1.163,1.163,0,0,0-1.164,1.164v6.3A1.163,1.163,0,0,0,590.89,274.3Z" transform="translate(-586.577 -265.672)" fill="#0c143b"/>
          <path id="Trazado_1049321" data-name="Trazado 1049321" d="M584.92,271.642h0a1.163,1.163,0,0,0,1.164,1.164h6.3a1.163,1.163,0,0,0,1.164-1.164h0a1.163,1.163,0,0,0-1.164-1.164h-6.3A1.164,1.164,0,0,0,584.92,271.642Z" transform="translate(-584.92 -267.329)" fill="#0c143b"/>
        </g>
      </g>
    </g>
  </g>
</svg>
