<svg xmlns="http://www.w3.org/2000/svg" xmlns:xlink="http://www.w3.org/1999/xlink" width="113" height="113" viewBox="0 0 113 113">
  <defs>
    <filter id="Trazado_982547" x="0" y="0" width="113" height="113" filterUnits="userSpaceOnUse">
      <feOffset dy="3" input="SourceAlpha"/>
      <feGaussianBlur stdDeviation="3" result="blur"/>
      <feFlood flood-opacity="0.161"/>
      <feComposite operator="in" in2="blur"/>
      <feComposite in="SourceGraphic"/>
    </filter>
  </defs>
  <g id="Grupo_1208941" data-name="Grupo 1208941" transform="translate(-612.542 -10719.393)">
    <g id="Grupo_1207798" data-name="Grupo 1207798" transform="translate(621.542 10725.393)">
      <g id="Grupo_1200358" data-name="Grupo 1200358">
        <g id="Grupo_1185978" data-name="Grupo 1185978">
          <g id="Grupo_1180760" data-name="Grupo 1180760">
            <g id="Grupo_1174888" data-name="Grupo 1174888">
              <g id="Grupo_1166845" data-name="Grupo 1166845">
                <g id="Grupo_1166720" data-name="Grupo 1166720">
                  <g id="Grupo_1164305" data-name="Grupo 1164305">
                    <g id="Grupo_1163948" data-name="Grupo 1163948">
                      <g id="Grupo_1158168" data-name="Grupo 1158168">
                        <g id="Grupo_1152576" data-name="Grupo 1152576">
                          <g id="Grupo_1148633" data-name="Grupo 1148633">
                            <g id="Grupo_1148525" data-name="Grupo 1148525">
                              <g transform="matrix(1, 0, 0, 1, -9, -6)" filter="url(#Trazado_982547)">
                                <g id="Trazado_982547-2" data-name="Trazado 982547" transform="translate(9 6)" fill="#fbfbf9">
                                  <path d="M 47.5 93.5 C 41.28937149047852 93.5 35.26533508300781 92.28397369384766 29.59518623352051 89.88570404052734 C 24.11771965026855 87.56893157958984 19.19813346862793 84.25196075439453 14.97309303283691 80.02691650390625 C 10.74804019927979 75.80186462402344 7.431066513061523 70.88229370117188 5.114293098449707 65.40481567382812 C 2.716026782989502 59.73468017578125 1.5 53.71062850952148 1.5 47.5 C 1.5 41.28937149047852 2.716026782989502 35.26533508300781 5.114293098449707 29.59518623352051 C 7.431066513061523 24.11771965026855 10.74804019927979 19.19813346862793 14.97309303283691 14.97309303283691 C 19.19813346862793 10.74804019927979 24.11771965026855 7.431066513061523 29.59518623352051 5.114293098449707 C 35.26533508300781 2.716026782989502 41.28937149047852 1.5 47.5 1.5 C 53.71062850952148 1.5 59.73468017578125 2.716026782989502 65.40481567382812 5.114293098449707 C 70.88229370117188 7.431066513061523 75.80186462402344 10.74804019927979 80.02691650390625 14.97309303283691 C 84.25196075439453 19.19813346862793 87.56893157958984 24.11771965026855 89.88570404052734 29.59518623352051 C 92.28397369384766 35.26533508300781 93.5 41.28937149047852 93.5 47.5 C 93.5 53.71062850952148 92.28397369384766 59.73468017578125 89.88570404052734 65.40481567382812 C 87.56893157958984 70.88229370117188 84.25196075439453 75.80186462402344 80.02691650390625 80.02691650390625 C 75.80186462402344 84.25196075439453 70.88229370117188 87.56893157958984 65.40481567382812 89.88570404052734 C 59.73468017578125 92.28397369384766 53.71062850952148 93.5 47.5 93.5 Z" stroke="none"/>
                                  <path d="M 47.5 3 C 41.49121475219727 3 35.66376876831055 4.176155090332031 30.17950439453125 6.495796203613281 C 24.88084411621094 8.736953735351562 20.12152099609375 11.94598388671875 16.03375244140625 16.03375244140625 C 11.94598388671875 20.12152099609375 8.736953735351562 24.88084411621094 6.495796203613281 30.17950439453125 C 4.176155090332031 35.66376876831055 3 41.49121475219727 3 47.5 C 3 53.50878524780273 4.176155090332031 59.33623123168945 6.495796203613281 64.82049560546875 C 8.736953735351562 70.11915588378906 11.94598388671875 74.87847900390625 16.03375244140625 78.96624755859375 C 20.12152099609375 83.05401611328125 24.88084411621094 86.26304626464844 30.17950439453125 88.50419616699219 C 35.66376876831055 90.82384490966797 41.49121475219727 92 47.5 92 C 53.50878524780273 92 59.33623123168945 90.82384490966797 64.82049560546875 88.50419616699219 C 70.11915588378906 86.26304626464844 74.87847900390625 83.05401611328125 78.96624755859375 78.96624755859375 C 83.05401611328125 74.87847900390625 86.26304626464844 70.11915588378906 88.50419616699219 64.82049560546875 C 90.82384490966797 59.33623123168945 92 53.50878524780273 92 47.5 C 92 41.49121475219727 90.82384490966797 35.66376876831055 88.50419616699219 30.17950439453125 C 86.26304626464844 24.88084411621094 83.05401611328125 20.12152099609375 78.96624755859375 16.03375244140625 C 74.87847900390625 11.94598388671875 70.11915588378906 8.736953735351562 64.82049560546875 6.495796203613281 C 59.33623123168945 4.176155090332031 53.50878524780273 3 47.5 3 M 47.5 0 C 73.7335205078125 0 95 21.2664794921875 95 47.5 C 95 73.7335205078125 73.7335205078125 95 47.5 95 C 21.2664794921875 95 0 73.7335205078125 0 47.5 C 0 21.2664794921875 21.2664794921875 0 47.5 0 Z" stroke="none" fill="#7b776f"/>
                                </g>
                              </g>
                            </g>
                          </g>
                        </g>
                      </g>
                    </g>
                  </g>
                </g>
              </g>
            </g>
          </g>
        </g>
      </g>
    </g>
    <g id="desarrollo_2_" data-name="desarrollo (2)" transform="translate(630.445 10732.834)">
      <g id="Grupo_1208939" data-name="Grupo 1208939" transform="translate(1.131 2.85)">
        <path id="Trazado_1051063" data-name="Trazado 1051063" d="M111.485,19.683,99.164,24.059a2.974,2.974,0,0,0-.934,5.066l2.352,2L92.7,40.377,80.62,29.189a3.448,3.448,0,0,0-5.245.668L62.967,49.193,52.162,39.3a3.448,3.448,0,0,0-4.656,5.087L61.331,57.043a3.448,3.448,0,0,0,5.23-.681L78.955,37.046l11.7,10.832a3.448,3.448,0,0,0,4.967-.293L105.83,35.6l2.352,2.005a2.974,2.974,0,0,0,4.854-1.725l2.369-12.859a2.974,2.974,0,0,0-3.921-3.341Z" transform="translate(-40.523 -17.956)" fill="#b3e59f"/>
        <g id="Grupo_1208937" data-name="Grupo 1208937" transform="translate(0 36.949)">
          <path id="Trazado_1051064" data-name="Trazado 1051064" d="M82.433,254.281a37.467,37.467,0,0,1-74.934,0Z" transform="translate(-7.499 -254.281)" fill="#80b4fb"/>
          <path id="Trazado_1051065" data-name="Trazado 1051065" d="M54.1,290.625A37.5,37.5,0,0,1,7.5,254.281H25.759A37.475,37.475,0,0,0,54.1,290.625Z" transform="translate(-7.498 -254.281)" fill="#61a2f9"/>
        </g>
        <g id="Grupo_1208938" data-name="Grupo 1208938" transform="translate(14.31 0)">
          <circle id="Elipse_11606" data-name="Elipse 11606" cx="11.508" cy="11.508" r="11.508" transform="translate(0 0)" fill="#f6e266"/>
          <path id="Trazado_1051066" data-name="Trazado 1051066" d="M116.709,31.893a11.508,11.508,0,1,1,0-22.335,11.512,11.512,0,0,0,0,22.335Z" transform="translate(-102.407 -9.217)" fill="#ffd064"/>
        </g>
      </g>
      <g id="Grupo_1208940" data-name="Grupo 1208940" transform="translate(0 1.72)">
        <path id="Trazado_1051067" data-name="Trazado 1051067" d="M77.195,39.8a1.131,1.131,0,0,0-1.131-1.131H30.172l9.613-14.981L50.49,33.6a4.579,4.579,0,0,0,6.6-.39L61.867,27.6a1.131,1.131,0,0,0-1.721-1.467l-4.781,5.609a2.317,2.317,0,0,1-3.339.2L40.331,21.11a1.131,1.131,0,0,0-1.72.219L27.484,38.668H20.043L8.877,28.451a2.317,2.317,0,0,1,3.129-3.418l10.8,9.889a1.131,1.131,0,0,0,1.715-.223l5.131-8a12.658,12.658,0,0,0,9.929-12.3,2.31,2.31,0,0,1,.873.509L52.54,26.1a1.131,1.131,0,0,0,.768.3l.067,0a1.131,1.131,0,0,0,.794-.4l7.881-9.247a1.131,1.131,0,0,0-.127-1.594l-2.352-2.005a1.844,1.844,0,0,1,.58-3.14L72.471,5.643A1.844,1.844,0,0,1,74.9,7.715L72.532,20.574a1.843,1.843,0,0,1-3.009,1.067l-2.352-2a1.131,1.131,0,0,0-1.594.127l-2.5,2.936a1.131,1.131,0,1,0,1.721,1.467l1.769-2.076,1.491,1.27a4.1,4.1,0,0,0,6.7-2.379L77.125,8.124a4.105,4.105,0,0,0-5.411-4.613L59.393,7.888A4.105,4.105,0,0,0,58.1,14.88l1.492,1.272-6.383,7.489L42,13.254a4.562,4.562,0,0,0-2.622-1.194,12.637,12.637,0,1,0-12.59,14.933l-3.435,5.354-9.815-8.983A4.579,4.579,0,1,0,7.351,30.12l9.341,8.548H1.131A1.131,1.131,0,0,0,0,39.8a38.553,38.553,0,0,0,16.358,31.55,1.131,1.131,0,1,0,1.3-1.847,36.421,36.421,0,0,1-4.4-3.663,36.135,36.135,0,0,1,9.214-6.529A48.64,48.64,0,0,0,25.2,66.771a25.73,25.73,0,0,0,6.08,8.62,36.186,36.186,0,0,1-9.9-3.585A1.131,1.131,0,0,0,20.309,73.8a38.654,38.654,0,0,0,18.267,4.6h.05A38.6,38.6,0,0,0,77.195,39.8ZM16.571,14.359A10.377,10.377,0,1,1,26.948,24.736,10.389,10.389,0,0,1,16.571,14.359ZM65.507,64.217a38.391,38.391,0,0,0-10.214-7.141,74.517,74.517,0,0,0,1.923-16.147h17.7A36.051,36.051,0,0,1,65.507,64.217ZM22.241,40.929H54.954a72.548,72.548,0,0,1-1.763,15.213,38.715,38.715,0,0,0-29.188,0A72.535,72.535,0,0,1,22.241,40.929ZM11.694,64.211A36.129,36.129,0,0,1,2.279,40.929h17.7A74.52,74.52,0,0,0,21.9,57.077,38.389,38.389,0,0,0,11.694,64.211Zm15.556,1.6a46.81,46.81,0,0,1-2.688-7.453,36.432,36.432,0,0,1,28.071,0,46.79,46.79,0,0,1-2.688,7.453c-3.1,6.643-7.122,10.306-11.323,10.321h-.043c-4.2-.011-8.225-3.675-11.328-10.321Zm24.743.957a48.64,48.64,0,0,0,2.722-7.462,36.148,36.148,0,0,1,9.217,6.532A36.061,36.061,0,0,1,45.9,75.4,25.7,25.7,0,0,0,51.994,66.77Z" transform="translate(0 -1.72)"/>
        <path id="Trazado_1051068" data-name="Trazado 1051068" d="M155.672,44.507v-.719a4.412,4.412,0,0,0,3.166-3.5,3.886,3.886,0,0,0-2.641-4.4,11.7,11.7,0,0,1-2.979-1.386,1.048,1.048,0,0,1-.253-1.013,1.422,1.422,0,0,1,.943-1.124,2.47,2.47,0,0,1,2.267.361,1.131,1.131,0,1,0,1.447-1.738,4.638,4.638,0,0,0-1.948-.908v-.542a1.131,1.131,0,1,0-2.262,0v.619c-.052.014-.1.028-.156.043a3.663,3.663,0,0,0-2.513,2.871,3.261,3.261,0,0,0,1.08,3.211,12.625,12.625,0,0,0,3.621,1.739,1.612,1.612,0,0,1,1.165,1.89,2.09,2.09,0,0,1-2.074,1.763,3.406,3.406,0,0,1-2.451-.644,1.131,1.131,0,0,0-1.238,1.892,5.27,5.27,0,0,0,2.566.972v.611a1.131,1.131,0,1,0,2.262,0Z" transform="translate(-127.667 -24.383)"/>
      </g>
    </g>
  </g>
</svg>
