<svg xmlns="http://www.w3.org/2000/svg" xmlns:xlink="http://www.w3.org/1999/xlink" width="295" height="327.052" viewBox="0 0 295 327.052">
  <defs>
    <clipPath id="clip-path">
      <rect id="Rect치ngulo_417967" data-name="Rect치ngulo 417967" width="295" height="326" transform="translate(1124.542 11096)" fill="#fff" stroke="#707070" stroke-width="1"/>
    </clipPath>
  </defs>
  <g id="Grupo_1208997" data-name="Grupo 1208997" transform="translate(-1124.542 -11096)">
    <g id="Enmascarar_grupo_1098886" data-name="Enmascarar grupo 1098886" clip-path="url(#clip-path)">
      <g id="Grupo_1201914" data-name="Grupo 1201914" transform="translate(939.554 8336.94)">
        <rect id="Rect치ngulo_416878" data-name="Rect치ngulo 416878" width="241" height="300.452" rx="65" transform="translate(207 2785)" fill="#86b60c"/>
      </g>
    </g>
    <g id="Grupo_1208996" data-name="Grupo 1208996" transform="translate(908.176 10982.977)">
      <g id="Grupo_1208950" data-name="Grupo 1208950" transform="translate(343.645 118.408)">
        <path id="Trazado_1051069" data-name="Trazado 1051069" d="M1383.821,157.848c-.752,3.514-4.461,3.5-7.941,2.565a7.4,7.4,0,0,1-.171,7.214c-2.3,3.718-7.349,3.4-10.422.995-4-3.122-6.29-8.8-7.919-13.5a49.243,49.243,0,0,1-2.607-16.792,1.646,1.646,0,0,1,.944-1.553,1.693,1.693,0,0,1-.612-2.074c1.963-5.479,6.451-10.136,12.391-10.641a12.307,12.307,0,0,1,12.5,7.643c2.108,5.755-.464,12.6-4.812,16.55a15.124,15.124,0,0,1-3,2.127c2.679.973,5.359,1.951,8.013,2.984C1382.126,154.127,1384.363,155.293,1383.821,157.848Z" transform="translate(-1272.604 -123.061)" fill="#964b38"/>
        <path id="Trazado_1051070" data-name="Trazado 1051070" d="M1021.9,236.1a1.958,1.958,0,0,1-3.19.595,194,194,0,0,1-106.583,13.879,2.009,2.009,0,0,1-1.61-2.234,1.832,1.832,0,0,1-1.185-.8c-7.372-11.2-5.4-20.455.02-32.63,2.04-4.594,1.752-8.9.465-13.763-2.337-8.815-3.485-17.024-2.322-26.177,1.141-8.944,3.673-17.6,6.275-26.182a1.665,1.665,0,0,1,1.449-1.248,2.231,2.231,0,0,1,.171-.549A51.259,51.259,0,0,1,949.7,119.5a1.824,1.824,0,0,1,.47-.04,1.69,1.69,0,0,1,.316-.061c10.085-.811,20.788-1.616,30.3,2.649,6.186,2.777,10.85,6.912,13.559,13.6a12.735,12.735,0,0,1,3.886,7.3,19.7,19.7,0,0,1,.021,3.652c6.519,13.916,3.55,30.7,12.341,43.855,4.768,7.138,10.619,13.21,12.9,21.754A37.255,37.255,0,0,1,1021.9,236.1Z" transform="translate(-904.514 -118.753)" fill="#964b38"/>
        <g id="Grupo_1208942" data-name="Grupo 1208942" transform="translate(13.981 80.528)">
          <path id="Trazado_1051071" data-name="Trazado 1051071" d="M982.388,595.5a.685.685,0,0,1-.66-.5c-1.465-5.332.088-10.628,1.589-15.75l.343-1.174c1.968-6.8,2.341-11.928,1.251-17.155a.685.685,0,1,1,1.341-.28c1.14,5.461.758,10.789-1.275,17.816l-.345,1.179c-1.448,4.938-2.944,10.044-1.583,15a.686.686,0,0,1-.661.867Z" transform="translate(-981.139 -560.093)" fill="#4f190c"/>
        </g>
        <g id="Grupo_1208943" data-name="Grupo 1208943" transform="translate(84.588 66.649)">
          <path id="Trazado_1051072" data-name="Trazado 1051072" d="M1386.87,526.529l-.058,0a.685.685,0,0,1-.626-.74c.845-10.129-3.922-16.75-8.968-23.761-3.664-5.091-7.454-10.355-9.1-17.152a.685.685,0,1,1,1.332-.322c1.581,6.537,5.29,11.69,8.878,16.674,4.97,6.9,10.109,14.043,9.221,24.676A.683.683,0,0,1,1386.87,526.529Z" transform="translate(-1368.102 -484.027)" fill="#4f190c"/>
        </g>
        <g id="Grupo_1208944" data-name="Grupo 1208944" transform="translate(73.936 62.533)">
          <path id="Trazado_1051073" data-name="Trazado 1051073" d="M1323.935,491.294a.684.684,0,0,1-.511-.229,57.627,57.627,0,0,1-13.689-28.8.685.685,0,1,1,1.353-.22,56.233,56.233,0,0,0,13.359,28.11.685.685,0,0,1-.512,1.142Z" transform="translate(-1309.725 -461.466)" fill="#4f190c"/>
        </g>
        <g id="Grupo_1208945" data-name="Grupo 1208945" transform="translate(83.923 8.381)">
          <path id="Trazado_1051074" data-name="Trazado 1051074" d="M1369.778,172.977a.685.685,0,0,1-.645-.453,16.774,16.774,0,0,0-4.452-6.647.686.686,0,0,1,.926-1.011,18.148,18.148,0,0,1,4.815,7.193.685.685,0,0,1-.412.877A.676.676,0,0,1,1369.778,172.977Z" transform="translate(-1364.459 -164.686)" fill="#4f190c"/>
        </g>
        <g id="Grupo_1208946" data-name="Grupo 1208946" transform="translate(92.211 8.184)">
          <path id="Trazado_1051075" data-name="Trazado 1051075" d="M1410.568,174.665a.685.685,0,0,1-.45-1.2,13.764,13.764,0,0,0,4.631-9.226.686.686,0,0,1,1.367.11,15.15,15.15,0,0,1-5.1,10.151A.681.681,0,0,1,1410.568,174.665Z" transform="translate(-1409.882 -163.605)" fill="#4f190c"/>
        </g>
        <g id="Grupo_1208947" data-name="Grupo 1208947" transform="translate(93.377 27.429)">
          <path id="Trazado_1051076" data-name="Trazado 1051076" d="M1421.371,288.559a.685.685,0,0,1-.679-.6A85.9,85.9,0,0,0,1416.314,270a.686.686,0,0,1,1.289-.467,87.307,87.307,0,0,1,4.448,18.254.685.685,0,0,1-.59.769A.642.642,0,0,1,1421.371,288.559Z" transform="translate(-1416.273 -269.077)" fill="#4f190c"/>
        </g>
        <g id="Grupo_1208948" data-name="Grupo 1208948" transform="translate(97.086 30.452)">
          <path id="Trazado_1051077" data-name="Trazado 1051077" d="M1441.3,292.31a.683.683,0,0,1-.5-.22,35,35,0,0,1-4.091-5.4.685.685,0,1,1,1.167-.718,33.645,33.645,0,0,0,3.931,5.185.685.685,0,0,1-.5,1.151Z" transform="translate(-1436.601 -285.648)" fill="#4f190c"/>
        </g>
        <g id="Grupo_1208949" data-name="Grupo 1208949" transform="translate(93.631 25.986)">
          <path id="Trazado_1051078" data-name="Trazado 1051078" d="M1422.624,263.3h-.007a13.852,13.852,0,0,1-4.495-.8.685.685,0,1,1,.459-1.292,12.481,12.481,0,0,0,4.051.719.685.685,0,0,1-.007,1.371Z" transform="translate(-1417.666 -261.17)" fill="#4f190c"/>
        </g>
      </g>
      <g id="Grupo_1208963" data-name="Grupo 1208963" transform="translate(218.467 210.289)">
        <path id="Trazado_1051079" data-name="Trazado 1051079" d="M696.941,1238.764l-47.4-45.731,38.8-19.965,3.691,28.207,2.927,22.384c.005.007,0,.019.009.026Z" transform="translate(-570.884 -1072.575)" fill="#9e4521"/>
        <g id="Grupo_1208951" data-name="Grupo 1208951" transform="translate(84.703)">
          <path id="Trazado_1051080" data-name="Trazado 1051080" d="M770.16,625.969c-.692.257-1.391.507-2.083.764a1.887,1.887,0,0,1-.242.763q-1.772,3.179-3.442,6.421a221.4,221.4,0,0,0-9.29,20.6c-.174.445-.348.889-.516,1.334C741.473,690.01,736.25,726.537,733.412,762.8a1.811,1.811,0,0,1-.644,1.276c-5.121-3.706-8.551-7.662-14.332-10.245a42.352,42.352,0,0,0-8.21-2.654c-5.739-1.244-11.989-1.455-17.232-.051a25.609,25.609,0,0,0-10.245,5.623c-.441-13.3,1.469-28.19,6.933-39.955,4.019-8.657,7.967-14.608,10.776-22.539a60.638,60.638,0,0,0,2.036-7.05c.583-2.6,1.2-5.163,1.871-7.691,3.623-13.654,8.929-26.121,20.68-35.392A103.1,103.1,0,0,1,744.3,632.541q1.449-.69,2.916-1.356c.755-.348,1.517-.683,2.272-1.018,1.739-.771,3.49-1.511,5.234-2.214v-.006c2.493-1.021,4.972-1.992,7.407-2.909.476-.175.952-.356,1.422-.532,1.934-.718,3.844-1.412,5.7-2.076C771.481,621.63,772.359,625.164,770.16,625.969Z" transform="translate(-682.689 -622.312)" fill="#5555ad"/>
          <path id="Trazado_1051081" data-name="Trazado 1051081" d="M797.735,991.874c-3.934-14.172-8.338-29.807-17.662-41.35a60.662,60.662,0,0,0,2.036-7.05c.583-2.6,1.2-5.163,1.871-7.691,14.554,13.4,21.022,34.1,26.243,52.9C812.452,996.708,799.946,999.846,797.735,991.874Z" transform="translate(-762.304 -878.587)" fill="#ffd04a"/>
        </g>
        <g id="Grupo_1208952" data-name="Grupo 1208952" transform="translate(39.706 64.271)">
          <path id="Trazado_1051082" data-name="Trazado 1051082" d="M521.436,1070.3c-2.393-8.411-6.058-11.272-10.818-18.494-5.715-8.657-14.693-18.04-20.408-26.7q-16.671-25.269-33.352-50.553-3.469,2.023-7.1,3.74-1.076.51-2.161,1c-3.737,8.491-10.589,11.214-11.516,21.781,0,0,22.342,45.01,31.438,62.428,7.088,13.569,14.594,33.258,31.465,36.764a21.177,21.177,0,0,0,4.25.455c8.094.037,13.984-5.036,16.986-11.9A28.028,28.028,0,0,0,521.436,1070.3Z" transform="translate(-436.079 -974.555)" fill="#f79c6b"/>
          <path id="Trazado_1051083" data-name="Trazado 1051083" d="M821.247,1543.9a20.305,20.305,0,0,1-.141,5.459c-3,6.859-8.893,11.933-16.986,11.9a17.438,17.438,0,0,0,6.55-3.963c3.782-3.616,5.869-8.511,6.886-13.579,0-.006,0-.012,0-.012a1.559,1.559,0,0,1,.2-1.021c.173-1.022.315-2.05.414-3.073.223-2.346,3.9-2.288,3.681.07C821.712,1541.084,821.513,1542.5,821.247,1543.9Z" transform="translate(-736.966 -1435.096)" fill="#9e4521"/>
        </g>
        <g id="Grupo_1208962" data-name="Grupo 1208962" transform="translate(0 52.962)">
          <path id="Trazado_1051084" data-name="Trazado 1051084" d="M282.466,929.208s-5.607-9.833-11.834-13.8c-13.409-8.559-29.89,4.329-40.257,11.759-5.269,3.776-11.253,7.849-11.85,14.416-.457,5.021,1.84,15.977,5.712,20.872a9.772,9.772,0,0,0,6.752,3.585c-.1.175-.193.349-.293.524-2.416,4.354-5.629,11.127-7.664,15.653-1.256,2.788-.755,6.179,2.569,7.189,3.45,1.042,6.227-1.434,8.079-3.958,2.975-4.049,5.584-8.411,8.137-12.72q3.122-5.269,5.946-10.7c4.352-1.823,8.354-4.511,9.377-9.3a42.408,42.408,0,0,0,3.752-2.523c.161-.118.31-.249.465-.372,1.291,6.836-1.17,15.375,3.24,20.909,2.1,2.638,5.587,4.322,8.648,2.073,3.142-2.309.864-6.542.572-9.835a29.182,29.182,0,0,1,2.565-14.391c3.006-6.683,2.783-10.387,2.075-15.512C279.615,933.217,282.466,929.208,282.466,929.208Z" transform="translate(-218.467 -912.574)" fill="#f79c6b"/>
          <g id="Grupo_1208953" data-name="Grupo 1208953" transform="translate(29.952 29.127)">
            <path id="Trazado_1051085" data-name="Trazado 1051085" d="M383.308,1091.207a.686.686,0,0,1-.592-1.03,120.443,120.443,0,0,1,8.481-13.352c2.38-3.185,3.439-4.35,3.482-4.4a.686.686,0,0,1,1.173.305,40.623,40.623,0,0,1,1.052,10.9.677.677,0,0,1-.711.658.685.685,0,0,1-.658-.711,39.243,39.243,0,0,0-.723-9.186c-.557.685-1.387,1.737-2.517,3.248a119.509,119.509,0,0,0-8.392,13.22A.685.685,0,0,1,383.308,1091.207Z" transform="translate(-382.623 -1072.204)" fill="#9e4521"/>
          </g>
          <g id="Grupo_1208954" data-name="Grupo 1208954" transform="translate(33.091 40.098)">
            <path id="Trazado_1051086" data-name="Trazado 1051086" d="M400.512,1135.015a.685.685,0,0,1-.117-1.361,10.149,10.149,0,0,0,3.41-1.229.685.685,0,0,1,.692,1.183,11.519,11.519,0,0,1-3.868,1.4A.742.742,0,0,1,400.512,1135.015Z" transform="translate(-399.827 -1132.332)" fill="#9e4521"/>
          </g>
          <g id="Grupo_1208955" data-name="Grupo 1208955" transform="translate(41.109 36.786)">
            <path id="Trazado_1051087" data-name="Trazado 1051087" d="M444.451,1116.618a.685.685,0,0,1-.334-1.284c.6-.335,1.174-.684,1.705-1.038a.685.685,0,1,1,.76,1.141c-.561.374-1.166.743-1.8,1.095A.7.7,0,0,1,444.451,1116.618Z" transform="translate(-443.765 -1114.181)" fill="#9e4521"/>
          </g>
          <g id="Grupo_1208956" data-name="Grupo 1208956" transform="translate(12.663 23.052)">
            <path id="Trazado_1051088" data-name="Trazado 1051088" d="M288.55,1068.354a.685.685,0,0,1-.617-.982c4.431-9.229,8.78-18.666,12.925-28.05a.686.686,0,0,1,1.254.554c-4.152,9.4-8.506,18.846-12.944,28.089A.687.687,0,0,1,288.55,1068.354Z" transform="translate(-287.865 -1038.914)" fill="#9e4521"/>
          </g>
          <g id="Grupo_1208957" data-name="Grupo 1208957" transform="translate(17.652 27.095)">
            <path id="Trazado_1051089" data-name="Trazado 1051089" d="M318.38,1070.529a.684.684,0,0,1-.586-.33,22.524,22.524,0,0,1-2.319-7.106c-.085-.41-.167-.808-.251-1.191a.685.685,0,0,1,1.339-.294c.085.388.169.792.254,1.207a21.54,21.54,0,0,0,2.149,6.672.685.685,0,0,1-.585,1.041Z" transform="translate(-315.208 -1061.07)" fill="#9e4521"/>
          </g>
          <g id="Grupo_1208958" data-name="Grupo 1208958" transform="translate(8.758 30.591)">
            <path id="Trazado_1051090" data-name="Trazado 1051090" d="M273.544,1096.894a.681.681,0,0,1-.4-.132,8.677,8.677,0,0,1-1.264-1.129c-3.307-3.6-4.552-9.149-5.4-14.615a.686.686,0,1,1,1.355-.211c.819,5.253,2,10.573,5.059,13.9a7.481,7.481,0,0,0,1.064.95.685.685,0,0,1-.405,1.238Z" transform="translate(-266.464 -1080.228)" fill="#9e4521"/>
          </g>
          <g id="Grupo_1208959" data-name="Grupo 1208959" transform="translate(53.189 14.796)">
            <path id="Trazado_1051091" data-name="Trazado 1051091" d="M510.655,1040.312a.685.685,0,0,1-.2-1.341,3.28,3.28,0,0,0,2.022-2.643,10.735,10.735,0,0,0-.333-3.93c-.936-4.483-1.485-11.118,1.221-17.274,3.221-7.328,3.711-13.863,1.539-20.566a.685.685,0,1,1,1.3-.422c2.281,7.041,1.776,13.886-1.589,21.539-2.559,5.824-2.029,12.156-1.135,16.442a11.9,11.9,0,0,1,.342,4.442,4.6,4.6,0,0,1-2.971,3.722A.66.66,0,0,1,510.655,1040.312Z" transform="translate(-509.97 -993.662)" fill="#9e4521"/>
          </g>
          <g id="Grupo_1208960" data-name="Grupo 1208960" transform="translate(49.969 48.163)">
            <path id="Trazado_1051092" data-name="Trazado 1051092" d="M498.812,1185.536a.68.68,0,0,1-.341-.091,5.689,5.689,0,0,0-2.145-.671c-.16-.019-.319-.033-.475-.047a2.809,2.809,0,0,1-2.7-1.511,8.444,8.444,0,0,1-.425-6.208.685.685,0,1,1,1.3.421,7.066,7.066,0,0,0,.356,5.193c.29.6.671.66,1.584.739.17.015.345.03.522.052a7.055,7.055,0,0,1,2.662.843.686.686,0,0,1-.342,1.28Z" transform="translate(-492.327 -1176.534)" fill="#9e4521"/>
          </g>
          <g id="Grupo_1208961" data-name="Grupo 1208961" transform="translate(4.753 65.452)">
            <path id="Trazado_1051093" data-name="Trazado 1051093" d="M246.782,1279.769a3.924,3.924,0,0,1-1.914-.5.685.685,0,0,1,.664-1.2c1.566.868,3.16-.094,4.13-1.283,1.048-1.281,1.644-3.248.687-4.369a.685.685,0,1,1,1.043-.89c1.454,1.7.764,4.372-.669,6.125A5.2,5.2,0,0,1,246.782,1279.769Z" transform="translate(-244.514 -1271.287)" fill="#9e4521"/>
          </g>
        </g>
      </g>
      <g id="Grupo_1208967" data-name="Grupo 1208967" transform="translate(328.732 208.388)">
        <path id="Trazado_1051094" data-name="Trazado 1051094" d="M986.349,834.23a14.774,14.774,0,0,1-10.765,7.442c-1.043-.008-2.086-.015-3.13-.016-35.747-.072-71.4,2.994-107.213,1.54-7-.28-13.978-.757-20.887-1.453-10.59-1.073-12.214-7.056-11.978-15.582a82.047,82.047,0,0,1,3-19.784c-.383-7.943-1.048-15.866-1.812-23.785-1.2-12.4-2.74-25.975-3.666-39.93-2.715-40.562-.263-84.316,30.769-111.582q1.414-1.243,2.833-2.426a86.243,86.243,0,0,1,18.3-12.129c.477-.224.953-.442,1.436-.66a64.073,64.073,0,0,1,11.594-3.91,1.737,1.737,0,0,1,1.443.255,75.653,75.653,0,0,1,14.6.118q2.692.272,5.393.722c.942.159,1.884.33,2.825.526.385.081.776.156,1.162.237.079.02.165.04.245.054q1.952.424,3.9.939c.153.04.3.079.452.125.415.106.824.224,1.233.343.464.132.928.269,1.385.407,12.051,3.66,23.267,9.9,31.167,18.249.006.006.018.019.018.025.637.067,20.869,130.57,21.113,131.335,0,0,1.691,10.134,3.562,22.161,1.428,9.116,2.959,19.32,3.948,27.041.368,2.9.663,5.45.846,7.46C988.68,828.088,989.525,828.544,986.349,834.23Z" transform="translate(-827.92 -611.899)" fill="#5555ad"/>
        <path id="Trazado_1051095" data-name="Trazado 1051095" d="M976.581,1045.127a1.222,1.222,0,0,1-1.161,1.274,388.011,388.011,0,0,1-65.423,1.55q-6.106-.359-12.208-.925a1.266,1.266,0,0,1-1.206-1.132c-.952-18.985-2.062-38.931,2.464-56.631a1.3,1.3,0,0,1,1.239-.916q6.211-.266,12.429-.457,29.911-.925,59.85-.165a1.268,1.268,0,0,1,1.3,1.192A558.61,558.61,0,0,0,976.581,1045.127Z" transform="translate(-882.418 -918.871)" fill="#ffd04a"/>
        <path id="Trazado_1051096" data-name="Trazado 1051096" d="M1451.528,1400.8a89.667,89.667,0,0,0-42.111-38.658,69.152,69.152,0,0,0-7.655,2.057c9.229,15.275,13.742,29.923,23.2,43.1,7.324,10.2,17.978,18.925,30.51,20.538C1454.488,1420.123,1452.957,1409.918,1451.528,1400.8Z" transform="translate(-1296.12 -1225.251)" fill="#1a255e"/>
        <g id="Grupo_1208964" data-name="Grupo 1208964" transform="translate(0 90.968)">
          <path id="Trazado_1051097" data-name="Trazado 1051097" d="M824.569,1146.978a.685.685,0,0,1-.681-.612,185.868,185.868,0,0,1-.49-35.287.7.7,0,0,1,.74-.625.685.685,0,0,1,.625.74,184.621,184.621,0,0,0,.487,35.027.685.685,0,0,1-.608.754A.467.467,0,0,1,824.569,1146.978Z" transform="translate(-822.783 -1110.451)" fill="#1a255e"/>
        </g>
        <g id="Grupo_1208965" data-name="Grupo 1208965" transform="translate(4.678 45.022)">
          <path id="Trazado_1051098" data-name="Trazado 1051098" d="M849.105,881.417a.685.685,0,0,1-.665-.854,123.187,123.187,0,0,1,7.587-21.526.686.686,0,0,1,1.243.578,121.817,121.817,0,0,0-7.5,21.287A.684.684,0,0,1,849.105,881.417Z" transform="translate(-848.419 -858.639)" fill="#1a255e"/>
        </g>
        <g id="Grupo_1208966" data-name="Grupo 1208966" transform="translate(12.145 147.811)">
          <path id="Trazado_1051099" data-name="Trazado 1051099" d="M904.486,1476.026a33.06,33.06,0,0,1-14.758-3.415.685.685,0,1,1,.6-1.23c32.664,16.069,69.635-29.971,81.126-49.066a.685.685,0,1,1,1.174.707c-6.951,11.552-19.7,27.974-34.636,39.419C926.227,1471.459,914.878,1476.026,904.486,1476.026Z" transform="translate(-889.345 -1421.983)" fill="#1a255e"/>
        </g>
        <path id="Trazado_1051100" data-name="Trazado 1051100" d="M1083.624,615.268c-.409-.118-.818-.237-1.233-.343-.153-.046-.3-.085-.452-.125q-1.942-.516-3.9-.939c-.08-.014-.165-.034-.245-.054-.385-.081-.776-.156-1.162-.237-.942-.184-1.877-.361-2.825-.526q-2.7-.447-5.393-.722a75.647,75.647,0,0,0-14.6-.118,1.737,1.737,0,0,0-1.443-.255,64.064,64.064,0,0,0-11.594,3.91c-.483.218-6.351,2.549-8.844,3.576-1.744.716-3.489,1.449-5.234,2.214-.635.282-1.274.567-1.911.857a14.122,14.122,0,0,0-1.767,2.645c-2.4,4.427-1.112,10.4,1.8,14.358a17.853,17.853,0,0,0,7.5,5.881c5.467,2.338,12.07,2.353,18.052,1.11,15.952-3.318,29.7-15.361,34.634-30.825C1084.551,615.538,1084.088,615.4,1083.624,615.268Z" transform="translate(-985.46 -611.894)" fill="#ffd04a"/>
      </g>
      <g id="Grupo_1208981" data-name="Grupo 1208981" transform="translate(348.153 118.331)">
        <g id="Grupo_1208968" data-name="Grupo 1208968" transform="translate(28.57 67.787)">
          <path id="Trazado_1051101" data-name="Trazado 1051101" d="M1136.331,519.408c-1.283-9.418-2.878-21.063-3.4-25.059a1.907,1.907,0,0,1,0-.466c.337-.138.679-.27,1.026-.4,0-.005.006,0,.006,0,1.027-.382,2.076-.708,3.145-.989,5.066-1.338,10.311-1.77,15.469-2.652.445,3.431,2.527,18.484,3.64,26.657Z" transform="translate(-1124.32 -489.843)" fill="#f79c6b"/>
          <path id="Trazado_1051102" data-name="Trazado 1051102" d="M1106.5,609.83c-4.7,1.445-10.45,3.459-14.8,5.325a18.836,18.836,0,0,0-4.762,5.826,8.556,8.556,0,0,0,1.6,10.589c4.146,3.751,12.284,2.683,16.966,1.133a34.645,34.645,0,0,0,13.954-9.026,30.13,30.13,0,0,0,5.918-8.526,18.188,18.188,0,0,0,.979-3.25A91.212,91.212,0,0,0,1106.5,609.83Z" transform="translate(-1085.796 -587.926)" fill="#f79c6b"/>
          <path id="Trazado_1051103" data-name="Trazado 1051103" d="M1133.392,497.993c0-.005.006,0,.006,0q6.021-.8,12.066-1.412a2.068,2.068,0,0,1,1.177.2c.088-.143.178-.275.265-.413,1.353-2.22,5.082-.436,3.72,1.794-.48.788-.977,1.566-1.481,2.34-.956,1.105-.761,2.6-1.714,3.708-3.589,4.175-7.655,9.427-12.4,13.509-.8-5.637-1.86-13.222-2.652-18.854a1.9,1.9,0,0,1-.007-.466C1132.706,498.26,1133.047,498.126,1133.392,497.993Z" transform="translate(-1123.863 -494.347)" fill="#9e4521"/>
        </g>
        <path id="Trazado_1051104" data-name="Trazado 1051104" d="M966.545,237.812a20.493,20.493,0,0,0,5.095,21.7c7.96,7.456,19.03,7.181,28.826,4.628,11.246-2.932,22.39-9.861,25.868-21.548.526-1.766,3.339-9.765,3.237-11.609-.647-11.76-3.189-17.412-11.425-25.125-3.738-3.5-9.38-5.96-14.271-7.3-9.608-2.623-15.517-1.574-24.625,4.865C966.122,212.711,962.53,222.968,966.545,237.812Z" transform="translate(-958.463 -182.833)" fill="#f79c6b"/>
        <g id="Grupo_1208974" data-name="Grupo 1208974" transform="translate(9.057 29.178)">
          <path id="Trazado_1051105" data-name="Trazado 1051105" d="M1278.372,356.109a9.528,9.528,0,0,0,6.591-.341,9.824,9.824,0,0,0-1.6-18.446c-8.994-2.2-15.524,9.074-9.341,16.044A9.476,9.476,0,0,0,1278.372,356.109Z" transform="translate(-1218.181 -326.313)" fill="#f79c6b"/>
          <g id="Grupo_1208969" data-name="Grupo 1208969" transform="translate(55.55 11.302)">
            <path id="Trazado_1051106" data-name="Trazado 1051106" d="M1283.989,344.335a.685.685,0,0,1-.5-1.15,18.467,18.467,0,0,1,3.393-2.892.685.685,0,1,1,.756,1.143,17.11,17.11,0,0,0-3.141,2.677A.683.683,0,0,1,1283.989,344.335Z" transform="translate(-1283.304 -340.179)" fill="#9e4521"/>
          </g>
          <path id="Trazado_1051107" data-name="Trazado 1051107" d="M1117.166,280.056c3.347-2.289,9.81-2.8,12.422.736,1.357,1.836,1.429,4.315-.731,5.548-1.736.992-3.9.712-5.833.757-1.768.042-3.94.86-5.643.33a3.657,3.657,0,0,1-2.384-4.484A5.1,5.1,0,0,1,1117.166,280.056Z" transform="translate(-1090.055 -278.24)" fill="#4f190c"/>
          <path id="Trazado_1051108" data-name="Trazado 1051108" d="M980.3,302.975a8.279,8.279,0,0,1,8.924-2.07c2.935.934,4.172,4.24,1.714,6.392-1.248,1.092-2.971,1.243-4.538,1.535-1.543.288-3.375,1.292-4.939,1.012a3.483,3.483,0,0,1-2.595-3.877A4.909,4.909,0,0,1,980.3,302.975Z" transform="translate(-978.856 -296.364)" fill="#4f190c"/>
          <path id="Trazado_1051109" data-name="Trazado 1051109" d="M1134.206,347.323c.036,1.639-1.2,2.56-2.522,3.2a13.213,13.213,0,0,1-2.322.863h-.006a11.114,11.114,0,0,1-5,.21,7.869,7.869,0,0,1-1.5-.465c-2.479-1.054-1.846-4.332,0-5.646a8.746,8.746,0,0,1,8.056-.973,2.085,2.085,0,0,1,.328.154,1.929,1.929,0,0,1,.733.069A2.674,2.674,0,0,1,1134.206,347.323Z" transform="translate(-1095.255 -331.972)" fill="#fff"/>
          <path id="Trazado_1051110" data-name="Trazado 1051110" d="M1133.421,355.131a2.87,2.87,0,0,1-.734,1.244h-.006a11.114,11.114,0,0,1-5,.21,3.975,3.975,0,0,1-2.385-3.489c.064-2.141,2-3.374,4.366-2.953C1132.18,350.578,1134.094,352.916,1133.421,355.131Z" transform="translate(-1098.579 -336.956)" fill="#1e0b1d"/>
          <g id="Grupo_1208970" data-name="Grupo 1208970" transform="translate(25.353 11.735)">
            <path id="Trazado_1051111" data-name="Trazado 1051111" d="M1118.489,348.011a.679.679,0,0,1-.192-.028.686.686,0,0,1-.467-.85,6.081,6.081,0,0,1,4.348-4.186,11.113,11.113,0,0,1,9.6,1.83.685.685,0,1,1-.884,1.048,9.773,9.773,0,0,0-8.317-1.566,4.816,4.816,0,0,0-3.428,3.258A.685.685,0,0,1,1118.489,348.011Z" transform="translate(-1117.804 -342.552)" fill="#1e0b1d"/>
          </g>
          <path id="Trazado_1051112" data-name="Trazado 1051112" d="M1006.116,375.774a1.618,1.618,0,0,0-.8-1.209,2.859,2.859,0,0,0-.64-.106,1.559,1.559,0,0,0-.988-.972l-1.471-.448a1.9,1.9,0,0,0-1.4.041,1.707,1.707,0,0,0-.248.149,5.283,5.283,0,0,0-3.036.717c-1.509.865-2.516,3.546-.971,4.76a6.546,6.546,0,0,0,3.729,1.191,8.3,8.3,0,0,0,3.1-.417,4.466,4.466,0,0,0,.807-.378c.009-.06.33-.206.383-.239.14-.087.279-.176.413-.272a2.746,2.746,0,0,0,1.038-1.448A3.107,3.107,0,0,0,1006.116,375.774Z" transform="translate(-992.699 -355.649)" fill="#fff"/>
          <g id="Grupo_1208971" data-name="Grupo 1208971" transform="translate(2.503 17.005)">
            <path id="Trazado_1051113" data-name="Trazado 1051113" d="M993.261,376.078a.687.687,0,0,1-.658-.879,5.024,5.024,0,0,1,3.944-3.609,8.538,8.538,0,0,1,7.848,2.681.686.686,0,1,1-1.043.89,7.2,7.2,0,0,0-6.519-2.231,3.674,3.674,0,0,0-2.915,2.655A.686.686,0,0,1,993.261,376.078Z" transform="translate(-992.575 -371.437)" fill="#1e0b1d"/>
          </g>
          <g id="Grupo_1208972" data-name="Grupo 1208972" transform="translate(16.436 20.078)">
            <path id="Trazado_1051114" data-name="Trazado 1051114" d="M1073.849,395.7a4.8,4.8,0,0,1-3.972-1.817,5.375,5.375,0,0,1-.535-5.149.685.685,0,1,1,1.289.465,4.041,4.041,0,0,0,.339,3.857,3.6,3.6,0,0,0,3.276,1.26.685.685,0,0,1,.1,1.367C1074.177,395.69,1074.013,395.7,1073.849,395.7Z" transform="translate(-1068.936 -388.277)" fill="#9e4521"/>
          </g>
          <g id="Grupo_1208973" data-name="Grupo 1208973" transform="translate(60.279 15.503)">
            <path id="Trazado_1051115" data-name="Trazado 1051115" d="M1313.848,372.5a.684.684,0,0,1-.489-.2,20.928,20.928,0,0,0-3.812-3.152.686.686,0,0,1-.26-.876,14.172,14.172,0,0,1,3.836-4.909.686.686,0,1,1,.866,1.063,12.786,12.786,0,0,0-3.194,3.9,23.612,23.612,0,0,1,3.542,3.016.685.685,0,0,1-.489,1.166Z" transform="translate(-1309.22 -363.207)" fill="#9e4521"/>
          </g>
          <path id="Trazado_1051116" data-name="Trazado 1051116" d="M1056.682,444.362c.274-.061.546-.128.814-.187l.851-.192a4.194,4.194,0,0,0,1.515.409c.731.092,1.447.232,2.185.278a25.053,25.053,0,0,0,4.738-.2,37.392,37.392,0,0,0,6.575-1.487c.532.148,1.059.316,1.577.518-.067.161-.134.323-.208.48a11.333,11.333,0,0,1-10.091,6.459,10.817,10.817,0,0,1-8.7-3.744A1.435,1.435,0,0,1,1056.682,444.362Z" transform="translate(-1041.589 -412.921)" fill="#1e1c38"/>
          <path id="Trazado_1051117" data-name="Trazado 1051117" d="M1066.03,434.3c.238.651.483,1.3.728,1.956a1.8,1.8,0,0,0,1.531,1.047,48.051,48.051,0,0,0,14.974-3.2,9.663,9.663,0,0,0,.52-1.331,1.412,1.412,0,0,0-1.582-1.845C1076.538,432.014,1071.59,433.033,1066.03,434.3Z" transform="translate(-1050.124 -403.049)" fill="#fff"/>
          <path id="Trazado_1051118" data-name="Trazado 1051118" d="M1008.22,381.5a2.39,2.39,0,0,1-.273.43v.005a4.451,4.451,0,0,1-.807.378,8.3,8.3,0,0,1-3.1.417c-2.039-.612-3.933-2.333-3.633-4.136.307-1.85,2.361-2.651,4.661-1.954C1007.51,377.37,1009.137,379.67,1008.22,381.5Z" transform="translate(-996.45 -358.482)" fill="#1e0b1d"/>
        </g>
        <g id="Grupo_1208980" data-name="Grupo 1208980" transform="translate(0 0)">
          <path id="Trazado_1051119" data-name="Trazado 1051119" d="M1010.694,154.823a1.655,1.655,0,0,1-.526.794,13.079,13.079,0,0,1-13.652,2.074,15.585,15.585,0,0,1-8.484-9.665,20.1,20.1,0,0,1-21.667-3.378,29.394,29.394,0,0,1,.545,3.067,3.27,3.27,0,0,1-.571,2.849c-1.691,1.876-8.356,1.888-10.6,1.36a8.708,8.708,0,0,1-5.564-3.833,7.342,7.342,0,0,1-3.519,3.731,13.061,13.061,0,0,1-6.324,1.15c-1.1-.029-2.2-.124-3.3-.214-2.117-.173-4.425.219-5.992-1.624a9.231,9.231,0,0,1-1.757-5.27,22.981,22.981,0,0,1,.189-5.219,22.281,22.281,0,0,1,3.889-9.622,21.5,21.5,0,0,1,2.517-2.915c5-4.825,11.448-7.229,19.207-6.771,10.122-5.849,21.954-2.017,32.111,1.856.628.239.975,1.3,1.11,1.807a64.648,64.648,0,0,1,22.775,28.187A1.286,1.286,0,0,1,1010.694,154.823Z" transform="translate(-929.218 -118.331)" fill="#964b38"/>
          <g id="Grupo_1208975" data-name="Grupo 1208975" transform="translate(55.796 19.836)">
            <path id="Trazado_1051120" data-name="Trazado 1051120" d="M1237.451,236.185a.686.686,0,0,1-.655-.482,51.166,51.166,0,0,1-1.78-7.878.686.686,0,0,1,1.357-.2,49.683,49.683,0,0,0,1.732,7.667.686.686,0,0,1-.451.858A.678.678,0,0,1,1237.451,236.185Z" transform="translate(-1235.01 -227.041)" fill="#4f190c"/>
          </g>
          <g id="Grupo_1208976" data-name="Grupo 1208976" transform="translate(60.221 15.264)">
            <path id="Trazado_1051121" data-name="Trazado 1051121" d="M1276.567,227.2a.685.685,0,0,1-.093-1.364c5.438-.751,10.148-5.3,11.454-11.072a12.466,12.466,0,0,0,.244-1.372,11.521,11.521,0,0,0-.745-5.866,8.718,8.718,0,0,0-3.524-3.863,13.948,13.948,0,0,1-10.849,7.433,17.685,17.685,0,0,1-13.567-4.136.685.685,0,0,1,.928-1.009,16.267,16.267,0,0,0,12.49,3.782,12.425,12.425,0,0,0,10.053-7.317.686.686,0,0,1,.978-.338,10.54,10.54,0,0,1,4.757,4.923,12.864,12.864,0,0,1,.84,6.552,13.7,13.7,0,0,1-.268,1.516c-1.428,6.308-6.611,11.3-12.6,12.123A.653.653,0,0,1,1276.567,227.2Z" transform="translate(-1259.264 -201.986)" fill="#4f190c"/>
          </g>
          <g id="Grupo_1208977" data-name="Grupo 1208977" transform="translate(17.558 9.424)">
            <path id="Trazado_1051122" data-name="Trazado 1051122" d="M1028.328,190.212a.685.685,0,0,1-.61-.373,21.2,21.2,0,0,1,.212-19.5.685.685,0,0,1,1.206.652,20.084,20.084,0,0,0-.2,18.225.686.686,0,0,1-.3.922A.675.675,0,0,1,1028.328,190.212Z" transform="translate(-1025.447 -169.977)" fill="#4f190c"/>
          </g>
          <g id="Grupo_1208978" data-name="Grupo 1208978" transform="translate(27.787 2.429)">
            <path id="Trazado_1051123" data-name="Trazado 1051123" d="M1086.479,133.195a.7.7,0,0,1-.108-.008,14.122,14.122,0,0,0-4.091-.051.685.685,0,0,1-.181-1.359,15.506,15.506,0,0,1,4.486.055.685.685,0,0,1-.106,1.362Z" transform="translate(-1081.505 -131.64)" fill="#4f190c"/>
          </g>
          <g id="Grupo_1208979" data-name="Grupo 1208979" transform="translate(3.996 33.391)">
            <path id="Trazado_1051124" data-name="Trazado 1051124" d="M953.806,302.777h-.026l-2-.075a.686.686,0,0,1,.051-1.37l2,.075a.685.685,0,0,1-.025,1.37Z" transform="translate(-951.117 -301.33)" fill="#4f190c"/>
          </g>
        </g>
      </g>
      <g id="Grupo_1208995" data-name="Grupo 1208995" transform="translate(345.248 213.148)">
        <path id="Trazado_1051125" data-name="Trazado 1051125" d="M1676.614,1301.123c-2.191-2.586-5.449-4.825-8.928-4.967a8.63,8.63,0,0,0-8.95,7.368c-.583,3.417.08,7.168.281,10.611.243,4.163.185,8.729,4.216,11.19,7.367,4.5,14.766-5.2,15.658-9.691C1679.42,1310.442,1680.035,1305.159,1676.614,1301.123Z" transform="translate(-1522.529 -1176.058)" fill="#1a255e"/>
        <g id="Grupo_1208982" data-name="Grupo 1208982" transform="translate(100.749 89.604)">
          <path id="Trazado_1051126" data-name="Trazado 1051126" d="M1517.265,1193.549l-51.8-40.679,36.575-23.8,6.538,27.686,5.185,21.971c.006.006.006.019.012.025Z" transform="translate(-1465.462 -1129.066)" fill="#f79c6b"/>
          <path id="Trazado_1051127" data-name="Trazado 1051127" d="M1584.428,1264.324c7.29-2.241,15.245-1.378,21.369,3.066l-2.069-8.767a30.885,30.885,0,0,0-9.1-3.708,1.824,1.824,0,0,0-1.087.065,29.846,29.846,0,0,0-8.451-1.308,1.686,1.686,0,0,0-1.418.667c-1.929.1-2.661,3.122-.522,3.562.028.005-.807,1.772-1.2,2.625,1.667.092-.608,4.389,1.033,4.082.441-.082.874-.156,1.306-.228A1.264,1.264,0,0,1,1584.428,1264.324Z" transform="translate(-1560.615 -1230.936)" fill="#9e4521"/>
        </g>
        <g id="Grupo_1208985" data-name="Grupo 1208985" transform="translate(76.821 0)">
          <path id="Trazado_1051128" data-name="Trazado 1051128" d="M1415.112,772.89a28.034,28.034,0,0,1-3.334,9.136,15.524,15.524,0,0,0-.088-8.287c-1.585-5.731-6.129-10.746-11.508-13.524-8.3-4.282-18.108-6.291-29.5-5.139-.172-.01-4.9.25-5.012.205-.1,0-7.245-1.463-10.787-2.341-5.551-4.7-9.4-10.82-12.161-17.562a76.849,76.849,0,0,1-3.139-9.554,167.089,167.089,0,0,1-3.919-22.739,199.224,199.224,0,0,1,1.519-56.678,61.359,61.359,0,0,1,6.131-8.426c11.269,4.473,20.7,8.5,29.1,15.89,7.986,7.038,11.945,14.091,15.776,24.007,1.018,2.621,1.858,5.252,2.593,7.886,1.179,4.159,2.094,8.331,3.045,12.51,1.11,4.912,2.256,9.838,3.9,14.785C1403.775,731.292,1419.664,749.073,1415.112,772.89Z" transform="translate(-1334.321 -637.983)" fill="#5555ad"/>
          <path id="Trazado_1051129" data-name="Trazado 1051129" d="M1412.6,912.375c-6.869.428-13.743,3.335-19.24,7.109-10.073,6.9-17.221,17.464-24.116,27.306a6.673,6.673,0,0,1-7.753,2.688,6.535,6.535,0,0,1-1.107-.543c-2.833-1.735-4.139-6.007-2.139-8.86.038-.048.07-.1.107-.151,8.548-12.2,17.506-24.719,30.344-32.76a48.878,48.878,0,0,1,20.857-7.3C1410.736,904.024,1411.652,908.2,1412.6,912.375Z" transform="translate(-1353.095 -852.081)" fill="#ffd04a"/>
          <g id="Grupo_1208983" data-name="Grupo 1208983" transform="translate(22.875 42.165)">
            <path id="Trazado_1051130" data-name="Trazado 1051130" d="M1499.257,917.573a.681.681,0,0,1-.412-.138,132.2,132.2,0,0,1-39.084-47.378.685.685,0,0,1,1.232-.6,130.82,130.82,0,0,0,38.677,46.884.685.685,0,0,1-.413,1.233Z" transform="translate(-1459.692 -869.071)" fill="#1a255e"/>
          </g>
          <g id="Grupo_1208984" data-name="Grupo 1208984" transform="translate(4.949 44.639)">
            <path id="Trazado_1051131" data-name="Trazado 1051131" d="M1362.129,921.9h-.006a.686.686,0,0,1-.679-.692,245.5,245.5,0,0,1,3.318-38,.685.685,0,0,1,1.352.226,244.062,244.062,0,0,0-3.3,37.789A.685.685,0,0,1,1362.129,921.9Z" transform="translate(-1361.444 -882.63)" fill="#1a255e"/>
          </g>
        </g>
        <g id="Grupo_1208994" data-name="Grupo 1208994" transform="translate(0 51.116)">
          <path id="Trazado_1051132" data-name="Trazado 1051132" d="M1346.111,1044.749c-3.233-8.125-7.171-10.6-12.641-17.3-6.561-8.029-16.45-16.454-23.011-24.483q-19.815-24.257-39.635-48.525-1.737,3.551-3.431,7.122c-2.775,5.848-5.528,11.719-8.5,17.474a43.839,43.839,0,0,0-.8,9.063s22.874,38.96,33.69,55.359c8.428,12.784,17.9,31.607,35.039,33.383C1344.568,1078.677,1351.875,1059.253,1346.111,1044.749Z" transform="translate(-1195.176 -947.813)" fill="#f79c6b"/>
          <g id="Grupo_1208992" data-name="Grupo 1208992">
            <path id="Trazado_1051133" data-name="Trazado 1051133" d="M984.912,964.558c-2.841,3.609-7.765,7.467-12.529,6.261a10.168,10.168,0,0,1-10.6,3.455,11.249,11.249,0,0,1-10.632.913A20.266,20.266,0,0,1,942.523,967c-1.959,2.852-4.047,5.739-6.452,9-2.87,3.889-8.675,11.747-12.686,14.563-2.417,1.695-6.067,3.14-8.611.857-2.453-2.2-1.417-5.474.026-7.926,2.823-4.787,5.609-8.771,8.71-13.4l16.009-23.854a1.542,1.542,0,0,1,.069-.146c6.1-9.774,11.82-17.062,21.149-24.119,8.022-6.068,21.836-5.409,29.5,5.139,2.486,3.421-1.807,7.268-1.761,7.619a40.953,40.953,0,0,1-.625,13.338C989.911,951.66,989.083,959.248,984.912,964.558Z" transform="translate(-913.301 -918.126)" fill="#f79c6b"/>
            <g id="Grupo_1208986" data-name="Grupo 1208986" transform="translate(66.431 18.851)">
              <path id="Trazado_1051134" data-name="Trazado 1051134" d="M1278.063,1044.212a.685.685,0,0,1-.526-1.123,56.077,56.077,0,0,0,6.87-9.684,19.861,19.861,0,0,0,2.465-11.2.686.686,0,0,1,1.363-.151,21.224,21.224,0,0,1-2.612,11.986,57.2,57.2,0,0,1-7.032,9.928A.68.68,0,0,1,1278.063,1044.212Z" transform="translate(-1277.378 -1021.441)" fill="#9e4521"/>
            </g>
            <g id="Grupo_1208987" data-name="Grupo 1208987" transform="translate(48.173 40.334)">
              <path id="Trazado_1051135" data-name="Trazado 1051135" d="M1186.137,1150.862a.682.682,0,0,1-.355-.1c-4.692-2.845-7.218-6.052-8.446-10.723a.685.685,0,1,1,1.325-.349c1.129,4.3,3.472,7.256,7.832,9.9a.685.685,0,0,1-.356,1.271Z" transform="translate(-1177.314 -1139.178)" fill="#9e4521"/>
            </g>
            <g id="Grupo_1208988" data-name="Grupo 1208988" transform="translate(37.464 41.62)">
              <path id="Trazado_1051136" data-name="Trazado 1051136" d="M1128.093,1159.577a.687.687,0,0,1-.292-.066c-4.319-2.043-7.484-6.337-9.152-12.417a.685.685,0,1,1,1.321-.363c1.56,5.683,4.47,9.674,8.417,11.541a.685.685,0,0,1-.294,1.3Z" transform="translate(-1118.624 -1146.227)" fill="#9e4521"/>
            </g>
            <g id="Grupo_1208989" data-name="Grupo 1208989" transform="translate(27.016 41.857)">
              <path id="Trazado_1051137" data-name="Trazado 1051137" d="M1062.936,1153.237a.687.687,0,0,1-.636-.43,12.982,12.982,0,0,1-.938-4.58.686.686,0,0,1,.671-.7.677.677,0,0,1,.7.671,11.593,11.593,0,0,0,.839,4.1.686.686,0,0,1-.636.942Z" transform="translate(-1061.361 -1147.527)" fill="#9e4521"/>
            </g>
            <g id="Grupo_1208990" data-name="Grupo 1208990" transform="translate(1.12 63.55)">
              <path id="Trazado_1051138" data-name="Trazado 1051138" d="M921.821,1273.885a3.4,3.4,0,0,1-2.119-.742.685.685,0,0,1,.841-1.083,2.108,2.108,0,0,0,2.054.327c2.008-.631,4.133-3.4,4.783-5.489a.686.686,0,0,1,1.309.408c-.768,2.465-3.234,5.62-5.682,6.389A3.916,3.916,0,0,1,921.821,1273.885Z" transform="translate(-919.437 -1266.416)" fill="#9e4521"/>
            </g>
            <g id="Grupo_1208991" data-name="Grupo 1208991" transform="translate(68.932 30.196)">
              <path id="Trazado_1051139" data-name="Trazado 1051139" d="M1291.773,1103.067a.685.685,0,0,1-.523-1.127,25.143,25.143,0,0,0,4.921-8.193,13.134,13.134,0,0,0-.053-9.18.685.685,0,0,1,1.265-.528,14.5,14.5,0,0,1,.088,10.143,26.449,26.449,0,0,1-5.172,8.641A.683.683,0,0,1,1291.773,1103.067Z" transform="translate(-1291.089 -1083.618)" fill="#9e4521"/>
            </g>
          </g>
          <g id="Grupo_1208993" data-name="Grupo 1208993" transform="translate(131.345 71.944)">
            <path id="Trazado_1051140" data-name="Trazado 1051140" d="M1643.978,1325.2a.684.684,0,0,1-.53-.25,151.168,151.168,0,0,0-10.1-11.36.685.685,0,1,1,.965-.973,152.372,152.372,0,0,1,10.195,11.463.685.685,0,0,1-.529,1.12Z" transform="translate(-1633.144 -1312.418)" fill="#9e4521"/>
          </g>
        </g>
      </g>
    </g>
    <path id="Trazado_1048914" data-name="Trazado 1048914" d="M29.058,0H214.939" transform="translate(1192.061 11418.393)" fill="none" stroke="#817489" stroke-linecap="round" stroke-width="8"/>
  </g>
</svg>
