<svg xmlns="http://www.w3.org/2000/svg" xmlns:xlink="http://www.w3.org/1999/xlink" width="93.934" height="93.934" viewBox="0 0 93.934 93.934">
  <defs>
    <filter id="Trazado_982547" x="0" y="0" width="93.934" height="93.934" filterUnits="userSpaceOnUse">
      <feOffset dy="3" input="SourceAlpha"/>
      <feGaussianBlur stdDeviation="3" result="blur"/>
      <feFlood flood-opacity="0.161"/>
      <feComposite operator="in" in2="blur"/>
      <feComposite in="SourceGraphic"/>
    </filter>
  </defs>
  <g id="Grupo_1207978" data-name="Grupo 1207978" transform="translate(-609 -896.864)">
    <g id="Grupo_1206326" data-name="Grupo 1206326" transform="translate(420 -3717.169)">
      <g id="Grupo_1183815" data-name="Grupo 1183815" transform="translate(0 4267.973)">
        <g id="Grupo_1181939" data-name="Grupo 1181939" transform="translate(0 -388.939)">
          <g id="Grupo_1175133" data-name="Grupo 1175133" transform="translate(-0.033 -1251)">
            <g id="Grupo_1167337" data-name="Grupo 1167337" transform="translate(198.033 1992)">
              <g id="Grupo_1166720" data-name="Grupo 1166720">
                <g id="Grupo_1164305" data-name="Grupo 1164305">
                  <g id="Grupo_1163948" data-name="Grupo 1163948">
                    <g id="Grupo_1158168" data-name="Grupo 1158168">
                      <g id="Grupo_1152576" data-name="Grupo 1152576">
                        <g id="Grupo_1148633" data-name="Grupo 1148633">
                          <g id="Grupo_1148525" data-name="Grupo 1148525">
                            <g transform="matrix(1, 0, 0, 1, -9, -6)" filter="url(#Trazado_982547)">
                              <g id="Trazado_982547-2" data-name="Trazado 982547" transform="translate(9 6)" fill="#f2f7e5">
                                <path d="M 37.966796875 74.43359375 C 33.04315185546875 74.43359375 28.26757431030273 73.46962738037109 23.77274131774902 71.56847381591797 C 19.43047523498535 69.73184967041016 15.53040790557861 67.10224914550781 12.18087482452393 63.75271987915039 C 8.831341743469238 60.4031867980957 6.201741218566895 56.50312042236328 4.365118980407715 52.16086196899414 C 2.463963508605957 47.66601943969727 1.499996900558472 42.89044189453125 1.499996900558472 37.966796875 C 1.499996900558472 33.04315185546875 2.463963508605957 28.26757431030273 4.365118980407715 23.77274131774902 C 6.201741218566895 19.43047523498535 8.831341743469238 15.53040790557861 12.18087482452393 12.18087482452393 C 15.53040790557861 8.831341743469238 19.43047523498535 6.201741218566895 23.77274131774902 4.365118980407715 C 28.26757431030273 2.463963508605957 33.04315185546875 1.499996900558472 37.966796875 1.499996900558472 C 42.89044189453125 1.499996900558472 47.66601943969727 2.463963508605957 52.16086196899414 4.365118980407715 C 56.50312042236328 6.201741218566895 60.4031867980957 8.831341743469238 63.75271987915039 12.18087482452393 C 67.10224914550781 15.53040790557861 69.73184967041016 19.43047523498535 71.56847381591797 23.77274131774902 C 73.46962738037109 28.26757431030273 74.43359375 33.04315185546875 74.43359375 37.966796875 C 74.43359375 42.89044189453125 73.46962738037109 47.66601943969727 71.56847381591797 52.16086196899414 C 69.73184967041016 56.50313186645508 67.10224914550781 60.4031867980957 63.75271987915039 63.75271987915039 C 60.4031867980957 67.10224914550781 56.50313186645508 69.73184967041016 52.16086196899414 71.56847381591797 C 47.66601943969727 73.46962738037109 42.89044189453125 74.43359375 37.966796875 74.43359375 Z" stroke="none"/>
                                <path d="M 37.966796875 3 C 33.2449836730957 3 28.66600799560547 3.924095153808594 24.35705947875977 5.746635437011719 C 20.19359588623047 7.507637023925781 16.45379638671875 10.02928161621094 13.24153518676758 13.24153518676758 C 10.02927398681641 16.45379638671875 7.507621765136719 20.19359588623047 5.746635437011719 24.35705947875977 C 3.924095153808594 28.66600799560547 3 33.2449836730957 3 37.966796875 C 3 42.6886100769043 3.924095153808594 47.26758575439453 5.746635437011719 51.57653427124023 C 7.507621765136719 55.73999786376953 10.02927398681641 59.47979736328125 13.24153518676758 62.69205856323242 C 16.45379638671875 65.90431976318359 20.19359588623047 68.42597198486328 24.35705947875977 70.18695831298828 C 28.66600799560547 72.00949859619141 33.2449836730957 72.93359375 37.966796875 72.93359375 C 42.6886100769043 72.93359375 47.26758575439453 72.00949859619141 51.57653427124023 70.18695831298828 C 55.73999786376953 68.42597198486328 59.47979736328125 65.90431976318359 62.69205856323242 62.69205856323242 C 65.90431976318359 59.47979736328125 68.42597198486328 55.73999786376953 70.18695831298828 51.57653427124023 C 72.00949859619141 47.26758575439453 72.93359375 42.6886100769043 72.93359375 37.966796875 C 72.93359375 33.2449836730957 72.00949859619141 28.66600799560547 70.18695831298828 24.35705947875977 C 68.42597198486328 20.19359588623047 65.90431976318359 16.45379638671875 62.69205856323242 13.24153518676758 C 59.47979736328125 10.02928161621094 55.73999786376953 7.507637023925781 51.57653427124023 5.746635437011719 C 47.26758575439453 3.924095153808594 42.6886100769043 3 37.966796875 3 M 37.966796875 0 C 58.93528366088867 0 75.93359375 16.99832153320312 75.93359375 37.966796875 C 75.93359375 58.93528366088867 58.93528366088867 75.93359375 37.966796875 75.93359375 C 16.99831008911133 75.93359375 0 58.93528366088867 0 37.966796875 C 0 16.99832153320312 16.99831008911133 0 37.966796875 0 Z" stroke="none" fill="#86b60c"/>
                              </g>
                            </g>
                          </g>
                        </g>
                      </g>
                    </g>
                  </g>
                </g>
              </g>
            </g>
          </g>
        </g>
      </g>
    </g>
    <g id="ventas" transform="translate(519.063 885.056)">
      <g id="Grupo_1207959" data-name="Grupo 1207959" transform="translate(132.947 79.591)">
        <path id="Trazado_1049596" data-name="Trazado 1049596" d="M223.465,423h-5.072a1.417,1.417,0,0,0-1,2.419l2.536,2.536a1.421,1.421,0,0,0,2,0l2.536-2.536a1.417,1.417,0,0,0-1-2.419Z" transform="translate(-216.971 -423)" fill="#b5d5f5" fill-rule="evenodd"/>
      </g>
      <g id="Grupo_1207960" data-name="Grupo 1207960" transform="translate(133.586 68.267)">
        <path id="Trazado_1049597" data-name="Trazado 1049597" d="M225.019,345.325l3.319,1.258V339.19H221.7v4.875Z" transform="translate(-221.7 -339.19)" fill="#2592ce"/>
      </g>
      <g id="Grupo_1207961" data-name="Grupo 1207961" transform="translate(126.133 58.437)">
        <path id="Trazado_1049598" data-name="Trazado 1049598" d="M173.993,276.27h6.637l7.453-9.83H166.54Z" transform="translate(-166.54 -266.44)" fill="#27a2db"/>
      </g>
      <g id="Grupo_1207962" data-name="Grupo 1207962" transform="translate(123.772 55.324)">
        <path id="Trazado_1049599" data-name="Trazado 1049599" d="M151.431,246.513h21.544l2.361-3.113H149.07Z" transform="translate(-149.07 -243.4)" fill="#2592ce"/>
      </g>
      <g id="Grupo_1207963" data-name="Grupo 1207963" transform="translate(120.469 52.083)">
        <path id="Trazado_1049600" data-name="Trazado 1049600" d="M127.924,222.66h27.947a1.62,1.62,0,0,0,0-3.24H126.24a1.62,1.62,0,1,0,0,3.24Z" transform="translate(-124.62 -219.42)" fill="#27a2db"/>
      </g>
      <g id="Grupo_1207964" data-name="Grupo 1207964" transform="translate(125.069 26.589)">
        <path id="Trazado_1049601" data-name="Trazado 1049601" d="M158.67,42.575A11.835,11.835,0,1,0,170.505,30.74,11.836,11.836,0,0,0,158.67,42.575Zm11.835,8.682a8.682,8.682,0,1,1,8.682-8.682A8.681,8.681,0,0,1,170.505,51.257Z" transform="translate(-158.67 -30.74)" fill="#ffc107" fill-rule="evenodd"/>
      </g>
      <g id="Grupo_1207965" data-name="Grupo 1207965" transform="translate(124.624 26.15)">
        <circle id="Elipse_11570" data-name="Elipse 11570" cx="8.682" cy="8.682" r="8.682" transform="translate(0 12.276) rotate(-45)" fill="#ffae06"/>
      </g>
      <g id="Grupo_1207977" data-name="Grupo 1207977" transform="translate(119.82 25.94)">
        <g id="Grupo_1207966" data-name="Grupo 1207966" transform="translate(3.303 28.734)">
          <path id="Trazado_1049602" data-name="Trazado 1049602" d="M161.365,252.832h-6.637a.65.65,0,0,1-.518-.257L144.4,239.63a.648.648,0,0,1,1.032-.784l9.619,12.688h5.993l9.619-12.688a.649.649,0,0,1,1.034.784l-9.814,12.945a.641.641,0,0,1-.515.257Z" transform="translate(-144.264 -238.59)"/>
        </g>
        <g id="Grupo_1207967" data-name="Grupo 1207967" transform="translate(3.304 28.732)">
          <path id="Trazado_1049603" data-name="Trazado 1049603" d="M168.826,242.993H147.282a.645.645,0,0,1-.516-.257l-2.361-3.115a.65.65,0,0,1,.518-1.042h26.265a.65.65,0,0,1,.518,1.042l-2.361,3.115A.656.656,0,0,1,168.826,242.993Zm-21.221-1.3h20.9l1.378-1.817H146.227Z" transform="translate(-144.274 -238.58)"/>
        </g>
        <g id="Grupo_1207968" data-name="Grupo 1207968" transform="translate(13.118 41.678)">
          <path id="Trazado_1049604" data-name="Trazado 1049604" d="M224.186,343.08a.646.646,0,0,1-.23-.042l-6.637-2.517a.65.65,0,0,1-.419-.607v-4.875a.649.649,0,0,1,1.3,0v4.428l5.34,2.024v-6.452a.649.649,0,0,1,1.3,0v7.393a.648.648,0,0,1-.649.649Z" transform="translate(-216.9 -334.39)"/>
        </g>
        <g id="Grupo_1207969" data-name="Grupo 1207969" transform="translate(0 25.495)">
          <path id="Trazado_1049605" data-name="Trazado 1049605" d="M151.721,219.157H122.089a2.269,2.269,0,1,1,0-4.537H151.72a2.269,2.269,0,0,1,0,4.537Zm-29.632-3.24a.972.972,0,0,0,0,1.943H151.72a.972.972,0,0,0,0-1.943Z" transform="translate(-119.82 -214.62)"/>
        </g>
        <g id="Grupo_1207970" data-name="Grupo 1207970" transform="translate(16.436 47.813)">
          <path id="Trazado_1049606" data-name="Trazado 1049606" d="M242.109,386.277a.649.649,0,0,1-.649-.649v-5.19a.649.649,0,1,1,1.3,0v5.19A.649.649,0,0,1,242.109,386.277Z" transform="translate(-241.46 -379.79)"/>
        </g>
        <g id="Grupo_1207971" data-name="Grupo 1207971" transform="translate(12.477 53.003)">
          <path id="Trazado_1049607" data-name="Trazado 1049607" d="M216.769,424.867a2.052,2.052,0,0,1-1.461-.6l-2.536-2.536a2.066,2.066,0,0,1,1.462-3.527h5.074a2.066,2.066,0,0,1,1.462,3.527l-2.536,2.536a2.068,2.068,0,0,1-1.465.6Zm-2.536-5.37a.769.769,0,0,0-.545,1.312l2.536,2.536a.768.768,0,0,0,1.086,0l2.536-2.536a.769.769,0,0,0-.545-1.312Z" transform="translate(-212.161 -418.2)"/>
        </g>
        <g id="Grupo_1207972" data-name="Grupo 1207972" transform="translate(7.755 3.154)">
          <path id="Trazado_1049608" data-name="Trazado 1049608" d="M186.54,67.94a9.33,9.33,0,1,1,9.33-9.33A9.341,9.341,0,0,1,186.54,67.94Zm0-17.363a8.033,8.033,0,1,0,8.033,8.033A8.042,8.042,0,0,0,186.54,50.577Z" transform="translate(-177.21 -49.28)"/>
        </g>
        <g id="Grupo_1207973" data-name="Grupo 1207973" transform="translate(4.601 0)">
          <path id="Trazado_1049609" data-name="Trazado 1049609" d="M166.354,50.908a12.484,12.484,0,1,1,12.484-12.484A12.5,12.5,0,0,1,166.354,50.908Zm0-23.671a11.187,11.187,0,1,0,11.187,11.187A11.2,11.2,0,0,0,166.354,27.237Z" transform="translate(-153.87 -25.94)"/>
        </g>
        <g id="Grupo_1207974" data-name="Grupo 1207974" transform="translate(13.999 6.96)">
          <path id="Trazado_1049610" data-name="Trazado 1049610" d="M226.506,88.5a3.09,3.09,0,0,1-3.086-3.086.649.649,0,0,1,1.3,0,1.789,1.789,0,1,0,1.789-1.789,3.086,3.086,0,1,1,3.086-3.086.649.649,0,1,1-1.3,0,1.789,1.789,0,1,0-1.789,1.789,3.086,3.086,0,1,1,0,6.172Z" transform="translate(-223.42 -77.45)"/>
        </g>
        <g id="Grupo_1207975" data-name="Grupo 1207975" transform="translate(16.436 5.456)">
          <path id="Trazado_1049611" data-name="Trazado 1049611" d="M242.109,69.121a.649.649,0,0,1-.649-.649v-1.5a.649.649,0,1,1,1.3,0v1.5A.649.649,0,0,1,242.109,69.121Z" transform="translate(-241.46 -66.32)"/>
        </g>
        <g id="Grupo_1207976" data-name="Grupo 1207976" transform="translate(16.436 16.711)">
          <path id="Trazado_1049612" data-name="Trazado 1049612" d="M242.109,152.41a.649.649,0,0,1-.649-.649v-1.5a.649.649,0,1,1,1.3,0v1.5A.648.648,0,0,1,242.109,152.41Z" transform="translate(-241.46 -149.61)"/>
        </g>
      </g>
    </g>
  </g>
</svg>
