<svg xmlns="http://www.w3.org/2000/svg" xmlns:xlink="http://www.w3.org/1999/xlink" width="113" height="113" viewBox="0 0 113 113">
  <defs>
    <filter id="Trazado_982547" x="0" y="0" width="113" height="113" filterUnits="userSpaceOnUse">
      <feOffset dy="3" input="SourceAlpha"/>
      <feGaussianBlur stdDeviation="3" result="blur"/>
      <feFlood flood-opacity="0.161"/>
      <feComposite operator="in" in2="blur"/>
      <feComposite in="SourceGraphic"/>
    </filter>
  </defs>
  <g id="Grupo_1207943" data-name="Grupo 1207943" transform="translate(-200 -2985.574)">
    <g id="Grupo_1200930" data-name="Grupo 1200930" transform="translate(209 2991.574)">
      <g id="Grupo_1200358" data-name="Grupo 1200358">
        <g id="Grupo_1185978" data-name="Grupo 1185978">
          <g id="Grupo_1180760" data-name="Grupo 1180760">
            <g id="Grupo_1174888" data-name="Grupo 1174888">
              <g id="Grupo_1166845" data-name="Grupo 1166845">
                <g id="Grupo_1166720" data-name="Grupo 1166720">
                  <g id="Grupo_1164305" data-name="Grupo 1164305">
                    <g id="Grupo_1163948" data-name="Grupo 1163948">
                      <g id="Grupo_1158168" data-name="Grupo 1158168">
                        <g id="Grupo_1152576" data-name="Grupo 1152576">
                          <g id="Grupo_1148633" data-name="Grupo 1148633">
                            <g id="Grupo_1148525" data-name="Grupo 1148525">
                              <g transform="matrix(1, 0, 0, 1, -9, -6)" filter="url(#Trazado_982547)">
                                <g id="Trazado_982547-2" data-name="Trazado 982547" transform="translate(9 6)" fill="#fff4e6">
                                  <path d="M 47.5 93.5 C 41.28937149047852 93.5 35.26533508300781 92.28397369384766 29.59518623352051 89.88570404052734 C 24.11771965026855 87.56893157958984 19.19813346862793 84.25196075439453 14.97309303283691 80.02691650390625 C 10.74804019927979 75.80186462402344 7.431066513061523 70.88229370117188 5.114293098449707 65.40481567382812 C 2.716026782989502 59.73468017578125 1.5 53.71062850952148 1.5 47.5 C 1.5 41.28937149047852 2.716026782989502 35.26533508300781 5.114293098449707 29.59518623352051 C 7.431066513061523 24.11771965026855 10.74804019927979 19.19813346862793 14.97309303283691 14.97309303283691 C 19.19813346862793 10.74804019927979 24.11771965026855 7.431066513061523 29.59518623352051 5.114293098449707 C 35.26533508300781 2.716026782989502 41.28937149047852 1.5 47.5 1.5 C 53.71062850952148 1.5 59.73468017578125 2.716026782989502 65.40481567382812 5.114293098449707 C 70.88229370117188 7.431066513061523 75.80186462402344 10.74804019927979 80.02691650390625 14.97309303283691 C 84.25196075439453 19.19813346862793 87.56893157958984 24.11771965026855 89.88570404052734 29.59518623352051 C 92.28397369384766 35.26533508300781 93.5 41.28937149047852 93.5 47.5 C 93.5 53.71062850952148 92.28397369384766 59.73468017578125 89.88570404052734 65.40481567382812 C 87.56893157958984 70.88229370117188 84.25196075439453 75.80186462402344 80.02691650390625 80.02691650390625 C 75.80186462402344 84.25196075439453 70.88229370117188 87.56893157958984 65.40481567382812 89.88570404052734 C 59.73468017578125 92.28397369384766 53.71062850952148 93.5 47.5 93.5 Z" stroke="none"/>
                                  <path d="M 47.5 3 C 41.49121475219727 3 35.66376876831055 4.176155090332031 30.17950439453125 6.495796203613281 C 24.88084411621094 8.736953735351562 20.12152099609375 11.94598388671875 16.03375244140625 16.03375244140625 C 11.94598388671875 20.12152099609375 8.736953735351562 24.88084411621094 6.495796203613281 30.17950439453125 C 4.176155090332031 35.66376876831055 3 41.49121475219727 3 47.5 C 3 53.50878524780273 4.176155090332031 59.33623123168945 6.495796203613281 64.82049560546875 C 8.736953735351562 70.11915588378906 11.94598388671875 74.87847900390625 16.03375244140625 78.96624755859375 C 20.12152099609375 83.05401611328125 24.88084411621094 86.26304626464844 30.17950439453125 88.50419616699219 C 35.66376876831055 90.82384490966797 41.49121475219727 92 47.5 92 C 53.50878524780273 92 59.33623123168945 90.82384490966797 64.82049560546875 88.50419616699219 C 70.11915588378906 86.26304626464844 74.87847900390625 83.05401611328125 78.96624755859375 78.96624755859375 C 83.05401611328125 74.87847900390625 86.26304626464844 70.11915588378906 88.50419616699219 64.82049560546875 C 90.82384490966797 59.33623123168945 92 53.50878524780273 92 47.5 C 92 41.49121475219727 90.82384490966797 35.66376876831055 88.50419616699219 30.17950439453125 C 86.26304626464844 24.88084411621094 83.05401611328125 20.12152099609375 78.96624755859375 16.03375244140625 C 74.87847900390625 11.94598388671875 70.11915588378906 8.736953735351562 64.82049560546875 6.495796203613281 C 59.33623123168945 4.176155090332031 53.50878524780273 3 47.5 3 M 47.5 0 C 73.7335205078125 0 95 21.2664794921875 95 47.5 C 95 73.7335205078125 73.7335205078125 95 47.5 95 C 21.2664794921875 95 0 73.7335205078125 0 47.5 C 0 21.2664794921875 21.2664794921875 0 47.5 0 Z" stroke="none" fill="#ff9d1c"/>
                                </g>
                              </g>
                            </g>
                          </g>
                        </g>
                      </g>
                    </g>
                  </g>
                </g>
              </g>
            </g>
          </g>
        </g>
      </g>
    </g>
    <g id="evaluacion_3_" data-name="evaluacion (3)" transform="translate(197.728 2974.483)">
      <g id="Grupo_1207942" data-name="Grupo 1207942" transform="translate(21.009 22.881)">
        <path id="Trazado_1049570" data-name="Trazado 1049570" d="M34.645,71.28H82.783a3.264,3.264,0,0,1,3.255,3.255v61.481a3.264,3.264,0,0,1-3.255,3.255H34.645a3.264,3.264,0,0,1-3.255-3.255V74.535A3.264,3.264,0,0,1,34.645,71.28Z" transform="translate(-31.39 -63.122)" fill="#da3974" fill-rule="evenodd"/>
        <path id="Trazado_1049571" data-name="Trazado 1049571" d="M60.75,103.9h43.926v57.408H70.387l-9.637-9.056Z" transform="translate(-55.389 -89.786)" fill="#a6d2e6" fill-rule="evenodd"/>
        <path id="Trazado_1049572" data-name="Trazado 1049572" d="M60.75,368.72h9.637v9.056Z" transform="translate(-55.389 -306.255)" fill="#5377a2" fill-rule="evenodd"/>
        <path id="Trazado_1049573" data-name="Trazado 1049573" d="M103.971,32.724h7.374A5.558,5.558,0,0,1,111.3,32a5.4,5.4,0,0,1,10.8,0,5.278,5.278,0,0,1-.047.725h7.371a1.649,1.649,0,0,1,1.645,1.645v4.694a1.649,1.649,0,0,1-1.645,1.645H103.971a1.649,1.649,0,0,1-1.641-1.645V34.369a1.65,1.65,0,0,1,1.641-1.645Z" transform="translate(-89.378 -26.6)" fill="#ffd921" fill-rule="evenodd"/>
        <path id="Trazado_1049574" data-name="Trazado 1049574" d="M257.182,231.069l-1.49-3.969h-5.434l-1.49,3.969a19.155,19.155,0,0,0-6.113,2.536l-3.865-1.755-3.84,3.84,1.755,3.865a19.021,19.021,0,0,0-2.531,6.113l-3.975,1.49v5.43l3.975,1.5a19.073,19.073,0,0,0,2.531,6.113l-1.755,3.865,3.84,3.84,3.865-1.755a19.148,19.148,0,0,0,6.113,2.531l1.49,3.975h5.434l1.49-3.975a19.147,19.147,0,0,0,6.113-2.531l3.865,1.755,3.84-3.84-1.755-3.865a19.2,19.2,0,0,0,2.531-6.113l3.975-1.5v-5.43l-3.975-1.49a19.145,19.145,0,0,0-2.531-6.113L271,235.69l-3.84-3.84-3.865,1.755a19.17,19.17,0,0,0-6.113-2.536Z" transform="translate(-193.901 -190.492)" fill="#ffd921" fill-rule="evenodd"/>
        <path id="Trazado_1049575" data-name="Trazado 1049575" d="M295.267,278.86a13.327,13.327,0,1,1-13.327,13.327A13.327,13.327,0,0,1,295.267,278.86Z" transform="translate(-236.194 -232.802)" fill="#a6d2e6" fill-rule="evenodd"/>
        <path id="Trazado_1049576" data-name="Trazado 1049576" d="M324.191,368.35a13.312,13.312,0,0,1-17.681,0v-3.9a4.625,4.625,0,0,1,4.607-4.612h8.466a4.625,4.625,0,0,1,4.607,4.612v3.9Z" transform="translate(-256.278 -298.996)" fill="#6282a9" fill-rule="evenodd"/>
        <path id="Trazado_1049577" data-name="Trazado 1049577" d="M329.943,304.2h1.326a4.787,4.787,0,0,1,4.773,4.773v2.2a4.787,4.787,0,0,1-4.773,4.776h-1.326a4.788,4.788,0,0,1-4.773-4.776v-2.2A4.786,4.786,0,0,1,329.943,304.2Z" transform="translate(-271.531 -253.515)" fill="#f8be9b" fill-rule="evenodd"/>
        <path id="Trazado_1049578" data-name="Trazado 1049578" d="M95.34,145.43h11.1v11.092H95.34Z" transform="translate(-83.664 -123.734)" fill="#ffd921" fill-rule="evenodd"/>
        <path id="Trazado_1049579" data-name="Trazado 1049579" d="M95.34,252.24h11.1v11.092H95.34Z" transform="translate(-83.664 -211.042)" fill="#ffd921" fill-rule="evenodd"/>
      </g>
      <path id="Trazado_1049580" data-name="Trazado 1049580" d="M34.367,70.171a1.46,1.46,0,0,1,2.339-1.749l.579.776,2.463-3.033H33.289v8.178h8.172V68.676l-3.033,3.732a1.46,1.46,0,0,1-2.364.037Zm-2.542-6.925h11.1A1.457,1.457,0,0,1,44.379,64.7V75.8a1.457,1.457,0,0,1-1.459,1.459h-11.1A1.457,1.457,0,0,1,30.366,75.8V64.7A1.457,1.457,0,0,1,31.825,63.246ZM34.367,50.67a1.459,1.459,0,1,1,2.339-1.745l.579.77,2.463-3.033H33.289V54.84h8.172V49.173L38.429,52.9a1.46,1.46,0,0,1-2.364.037Zm-2.542-6.925h11.1A1.457,1.457,0,0,1,44.379,45.2V56.3a1.457,1.457,0,0,1-1.459,1.459h-11.1A1.457,1.457,0,0,1,30.366,56.3V45.2A1.457,1.457,0,0,1,31.825,43.744Zm16.924,5.569a1.462,1.462,0,0,1,0-2.923H62.676a1.462,1.462,0,1,1,0,2.923Zm0,19.925a1.459,1.459,0,0,1,0-2.918h6.091a1.459,1.459,0,1,1,0,2.918Zm0,5.808a1.459,1.459,0,0,1,0-2.918h6.091a1.459,1.459,0,0,1,0,2.918Zm0-19.931a1.459,1.459,0,0,1,0-2.918H62.676a1.459,1.459,0,1,1,0,2.918ZM78.561,72.738h1.331a6.248,6.248,0,0,1,6.232,6.232v2.2a6.194,6.194,0,0,1-.393,2.169,6.086,6.086,0,0,1,3.794,5.456,11.867,11.867,0,1,0-20.593,0,6.088,6.088,0,0,1,3.794-5.456,6.153,6.153,0,0,1-.393-2.169v-2.2A6.239,6.239,0,0,1,78.561,72.738ZM83.98,85.862A6.188,6.188,0,0,1,79.892,87.4H78.561a6.179,6.179,0,0,1-4.088-1.537,3.16,3.16,0,0,0-2.624,3.1v3.224a11.865,11.865,0,0,0,14.756,0V88.963A3.163,3.163,0,0,0,83.98,85.862ZM79.89,75.656c-1.424,0-2.547-.144-3.664.973a3.3,3.3,0,0,0-.973,2.339v2.2a3.323,3.323,0,0,0,3.307,3.312c1.424,0,2.547.144,3.664-.973a3.3,3.3,0,0,0,.973-2.339v-2.2A3.322,3.322,0,0,0,79.89,75.656Zm-.666-7.55A14.787,14.787,0,1,1,64.436,82.894,14.793,14.793,0,0,1,79.223,68.106ZM82.07,64.6l-1.134-3.018H77.514L76.381,64.6a1.591,1.591,0,0,1-1.371.988,18.182,18.182,0,0,0-4.776,1.935c-.663.409-1.17.8-1.988.4l-2.888-1.309-2.412,2.412,1.335,2.945a1.466,1.466,0,0,1-.093,1.382A17.67,17.67,0,0,0,61.841,79a1.458,1.458,0,0,1-.917,1.05l-3.018,1.134v3.422l3.018,1.134a1.45,1.45,0,0,1,.922,1.072,17.9,17.9,0,0,0,2.339,5.625,1.446,1.446,0,0,1,.068,1.439l-1.309,2.888,2.412,2.412,2.951-1.34a1.457,1.457,0,0,1,1.377.1,17.635,17.635,0,0,0,5.647,2.344,1.447,1.447,0,0,1,1.05.917l1.134,3.018h3.422L82.07,101.2a1.45,1.45,0,0,1,1.072-.922,17.845,17.845,0,0,0,5.625-2.339,1.446,1.446,0,0,1,1.439-.068l2.888,1.309,2.412-2.412-1.34-2.951a1.457,1.457,0,0,1,.1-1.377,17.721,17.721,0,0,0,2.344-5.647,1.447,1.447,0,0,1,.917-1.05l3.018-1.134V81.185l-3.018-1.134a1.458,1.458,0,0,1-.922-1.077,17.814,17.814,0,0,0-2.339-5.62A1.456,1.456,0,0,1,94.2,71.91l1.309-2.883-2.412-2.412-2.951,1.335a1.442,1.442,0,0,1-1.377-.1v.005a17.807,17.807,0,0,0-5.647-2.35,1.445,1.445,0,0,1-1.05-.909Zm1.236-4.99,1.216,3.25a20.535,20.535,0,0,1,5.123,2.116l3.08-1.4a1.457,1.457,0,0,1,1.718.259l3.84,3.84a1.46,1.46,0,0,1,.3,1.63l-1.433,3.168A20.467,20.467,0,0,1,99.262,77.6l3.131,1.174a1.465,1.465,0,0,1,1.072,1.408v5.43h-.005a1.463,1.463,0,0,1-.948,1.366l-3.25,1.216a20.534,20.534,0,0,1-2.116,5.123l1.4,3.08a1.466,1.466,0,0,1-.259,1.718l-3.84,3.84a1.46,1.46,0,0,1-1.63.3l-3.168-1.439a20.55,20.55,0,0,1-5.123,2.122l-1.174,3.131a1.465,1.465,0,0,1-1.408,1.072H76.51v-.005a1.457,1.457,0,0,1-1.366-.948l-1.216-3.25a20.515,20.515,0,0,1-5.123-2.122l-3.08,1.4a1.466,1.466,0,0,1-1.718-.259l-.833-.833H23.41a4.731,4.731,0,0,1-4.72-4.72V34.926a4.731,4.731,0,0,1,4.72-4.72h8.426a3.107,3.107,0,0,1,2.914-2.028h5.9a6.861,6.861,0,0,1,13.643,0h5.9a3.115,3.115,0,0,1,2.914,2.028h8.426a4.731,4.731,0,0,1,4.72,4.72v23.75l5.678-.02v.005a1.456,1.456,0,0,1,1.366.946ZM60.249,98.2l-.082-.082a1.449,1.449,0,0,1-.3-1.619H35.148a1.473,1.473,0,0,1-1.072-.471l-9.487-8.917a1.45,1.45,0,0,1-.539-1.134V37.626a1.457,1.457,0,0,1,1.459-1.459h6.138c0-.062-.005-.13-.005-.192V33.129H23.408a1.807,1.807,0,0,0-1.8,1.8V96.4a1.8,1.8,0,0,0,1.8,1.8H60.249Zm.942-4.627.113-.254a20.466,20.466,0,0,1-2.116-5.123l-3.131-1.174a1.465,1.465,0,0,1-1.072-1.408v-5.43h.005a1.457,1.457,0,0,1,.948-1.366l3.25-1.216A20.535,20.535,0,0,1,61.3,72.476l-1.4-3.084a1.45,1.45,0,0,1,.259-1.713l3.84-3.84a1.467,1.467,0,0,1,1.63-.3l2.339,1.066V39.087H26.97V84.513h8.178a1.461,1.461,0,0,1,1.459,1.459v7.6Zm9.71-29.66a20.383,20.383,0,0,1,2.437-.886v-28.1a1.8,1.8,0,0,0-1.8-1.8H63.308v2.846c0,.062-.005.13-.005.192h6.138A1.457,1.457,0,0,1,70.9,37.626V63.909ZM34.75,36.156H60.2a.182.182,0,0,0,.181-.181v-4.7A.182.182,0,0,0,60.2,31.1H52.829V31.09c-.062,0-.124-.005-.186-.011a1.461,1.461,0,0,1-1.258-1.636,3.942,3.942,0,1,0-7.84-.268l.042.46a1.457,1.457,0,0,1-1.459,1.459H34.754c-.248,0-.181.336-.181.575v4.305A.176.176,0,0,0,34.75,36.156Zm-1.061,55.5V87.436H29.2Z" transform="translate(0 0)"/>
    </g>
  </g>
</svg>
