<svg xmlns="http://www.w3.org/2000/svg" xmlns:xlink="http://www.w3.org/1999/xlink" width="93.934" height="93.934" viewBox="0 0 93.934 93.934">
  <defs>
    <filter id="Trazado_982547" x="0" y="0" width="93.934" height="93.934" filterUnits="userSpaceOnUse">
      <feOffset dy="3" input="SourceAlpha"/>
      <feGaussianBlur stdDeviation="3" result="blur"/>
      <feFlood flood-opacity="0.161"/>
      <feComposite operator="in" in2="blur"/>
      <feComposite in="SourceGraphic"/>
    </filter>
  </defs>
  <g id="Grupo_1207980" data-name="Grupo 1207980" transform="translate(-1028.066 -896.864)">
    <g id="Grupo_1206327" data-name="Grupo 1206327" transform="translate(839.066 -3717.169)">
      <g id="Grupo_1183815" data-name="Grupo 1183815" transform="translate(0 4267.973)">
        <g id="Grupo_1181939" data-name="Grupo 1181939" transform="translate(0 -388.939)">
          <g id="Grupo_1175133" data-name="Grupo 1175133" transform="translate(-0.033 -1251)">
            <g id="Grupo_1167337" data-name="Grupo 1167337" transform="translate(198.033 1992)">
              <g id="Grupo_1166720" data-name="Grupo 1166720">
                <g id="Grupo_1164305" data-name="Grupo 1164305">
                  <g id="Grupo_1163948" data-name="Grupo 1163948">
                    <g id="Grupo_1158168" data-name="Grupo 1158168">
                      <g id="Grupo_1152576" data-name="Grupo 1152576">
                        <g id="Grupo_1148633" data-name="Grupo 1148633">
                          <g id="Grupo_1148525" data-name="Grupo 1148525">
                            <g transform="matrix(1, 0, 0, 1, -9, -6)" filter="url(#Trazado_982547)">
                              <g id="Trazado_982547-2" data-name="Trazado 982547" transform="translate(9 6)" fill="#f2f7e5">
                                <path d="M 37.966796875 74.43359375 C 33.04315185546875 74.43359375 28.26757431030273 73.46962738037109 23.77274131774902 71.56847381591797 C 19.43047523498535 69.73184967041016 15.53040790557861 67.10224914550781 12.18087482452393 63.75271987915039 C 8.831341743469238 60.4031867980957 6.201741218566895 56.50312042236328 4.365118980407715 52.16086196899414 C 2.463963508605957 47.66601943969727 1.499996900558472 42.89044189453125 1.499996900558472 37.966796875 C 1.499996900558472 33.04315185546875 2.463963508605957 28.26757431030273 4.365118980407715 23.77274131774902 C 6.201741218566895 19.43047523498535 8.831341743469238 15.53040790557861 12.18087482452393 12.18087482452393 C 15.53040790557861 8.831341743469238 19.43047523498535 6.201741218566895 23.77274131774902 4.365118980407715 C 28.26757431030273 2.463963508605957 33.04315185546875 1.499996900558472 37.966796875 1.499996900558472 C 42.89044189453125 1.499996900558472 47.66601943969727 2.463963508605957 52.16086196899414 4.365118980407715 C 56.50312042236328 6.201741218566895 60.4031867980957 8.831341743469238 63.75271987915039 12.18087482452393 C 67.10224914550781 15.53040790557861 69.73184967041016 19.43047523498535 71.56847381591797 23.77274131774902 C 73.46962738037109 28.26757431030273 74.43359375 33.04315185546875 74.43359375 37.966796875 C 74.43359375 42.89044189453125 73.46962738037109 47.66601943969727 71.56847381591797 52.16086196899414 C 69.73184967041016 56.50313186645508 67.10224914550781 60.4031867980957 63.75271987915039 63.75271987915039 C 60.4031867980957 67.10224914550781 56.50313186645508 69.73184967041016 52.16086196899414 71.56847381591797 C 47.66601943969727 73.46962738037109 42.89044189453125 74.43359375 37.966796875 74.43359375 Z" stroke="none"/>
                                <path d="M 37.966796875 3 C 33.2449836730957 3 28.66600799560547 3.924095153808594 24.35705947875977 5.746635437011719 C 20.19359588623047 7.507637023925781 16.45379638671875 10.02928161621094 13.24153518676758 13.24153518676758 C 10.02927398681641 16.45379638671875 7.507621765136719 20.19359588623047 5.746635437011719 24.35705947875977 C 3.924095153808594 28.66600799560547 3 33.2449836730957 3 37.966796875 C 3 42.6886100769043 3.924095153808594 47.26758575439453 5.746635437011719 51.57653427124023 C 7.507621765136719 55.73999786376953 10.02927398681641 59.47979736328125 13.24153518676758 62.69205856323242 C 16.45379638671875 65.90431976318359 20.19359588623047 68.42597198486328 24.35705947875977 70.18695831298828 C 28.66600799560547 72.00949859619141 33.2449836730957 72.93359375 37.966796875 72.93359375 C 42.6886100769043 72.93359375 47.26758575439453 72.00949859619141 51.57653427124023 70.18695831298828 C 55.73999786376953 68.42597198486328 59.47979736328125 65.90431976318359 62.69205856323242 62.69205856323242 C 65.90431976318359 59.47979736328125 68.42597198486328 55.73999786376953 70.18695831298828 51.57653427124023 C 72.00949859619141 47.26758575439453 72.93359375 42.6886100769043 72.93359375 37.966796875 C 72.93359375 33.2449836730957 72.00949859619141 28.66600799560547 70.18695831298828 24.35705947875977 C 68.42597198486328 20.19359588623047 65.90431976318359 16.45379638671875 62.69205856323242 13.24153518676758 C 59.47979736328125 10.02928161621094 55.73999786376953 7.507637023925781 51.57653427124023 5.746635437011719 C 47.26758575439453 3.924095153808594 42.6886100769043 3 37.966796875 3 M 37.966796875 0 C 58.93528366088867 0 75.93359375 16.99832153320312 75.93359375 37.966796875 C 75.93359375 58.93528366088867 58.93528366088867 75.93359375 37.966796875 75.93359375 C 16.99831008911133 75.93359375 0 58.93528366088867 0 37.966796875 C 0 16.99832153320312 16.99831008911133 0 37.966796875 0 Z" stroke="none" fill="#86b60c"/>
                              </g>
                            </g>
                          </g>
                        </g>
                      </g>
                    </g>
                  </g>
                </g>
              </g>
            </g>
          </g>
        </g>
      </g>
    </g>
    <g id="_x33_1_Marketing_Strategy" transform="translate(1039.987 906.014)">
      <g id="Grupo_1207979" data-name="Grupo 1207979" transform="translate(8.546 8.289)">
        <path id="Trazado_1049613" data-name="Trazado 1049613" d="M295.92,23.2a3.787,3.787,0,0,1-3.736-6.475A12.194,12.194,0,0,0,287.83,14.2a3.781,3.781,0,0,1-7.472,0,12.016,12.016,0,0,0-4.34,2.528,3.779,3.779,0,0,1-3.736,6.461,11.844,11.844,0,0,0,0,5,3.778,3.778,0,0,1,3.736,6.461,12.014,12.014,0,0,0,4.34,2.528,3.783,3.783,0,0,1,7.472,0,12.193,12.193,0,0,0,4.354-2.528,3.783,3.783,0,0,1,3.722-6.475,12.028,12.028,0,0,0,.014-4.972Zm-11.827,6.87a4.383,4.383,0,1,1,4.383-4.383A4.387,4.387,0,0,1,284.093,30.073Z" transform="translate(-243.799 -13.567)" fill="#37d0f9"/>
        <path id="Trazado_1049614" data-name="Trazado 1049614" d="M133,459.081a2.194,2.194,0,1,1-2.19-2.2A2.191,2.191,0,0,1,133,459.081Z" transform="translate(-115.757 -408.843)" fill="#e6e8e7"/>
        <path id="Trazado_1049615" data-name="Trazado 1049615" d="M84.024,285.148a4.875,4.875,0,0,0-2.375,4.07h-4a4.729,4.729,0,0,0-2.279-4.012,8.33,8.33,0,1,1,8.657-.058Z" transform="translate(-64.594 -241.725)" fill="#facb00"/>
        <path id="Trazado_1049616" data-name="Trazado 1049616" d="M139.088,285.176a4.886,4.886,0,0,0-2.381,4.069h-3.45a4.859,4.859,0,0,1,2.373-4.069,8.333,8.333,0,0,0-2.648-15.246,8.336,8.336,0,0,1,6.107,15.246Z" transform="translate(-119.655 -241.751)" opacity="0.18"/>
        <path id="Trazado_1049617" data-name="Trazado 1049617" d="M121.807,452.743v.81a.966.966,0,0,1-.966.966h-5.509a.966.966,0,0,1-.966-.966v-.81a.966.966,0,0,1,.966-.966h5.509A.966.966,0,0,1,121.807,452.743Z" transform="translate(-103.035 -404.284)" fill="#405d6b"/>
        <path id="Trazado_1049618" data-name="Trazado 1049618" d="M157.515,452.745v.81a.968.968,0,0,1-.969.961h-2.189a.961.961,0,0,0,.961-.961v-.81a.963.963,0,0,0-.961-.969h2.189A.97.97,0,0,1,157.515,452.745Z" transform="translate(-138.742 -404.283)" opacity="0.18"/>
        <path id="Trazado_1049619" data-name="Trazado 1049619" d="M491.539,231.692a.627.627,0,0,0,.627-.659c-.015-.284-.034-.567-.056-.85a.641.641,0,0,0-.675-.575.628.628,0,0,0-.575.675q.033.408.055.816A.627.627,0,0,0,491.539,231.692Z" transform="translate(-439.207 -205.906)"/>
        <path id="Trazado_1049620" data-name="Trazado 1049620" d="M474.026,328.687q-.261.765-.567,1.506a.627.627,0,1,0,1.159.478q.321-.777.595-1.579a.627.627,0,1,0-1.186-.4Z" transform="translate(-423.629 -293.996)"/>
        <path id="Trazado_1049621" data-name="Trazado 1049621" d="M265.855,490.923a.626.626,0,0,0,.624.586l.042,0c.564-.037,1.124-.091,1.678-.162a.627.627,0,0,0-.161-1.243q-.792.1-1.6.156A.626.626,0,0,0,265.855,490.923Z" transform="translate(-238.299 -438.499)"/>
        <path id="Trazado_1049622" data-name="Trazado 1049622" d="M448.606,379.257q.486-.689.928-1.409a.626.626,0,1,0-1.067-.656q-.422.685-.886,1.342a.627.627,0,1,0,1.025.723Z" transform="translate(-400.462 -337.42)"/>
        <path id="Trazado_1049623" data-name="Trazado 1049623" d="M488.287,277.963a.626.626,0,1,0,1.235.211q.141-.826.23-1.67a.627.627,0,0,0-1.247-.132Q488.422,277.175,488.287,277.963Z" transform="translate(-436.904 -247.162)"/>
        <path id="Trazado_1049624" data-name="Trazado 1049624" d="M319.541,479.065q.811-.24,1.6-.53a.627.627,0,1,0-.432-1.176q-.751.275-1.524.506a.626.626,0,0,0,.356,1.2Z" transform="translate(-285.518 -427.091)"/>
        <path id="Trazado_1049625" data-name="Trazado 1049625" d="M412.837,421.481c.418-.376.823-.767,1.216-1.168a.626.626,0,1,0-.9-.876q-.562.575-1.159,1.113a.627.627,0,0,0,.839.932Z" transform="translate(-368.608 -375.239)"/>
        <path id="Trazado_1049626" data-name="Trazado 1049626" d="M369.12,455.321q.737-.414,1.443-.872a.627.627,0,1,0-.684-1.051q-.672.437-1.373.831a.626.626,0,1,0,.614,1.092Z" transform="translate(-329.673 -405.64)"/>
        <path id="Trazado_1049627" data-name="Trazado 1049627" d="M220.982,490.305q-.409-.038-.812-.087a.626.626,0,1,0-.155,1.243c.282.035.565.065.849.092a.627.627,0,0,0,.118-1.248Z" transform="translate(-196.879 -438.602)"/>
        <path id="Trazado_1049628" data-name="Trazado 1049628" d="M9.606,272a.627.627,0,0,0-.567.681c.026.283.055.567.09.848a.626.626,0,1,0,1.243-.15c-.033-.27-.06-.541-.085-.813A.62.62,0,0,0,9.606,272Z" transform="translate(-8.984 -243.752)"/>
        <path id="Trazado_1049629" data-name="Trazado 1049629" d="M18.76,168.978a.629.629,0,0,0-.8.381q-.273.77-.5,1.561a.627.627,0,0,0,1.2.348q.218-.755.479-1.49A.627.627,0,0,0,18.76,168.978Z" transform="translate(-16.481 -151.738)"/>
        <path id="Trazado_1049630" data-name="Trazado 1049630" d="M38.425,124.238q.373-.688.788-1.349a.627.627,0,1,0-1.062-.666q-.434.7-.827,1.416a.627.627,0,0,0,1.1.6Z" transform="translate(-34.174 -109.76)"/>
        <path id="Trazado_1049631" data-name="Trazado 1049631" d="M68.247,81.093q-.575.586-1.111,1.207a.626.626,0,0,0,.948.819q.51-.591,1.057-1.148a.626.626,0,1,0-.894-.878Z" transform="translate(-60.725 -73.129)"/>
        <path id="Trazado_1049632" data-name="Trazado 1049632" d="M151.023,25.821q.709-.321,1.439-.6a.627.627,0,1,0-.445-1.172q-.767.293-1.511.63a.626.626,0,0,0,.517,1.141Z" transform="translate(-134.974 -22.327)"/>
        <path id="Trazado_1049633" data-name="Trazado 1049633" d="M201.841,10.874q-.815.121-1.613.288a.627.627,0,1,0,.258,1.227q.761-.16,1.538-.275a.627.627,0,1,0-.183-1.24Z" transform="translate(-179.256 -10.593)"/>
        <path id="Trazado_1049634" data-name="Trazado 1049634" d="M106.21,49.791q.625-.467,1.279-.9a.627.627,0,1,0-.69-1.046c-.455.3-.9.614-1.34.94a.627.627,0,0,0,.751,1Z" transform="translate(-94.856 -43.519)"/>
        <path id="Trazado_1049635" data-name="Trazado 1049635" d="M8.7,220.311q-.1.809-.153,1.632a.626.626,0,1,0,1.25.08q.05-.784.147-1.555a.627.627,0,0,0-1.243-.157Z" transform="translate(-8.546 -197.116)"/>
        <path id="Trazado_1049636" data-name="Trazado 1049636" d="M254.006,8.971a.626.626,0,0,0-.595-.657q-.431-.022-.861-.025h-.006a.627.627,0,0,0-.006,1.253c.27,0,.539.011.81.024h.032A.626.626,0,0,0,254.006,8.971Z" transform="translate(-225.855 -8.289)"/>
        <path id="Trazado_1049637" data-name="Trazado 1049637" d="M291.311,17.853a.628.628,0,0,0-.835-.458,3.162,3.162,0,0,1-3.117-5.4.627.627,0,0,0,.021-.95A12.739,12.739,0,0,0,282.8,8.383a.627.627,0,0,0-.814.5,3.157,3.157,0,0,1-6.235,0,.627.627,0,0,0-.813-.5,12.545,12.545,0,0,0-4.567,2.66.626.626,0,0,0,.027.95,3.154,3.154,0,0,1-3.116,5.389.627.627,0,0,0-.839.458,12.474,12.474,0,0,0,0,5.256.628.628,0,0,0,.836.459,3.154,3.154,0,0,1,3.116,5.39.626.626,0,0,0-.025.948,12.556,12.556,0,0,0,4.567,2.66.628.628,0,0,0,.813-.494,3.159,3.159,0,0,1,6.235,0,.627.627,0,0,0,.813.494,12.737,12.737,0,0,0,4.578-2.658.626.626,0,0,0-.021-.95,3.159,3.159,0,0,1,3.107-5.4.635.635,0,0,0,.52-.038.628.628,0,0,0,.31-.419A12.662,12.662,0,0,0,291.311,17.853Zm-1.121,4.313a4.409,4.409,0,0,0-4.16,7.232,11.45,11.45,0,0,1-2.988,1.737,4.41,4.41,0,0,0-8.346,0,11.279,11.279,0,0,1-2.975-1.734,4.406,4.406,0,0,0-4.171-7.223,10.988,10.988,0,0,1,0-3.413,4.411,4.411,0,0,0,4.174-7.229A11.235,11.235,0,0,1,274.7,9.8a4.409,4.409,0,0,0,8.354,0,11.44,11.44,0,0,1,2.981,1.734,4.415,4.415,0,0,0,4.171,7.235A11.4,11.4,0,0,1,290.19,22.167Z" transform="translate(-238.576 -8.346)"/>
        <path id="Trazado_1049638" data-name="Trazado 1049638" d="M343.036,74.7a5.01,5.01,0,1,0,5.01,5.01A5.016,5.016,0,0,0,343.036,74.7Zm0,8.767a3.757,3.757,0,1,1,3.757-3.757A3.761,3.761,0,0,1,343.036,83.471Z" transform="translate(-302.742 -67.592)"/>
        <path id="Trazado_1049639" data-name="Trazado 1049639" d="M65.465,272.822a8.9,8.9,0,0,0,4.354,7.688,4.113,4.113,0,0,1,1.916,2.85h-.067a1.6,1.6,0,0,0-1.593,1.593v.809a1.6,1.6,0,0,0,1.593,1.593h.008a2.816,2.816,0,0,0,5.492,0h.009a1.6,1.6,0,0,0,1.593-1.593v-.809a1.6,1.6,0,0,0-1.593-1.593h-.062a4.3,4.3,0,0,1,2.015-2.912h0a8.96,8.96,0,1,0-13.664-7.625Zm8.961,15.472a1.573,1.573,0,0,1-1.44-.941h2.872A1.564,1.564,0,0,1,74.426,288.294Zm3.09-3.342v.809a.34.34,0,0,1-.339.339H71.668a.34.34,0,0,1-.339-.339v-.809a.34.34,0,0,1,.339-.339h5.508A.34.34,0,0,1,77.516,284.951ZM75.3,265.164a7.709,7.709,0,0,1,3.166,14.217,5.538,5.538,0,0,0-2.628,3.976H73.006a5.38,5.38,0,0,0-2.541-3.923A7.708,7.708,0,0,1,75.3,265.164Z" transform="translate(-59.369 -236.492)"/>
        <path id="Trazado_1049640" data-name="Trazado 1049640" d="M143.254,223.549v1.174a.627.627,0,0,0,1.253,0v-1.174a.627.627,0,0,0-1.253,0Z" transform="translate(-128.828 -199.937)"/>
        <path id="Trazado_1049641" data-name="Trazado 1049641" d="M222.956,258.545a.626.626,0,0,0-.886,0l-.83.831a.626.626,0,0,0,.886.886l.83-.831A.626.626,0,0,0,222.956,258.545Z" transform="translate(-198.299 -231.581)"/>
        <path id="Trazado_1049642" data-name="Trazado 1049642" d="M255.083,343.913h-1.174a.627.627,0,1,0,0,1.253h1.174a.627.627,0,1,0,0-1.253Z" transform="translate(-227.073 -307.971)"/>
        <path id="Trazado_1049643" data-name="Trazado 1049643" d="M22.89,343.9a.627.627,0,0,0,0,1.253h1.175a.627.627,0,0,0,0-1.253H22.89Z" transform="translate(-20.794 -307.964)"/>
        <path id="Trazado_1049644" data-name="Trazado 1049644" d="M57.886,258.545a.626.626,0,0,0,0,.886l.83.83a.626.626,0,0,0,.886-.886l-.83-.83A.626.626,0,0,0,57.886,258.545Z" transform="translate(-52.438 -231.581)"/>
      </g>
    </g>
  </g>
</svg>
