<svg xmlns="http://www.w3.org/2000/svg" xmlns:xlink="http://www.w3.org/1999/xlink" width="118" height="118" viewBox="0 0 118 118">
  <defs>
    <filter id="Trazado_982547" x="0" y="0" width="118" height="118" filterUnits="userSpaceOnUse">
      <feOffset dy="3" input="SourceAlpha"/>
      <feGaussianBlur stdDeviation="3" result="blur"/>
      <feFlood flood-opacity="0.161"/>
      <feComposite operator="in" in2="blur"/>
      <feComposite in="SourceGraphic"/>
    </filter>
  </defs>
  <g id="Grupo_1208244" data-name="Grupo 1208244" transform="translate(-320.542 -6186.88)">
    <g id="Grupo_1207756" data-name="Grupo 1207756" transform="translate(329.542 6192.88)">
      <g id="Grupo_1176832" data-name="Grupo 1176832">
        <g id="Grupo_1176356" data-name="Grupo 1176356">
          <g id="Grupo_1172970" data-name="Grupo 1172970" transform="translate(0)">
            <g id="Grupo_1171971" data-name="Grupo 1171971">
              <g id="Grupo_1167337" data-name="Grupo 1167337">
                <g id="Grupo_1166720" data-name="Grupo 1166720">
                  <g id="Grupo_1164305" data-name="Grupo 1164305">
                    <g id="Grupo_1163948" data-name="Grupo 1163948">
                      <g id="Grupo_1158168" data-name="Grupo 1158168">
                        <g id="Grupo_1152576" data-name="Grupo 1152576">
                          <g id="Grupo_1148633" data-name="Grupo 1148633">
                            <g id="Grupo_1148525" data-name="Grupo 1148525">
                              <g transform="matrix(1, 0, 0, 1, -9, -6)" filter="url(#Trazado_982547)">
                                <g id="Trazado_982547-2" data-name="Trazado 982547" transform="translate(9 6)" fill="#cee29d">
                                  <path d="M 50 98.5 C 43.45188522338867 98.5 37.10042953491211 97.21787261962891 31.12207221984863 94.68923950195312 C 25.34691429138184 92.24655914306641 20.15995788574219 88.74932861328125 15.70532894134521 84.29468536376953 C 11.2506856918335 79.84004211425781 7.753442764282227 74.65309906005859 5.310757160186768 68.87794494628906 C 2.782128572463989 62.89958572387695 1.5 56.54813003540039 1.5 50 C 1.5 43.45188522338867 2.782128572463989 37.10042953491211 5.310757160186768 31.12207221984863 C 7.753442764282227 25.34691429138184 11.2506856918335 20.15997123718262 15.70532894134521 15.70532894134521 C 20.15997123718262 11.2506856918335 25.34691429138184 7.753442764282227 31.12207221984863 5.310757160186768 C 37.10042953491211 2.782128572463989 43.45188522338867 1.5 50 1.5 C 56.54813003540039 1.5 62.89958572387695 2.782128572463989 68.87794494628906 5.310757160186768 C 74.65309906005859 7.753442764282227 79.84004211425781 11.2506856918335 84.29468536376953 15.70532894134521 C 88.74932861328125 20.15995788574219 92.24655914306641 25.34691429138184 94.68923950195312 31.12207221984863 C 97.21787261962891 37.10042953491211 98.5 43.45188522338867 98.5 50 C 98.5 56.54813003540039 97.21787261962891 62.89958572387695 94.68923950195312 68.87794494628906 C 92.24655914306641 74.65309906005859 88.74932861328125 79.84004211425781 84.29468536376953 84.29468536376953 C 79.84004211425781 88.74932861328125 74.65309906005859 92.24655914306641 68.87794494628906 94.68923950195312 C 62.89958572387695 97.21787261962891 56.54813003540039 98.5 50 98.5 Z" stroke="none"/>
                                  <path d="M 50 3 C 43.65372467041016 3 37.49886322021484 4.242263793945312 31.70639801025391 6.6922607421875 C 26.11003112792969 9.059326171875 21.08335113525391 12.44861602783203 16.76598358154297 16.76598358154297 C 12.44861602783203 21.08335113525391 9.059326171875 26.11003112792969 6.6922607421875 31.70639801025391 C 4.242263793945312 37.49886322021484 3 43.65372467041016 3 50 C 3 56.34629058837891 4.242263793945312 62.50115203857422 6.6922607421875 68.29361724853516 C 9.059326171875 73.88998413085938 12.44861602783203 78.91666412353516 16.76598358154297 83.23403167724609 C 21.08335113525391 87.55138397216797 26.11003112792969 90.940673828125 31.70639801025391 93.3077392578125 C 37.49886322021484 95.75773620605469 43.65372467041016 97 50 97 C 56.34629058837891 97 62.50115203857422 95.75773620605469 68.29361724853516 93.3077392578125 C 73.88998413085938 90.940673828125 78.91666412353516 87.55138397216797 83.23403167724609 83.23403167724609 C 87.55138397216797 78.91666412353516 90.940673828125 73.88998413085938 93.3077392578125 68.29361724853516 C 95.75773620605469 62.50115203857422 97 56.34629058837891 97 50 C 97 43.65372467041016 95.75773620605469 37.49886322021484 93.3077392578125 31.70639801025391 C 90.940673828125 26.11003112792969 87.55138397216797 21.08335113525391 83.23403167724609 16.76598358154297 C 78.91666412353516 12.44861602783203 73.88998413085938 9.059326171875 68.29361724853516 6.6922607421875 C 62.50115203857422 4.242263793945312 56.34629058837891 3 50 3 M 50 0 C 77.6142578125 0 100 22.38577270507812 100 50 C 100 77.6142578125 77.6142578125 100 50 100 C 22.38577270507812 100 0 77.6142578125 0 50 C 0 22.38577270507812 22.38577270507812 0 50 0 Z" stroke="none" fill="#86b60c"/>
                                </g>
                              </g>
                            </g>
                          </g>
                        </g>
                      </g>
                    </g>
                  </g>
                </g>
              </g>
            </g>
          </g>
        </g>
      </g>
    </g>
    <g id="educacion_4_" data-name="educacion (4)" transform="translate(338.515 6193.346)">
      <g id="Grupo_1208233" data-name="Grupo 1208233" transform="translate(1.438 6.014)">
        <path id="Trazado_1050319" data-name="Trazado 1050319" d="M117.729,234.635a16.524,16.524,0,0,0-.1,12.238l1.348,2.64H60.8s-10.832-6.086,0-16.918l57.677-1.189Z" transform="translate(-48.24 -195.301)" fill="#f1f2f2"/>
        <path id="Trazado_1050320" data-name="Trazado 1050320" d="M118.981,249.512H60.8s-10.832-6.087,0-16.918l57.678-1.189-.748,3.229a15.843,15.843,0,0,0-.822,2.624H64.116a3.708,3.708,0,1,0,0,7.415h52.813a14.241,14.241,0,0,0,.7,2.2Z" transform="translate(-48.242 -195.3)" fill="#dee1e1"/>
        <path id="Trazado_1050321" data-name="Trazado 1050321" d="M102.934,241.914l-53.18-.084c-6.371,0-11.843-4.064-11.843-10.436,0-1.407-.245-3.252.216-4.5a11.541,11.541,0,0,1,10.823-7.534h54.558a2.6,2.6,0,0,1,0,5.2H62.217l-4.032.947-3.507-.947H48.95a6.332,6.332,0,0,0,0,12.664h54.558a2.6,2.6,0,0,1,2.584,2.908c-.152,1.293-1.825,1.776-3.158,1.776Z" transform="translate(-33.076 -185.233)" fill="#b7e546"/>
        <path id="Trazado_1050322" data-name="Trazado 1050322" d="M103.886,275.144a2.6,2.6,0,0,1-2.583,2.3l-26.954,1.615-27.6-1.615a11.541,11.541,0,0,1-10.553-16.2v2.372a11.536,11.536,0,0,0,11.537,11.537Z" transform="translate(-30.871 -220.238)" fill="#abd641"/>
        <path id="Trazado_1050323" data-name="Trazado 1050323" d="M149.092,258.678v-7.586h-5.407l-1.92.193.115,7.065a.328.328,0,0,0,.448.305l1.357-.332,1.518-.594a.327.327,0,0,1,.239,0l3.2,1.254A.328.328,0,0,0,149.092,258.678Z" transform="translate(-119.951 -211.759)" fill="#ef5227"/>
        <path id="Trazado_1050324" data-name="Trazado 1050324" d="M142.6,251.1v7.231l-1.684.659a.328.328,0,0,1-.448-.305V251.1Z" transform="translate(-118.869 -211.761)" fill="#d83724"/>
        <path id="Trazado_1050325" data-name="Trazado 1050325" d="M149.836,173.509v3.7l-.164,1.64A1.148,1.148,0,0,1,148.524,180l-43.712-.164a1.147,1.147,0,0,1-1.148-1.148l-.328-5.175,22.439-1.072Z" transform="translate(-87.825 -146.004)" fill="#fdcd08"/>
        <path id="Trazado_1050326" data-name="Trazado 1050326" d="M438.942,197.8c-1.027,2.531-2.06,5.028-3.087,7.559a2.3,2.3,0,0,0,2.109,3.171l1.9.164h4.618a2.3,2.3,0,0,0,2.109-3.171l-2.141-5.278L443.1,197.8h-4.16Z" transform="translate(-365.662 -167.206)" fill="#fdcd08"/>
        <path id="Trazado_1050327" data-name="Trazado 1050327" d="M439.762,198.971a6.235,6.235,0,0,0,3.853-.933l-1.151-2.878-1.9.569h0l-2.48-.331c-.313.773-.769,1.869-1.082,2.642h0l-2.141,5.276a2.3,2.3,0,0,0,2.108,3.17h2.624a2.3,2.3,0,0,1-2.108-3.17l1.6-3.94A.663.663,0,0,1,439.762,198.971Z" transform="translate(-364.829 -165.001)" fill="#faab18"/>
        <path id="Trazado_1050328" data-name="Trazado 1050328" d="M454.779,161.593a3.821,3.821,0,0,0-2.556-3.616c-.386-.134-.946.1-1.376.1a3.221,3.221,0,0,0-3.378,3.512,3.337,3.337,0,0,0,3.655,3.377c.431,0,.713.372,1.1.238A3.821,3.821,0,0,0,454.779,161.593Z" transform="translate(-375.514 -133.882)" fill="#fdcd08"/>
        <path id="Trazado_1050329" data-name="Trazado 1050329" d="M450.892,164.363a3.73,3.73,0,0,1-1.23.207,3.823,3.823,0,0,1,0-7.645,3.73,3.73,0,0,1,1.23.207,3.836,3.836,0,0,0,0,7.231Z" transform="translate(-374.183 -133.036)" fill="#faab18"/>
        <path id="Trazado_1050330" data-name="Trazado 1050330" d="M88.694,26.366,77.875,30.111l-2.952-.3-21,8.594a6.882,6.882,0,0,1-4.5,0l-21-8.259-2.952-.032L14.652,26.366a1.377,1.377,0,0,1,0-2.6l35.18-12.178a5.627,5.627,0,0,1,3.682,0l35.18,12.178A1.377,1.377,0,0,1,88.694,26.366Z" transform="translate(-12.912 -11.277)" fill="#868491"/>
        <path id="Trazado_1050331" data-name="Trazado 1050331" d="M137.741,85.045v1.11l-23.951,8.291a6.882,6.882,0,0,1-4.5,0l-23.95-8.291v-1.11a4.825,4.825,0,0,1,3.976-4.753,125.969,125.969,0,0,1,44.453,0,4.829,4.829,0,0,1,3.976,4.753Z" transform="translate(-72.778 -67.32)" fill="#77777f"/>
        <path id="Trazado_1050332" data-name="Trazado 1050332" d="M151.508,100.092v9.78H105.5l-.164-9.452a1.877,1.877,0,0,1,1.545-1.847c.469-.084.61-.493,1.079-.572a122.979,122.979,0,0,1,42,.244,1.878,1.878,0,0,1,1.545,1.847Z" transform="translate(-89.497 -82.367)" fill="#868491"/>
        <path id="Trazado_1050333" data-name="Trazado 1050333" d="M149.836,177.208v1.8a1.148,1.148,0,0,1-1.148,1.148h-44.2a1.148,1.148,0,0,1-1.148-1.148v-5.5l1.476-1.072,1.476,1.072v2.878a.82.82,0,0,0,.82.82Z" transform="translate(-87.825 -146.004)" fill="#faab18"/>
        <path id="Trazado_1050334" data-name="Trazado 1050334" d="M106.288,106.6v11.87h-2.952v-9.78a1.877,1.877,0,0,1,1.545-1.847C105.35,106.764,105.819,106.682,106.288,106.6Z" transform="translate(-87.825 -90.97)" fill="#77777f"/>
        <path id="Trazado_1050335" data-name="Trazado 1050335" d="M103.178,394.64a15.432,15.432,0,0,1,0-11.811l.5-2.217H36.609s-7.55,8.208.491,16.248l67.014.5Z" transform="translate(-29.355 -320.034)" fill="#f1f2f2"/>
        <path id="Trazado_1050336" data-name="Trazado 1050336" d="M104.113,397.364l-67.013-.5c-8.042-8.04-.49-16.247-.49-16.247l67.39.124-.821,2.091a15.367,15.367,0,0,0-.733,2.237H40.892a3.708,3.708,0,1,0,0,7.415h61.573a15.559,15.559,0,0,0,.713,2.16Z" transform="translate(-29.355 -320.038)" fill="#dee1e1"/>
        <path id="Trazado_1050337" data-name="Trazado 1050337" d="M86.891,382.531l-60.637-.112c-6.371,0-11.977-3.6-11.977-9.967,0-2.022-.495-4.806.419-6.459a11.533,11.533,0,0,1,10.1-5.961H88.03a2.6,2.6,0,0,1,0,5.2H72.363l-4.094.906-3.446-.906H24.8a6.332,6.332,0,0,0,0,12.664H88.03a2.6,2.6,0,0,1,2.56,3.072C90.369,382.186,88.167,382.531,86.891,382.531Z" transform="translate(-13.262 -302.832)" fill="#ef5227"/>
        <path id="Trazado_1050338" data-name="Trazado 1050338" d="M86.1,408.186a2.605,2.605,0,0,1-2.56,2.132H20.3a11.538,11.538,0,0,1-9.733-17.733v4.064a11.536,11.536,0,0,0,11.537,11.537Z" transform="translate(-8.768 -330.044)" fill="#d83724"/>
        <path id="Trazado_1050339" data-name="Trazado 1050339" d="M331.736,399.4v-7.647h-5.079l-2.253.137.121,7.182a.328.328,0,0,0,.448.305l1.684-.46,1.19-.466a.327.327,0,0,1,.239,0l3.2,1.254A.328.328,0,0,0,331.736,399.4Z" transform="translate(-272.635 -329.346)" fill="#fdcd08"/>
        <path id="Trazado_1050340" data-name="Trazado 1050340" d="M325.6,391.745v7.166l-2.012.787a.328.328,0,0,1-.448-.305v-7.648Z" transform="translate(-271.578 -329.342)" fill="#faab18"/>
      </g>
      <path id="Trazado_1050341" data-name="Trazado 1050341" d="M83.716,43.333l-2.73-6.73a5,5,0,0,0-2.536-8.064c0-.324,0-8.43,0-8.773a2.553,2.553,0,0,0-1.738-2.441L42.128,5.352a6.791,6.791,0,0,0-4.425,0L29.092,8.333a1.23,1.23,0,1,0,.8,2.325l8.611-2.981a4.319,4.319,0,0,1,2.815,0L75.907,19.649a.123.123,0,0,1,0,.233L64,24v-.368a3.071,3.071,0,0,0-2.532-3.026,121.7,121.7,0,0,0-43.109,0,3.072,3.072,0,0,0-2.532,3.026V24L3.924,19.882a.123.123,0,0,1,0-.233L24.372,12.57a1.23,1.23,0,1,0-.8-2.325L3.119,17.325a2.583,2.583,0,0,0,0,4.882l12.71,4.4V38.781a12.762,12.762,0,0,0-5.818,23.311,12.765,12.765,0,0,0,2.755,25.23H76a3.832,3.832,0,0,0,.078-7.662,14.093,14.093,0,0,1-.03-10.207A3.832,3.832,0,0,0,76,61.79h-.76a3.83,3.83,0,0,0-3.577-5.2h-.033a14.084,14.084,0,0,1-.232-9.557,3.455,3.455,0,0,0,2.54,1.114H80.5a3.46,3.46,0,0,0,2.873-1.533,3.5,3.5,0,0,0,.34-3.277Zm-4-9.963a2.492,2.492,0,1,1-2.492-2.527A2.512,2.512,0,0,1,79.712,33.37ZM75.99,22.457v6.082A5,5,0,0,0,73.453,36.6L72.6,38.717H64V26.607ZM18.8,23.031a119.273,119.273,0,0,1,42.24,0,.614.614,0,0,1,.506.6v8.384h-7.58a1.23,1.23,0,1,0,0,2.46h7.58v4.238H18.289V34.48H48.221a1.23,1.23,0,1,0,0-2.46H18.289V23.635a.614.614,0,0,1,.506-.6ZM77.37,65.622A1.374,1.374,0,0,1,76,66.994H12.766a7.562,7.562,0,1,0,0,15.124H61.342a1.23,1.23,0,1,0,0-2.46H12.766a5.1,5.1,0,1,1,0-10.2h38.8v6.9a1.23,1.23,0,0,0,1.679,1.145l3.321-1.3,3.321,1.3a1.23,1.23,0,0,0,1.679-1.145v-6.9H73.436a16.51,16.51,0,0,0,.024,10.2H67.082a1.23,1.23,0,0,0,0,2.46H76a1.372,1.372,0,1,1,0,2.744H12.766a10.306,10.306,0,0,1,0-20.612H76a1.374,1.374,0,0,1,1.372,1.372ZM54.022,69.454H59.1v5.093l-2.091-.819a1.229,1.229,0,0,0-.9,0l-2.091.819ZM32.967,59.045H71.661a1.372,1.372,0,0,1,0,2.744H17.1a10.306,10.306,0,0,1,0-20.612H71.6c-.3.816-.866,1.972-1.054,2.744H17.1a7.562,7.562,0,1,0,0,15.124H27.227a1.23,1.23,0,1,0,0-2.46H17.1a5.1,5.1,0,1,1,0-10.2h4.5v6.836a1.23,1.23,0,0,0,1.679,1.145l3.321-1.3,3.321,1.3A1.23,1.23,0,0,0,31.6,53.218V46.382H69.015a16.511,16.511,0,0,0,0,10.2H32.967a1.23,1.23,0,0,0,0,2.46ZM24.061,46.382H29.14v5.034L27.049,50.6a1.229,1.229,0,0,0-.9,0l-2.091.819Zm57.275-1.146a1,1,0,0,1-.832.447H73.936a1,1,0,0,1-.832-.447,1.031,1.031,0,0,1-.1-.978l2.517-6.2a4.924,4.924,0,0,0,3.4,0l2.516,6.2A1.031,1.031,0,0,1,81.336,45.236Z" transform="translate(0 0)"/>
    </g>
  </g>
</svg>
