<svg xmlns="http://www.w3.org/2000/svg" xmlns:xlink="http://www.w3.org/1999/xlink" width="118" height="118" viewBox="0 0 118 118">
  <defs>
    <filter id="Trazado_982547" x="0" y="0" width="118" height="118" filterUnits="userSpaceOnUse">
      <feOffset dy="3" input="SourceAlpha"/>
      <feGaussianBlur stdDeviation="3" result="blur"/>
      <feFlood flood-opacity="0.161"/>
      <feComposite operator="in" in2="blur"/>
      <feComposite in="SourceGraphic"/>
    </filter>
  </defs>
  <g id="Grupo_1208245" data-name="Grupo 1208245" transform="translate(-741 -6186.88)">
    <g id="Grupo_1207757" data-name="Grupo 1207757" transform="translate(750 6192.88)">
      <g id="Grupo_1176832" data-name="Grupo 1176832">
        <g id="Grupo_1176356" data-name="Grupo 1176356">
          <g id="Grupo_1172970" data-name="Grupo 1172970" transform="translate(0)">
            <g id="Grupo_1171971" data-name="Grupo 1171971">
              <g id="Grupo_1167337" data-name="Grupo 1167337">
                <g id="Grupo_1166720" data-name="Grupo 1166720">
                  <g id="Grupo_1164305" data-name="Grupo 1164305">
                    <g id="Grupo_1163948" data-name="Grupo 1163948">
                      <g id="Grupo_1158168" data-name="Grupo 1158168">
                        <g id="Grupo_1152576" data-name="Grupo 1152576">
                          <g id="Grupo_1148633" data-name="Grupo 1148633">
                            <g id="Grupo_1148525" data-name="Grupo 1148525">
                              <g transform="matrix(1, 0, 0, 1, -9, -6)" filter="url(#Trazado_982547)">
                                <g id="Trazado_982547-2" data-name="Trazado 982547" transform="translate(9 6)" fill="#cee29d">
                                  <path d="M 50 98.5 C 43.45188522338867 98.5 37.10042953491211 97.21787261962891 31.12207221984863 94.68923950195312 C 25.34691429138184 92.24655914306641 20.15995788574219 88.74932861328125 15.70532894134521 84.29468536376953 C 11.2506856918335 79.84004211425781 7.753442764282227 74.65309906005859 5.310757160186768 68.87794494628906 C 2.782128572463989 62.89958572387695 1.5 56.54813003540039 1.5 50 C 1.5 43.45188522338867 2.782128572463989 37.10042953491211 5.310757160186768 31.12207221984863 C 7.753442764282227 25.34691429138184 11.2506856918335 20.15997123718262 15.70532894134521 15.70532894134521 C 20.15997123718262 11.2506856918335 25.34691429138184 7.753442764282227 31.12207221984863 5.310757160186768 C 37.10042953491211 2.782128572463989 43.45188522338867 1.5 50 1.5 C 56.54813003540039 1.5 62.89958572387695 2.782128572463989 68.87794494628906 5.310757160186768 C 74.65309906005859 7.753442764282227 79.84004211425781 11.2506856918335 84.29468536376953 15.70532894134521 C 88.74932861328125 20.15995788574219 92.24655914306641 25.34691429138184 94.68923950195312 31.12207221984863 C 97.21787261962891 37.10042953491211 98.5 43.45188522338867 98.5 50 C 98.5 56.54813003540039 97.21787261962891 62.89958572387695 94.68923950195312 68.87794494628906 C 92.24655914306641 74.65309906005859 88.74932861328125 79.84004211425781 84.29468536376953 84.29468536376953 C 79.84004211425781 88.74932861328125 74.65309906005859 92.24655914306641 68.87794494628906 94.68923950195312 C 62.89958572387695 97.21787261962891 56.54813003540039 98.5 50 98.5 Z" stroke="none"/>
                                  <path d="M 50 3 C 43.65372467041016 3 37.49886322021484 4.242263793945312 31.70639801025391 6.6922607421875 C 26.11003112792969 9.059326171875 21.08335113525391 12.44861602783203 16.76598358154297 16.76598358154297 C 12.44861602783203 21.08335113525391 9.059326171875 26.11003112792969 6.6922607421875 31.70639801025391 C 4.242263793945312 37.49886322021484 3 43.65372467041016 3 50 C 3 56.34629058837891 4.242263793945312 62.50115203857422 6.6922607421875 68.29361724853516 C 9.059326171875 73.88998413085938 12.44861602783203 78.91666412353516 16.76598358154297 83.23403167724609 C 21.08335113525391 87.55138397216797 26.11003112792969 90.940673828125 31.70639801025391 93.3077392578125 C 37.49886322021484 95.75773620605469 43.65372467041016 97 50 97 C 56.34629058837891 97 62.50115203857422 95.75773620605469 68.29361724853516 93.3077392578125 C 73.88998413085938 90.940673828125 78.91666412353516 87.55138397216797 83.23403167724609 83.23403167724609 C 87.55138397216797 78.91666412353516 90.940673828125 73.88998413085938 93.3077392578125 68.29361724853516 C 95.75773620605469 62.50115203857422 97 56.34629058837891 97 50 C 97 43.65372467041016 95.75773620605469 37.49886322021484 93.3077392578125 31.70639801025391 C 90.940673828125 26.11003112792969 87.55138397216797 21.08335113525391 83.23403167724609 16.76598358154297 C 78.91666412353516 12.44861602783203 73.88998413085938 9.059326171875 68.29361724853516 6.6922607421875 C 62.50115203857422 4.242263793945312 56.34629058837891 3 50 3 M 50 0 C 77.6142578125 0 100 22.38577270507812 100 50 C 100 77.6142578125 77.6142578125 100 50 100 C 22.38577270507812 100 0 77.6142578125 0 50 C 0 22.38577270507812 22.38577270507812 0 50 0 Z" stroke="none" fill="#86b60c"/>
                                </g>
                              </g>
                            </g>
                          </g>
                        </g>
                      </g>
                    </g>
                  </g>
                </g>
              </g>
            </g>
          </g>
        </g>
      </g>
    </g>
    <g id="tasa-de-empleo" transform="translate(748.864 6180.208)">
      <g id="Grupo_1208234" data-name="Grupo 1208234" transform="translate(4.167 18.435)">
        <path id="Trazado_1050342" data-name="Trazado 1050342" d="M61.569,239.794v35.933H44.614V256.749Z" transform="translate(-38.11 -198.659)" fill="#ff5959"/>
        <path id="Trazado_1050343" data-name="Trazado 1050343" d="M150.14,161.178v48.595H133.185V172.828l10.692-14.6,6.262,2.953Z" transform="translate(-109.726 -132.704)" fill="#ffdf40"/>
        <path id="Trazado_1050344" data-name="Trazado 1050344" d="M238.712,158.224v51.548H221.757V165.033l6.782,1.668Z" transform="translate(-181.343 -132.703)" fill="#94e671"/>
        <path id="Trazado_1050345" data-name="Trazado 1050345" d="M327.284,79.865v58.521H310.329V89.848l15.505-19.91Z" transform="translate(-252.96 -61.317)" fill="#80eaff"/>
        <path id="Trazado_1050346" data-name="Trazado 1050346" d="M301.4,263.465a23.67,23.67,0,1,1-23.67-23.67A23.67,23.67,0,0,1,301.4,263.465Z" transform="translate(-207.465 -198.659)" fill="#f5f5f5"/>
        <path id="Trazado_1050347" data-name="Trazado 1050347" d="M326.453,327.251v17.9a2.411,2.411,0,0,1-2.411,2.411H297.064a2.411,2.411,0,0,1-2.411-2.411v-17.9h31.8Z" transform="translate(-240.285 -269.374)" fill="#68544f"/>
        <path id="Trazado_1050348" data-name="Trazado 1050348" d="M294.38,319.589h5.862v5.862H294.38Zm17.432,5.862h5.862v-5.862h-5.862Zm8.389-20.526H291.776a2.768,2.768,0,0,0-2.768,2.768v4.293l16.98,4.144,16.981-4.144v-4.293a2.768,2.768,0,0,0-2.768-2.768Z" transform="translate(-235.721 -251.322)" fill="#53433f"/>
        <path id="Trazado_1050349" data-name="Trazado 1050349" d="M91.464,24.9,84.8,44.7l-2.172-5.889L56.864,64.574,46.212,53.922,15.57,84.564,10.636,79.63,46.212,44.054,56.864,54.707,77.692,33.879l-6.028-2.31,19.8-6.666Z" transform="translate(-10.636 -24.903)" fill="#4da6ff"/>
      </g>
      <path id="Trazado_1050350" data-name="Trazado 1050350" d="M80.022,58.664V38.005l6.424-19.082a1.531,1.531,0,0,0-1.94-1.94l-19.8,6.666a1.531,1.531,0,0,0-.059,2.881L68.473,28,50.4,46.073l-9.57-9.57a1.532,1.532,0,0,0-2.166,0L3.085,72.079a1.532,1.532,0,0,0,0,2.166l4.934,4.934a1.526,1.526,0,0,0,1.083.449l.039,0V95.5a1.531,1.531,0,0,0,1.531,1.531H53.356A25.2,25.2,0,1,0,80.022,58.664Zm-5.587-.625a25.048,25.048,0,0,0-11.368,2.714V47.6L75.548,35.119l1.344,3.645a1.523,1.523,0,0,0,.067.146V58.165q-1.246-.124-2.524-.126ZM6.333,73.162l33.41-33.41,9.57,9.57a1.531,1.531,0,0,0,2.166,0L72.307,28.494a1.531,1.531,0,0,0-.535-2.513l-2.054-.787,12.841-4.323-4.3,12.759-.669-1.815a1.531,1.531,0,0,0-2.52-.553L50.4,55.94l-9.57-9.57a1.532,1.532,0,0,0-2.166,0L9.1,75.93,6.333,73.162Zm5.87,4L26.095,63.268v30.7H12.2ZM29.158,60.2,39.743,49.619l3.306,3.306V93.972H29.158V60.2ZM46.113,93.972V55.988l3.2,3.2a1.531,1.531,0,0,0,2.166,0L60,50.663V62.591a25.175,25.175,0,0,0-8.368,31.381H46.113Zm28.322,11.406A22.138,22.138,0,1,1,96.574,83.24,22.163,22.163,0,0,1,74.435,105.379ZM88.647,70.507H81.9V68.74a4.212,4.212,0,0,0-4.207-4.207h-7.28A4.212,4.212,0,0,0,66.2,68.74v1.767H60.223a4.3,4.3,0,0,0-4.3,4.3V79.1A1.531,1.531,0,0,0,57,80.562V94.214a3.947,3.947,0,0,0,3.942,3.943H87.924a3.947,3.947,0,0,0,3.942-3.943V80.562A1.531,1.531,0,0,0,92.947,79.1V74.806a4.3,4.3,0,0,0-4.3-4.3ZM69.265,68.74A1.146,1.146,0,0,1,70.41,67.6h7.28a1.146,1.146,0,0,1,1.145,1.145v1.767H69.265ZM58.986,74.806a1.238,1.238,0,0,1,1.237-1.237H88.647a1.238,1.238,0,0,1,1.237,1.237V77.9l-15.449,3.77L58.986,77.9V74.806ZM87.924,95.093H60.946a.881.881,0,0,1-.88-.88v-12.9L74.072,84.73a1.524,1.524,0,0,0,.726,0L88.8,81.313v12.9A.881.881,0,0,1,87.924,95.093ZM68.688,85.17H62.826A1.531,1.531,0,0,0,61.295,86.7v5.862a1.531,1.531,0,0,0,1.531,1.531h5.862a1.531,1.531,0,0,0,1.531-1.531V86.7A1.531,1.531,0,0,0,68.688,85.17Zm-1.531,5.862h-2.8v-2.8h2.8ZM86.121,85.17H80.259A1.531,1.531,0,0,0,78.727,86.7v5.862a1.531,1.531,0,0,0,1.531,1.531h5.862a1.531,1.531,0,0,0,1.531-1.531V86.7A1.531,1.531,0,0,0,86.121,85.17Zm-1.531,5.862h-2.8v-2.8h2.8Z" transform="translate(0 0)"/>
    </g>
  </g>
</svg>
