<svg xmlns="http://www.w3.org/2000/svg" xmlns:xlink="http://www.w3.org/1999/xlink" width="118" height="118" viewBox="0 0 118 118">
  <defs>
    <filter id="Trazado_982547" x="0" y="0" width="118" height="118" filterUnits="userSpaceOnUse">
      <feOffset dy="3" input="SourceAlpha"/>
      <feGaussianBlur stdDeviation="3" result="blur"/>
      <feFlood flood-opacity="0.161"/>
      <feComposite operator="in" in2="blur"/>
      <feComposite in="SourceGraphic"/>
    </filter>
  </defs>
  <g id="Grupo_1208246" data-name="Grupo 1208246" transform="translate(-1161 -6186.88)">
    <g id="Grupo_1207758" data-name="Grupo 1207758" transform="translate(1170 6192.88)">
      <g id="Grupo_1176832" data-name="Grupo 1176832">
        <g id="Grupo_1176356" data-name="Grupo 1176356">
          <g id="Grupo_1172970" data-name="Grupo 1172970" transform="translate(0)">
            <g id="Grupo_1171971" data-name="Grupo 1171971">
              <g id="Grupo_1167337" data-name="Grupo 1167337">
                <g id="Grupo_1166720" data-name="Grupo 1166720">
                  <g id="Grupo_1164305" data-name="Grupo 1164305">
                    <g id="Grupo_1163948" data-name="Grupo 1163948">
                      <g id="Grupo_1158168" data-name="Grupo 1158168">
                        <g id="Grupo_1152576" data-name="Grupo 1152576">
                          <g id="Grupo_1148633" data-name="Grupo 1148633">
                            <g id="Grupo_1148525" data-name="Grupo 1148525">
                              <g transform="matrix(1, 0, 0, 1, -9, -6)" filter="url(#Trazado_982547)">
                                <g id="Trazado_982547-2" data-name="Trazado 982547" transform="translate(9 6)" fill="#cee29d">
                                  <path d="M 50 98.5 C 43.45188522338867 98.5 37.10042953491211 97.21787261962891 31.12207221984863 94.68923950195312 C 25.34691429138184 92.24655914306641 20.15995788574219 88.74932861328125 15.70532894134521 84.29468536376953 C 11.2506856918335 79.84004211425781 7.753442764282227 74.65309906005859 5.310757160186768 68.87794494628906 C 2.782128572463989 62.89958572387695 1.5 56.54813003540039 1.5 50 C 1.5 43.45188522338867 2.782128572463989 37.10042953491211 5.310757160186768 31.12207221984863 C 7.753442764282227 25.34691429138184 11.2506856918335 20.15997123718262 15.70532894134521 15.70532894134521 C 20.15997123718262 11.2506856918335 25.34691429138184 7.753442764282227 31.12207221984863 5.310757160186768 C 37.10042953491211 2.782128572463989 43.45188522338867 1.5 50 1.5 C 56.54813003540039 1.5 62.89958572387695 2.782128572463989 68.87794494628906 5.310757160186768 C 74.65309906005859 7.753442764282227 79.84004211425781 11.2506856918335 84.29468536376953 15.70532894134521 C 88.74932861328125 20.15995788574219 92.24655914306641 25.34691429138184 94.68923950195312 31.12207221984863 C 97.21787261962891 37.10042953491211 98.5 43.45188522338867 98.5 50 C 98.5 56.54813003540039 97.21787261962891 62.89958572387695 94.68923950195312 68.87794494628906 C 92.24655914306641 74.65309906005859 88.74932861328125 79.84004211425781 84.29468536376953 84.29468536376953 C 79.84004211425781 88.74932861328125 74.65309906005859 92.24655914306641 68.87794494628906 94.68923950195312 C 62.89958572387695 97.21787261962891 56.54813003540039 98.5 50 98.5 Z" stroke="none"/>
                                  <path d="M 50 3 C 43.65372467041016 3 37.49886322021484 4.242263793945312 31.70639801025391 6.6922607421875 C 26.11003112792969 9.059326171875 21.08335113525391 12.44861602783203 16.76598358154297 16.76598358154297 C 12.44861602783203 21.08335113525391 9.059326171875 26.11003112792969 6.6922607421875 31.70639801025391 C 4.242263793945312 37.49886322021484 3 43.65372467041016 3 50 C 3 56.34629058837891 4.242263793945312 62.50115203857422 6.6922607421875 68.29361724853516 C 9.059326171875 73.88998413085938 12.44861602783203 78.91666412353516 16.76598358154297 83.23403167724609 C 21.08335113525391 87.55138397216797 26.11003112792969 90.940673828125 31.70639801025391 93.3077392578125 C 37.49886322021484 95.75773620605469 43.65372467041016 97 50 97 C 56.34629058837891 97 62.50115203857422 95.75773620605469 68.29361724853516 93.3077392578125 C 73.88998413085938 90.940673828125 78.91666412353516 87.55138397216797 83.23403167724609 83.23403167724609 C 87.55138397216797 78.91666412353516 90.940673828125 73.88998413085938 93.3077392578125 68.29361724853516 C 95.75773620605469 62.50115203857422 97 56.34629058837891 97 50 C 97 43.65372467041016 95.75773620605469 37.49886322021484 93.3077392578125 31.70639801025391 C 90.940673828125 26.11003112792969 87.55138397216797 21.08335113525391 83.23403167724609 16.76598358154297 C 78.91666412353516 12.44861602783203 73.88998413085938 9.059326171875 68.29361724853516 6.6922607421875 C 62.50115203857422 4.242263793945312 56.34629058837891 3 50 3 M 50 0 C 77.6142578125 0 100 22.38577270507812 100 50 C 100 77.6142578125 77.6142578125 100 50 100 C 22.38577270507812 100 0 77.6142578125 0 50 C 0 22.38577270507812 22.38577270507812 0 50 0 Z" stroke="none" fill="#86b60c"/>
                                </g>
                              </g>
                            </g>
                          </g>
                        </g>
                      </g>
                    </g>
                  </g>
                </g>
              </g>
            </g>
          </g>
        </g>
      </g>
    </g>
    <g id="pasarela-de-pago" transform="translate(1173.875 6196.755)">
      <g id="Grupo_1208242" data-name="Grupo 1208242" transform="translate(1.351 1.351)">
        <g id="Grupo_1208236" data-name="Grupo 1208236">
          <path id="Trazado_1050351" data-name="Trazado 1050351" d="M21.6,34.483c-3.239,0-6.225.13-8.609-1.713a14.107,14.107,0,1,1,17.217,0c-2.384,1.842-5.37,1.713-8.609,1.713Z" transform="translate(-7.498 -7.5)" fill="#bdc6ed"/>
          <path id="Trazado_1050352" data-name="Trazado 1050352" d="M72.817,97.1c-1.061,3.4-6.838,3.1-7.31,0l.229-.064a1.011,1.011,0,0,0,.742-.975V92.221h5.368v3.836a1.011,1.011,0,0,0,.742.975Z" transform="translate(-55.055 -76.956)" fill="#e2dee2"/>
          <g id="Grupo_1208235" data-name="Grupo 1208235" transform="translate(5.498 5.929)">
            <path id="Trazado_1050353" data-name="Trazado 1050353" d="M55.229,123.43v.981a14.067,14.067,0,0,1-17.217,0v-.981a3.646,3.646,0,0,1,2.68-3.521l2.274-.629a4.26,4.26,0,0,0,7.31,0l2.274.629a3.647,3.647,0,0,1,2.68,3.521Z" transform="translate(-38.012 -105.069)" fill="#f2f0f3"/>
            <path id="Trazado_1050354" data-name="Trazado 1050354" d="M60.816,51.545l.624.354a3.254,3.254,0,0,0,3.213,0l.624-.354a5.469,5.469,0,0,0,2.769-4.756V45.4a5,5,0,0,0-10,0v1.389A5.469,5.469,0,0,0,60.816,51.545Z" transform="translate(-54.437 -40.407)" fill="#f2f0f3"/>
          </g>
        </g>
        <g id="Grupo_1208237" data-name="Grupo 1208237" transform="translate(22.548 22.582)">
          <path id="Trazado_1050355" data-name="Trazado 1050355" d="M177.1,155.027a22.133,22.133,0,0,1-2.379,10.015c-1.259.686-1.377,1.227-1.252,2.164a22.21,22.21,0,0,1-17.344,10.012c-.414.023-.831-.476-1.25-.476s-.836.5-1.25.476A22.21,22.21,0,0,1,136.277,167.2c-.228-.348.157-1.236-.052-1.6s-1.012-.194-1.2-.567a22.269,22.269,0,0,1,0-20.03c1.084-.583,1.2-1.03,1.252-2.164a22.211,22.211,0,0,1,17.344-10.012c.414-.023.831.743,1.25.743s.837-.766,1.25-.743a22.211,22.211,0,0,1,17.344,10.012c-.078,1.134.04,1.957,1.252,2.164A22.137,22.137,0,0,1,177.1,155.027Z" transform="translate(-132.646 -132.835)" fill="#ffe177"/>
          <path id="Trazado_1050356" data-name="Trazado 1050356" d="M200.189,186.209c0,8.471-5.511,14.568-13.982,14.568-4.765,0-9.022-1.4-11.836-4.811a15.34,15.34,0,0,1,19.9-22.8C197.867,177.179,200.189,180.7,200.189,186.209Z" transform="translate(-163.981 -164.017)" fill="#ffd15b"/>
          <path id="Trazado_1050357" data-name="Trazado 1050357" d="M213.355,196.641a15.339,15.339,0,0,1-28.082,8.539,15.339,15.339,0,0,0,20.81-21.585A15.32,15.32,0,0,1,213.355,196.641Z" transform="translate(-175.791 -174.449)" fill="#ffc344"/>
        </g>
        <g id="Grupo_1208238" data-name="Grupo 1208238" transform="translate(61.334 61.334)">
          <circle id="Elipse_11586" data-name="Elipse 11586" cx="14.106" cy="14.106" r="14.106" fill="#f28cc4"/>
        </g>
        <g id="Grupo_1208239" data-name="Grupo 1208239" transform="translate(0 61.334)">
          <circle id="Elipse_11587" data-name="Elipse 11587" cx="14.106" cy="14.106" r="14.106" fill="#e2dee2"/>
        </g>
        <g id="Grupo_1208240" data-name="Grupo 1208240" transform="translate(61.334 0)">
          <circle id="Elipse_11588" data-name="Elipse 11588" cx="14.106" cy="14.106" r="14.106" fill="#c8ea88"/>
        </g>
        <path id="Trazado_1050358" data-name="Trazado 1050358" d="M393,393.613a8.992,8.992,0,0,1-4.146-7.574v-5.416a.54.54,0,0,1,.435-.53l.138-.027a18.374,18.374,0,0,0,5.794-2.22l.087-.052a.54.54,0,0,1,.551,0l.087.052a18.374,18.374,0,0,0,5.794,2.22l.138.027a.541.541,0,0,1,.435.53v5.433a8.992,8.992,0,0,1-4.127,7.562l-2.29,1.473a.541.541,0,0,1-.584,0Z" transform="translate(-320.147 -311.014)" fill="#f2f0f3"/>
        <path id="Trazado_1050359" data-name="Trazado 1050359" d="M397,65.177H383.44a1.132,1.132,0,0,1-1.132-1.132V62.016l.753-1.351-.753-1.351V54.695a1.132,1.132,0,0,1,1.132-1.132H397a1.132,1.132,0,0,1,1.132,1.132v4.619l-.821,1.351.821,1.351v2.029A1.132,1.132,0,0,1,397,65.177Z" transform="translate(-314.777 -45.264)" fill="#a79ba7"/>
        <g id="Grupo_1208241" data-name="Grupo 1208241" transform="translate(5.857 67.762)">
          <path id="Trazado_1050360" data-name="Trazado 1050360" d="M47.945,417.342H61.583v6.479H47.945Z" transform="translate(-46.514 -411.261)" fill="#cbc4cc"/>
          <path id="Trazado_1050361" data-name="Trazado 1050361" d="M40,388.955l3.56-4.915a1.081,1.081,0,0,1,.875-.447h7.629a1.081,1.081,0,0,1,.875.447l3.56,4.915Z" transform="translate(-40.003 -383.593)" fill="#cbc4cc"/>
        </g>
      </g>
      <g id="Grupo_1208243" data-name="Grupo 1208243" transform="translate(0 0)">
        <path id="Trazado_1050362" data-name="Trazado 1050362" d="M236.021,208.749c-.3-.107-.594-.2-.871-.3A5.334,5.334,0,0,1,233,207.438a1.644,1.644,0,0,1-.384-1.548,1.4,1.4,0,0,1,.982-.968,2.139,2.139,0,0,1,2.176.5,1.351,1.351,0,1,0,1.965-1.855,4.765,4.765,0,0,0-2.13-1.262v-1.154a1.351,1.351,0,1,0-2.7,0v1.164c-.029.008-.058.014-.088.023a4.131,4.131,0,0,0-2.8,2.8,4.357,4.357,0,0,0,.939,4.071,6.989,6.989,0,0,0,3.331,1.805c.263.088.539.18.826.282a1.638,1.638,0,0,1,1.187,1.92,2.152,2.152,0,0,1-2.136,1.815,3.607,3.607,0,0,1-2.6-.68,1.351,1.351,0,0,0-1.48,2.262,5.839,5.839,0,0,0,2.814,1.074V218.7a1.351,1.351,0,1,0,2.7,0v-1.178a4.929,4.929,0,0,0,3.36-3.856A4.344,4.344,0,0,0,236.021,208.749Z" transform="translate(-188.136 -163.799)"/>
        <path id="Trazado_1050363" data-name="Trazado 1050363" d="M172.3,148.718A23.578,23.578,0,1,0,148.718,172.3a23.338,23.338,0,0,0,10.322-2.375,1.351,1.351,0,1,0-1.185-2.429,20.592,20.592,0,0,1-7.785,2.057v-4.2a16.7,16.7,0,0,0,12.374-7.151l3.636,2.1a20.84,20.84,0,0,1-3.321,3.865,1.351,1.351,0,0,0,1.818,2,23.631,23.631,0,0,0,7.719-17.448Zm-6.219-11.582-3.634,2.1a16.7,16.7,0,0,0-12.374-7.151v-4.2A20.884,20.884,0,0,1,166.076,137.135Zm-18.71-9.248v4.2a16.7,16.7,0,0,0-12.374,7.151l-3.634-2.1a20.883,20.883,0,0,1,16.007-9.248ZM130,139.474l3.633,2.1a16.67,16.67,0,0,0,0,14.292l-3.633,2.1a20.842,20.842,0,0,1,0-18.487Zm1.355,20.826,3.634-2.1a16.7,16.7,0,0,0,12.374,7.151v4.2A20.882,20.882,0,0,1,131.359,160.3Zm17.358,2.405A13.987,13.987,0,1,1,162.7,148.718,14,14,0,0,1,148.718,162.7Zm15.08-6.841a16.67,16.67,0,0,0,0-14.292l3.633-2.1a20.83,20.83,0,0,1,0,18.486Z" transform="translate(-102.593 -102.593)"/>
        <path id="Trazado_1050364" data-name="Trazado 1050364" d="M26.321,206.808a1.351,1.351,0,0,0,.511,1.842l4.972,2.812a1.351,1.351,0,0,0,1.868-.561l2.68-5.242a1.351,1.351,0,1,0-2.406-1.23l-.984,1.924a35.127,35.127,0,0,1,.924-17.943,1.351,1.351,0,0,0-2.574-.823A37.822,37.822,0,0,0,30.47,207.6l-2.307-1.3a1.352,1.352,0,0,0-1.842.511Z" transform="translate(-21.435 -153.018)"/>
        <path id="Trazado_1050365" data-name="Trazado 1050365" d="M210.9,431.213l-5.242-2.68a1.351,1.351,0,0,0-1.23,2.406l1.924.984A35.128,35.128,0,0,1,188.41,431a1.351,1.351,0,1,0-.823,2.574,37.815,37.815,0,0,0,20.015.843l-1.3,2.306a1.351,1.351,0,1,0,2.353,1.331l2.812-4.972a1.351,1.351,0,0,0-.561-1.869Z" transform="translate(-153.018 -351.201)"/>
        <path id="Trazado_1050366" data-name="Trazado 1050366" d="M438.563,191.48a1.351,1.351,0,0,0-.511-1.842l-4.972-2.812a1.351,1.351,0,0,0-1.869.561l-2.68,5.242a1.351,1.351,0,1,0,2.406,1.23l.984-1.924A35.127,35.127,0,0,1,431,209.879a1.351,1.351,0,1,0,2.574.823,37.827,37.827,0,0,0,.842-20.016l2.307,1.3A1.352,1.352,0,0,0,438.563,191.48Z" transform="translate(-351.2 -153.022)"/>
        <path id="Trazado_1050367" data-name="Trazado 1050367" d="M187.39,33.672l5.242,2.68a1.351,1.351,0,0,0,1.231-2.406l-1.924-.984a35.128,35.128,0,0,1,17.943.924,1.351,1.351,0,0,0,.823-2.574,37.826,37.826,0,0,0-20.016-.842l1.3-2.307a1.351,1.351,0,0,0-2.353-1.331L186.829,31.8a1.352,1.352,0,0,0,.561,1.868Z" transform="translate(-153.024 -21.435)"/>
        <path id="Trazado_1050368" data-name="Trazado 1050368" d="M15.457,30.914a15.456,15.456,0,0,0,15.3-13.254,1.351,1.351,0,0,0-2.675-.381,12.635,12.635,0,0,1-3.051,6.586,4.913,4.913,0,0,0-3.411-3.36l-2.183-.6V17.948a6.715,6.715,0,0,0,2.265-5.02V11.569a6.243,6.243,0,0,0-12.485,0v1.359a6.715,6.715,0,0,0,2.265,5.02V19.9L9.3,20.5a4.914,4.914,0,0,0-3.413,3.367,12.751,12.751,0,1,1,21.725-12.3,1.351,1.351,0,1,0,2.575-.822A15.458,15.458,0,1,0,15.457,30.914ZM14.183,20.176v-.668a4.518,4.518,0,0,0,2.55,0v.668a2.328,2.328,0,0,0,.253,1.051,2.138,2.138,0,0,1-3.055,0,2.327,2.327,0,0,0,.253-1.051Zm-2.265-8.607a3.54,3.54,0,0,1,7.08,0v1.359a4.007,4.007,0,0,1-2.025,3.478l-.611.346a1.841,1.841,0,0,1-1.809,0l-.61-.346a4.007,4.007,0,0,1-2.025-3.478Zm-2.872,12.1a2.228,2.228,0,0,1,.971-.562l1.6-.442a4.829,4.829,0,0,0,7.685,0l1.6.442a2.223,2.223,0,0,1,1.632,2.144v.8a12.691,12.691,0,0,1-14.145.014v-.812a2.237,2.237,0,0,1,.66-1.582Z" transform="translate(0 0)"/>
        <path id="Trazado_1050369" data-name="Trazado 1050369" d="M355.877,340.42a15.457,15.457,0,1,0,14.541,20.711,1.351,1.351,0,1,0-2.542-.919,12.761,12.761,0,1,1,.682-5.7,1.351,1.351,0,1,0,2.687-.286A15.417,15.417,0,0,0,355.877,340.42Z" transform="translate(-279.085 -279.085)"/>
        <path id="Trazado_1050370" data-name="Trazado 1050370" d="M15.457,340.42a15.46,15.46,0,0,0-3.51,30.515,1.351,1.351,0,0,0,.612-2.632,12.815,12.815,0,0,1-7.047-4.438,12.615,12.615,0,0,1-2.81-7.987,12.753,12.753,0,1,1,15.561,12.445,1.351,1.351,0,1,0,.592,2.637,15.459,15.459,0,0,0-3.4-30.539Z" transform="translate(0 -279.085)"/>
        <path id="Trazado_1050371" data-name="Trazado 1050371" d="M355.873,30.915a15.458,15.458,0,1,0-15.458-15.458A15.475,15.475,0,0,0,355.873,30.915Zm0-28.213a12.755,12.755,0,1,1-12.755,12.755A12.769,12.769,0,0,1,355.873,2.7Z" transform="translate(-279.081 0)"/>
        <path id="Trazado_1050372" data-name="Trazado 1050372" d="M395.859,372.191a17.024,17.024,0,0,1-5.368-2.058l-.363-.215a1.351,1.351,0,0,0-1.378,0l-.363.215a17.029,17.029,0,0,1-5.369,2.058l-.573.114a1.351,1.351,0,0,0-1.087,1.325v5.859a10.3,10.3,0,0,0,4.769,8.712l2.6,1.666a1.351,1.351,0,0,0,1.459,0l2.582-1.661a10.3,10.3,0,0,0,4.748-8.7V373.63a1.351,1.351,0,0,0-1.088-1.325Zm-11.8,7.3v-4.758a19.692,19.692,0,0,0,4.027-1.386v12.9l-.5-.323A7.607,7.607,0,0,1,384.06,379.489Zm10.757.017a7.609,7.609,0,0,1-3.507,6.426l-.52.334V373.346a19.7,19.7,0,0,0,4.027,1.386Z" transform="translate(-312.646 -303.114)"/>
        <path id="Trazado_1050373" data-name="Trazado 1050373" d="M377.292,60.38h13.556A2.486,2.486,0,0,0,393.33,57.9v-9.35a2.486,2.486,0,0,0-2.483-2.483H377.292a2.486,2.486,0,0,0-2.483,2.483V57.9A2.485,2.485,0,0,0,377.292,60.38Zm.22-2.7V55.868h13.116v1.809Zm13.116-8.911v4.4H377.511v-4.4Z" transform="translate(-307.278 -37.764)"/>
        <path id="Trazado_1050374" data-name="Trazado 1050374" d="M33.042,393.578a1.351,1.351,0,0,0,1.351,1.351H50.7a1.351,1.351,0,0,0,.018-2.7v-4.987a1.351,1.351,0,0,0-.018-2.7h-.256l-2.988-4.126a1.352,1.352,0,0,0-1.094-.559H38.732a1.351,1.351,0,0,0-1.094.559l-2.988,4.126h-.256a1.351,1.351,0,0,0-.018,2.7v4.987A1.351,1.351,0,0,0,33.042,393.578Zm4.036-6.336h1.844v4.985H37.078Zm10.936,0v4.985H46.171v-4.985Zm-4.546,4.985H41.625v-4.985h1.843Zm-4.046-9.67h6.249l1.435,1.982h-9.12Z" transform="translate(-27.089 -311.415)"/>
      </g>
    </g>
  </g>
</svg>
